<svg xmlns="http://www.w3.org/2000/svg" xmlns:xlink="http://www.w3.org/1999/xlink" viewBox="0 0 1920 1690"><defs><linearGradient id="a" x1="1044.92" y1="1274.42" x2="1044.92" y2="2285.07" gradientTransform="matrix(1 0 0 -1 -84.56 1719)" gradientUnits="userSpaceOnUse"><stop offset="0" stop-color="#ff4304"/><stop offset="1" stop-color="#c10000"/></linearGradient><linearGradient id="b" x1="1044.67" y1="1257.04" x2="1044.67" y2="122.69" gradientTransform="matrix(1 0 0 -1 -84.56 1719)" gradientUnits="userSpaceOnUse"><stop offset="0" stop-color="#ff4304"/><stop offset=".21" stop-color="#fd391d"/><stop offset=".54" stop-color="#fa2a41"/><stop offset=".82" stop-color="#f82157"/><stop offset="1" stop-color="#f71e5f"/></linearGradient><linearGradient id="c" x1="336.43" y1="380.55" x2="336.43" y2="476.61" gradientTransform="matrix(1 0 0 -1 -84.56 1719)" gradientUnits="userSpaceOnUse"><stop offset="0" stop-color="#ff1d00" stop-opacity=".8"/><stop offset="1" stop-color="#f60bc5" stop-opacity="0"/></linearGradient><linearGradient id="d" x1="644.61" y1="37.97" x2="644.61" y2="316.44" xlink:href="#c"/><linearGradient id="e" x1="945.04" y1="267.3" x2="945.04" y2="401.02" xlink:href="#c"/><linearGradient id="f" x1="1772.99" y1="316.58" x2="1772.99" y2="503.79" xlink:href="#c"/><style>.m{opacity:.2}.j,.k,.l,.m,.n{isolation:isolate}.i,.j,.k,.l,.m,.n{fill:#ffdbcf}.j{opacity:.4}.k{opacity:.6}.l{opacity:.3}.n{opacity:.1}.p{fill:#c63838}</style></defs><path d="M1921.05-77.86c-18.62-12.32-21.9-56.46-23-75.06-1.78-36.71-2.55-73.42-3.83-110.37-.5-13.92-9.43-24.16-21.17-24.16-10.72 0-19.14 10.21-18.37 23.92 1.53 24.64 6.63 47.88 1.78 72.51-1.27 6.27-3 12.77-11 15.1a19 19 0 0 1-15-2.53c-9.44-6.5-12-17-15.56-26.72-10.94-29.51-33.67-53.45-48-81.33-8.68-16.46-9.45-36.71-11-54.84-4.08-45.08-4.85-90.87-4.08-136.17.25-13.24.25-26.73 1.78-40.21 1.54-13 2.81-26.25 1.27-39a9.65 9.65 0 0 0-1.52-3.71c-5.36-7-16.58-7.44-23-1.4a18.19 18.19 0 0 0-3.82 5.06c-2.55 5.58-.26 12.79 0 19.29 2 64.56 4.38 129.67 3 194.27-.25 18.12-3.82 36.95-14.79 51.82-11.23 15.1-31.64 25.32-51 21.61-17-3.33-31.33-16.48-38-34.86s-5.1-38.8-6.13-57.62c-.76-14.18.77-30 3.29-44.16 2.3-13 1.28-28.58-18.11-28.58-13.79 0-15.33 9.53-15.06 19 .26 5.06 1.54 10 1.54 15.11 1 33.23 3 66.22 1.52 99.45-1.27 28.58-1.52 77.61-33.16 93.67-12 6-27 5.59-40.31 2.33-17.36-4-33.94-12.31-43.63-26-13.52-18.83-11-41.84-8.94-63 1.29-14.88 9.19-34.18 7.15-49-1.53-11.39-14.23-20.46-26.79-19.76-14.46 1-23.22 9.6-19.86 21.24 6.13 22.53 12.25 45.31 14 68.55 2 27.65-6.12 49.27-16.84 74.13-5.1 11.62-14.54 23.7-21.69 34.39-19.89 30.21-55.61 24.87-72.7-2.53-14.81-23.47-20.16-51.13-26.79-77.38-1.79-7-3.29-13.93-4.85-20.91a354.46 354.46 0 0 1-6.64-59c-.5-13.93-.5-46.24 1-59.95 1.53-12.55 7.92-24.64 6.64-37.41-1-10.46-17.35-31.37-29.85-18.6a17.35 17.35 0 0 0-4.85 12.79c3.07 76.91 2 174-19.39 249.1-1 3.49-2 7-4.6 9.53-2.8 2.79-6.88 4-10.7 4.87-11.74 2.54-31.13-57.39-39.81-2.53-1.53 10.46-15.33 38.35-26.53 33.7-9.45-4-12.25-23.47-22.2-20.25-.5.22-8.16 9.76-9.19 10.45-9.69 8.6-16.32-66.92-31.89-81.09-8.42-7.67-26.27-9.3-33.41.7l-.26.22c-2.56 3.49-3.29 7.68-4.38 11.85-1.27 4.89-6.64 43.46-11.49 44.16-9.69 1.63-13.26-8.13-17.59-13.93-8.68-10.92-26.28-11.86-36.24-1.86l-11.74 11.85c-38.51-7-43.11-47.17-52-82-.76-2.78-1.27-5.58-2-8.37-11.48-46.47-16.84-147.55-6.12-194.49 2-8.6 4.85-17.43 2.8-26s-11.48-14.41-20.92-15.11a20.73 20.73 0 0 0-11.22 2.32c-6.89 4.42-6.38 11.39-5.62 17.72 4.09 38.57 9.19 123.63 8.42 162.44-1.22 55-13.73 110.7-34.13 162.31-1 2.53-2 5.07-4.08 7-3.06 2.78-7.66 3.71-12 4.4-10 1.64-20.41 3-29.56-.45-10.2-3.95-16.59-13.48-21.17-22.79-11.74-23.94-25.77-36.95-51-48.8a39.93 39.93 0 0 1-5.36-3 25.69 25.69 0 0 1-4.59-5.57c-17.61-27.43-26-60.66-19.64-92 1.78-9.29 4.85-15.57 3.82-24.86-.26-1.87-1.53-3.49-3.57-5.07a9.77 9.77 0 0 0-12.51-.23 14.85 14.85 0 0 0-4.58 5.35c-1.79 4-.52 9.53 1 14.17 6.88 20.26 3.56 40.9 3.83 60.88 0 13.71-10.72 23.94-20.67 33.47-13.78 13-49.75 9.52-54.35-6-4.59-15.8-17.6-33-7.14-121.53.51-5.06 3.82-10.68 3.57-15.79-.76-7.45-5.1-14.18-14.79-14.18-10 0-11.23 7-11 13.92a39.32 39.32 0 0 0 1.28 10.93c16.84 63.9 9.44 144.31-6.88 166.61-12.25 16.73-19.14 24.86-39 22.79-21.43-2.53-35-15.34-37.5-35.09-2.3-17.66-4.6-35.56-7.15-53.17-1.27-8.37-10.45-14.87-19.39-14.4-10.45.69-14 6.5-14.54 15.57-1.53 32.76-4.38 65.82-4.6 98.52 0 19-14.79 30-32.91 32.3-13.77 1.63-26.27-5.81-28.06-19-1.28-10-8.41-20.92-12.75-32.3-3.28-8.86-6.63-17.89-8.68-26.72-14.54-56.48-.77-154.77-1-187.06 0-6.51 2-13.71-.25-19.52-1.53-4.42-7.67-9.07-12.76-10-6.89-1.41-12.25 2.78-12 10.21 0 4.65.77 9.54.77 14.18-.25 35.79 4.08 71.57 4.38 107.36.26 49-8.16 93.68-20.93 141.05-1.27 4.88-2.8 10.22-7.39 12.78-4.08 2.53-9.7 1.86-14.55.7-25.25-7-24.74-32.31-44.64-42.07-24-11.61-28.32 38.35-39.8 46a19.62 19.62 0 0 1-9.44 3c-11.48.93-22.2-6.05-28.32-14.87-9.18-13-11.48-30.67-17.85-44.85-2.82-6-6.13-16-12.51-20-11.23-7-16.07 4.19-22.2 11.86a2.49 2.49 0 0 1-3.81.66 3 3 0 0 1-.57-.66c-36.74-30.22-39-86.45-27.55-127.35 2.29-7.9 0-13.24-3.83-17.88-2.55-3.26-10.2-5.36-14.55-4.42-4.07.92-9.17 6.51-9.43 10.23-.51 9.05 2 18.11 2.81 27.18 1.27 15.1 10.2 24.16 2.55 72.51-2.81 17-7.15 33.92-11.23 50.63-3.57 15.57-6.37 31.37-11 46.71-2.8 9.29-10.2 16-21.69 18.13-6.63 1.16-10.45 8.13-14.28 15.8a53.92 53.92 0 0 1-28.06 25.8C4.77-79-.33-77.54-.33-77.54v522.12h1921.38z" style="fill:url(#a)"/><path d="M-.82 758.36v474.18l.89 1.14c8.61 11 17.44 19.48 45.71 19.48 1.48 0 3 0 4.66-.06s3.07-.14 4.71-.3l8.65-.85 2 6.81c9.86 33.72-3 92.41-11.57 131.26-5.79 26.4-10.79 49.19-10.41 64.41 1.1 42.92 36.53 62.47 69 62.47 34.38 0 70.59-21.52 73.28-62.51 1.94-29.61-6.57-59.75-14.87-88.89-2.46-8.67-4.77-16.81-6.79-24.86-.88-3.56-1.9-7.35-3-11.31-6.07-22.4-14.35-53-4.18-72.71 5.68-11 13.84-17.34 22.42-17.34 10.28 0 22.13 8.4 31 21.92 4.26 6.52 2.13 15.32-.33 25.5-2.85 11.81-6.08 25.19.4 38.62 8.07 16.71 26.74 27.1 48.7 27.1 25.49 0 47.95-13.49 53.41-32.09 2.38-8.18.94-17.37-.48-26.25s-2.19-15.74-1.22-19.69l1.09-4.58 5.48-1.39a55.29 55.29 0 0 1 14.1-1.27c5.14.08 11.58.18 14.78 7.6 3.28 7.59 3.15 19.86 3 31.64-.25 21-.54 44.72 17.7 59.5 10.06 8.17 24.18 12.31 41.95 12.31 13.87 0 30.16-2.44 49.77-7.45l3.14-.8c11.18-2.87 21.74-5.58 30.19-5.58 7.4 0 13.77 1.91 20.8 11.22 12.95 17.2 8.13 36 3 56-1.34 5.22-2.72 10.61-3.83 16.12-1.62 8.1-3.16 15.75-3.93 22.1-.66 5.34-2 13.13-3.59 22.13-12 68.65-21.7 144.73 15.05 178.72 12 11 28.29 16.9 47.21 16.9 1.39 0 2.8 0 4.24-.11 24.53-1.06 44.8-9.29 58.63-23.79 26.2-27.5 30.24-76.49 12-145.58q-.95-3.65-2.06-7.32l-3.28-11-11.48-31.41c-10.25-28-19.28-55.19-17.23-80.29 1.15-13.93 14-28.07 25.48-28.07 4 0 8.3 1.75 12.79 5.2 17.11 13.18 13 33.45 4.86 62.84-2.84 10.23-5.77 20.8-6.57 30.38-.21 2.53-.32 5.06-.31 7.6l.1 23.19 13.06 15.19a53.13 53.13 0 0 0 5.41 5.41c10.11 8.68 23.6 13.46 38 13.46 16 0 31-5.87 41.36-16.11 12.35-12.27 16.42-29.19 11.57-47.7-1.37-5.18-3.28-11.21-5.37-17.59-11.32-35.18-28.47-88.34 13.56-100.77a29.09 29.09 0 0 1 8.09-1.34c10.83 0 20.3 8.86 34 53 2.12 6.77 4.1 13.17 6.27 18.58 13.35 33.59 37.61 54.44 63.3 54.44 26.48 0 45.07-20.18 52.36-56.83.34-1.71.67-3.43 1-5.13 3.35-17.79 5.77-27.36 20.26-33.15a30.4 30.4 0 0 1 11.38-2.38c10.88 0 22.59 7.1 36.13 15.32 13.8 8.37 29.44 17.85 48.87 22.26a93.24 93.24 0 0 0 20.47 2.54c41.07 0 52.74-31 61.26-53.72 5.93-15.78 9.51-22.87 13.23-26.15l3.29-2.91 9.85.89 2.5 3c2.44 2.89 5.68 8.86 7.24 20.92 1.62 12.44.79 25.94.24 34.88l-.15 2.53c-.62 10.57-2.5 24.28-4.67 40.16-8.29 60.6-18.62 136 18 170.52 11.68 11 27.68 17.16 46.3 17.87h2.76c16.61 0 30.65-5.86 40.57-17 22.43-25.09 23.71-83.83 3.51-161.15l-5.47-21-6.15-17.55c-1.53-4.37-2.93-8.09-4-10.76-1.65-3.91-3.38-7.76-4.9-11.15-9.85-21.9-14.48-34-4.52-49.86 5.48-8.74 13-13.55 21-13.55 12.42 0 23.54 10 24.79 22.33.81 8-2.66 19.09-6 29.81-3 9.73-6.49 20.74-7.33 31.55l-1.59 20.37 11.7 13.78c10.95 12.86 34 21.17 58.79 21.17 21.67 0 40.2-6.53 50.85-17.94 26.16-28 6.56-60-6.37-81.09-4.25-7-6.56-11-7.54-13.48l-.39-2c-.52-12.26-.17-53.81 25.85-73.66 9.41-7.2 21.6-10.54 38.31-10.54 12.83 0 26.49 1.82 40.94 3.79 16.12 2.17 32.94 4.4 48.54 3.89 26.06-.86 47.81-8.86 66.51-24.39 7.13-5.94 22.84-12.36 35.77-12.36 12.4 0 15 6.75 16 14v1c-.14 4.21-2.78 12.94-8.27 29.75-13.05 40-30.93 94.69-2.41 124.41 8.31 8.65 24.49 19 54.48 19 3.28 0 6.71-.11 10.21-.35 23.76-1.62 41.26-8.62 52-20.83 21.68-24.6 9.58-62.24-2.14-98.65-4.79-14.91-9.33-29-11-40.77-1.49-10.25-.26-15.62 1-18.31l1.55-3.21 4-1.27a39 39 0 0 1 11.36-1.26 106.42 106.42 0 0 1 12.86.87 317.22 317.22 0 0 0 38.93 2.7c39.61 0 69-10.67 103.6-27.85.69-.34 1.37-.72 2.06-1.09V758.28z" style="isolation:isolate;opacity:.2;fill:#2d201f"/><path d="M1898.57 1195.52c-37.73 18.78-62 25.44-92.9 25.44a294.76 294.76 0 0 1-35.85-2.53c-23.57-2.91-38.81 0-47.39 8.86-14.52 15.06-5.08 44.38 4.9 75.42 10.55 32.76 21.46 66.65 5.22 85.06-7.25 8.21-19.4 12.78-37.16 14-21.78 1.45-37.67-2.71-46.89-12.3-22.41-23.36-6-73.61 6-110.32 5.39-16.45 9.65-29.52 8.83-36.1-3-24-21.36-29.12-36.25-29.12-19.22 0-40.3 8.87-50.36 17.33-15.1 12.57-31.85 18.74-52.71 19.42-13.76.45-28.53-1.54-44.37-3.67-14.64-2-29.77-4-44.3-4-22.26 0-38.91 4.79-52.34 15-32.53 24.84-32.84 72.89-32.13 87 .26 5.29 4.77 12.66 10 21.15 11.41 18.6 27 44 8.34 64.07-6.77 7.25-19.37 11.39-34.59 11.39-18.25 0-35.21-5.75-42.2-14.29-11.59-14.14-5.48-33.52.35-52.28 3.93-12.55 7.66-24.41 6.56-35.09-2.11-21-21.89-37.35-45-37.35-16.16 0-30.08 8-39.19 22.52-14.36 22.89-6.07 41.36 3.55 62.75 1.47 3.31 3.15 7 4.75 10.83 6.92 16.54 19.45 56.33 25.63 98.15 5 33.5 7.09 77.62-10.72 97.48-6.35 7.1-15.14 10.48-25.86 10.12-13-.49-23.75-4.58-31.75-12.16-30.94-29.12-20.72-103.8-13.27-158.24 2.19-16.09 4.11-30 4.76-41.06l.16-2.53c1.28-20.94 4.29-70-28.37-75.65a48.79 48.79 0 0 0-8.44-.77c-24.17 0-31.54 19.59-39.33 40.33s-15.82 42.1-41.8 42.1a68.65 68.65 0 0 1-14.94-1.86c-15.76-3.58-29.18-11.71-42.15-19.58-15.8-9.57-30.65-18.62-48.4-18.62a54.29 54.29 0 0 0-20.41 4.08c-24.65 9.85-27.9 27.17-31.35 45.58-.31 1.59-.62 3.2-.93 4.81-7.45 37.47-23.43 43-32.3 43-16.28 0-33.53-16.92-43.95-43-2-4.93-3.86-11-5.9-17.57-8.59-27.61-20.36-65.43-53.75-65.43a53.71 53.71 0 0 0-15.11 2.36c-59.28 17.54-39.41 79.27-26.28 120.12 2 6.23 3.91 12.11 5.19 17 3.59 13.57.93 25.66-7.47 34a36.75 36.75 0 0 1-25.58 10.13 35.36 35.36 0 0 1-23.14-8.31c-6.86-5.88-14.64-17.47-12.82-39.15.7-8.41 3.28-17.91 6.14-28 7.51-27 16-57.65-10.64-78.17a43.44 43.44 0 0 0-26.86-9.76c-24.86 0-44.06 22.79-45.74 43.33-2.5 30.38 9.12 61.93 20.36 92.41 5.38 14.6 10.46 28.38 14.06 42 11.67 44.15 19.71 103-8.23 132.27-10.25 10.76-24.91 16.62-43.58 17.43-14.52.58-26.27-3.17-35-11.22-33.76-31.2-18.47-118.79-10.25-165.83 1.59-9.12 3-17 3.66-22.67s2.19-13.29 3.8-21.18c5.39-26.85 12.76-63.62-1.87-83.06-9.86-13-21.9-19.11-38.17-19.11-11.64 0-23.66 3.09-36.39 6.33l-3.1.79c-17.35 4.43-32 6.68-43.62 6.68-12.32 0-21.32-2.44-27.51-7.47-12.27-10-12-29.21-11.81-47.85.34-28.37.66-55.15-37.73-55.76-16.34-.27-27.54 2.6-34.33 8.77-10 9.17-7.84 23.07-5.72 36.51 1.24 7.77 2.4 15.19.85 20.43-3.29 11.29-17.45 19.48-33.62 19.48-13.59 0-24.7-6.22-29.75-16.67-4.38-9-1.84-19.49.6-29.59 2.93-12.09 5.95-24.61-1.62-36.21-12.72-19.48-30.57-30.67-49-30.67-17.2 0-32.21 10-41.19 27.43-12.6 24.48-3.9 56.57 3.07 82.36 1.09 3.92 2.07 7.6 2.94 11.13 2 8.17 4.38 16.45 6.89 25.31 8 28.06 16.18 57.06 14.39 84.4-2 30.88-28.18 47-53 47-23.63 0-47.83-14.37-48.65-46.46-.35-13.62 4.49-35.7 10.1-61.26 12.19-55.49 27.37-124.56 1-158.74l-1.64-2.04-3 .83c-6.33 1.78-14.41 3.8-20.8 4-22.76.6-25.94-3.38-32.48-11.76a86 86 0 0 0-8.4-9.6v13.92a24.92 24.92 0 0 0 10 9.27 60.31 60.31 0 0 0 28.32 6.78c1.89 0 23.78-4.5 22.9-5.8 22.51 32.92 5.58 99-6.1 152.16-5.68 25.88-10.58 48.21-10.21 62.46.93 36.38 31.5 66.33 59 66.33 28.47 0 58.56-31.87 60.84-66.68 1.85-28.24-6.57-57.83-14.66-86.47-2.43-8.6-4.74-16.73-6.75-24.8-.88-3.48-1.87-7.17-3-11.24-6.73-24.92-15.13-55.93-3.47-78.57 7.66-15 20.05-23.52 33.94-23.52 15.33 0 30.65 10 42 27.28 6.29 9.63 3.53 21 .86 32.07s-5.39 24.28-.21 35a40.92 40.92 0 0 0 37.1 22.67c19.79 0 37.16-14.15 41.3-28.28 1.88-6.42.63-14.33-.69-22.7-1.91-12-3.88-24.48 3.81-31.49 5.18-4.73 14.37-6.9 28.25-6.64 30.58.5 30.3 24.24 30 49.37-.24 19.93-.49 40.51 14.09 52.37 7.76 6.33 18.62 9.34 33.12 9.34 12.41 0 27.89-2.35 46-7l3.11-.8c12.13-3.11 23.59-6.06 33.94-6.06 13.19 0 23.18 5.06 31.42 16 13.14 17.45 6 52.92.82 78.82-1.59 8-3.1 15.47-3.85 21.52-.67 5.52-2.05 13.41-3.64 22.55a670.54 670.54 0 0 0-10 108.78c-.37 30.14 2.53 72.67 47.4 81.7 31.46 6.33 65.89-9.46 77.13-32.65 12.81-26.45 9.65-59.14 6.57-86.82a302.44 302.44 0 0 0-8.49-44.21c-3.67-13.86-8.76-27.79-14.24-42.52-11-30-22.45-61-20-90.21 1.44-17.72 17.36-37.41 37.87-37.41a34.92 34.92 0 0 1 21.4 8c23.44 18.06 15.44 46.84 8.39 72.26-2.86 10.3-5.56 20-6.31 28.9-2 24 7 44.91 14.93 51.71a44.15 44.15 0 0 0 28.79 10.41c12.19 0 23.74-4.54 31.75-12.42 9.94-9.86 13.13-31.65 9.06-47.12-1.31-5-3.28-11-5.29-17.29-12.43-38.62-31.22-97 21.36-112.54a43.62 43.62 0 0 1 12.39-2c27.23 0 38.15 35.08 46.13 60.76 2.05 6.56 4 12.76 6 17.88 11.49 28.85 34.1 51.39 53.89 51.39 11.37 0 29.28-10.13 37.66-52.31.32-1.6.62-3.22 1-5.06 3.12-16.57 6.07-32.23 27-40.6a45.14 45.14 0 0 1 16.89-3.43c32 0 54.8 27.64 80.51 38.44 43.21 18.14 63.57-16.35 74.35-45 6.92-18.42 13.45-35.82 31.75-35.82a39.49 39.49 0 0 1 6.77.64c26.12 4.53 23.34 49.81 22.15 69.15l-.15 2.53c-.65 10.9-2.54 24.77-4.74 40.8-7.6 55.59-18 137.58 15.14 168.78 9.51 9 22.11 13.8 37.43 14.4 13.65.49 24.63-3.8 32.64-12.75 19.29-21.52 17.24-73.23 12.13-107.84-6.24-42.31-19-82.64-26-99.44-1.57-3.73-3.2-7.36-4.78-10.89l-.09-.19c-9-19.94-16.69-37.16-3.86-57.62 7.37-12 19.39-19.14 32.15-19 19.07 0 35.4 13.85 37.23 31.52 1 9.64-2.59 21-6.36 33.06-6.28 20.07-12.77 44.71.72 61.19 8.4 10.25 28 17.14 48.8 17.14 17.71 0 32.62-5.06 40.9-13.92 21.58-23.13 4.72-54.53-7.6-74.69-4.81-7.83-9-14.61-9.14-18.55-.66-13.46-.46-59.18 29.67-82.19 11.88-9.06 26.78-13.29 46.91-13.29 13.86 0 28.72 2 43.28 4 16.09 2.17 31.21 4.19 45.71 3.72 23-.76 41.46-7.59 58-21.35 9-7.47 27.71-15.41 44.73-15.41 11.63 0 26 4.08 28.47 23.46.67 5.43-3.43 18-8.63 33.89-12.39 38-29.36 95.79-4.59 121.62 10.95 11.4 29.19 16.46 53.79 14.74 20.23-1.38 34.27-6.83 42.93-16.65 18.36-20.81 7-62-4-96.21-9.49-29.48-18.46-57.34-6.3-69.94 6.63-6.9 19.59-9 40-6.48a302.37 302.37 0 0 0 37.06 2.53c32.5 0 57.9-6.91 97-26.39a122.27 122.27 0 0 0 18.32-11.3v-8.86a115.69 115.69 0 0 1-22.57 14.78z" style="fill:#c90a6d"/><path d="M-.82 429.14v796.24c7.22 10.69 12.87 17.5 41 16.76 6.5-.18 14.39-2.05 22.29-4.28 38.17 48.72-12.5 175.39-11.38 219 1.74 67.33 104.08 63.71 108.29-.47 2.37-36.18-12.54-75.21-21.33-110.36-6.48-25.88-20.32-64.56-6.19-91.93 18.46-35.86 59.72-33.91 84.11 3.47 13.36 20.47-9.07 44.94.86 65.52 13.84 28.67 62.68 22.79 69.73-1.26 6-20.55-24.61-66.58 35.88-65.6 82.76 1.33-31.37 143.36 121.76 104.28 28.15-7.19 54.32-15.09 73.78 10.77 18.17 24.13.78 76.69-2.38 102.54-5.14 42-48.18 206.74 45.1 202.69 89.78-3.91 64.52-116.46 54.9-152.94-11.29-42.69-38-89.7-34.36-133.73 2.19-27.15 35.77-55.85 67-31.81 34.87 26.86 6.1 72.76 3.48 104-6 72.07 91 61 75.61 3-9.08-34.33-46.86-114.53 19-134 50.36-14.91 59.12 50.36 70.44 78.94 20.67 52 69.2 67.56 82.71-.36 3.87-19.46 5.2-38.27 30.48-48.36 40.95-16.34 66 24.63 108.56 34.29 77.62 17.64 44.8-87 104.72-76.61 31.14 5.41 26.73 52.79 25.58 72.25-3.47 59.06-44.44 210.92 43.49 214.28 76.44 2.93 32.85-165 14.23-209.33-10.86-26-24.54-45.93-8.48-71.51 23.48-37.42 74.51-20 77.94 13.82 2.68 26.58-26.54 64-6.37 88.61 14.23 17.41 64.09 22.47 82.25 3 28.52-30.55-16.88-71.28-17.65-86.94-1.33-27.48 5-65 31.09-85 37.48-28.6 94.82-5.2 138.85-6.63 22.47-.73 39.75-7.59 55-20.25 19.14-15.94 75.76-31.42 80.93 10.21 3.14 25.32-79.67 169 35.67 161.12 131.78-9-62.41-200.12 73.64-183.35 53.43 6.59 82.52.83 131-23.33a116.79 116.79 0 0 0 20.75-13.09V429.14z" style="fill:url(#b)"/><path d="M250.07 1253.57s-52.16 78 2.43 77-2.43-77-2.43-77z" style="fill:url(#c)"/><path d="M554.63 1435s-98.21 227.72 11 223.34c96.99-3.94-11-223.34-11-223.34z" style="fill:url(#d)"/><path d="M855.55 1333.53s-53.4 106.34 8.49 107.29c55.81.87-8.49-107.29-8.49-107.29z" style="fill:url(#e)"/><path d="M1687.91 1237s-92.28 149.23 0 150.18c94.64.96 0-150.18 0-150.18z" style="fill:url(#f)"/><path class="i" d="M133.6 1377.42s-77.66-150.18 48.53-167.74c0 0-138.33-3.9-48.53 167.74zM320.44 1246.73s-60.67-11.69-46.11 56.58c0 0 14.57 21.52-21.84 27.3 0 0 14.56-7.8 12.13-23.41s-14.55-79.96 55.82-60.47zM75.35 1246.73S72.92 1221.42 39 1235c0 0 36.35-31.17 36.35 11.73z"/><path class="j" d="M366.59 1282.09c-3.28 18-10.73 77.38 29.09 73.83 43.67-3.9 121.33-29.26 135.89 19.49-4-13.36-5.79-23.57-21.69-32.15-39-21-100.48 15.19-128.68-7.88-14.01-11.38-13.59-38.25-14.61-53.29z"/><path class="i" d="M364.13 1326.71s7.28 35.1 60.67 25.32c0 .04-60.67 27.34-60.67-25.32z"/><path class="k" d="M594.68 1348.17s-43.69 9.75-4.87 156c44.83 168.87-26.69 154.1-26.69 154.1s60.67 2 17-152.15 14.56-157.95 14.56-157.95z"/><path class="j" d="M570.4 1344.27s55.84-33.17 87.37 2c0-.05-38.83-58.57-87.37-2z"/><path class="i" d="M742.7 1320.86s-53.39 22.11-41.27 91.62c15 86.08 21.9 85.82-17 89.72 0 0 26.79 11.55 7.28-87.76-14.53-74.12 50.99-93.58 50.99-93.58z"/><path class="j" d="M864 1448.62s15.67-6.33 33.94-67.3c17-56.56 67.94-35.1 106.78-9.75 43.35 28.32 67.94 35.11 84.93-15.6 0 0-19.41 56.56-77.65 7.79s-109.21-50.71-126.2 13.66c.07 0-2.35 54.58-21.8 71.2z"/><path class="i" d="M902.87 1365.71s21.9-37 84.94-7.79c-.01 0-70.39-58.51-84.94 7.79zM1104.32 1330.61s19.41-35.1 65.51-7.8c-.03 0-46.13-52.67-65.51 7.8z"/><path class="l" d="M1067.31 1330.08c-32.12-8.47-59.7 41.44-9.14 39.54l9.71-5.86c18.36-6.11 19.43-28.42-.57-33.68z"/><path class="k" d="M1436.75 1233.09s-77.66 5.85-89.78 70.22c0 0 0 42.91 17 74.11 0 0 31.56 54.61-19.41 55.59 0 0 31.54-8.77 9.7-51.69-21.74-42.66-64.05-142.63 82.49-148.23z"/><path class="i" d="M1208.63 1373.52s72.81 204.8 17 224.31c-.01 0 31.54-37.06-17-224.31z"/><path class="m" d="M1335.66 1394.94c-40.5-10.57-53.94 35.12-15.69 37.83 27.28 1.93 46.77-29.7 15.69-37.83z"/><path class="n" d="M1565.64 1163c-15.33 12-24.44 30.51-41.16 41.12-13.33 8.44-46.77 6.62-46.69 30.15.07 18.57 19 18.23 33.43 16.46 28.11-3.57 72-19.89 88.6-43.37 18.46-26.12 1.18-72.11-34.18-44.36z"/><path class="i" d="M1346.15 1319.56s-1.63-76.73 89-85.83c-.02 0-110.03-5.2-89 85.83z"/><path d="M1524.1 1245.44s41-10.8 67.15-33.16c25.07-21.46 62.59-9.26 77.65 15 0 0-26.69-67.62-89-23.41.03-.04-23.43 29.86-55.8 41.57z" style="opacity:.7;fill:#ffdbcf;isolation:isolate"/><path class="i" d="M1708.53 1258.44s59.87 115.08-1.61 126.78c0 0 38.83-16.22 1.61-126.78z"/><path class="n" d="M1684.35 1335.17c-35.94-3.19-43.37 42.27-6.79 44.22 48.77 2.61 46.17-40.73 6.79-44.22z"/><path class="m" d="M1916.24 1141.78a3.32 3.32 0 0 0-.26-.36c-5.31-5.73-20-4.73-33.13-2.62-31.52 5.07-66.94-3.25-97.06 7.12-20.55 7.09-31.75 29.42-17.37 45.11 28.75 31.41 130.43-5.49 145.88-32.91a36 36 0 0 0 1.94-3.94z"/><path class="l" d="M1921.05 1164.36c-15 11.29-68.82 46.18-147.8 35.45 0 0-50-11.47-58.18 26.07.51-2 8.54-28.14 63.06-19.38 53.58 8.62 115.84-4.91 142.94-39.45z"/><path class="i" d="M132.79 1389.78s37.22 91-32.37 97.47c-.04.05 90.58 18.25 32.37-97.47z"/><path class="n" d="M428.82 1276.62c-23.8-3.8-42.89 8-45.28 27-3.17 25.22 30.22 35.62 56.2 29.24 40.42-9.92 26.76-50.25-10.92-56.24z"/><path class="m" d="m333.51 564.17.23.11c4.38 1.65 12.9-3.39 20.26-8.58 17.67-12.44 40.51-18.49 56.2-33.55 10.72-10.26 12.6-26.33.7-30.86-23.81-9.07-76.39 42.76-79.74 63-.15.94-.25 1.88-.31 2.83zM126.37 842.08l.26.17c4.86 2.15 14.15-3.26 22.17-8.87 19.23-13.54 44.28-19.35 61.31-36 11.62-11.39 13.38-30 .19-36-26.4-11.91-83.37 45.71-86.68 69.13-.14 1.09-.24 2.18-.28 3.28z"/><path class="p" d="M126.94 951.59c3.54 5.33 41.09 59.69 108.39 61.06 50.36 1 97.72-28.07 121.91-74.84-5.86 7.29-48.51 58.44-120 59.09-62.1.56-102.24-37.41-110.3-45.31z"/><path class="i" d="M235.55 977.13a1.92 1.92 0 1 0-1.65-1.9 1.79 1.79 0 0 0 1.65 1.9z"/><path class="p" d="M1525.82 1013.2c3.28 6.33 38 70.89 100.33 72.5 46.67 1.27 90.46-33.33 112.87-88.86-5.47 8.65-44.88 69.39-111.08 70.15-57.5.67-94.71-44.41-102.12-53.79z"/><path class="m" d="M1456.34 721.91v.24c.9 4.34 7.67 10.13 14.12 14.76 15.32 11.24 29 29.12 45.13 37.74 11 5.91 21.71 2.24 19.34-9.59-4.75-23.65-59.61-52.21-73.54-48.45a12.59 12.59 0 0 0-1.87.66z"/><path class="p" d="M1366 863.08c16.86 36.37 58.83 57.83 100.12 52.59 34.51-4.38 63.68-26.8 74.86-57.34-3.15 4.73-26.44 38.32-73.07 44.68-38.81 5.24-78.48-10.34-101.91-39.93zM319 640.19c18.8 51.82 65.61 82.4 111.67 74.94 38.48-6.25 71-38.18 83.47-81.7-3.51 6.73-29.48 54.61-81.45 63.66-43.21 7.53-87.46-14.69-113.69-56.9zM1522.8 550.67c14 26.31 48.7 41.78 82.86 38 28.56-3.18 52.71-19.38 62-41.47-2.62 3.42-21.9 27.71-60.47 32.31-32.1 3.81-64.95-7.42-84.39-28.84z"/><path class="m" d="M1632.76 871.17v.33c.72 5.84 9.09 12.74 17 18.25 19.06 13.23 35.19 35.75 55.5 45.35 13.87 6.54 28.4 0 26.52-15.93-3.77-31.81-73.06-63.16-91.81-56a19.55 19.55 0 0 0-2.55 1.18zM1607.93 450.7v.17c.08 3.15 4.1 6.33 8 8.86 9.27 5.94 16.54 17.18 26.66 21a10.71 10.71 0 0 0 14.67-10.58c-.33-17.19-34.91-29.6-45.08-24.36a13.71 13.71 0 0 0-1.39.82z"/><path class="p" d="M137.9 299.06c18.81 51.82 65.6 82.39 111.67 74.92 38.47-6.23 71-38.18 83.47-81.68-3.53 6.73-29.49 54.59-81.47 63.66-43.22 7.52-87.45-14.7-113.67-56.9zM321.83 90.64c11.9 36.85 41.5 58.59 70.61 53.28 24.34-4.44 44.92-27.15 52.8-58.09-2.18 4.79-18.61 38.82-51.53 45.27-27.29 5.37-55.3-10.45-71.88-40.46zM543 185.4c12.74 25.75 44.45 41 75.63 37.25 26.07-3.1 48.1-19 56.54-40.61-2.38 3.34-20 27.14-55.18 31.64-29.28 3.8-59.25-7.3-76.99-28.28z"/><path class="m" d="m559.27 140.34.16.09c3.08 1.07 9.21-2.42 14.53-6 12.76-8.61 29-12.9 40.51-23.26 7.78-7.07 9.43-18 1.09-21-16.68-6-55 29.68-57.71 43.48a17.76 17.76 0 0 0-.28 1.92zM342.73 61.22h.11c1.93.09 5.07-3 7.73-6 6.36-7.25 15.32-12.66 20.68-20.65 3.64-5.49 3.22-12.15-2.05-12.44-10.52-.56-28.33 27-28.19 35.45a11.52 11.52 0 0 0 .09 1.17zM156.8 241l.23.11c4.38 1.45 12.78-3.92 20-9.4 17.27-13.15 39.91-20.11 55.14-35.78 10.4-10.69 11.81-26.82-.23-30.88-24.08-8.11-75.07 45.81-77.79 66.16a26.76 26.76 0 0 0-.23 2.83z"/><path class="p" d="M1248 426.64c14 26.31 48.7 41.78 82.85 38 28.57-3.18 52.72-19.38 62-41.47-2.61 3.42-21.9 27.71-60.46 32.31-32.1 3.86-64.94-7.42-84.39-28.84zM1647.34 284c15.78 34.29 55 54.52 93.65 49.59 32.28-4.13 59.57-25.32 70.07-54.07-2.94 4.46-24.72 36.14-68.33 42.13-36.27 4.98-73.39-9.73-95.39-37.65zM1425.34 122.61c11.26 26.37 39.3 41.94 66.89 38.15a62.12 62.12 0 0 0 50-41.59c-2.11 3.43-17.66 27.79-48.8 32.4-25.88 3.83-52.38-7.47-68.09-28.96z"/><path class="m" d="M1498.18 49v.18c.07 3.17 4.09 6.33 8 8.86 9.28 5.94 16.55 17.18 26.67 21a10.71 10.71 0 0 0 14.67-10.58c-.34-17.2-34.93-29.61-45.09-24.37a13 13 0 0 0-1.39.82zM1730.66 180.28a1 1 0 0 0 0 .24c.71 4.3 7.16 9.68 13.27 14 14.64 10.43 27.37 27.56 42.82 35.37 10.55 5.32 21.22 1.07 19.36-10.65-3.73-23.46-56.45-49.12-70.27-44.6a14.55 14.55 0 0 0-1.88.77zM1320.25 309.31v.2c.53 3.6 5.82 8 10.83 11.52 12 8.48 22.33 22.6 35 28.88 8.69 4.29 17.6.55 16.2-9.21-2.8-19.54-46.19-40.15-57.72-36.14a11.15 11.15 0 0 0-1.55.67z"/></svg>