<svg xmlns="http://www.w3.org/2000/svg" viewBox="0 0 1920 1080"><defs><linearGradient id="a" x1="1044.74" y1="-418.66" x2="1044.74" y2="592" gradientTransform="matrix(1 0 0 -1 -84.56 1109)" gradientUnits="userSpaceOnUse"><stop offset="0" stop-color="#ff4304"/><stop offset="1" stop-color="#c10000"/></linearGradient></defs><path d="M1920.87 1005.21c-18.61-12.31-21.9-56.46-23-75.05-1.79-36.71-2.55-73.42-3.83-110.37-.51-13.93-9.44-24.17-21.18-24.17-10.72 0-19.13 10.22-18.37 23.93 1.53 24.63 6.64 47.87 1.79 72.51-1.27 6.26-3.06 12.77-11 15.1a19.13 19.13 0 0 1-15.06-2.53c-9.43-6.51-12-17-15.55-26.73-11-29.5-33.68-53.44-48-81.33-8.68-16.46-9.44-36.71-10.94-54.84-4.09-45.08-4.85-90.86-4.09-136.17.25-13.24.25-26.72 1.79-40.2 1.53-13 2.8-26.26 1.27-39a9.84 9.84 0 0 0-1.52-3.71c-5.37-7-16.59-7.45-23-1.41a18.43 18.43 0 0 0-3.82 5.07c-2.55 5.58-.26 12.78 0 19.29 2 64.56 4.38 129.66 3.06 194.26-.25 18.13-3.82 36.95-14.79 51.83-11.24 15.1-31.64 25.31-51 21.6-17-3.33-31.34-16.48-38-34.86s-5.11-38.8-6.13-57.62c-.77-14.18.76-30 3.28-44.15 2.3-13 1.28-28.59-18.11-28.59-13.78 0-15.33 9.53-15 19 .25 5.06 1.53 10 1.53 15.11 1 33.23 3.06 66.22 1.52 99.45-1.27 28.59-1.52 77.61-33.16 93.68-12 6-27 5.58-40.31 2.33-17.35-4-33.94-12.32-43.63-26-13.52-18.82-10.95-41.84-8.93-63 1.28-14.87 9.18-34.18 7.15-49-1.54-11.39-14.24-20.45-26.79-19.76-14.47 1-23.22 9.6-19.86 21.25 6.13 22.53 12.25 45.3 14 68.54 2 27.65-6.12 49.27-16.84 74.13-5.1 11.62-14.53 23.7-21.68 34.4-19.9 30.2-55.62 24.86-72.71-2.53-14.8-23.47-20.16-51.13-26.79-77.39-1.78-7-3.28-13.92-4.85-20.91a354.33 354.33 0 0 1-6.63-59c-.51-13.92-.51-46.24 1-60 1.54-12.55 7.92-24.63 6.64-37.41-1-10.45-17.34-31.37-29.85-18.59a17.35 17.35 0 0 0-4.85 12.78c3.07 76.92 2 174-19.38 249.1-1 3.5-2 7-4.6 9.53-2.81 2.79-6.89 3.95-10.71 4.88-11.74 2.53-31.13-57.4-39.81-2.53-1.53 10.45-15.32 38.34-26.52 33.69-9.45-3.94-12.26-23.46-22.21-20.25-.5.23-8.15 9.76-9.18 10.46-9.69 8.59-16.33-66.93-31.89-81.1-8.42-7.67-26.28-9.3-33.42.7l-.26.23c-2.55 3.48-3.29 7.67-4.38 11.85-1.27 4.88-6.63 43.45-11.48 44.15-9.69 1.63-13.26-8.13-17.6-13.92-8.64-11-26.19-11.94-36.19-1.94l-11.73 11.84c-38.52-7-43.12-47.16-52-82-.76-2.78-1.27-5.58-2-8.36C919.69 775 914.34 673.91 925.05 627c2-8.61 4.85-17.43 2.81-26s-11.49-14.41-20.93-15.1a20.66 20.66 0 0 0-11.22 2.32c-6.88 4.41-6.38 11.39-5.61 17.72 4.08 38.57 9.18 123.62 8.42 162.44-1.23 55-13.73 110.7-34.14 162.31-1 2.53-2 5.06-4.07 7-3.07 2.79-7.67 3.71-12 4.41-10 1.63-20.4 3-29.56-.46-10.2-3.95-16.58-13.48-21.17-22.78-11.74-23.94-25.77-37-51-48.8a39.42 39.42 0 0 1-5.35-3 25.44 25.44 0 0 1-4.6-5.57c-17.6-27.43-26-60.66-19.64-92 1.78-9.29 4.85-15.57 3.82-24.86-.25-1.86-1.52-3.48-3.57-5.06a9.73 9.73 0 0 0-12.5-.23 14.84 14.84 0 0 0-4.59 5.34c-1.78 4-.51 9.53 1 14.18 6.89 20.25 3.57 40.9 3.83 60.87 0 13.71-10.72 23.94-20.67 33.47-13.77 13-49.75 9.52-54.35-6-4.58-15.8-17.6-33-7.13-121.52.5-5.07 3.82-10.69 3.57-15.8-.77-7.44-5.11-14.18-14.8-14.18-9.95 0-11.23 7-10.94 13.93a38.92 38.92 0 0 0 1.28 10.92c16.84 63.9 9.43 144.31-6.89 166.62-12.25 16.72-19.14 24.86-39 22.78-21.42-2.53-35-15.34-37.5-35.09-2.3-17.66-4.59-35.56-7.15-53.16-1.27-8.37-10.45-14.88-19.38-14.41-10.46.7-14 6.51-14.54 15.57-1.54 32.76-4.38 65.83-4.6 98.52 0 19.06-14.79 30-32.91 32.31-13.77 1.62-26.28-5.81-28.06-19-1.28-10-8.42-20.93-12.76-32.31-3.28-8.86-6.63-17.88-8.68-26.72-14.54-56.47-.76-154.77-1-187.06 0-6.51 2-13.71-.25-19.52-1.53-4.42-7.66-9.06-12.75-10-6.9-1.4-12.25 2.79-12.05 10.22 0 4.64.77 9.53.77 14.18-.25 35.78 4.08 71.57 4.38 107.36.26 49-8.16 93.67-20.92 141-1.27 4.89-2.8 10.23-7.39 12.79-4.09 2.53-9.7 1.86-14.55.69-25.26-7-24.74-32.3-44.65-42.06-24-11.61-28.32 38.34-39.79 46a19.7 19.7 0 0 1-9.44 3c-11.49.92-22.2-6.05-28.32-14.88-9.19-13-11.49-30.67-17.86-44.85-2.81-6-6.13-16-12.5-20-11.24-7-16.08 4.19-22.21 11.87a2.49 2.49 0 0 1-3.81.65 3.54 3.54 0 0 1-.57-.65c-36.74-30.22-39-86.45-27.55-127.35 2.3-7.9 0-13.24-3.82-17.89-2.55-3.25-10.21-5.35-14.55-4.42-4.08.93-9.18 6.51-9.44 10.23-.5 9 2 18.12 2.81 27.18 1.27 15.1 10.21 24.17 2.56 72.51-2.82 17-7.15 33.92-11.24 50.63-3.57 15.57-6.37 31.37-10.95 46.72-2.8 9.29-10.2 16-21.68 18.12-6.64 1.17-10.46 8.13-14.29 15.8a53.88 53.88 0 0 1-28.06 25.8c-6.64 2.53-11.74 3.95-11.74 3.95v522.13h1921.26z" style="fill:url(#a)"/></svg>