<?xml version="1.0" encoding="utf-8"?>
<!-- Generator: Adobe Illustrator 19.1.0, SVG Export Plug-In . SVG Version: 6.00 Build 0)  -->
<svg version="1.1" id="Layer_6" xmlns="http://www.w3.org/2000/svg" xmlns:xlink="http://www.w3.org/1999/xlink" x="0px" y="0px"
	 viewBox="934 -162 2828 884" style="enable-background:new 934 -162 2828 884;" xml:space="preserve">
<style type="text/css">
	.st0{fill:#051450;}
</style>
<path class="st0" d="M3180.9,210.9c2.8,5.8,5.6,7,11.8,8.3c1,0.2,1.9-0.8,1.4-1.8c-4.7-9.5-13.4-12.4-13.4-12.4
	C3179.6,204.4,3179.1,207.2,3180.9,210.9z"/>
<path class="st0" d="M3181,228.7c2.5,4.9,4.9,5.8,10.5,6.9c0.9,0.2,1.7-0.7,1.2-1.5c-4.1-7.9-11.9-10.3-11.9-10.3
	C3179.8,223.2,3179.4,225.5,3181,228.7z"/>
<path class="st0" d="M3182.1,246.2c2.1,4.8,4.3,5.9,9.4,7.2c0.8,0.2,1.6-0.6,1.2-1.4c-3.4-7.8-10.5-10.5-10.5-10.5
	C3181.3,240.9,3180.8,243.1,3182.1,246.2z"/>
<path class="st0" d="M3181,267.1c1.8,4.9,4,6.1,9.1,7.7c0.8,0.3,1.6-0.5,1.3-1.3c-3.1-8-10-11-10-11
	C3180.5,261.8,3179.9,263.9,3181,267.1z"/>
<path class="st0" d="M3181.9,194.3c2.8,5.8,5.6,7,11.8,8.3c1,0.2,1.9-0.8,1.4-1.8c-4.7-9.5-13.4-12.4-13.4-12.4
	C3180.6,187.8,3180.1,190.5,3181.9,194.3z"/>
<path class="st0" d="M3182.4,181.6c2.4,4.5,4.7,5.4,10,6.4c0.9,0.2,1.6-0.6,1.2-1.4c-3.9-7.3-11.3-9.6-11.3-9.6
	C3181.3,176.6,3180.8,178.7,3182.4,181.6z"/>
<path class="st0" d="M3181.5,167.5c2.6,5.4,5.1,6.5,10.8,7.7c0.9,0.2,1.7-0.8,1.3-1.6c-4.2-8.8-12.2-11.5-12.2-11.5
	C3180.3,161.5,3179.8,164,3181.5,167.5z"/>
<path class="st0" d="M3181.7,153.4c2.4,4.6,4.7,5.5,10,6.5c0.9,0.2,1.6-0.7,1.2-1.4c-3.9-7.4-11.3-9.7-11.3-9.7
	C3180.6,148.2,3180.2,150.4,3181.7,153.4z"/>
<path class="st0" d="M3181.8,136.9c2.5,5.8,4.9,6.9,10.4,8.2c0.9,0.2,1.6-0.8,1.2-1.8c-4.1-9.3-11.7-12.2-11.7-12.2
	C3180.6,130.4,3180.2,133.1,3181.8,136.9z"/>
<path class="st0" d="M3181.1,117.8c2.5,5.6,4.9,6.6,10.5,7.9c0.9,0.2,1.7-0.8,1.2-1.7c-4.1-9-11.9-11.8-11.9-11.8
	C3180,111.6,3179.5,114.2,3181.1,117.8z"/>
<path class="st0" d="M3182.6,102c2.8,5.6,5.5,6.6,11.7,7.9c1,0.2,1.8-0.8,1.4-1.7c-4.6-9-13.2-11.8-13.2-11.8
	C3181.3,95.8,3180.8,98.4,3182.6,102z"/>
<path class="st0" d="M3182.3,87.6c2.5,5,4.9,6,10.5,7.1c0.9,0.2,1.7-0.7,1.2-1.5c-4.1-8.1-11.9-10.6-11.9-10.6
	C3181.1,82.1,3180.7,84.4,3182.3,87.6z"/>
<path class="st0" d="M3182.2,73.2c2.7,4.8,5.2,5.7,10.8,6.5c0.9,0.1,1.6-0.8,1.2-1.6c-4.5-7.8-12.4-9.9-12.4-9.9
	C3180.8,67.7,3180.5,70.1,3182.2,73.2z"/>
<path class="st0" d="M3179.9,209.9c-2.2,5.8-4.4,6.9-9.3,8.2c-0.8,0.2-1.5-0.8-1.1-1.8c3.7-9.3,10.5-12.2,10.5-12.2
	C3180.9,203.5,3181.3,206.2,3179.9,209.9z"/>
<path class="st0" d="M3180.4,227.7c-1.4,5.3-3.6,6.8-8.7,9.1c-0.8,0.4-1.8-0.3-1.5-1.2c2.3-8.6,9.4-12.7,9.4-12.7
	C3180.4,222.1,3181.3,224.2,3180.4,227.7z"/>
<path class="st0" d="M3179.9,246.1c-1.6,5-3.8,6.2-8.8,8c-0.8,0.3-1.6-0.4-1.3-1.2c2.8-8.1,9.6-11.4,9.6-11.4
	C3180.3,240.7,3181,242.9,3179.9,246.1z"/>
<path class="st0" d="M3179.3,268c-1.4,5.1-3.4,6.4-8.3,8.5c-0.8,0.3-1.6-0.4-1.4-1.2c2.3-8.2,9-11.9,9-11.9
	C3179.4,262.6,3180.2,264.7,3179.3,268z"/>
<path class="st0" d="M3179.2,193.2c-2.7,5.1-5.3,6.1-11.3,7.2c-1,0.2-1.8-0.7-1.3-1.5c4.4-8.2,12.8-10.8,12.8-10.8
	C3180.4,187.5,3180.9,189.9,3179.2,193.2z"/>
<path class="st0" d="M3179.6,180.5c-2.4,4.5-4.7,5.4-10,6.4c-0.9,0.2-1.6-0.6-1.2-1.4c3.9-7.3,11.3-9.6,11.3-9.6
	C3180.8,175.4,3181.2,177.5,3179.6,180.5z"/>
<path class="st0" d="M3179.4,166.6c-2.6,5.4-5.1,6.5-10.8,7.7c-0.9,0.2-1.7-0.8-1.3-1.6c4.2-8.8,12.2-11.5,12.2-11.5
	C3180.6,160.6,3181.1,163.1,3179.4,166.6z"/>
<path class="st0" d="M3179.6,152.2c-2.4,4.6-4.7,5.5-10,6.5c-0.9,0.2-1.6-0.7-1.2-1.4c3.9-7.4,11.3-9.7,11.3-9.7
	C3180.7,147.1,3181.1,149.2,3179.6,152.2z"/>
<path class="st0" d="M3182.4,58.8c2.4,4.5,4.7,5.4,10,6.4c0.9,0.2,1.6-0.6,1.2-1.4c-3.9-7.3-11.3-9.6-11.3-9.6
	C3181.3,53.8,3180.8,55.9,3182.4,58.8z"/>
<path class="st0" d="M3181.5,44.7c2.6,5.4,5.1,6.5,10.8,7.7c0.9,0.2,1.7-0.8,1.3-1.6c-4.2-8.8-12.2-11.5-12.2-11.5
	C3180.3,38.7,3179.8,41.2,3181.5,44.7z"/>
<path class="st0" d="M3181.7,30.6c2.4,4.6,4.7,5.5,10,6.5c0.9,0.2,1.6-0.7,1.2-1.4c-3.9-7.4-11.3-9.7-11.3-9.7
	C3180.6,25.4,3180.2,27.6,3181.7,30.6z"/>
<path class="st0" d="M3179.6,57.7c-2.4,4.5-4.7,5.4-10,6.4c-0.9,0.2-1.6-0.6-1.2-1.4c3.9-7.3,11.3-9.6,11.3-9.6
	C3180.8,52.6,3181.2,54.7,3179.6,57.7z"/>
<path class="st0" d="M3179.4,43.8c-2.6,5.4-5.1,6.5-10.8,7.7c-0.9,0.2-1.7-0.8-1.3-1.6c4.2-8.8,12.2-11.5,12.2-11.5
	C3180.6,37.8,3181.1,40.3,3179.4,43.8z"/>
<path class="st0" d="M3179.6,29.4c-2.4,4.6-4.7,5.5-10,6.5c-0.9,0.2-1.6-0.7-1.2-1.4c3.9-7.4,11.3-9.7,11.3-9.7
	C3180.7,24.3,3181.1,26.4,3179.6,29.4z"/>
<path class="st0" d="M3179.9,136.2c-2.5,5.8-4.9,6.9-10.4,8.2c-0.9,0.2-1.6-0.8-1.2-1.8c4.1-9.3,11.7-12.2,11.7-12.2
	C3181,129.8,3181.5,132.5,3179.9,136.2z"/>
<path class="st0" d="M3179.9,115.6c-2.5,5.6-4.9,6.6-10.5,7.9c-0.9,0.2-1.7-0.8-1.2-1.7c4.1-9,11.9-11.8,11.9-11.8
	C3181.1,109.5,3181.5,112.1,3179.9,115.6z"/>
<path class="st0" d="M3179,99.7c-2.3,5.1-4.6,6.2-9.7,7.3c-0.8,0.2-1.5-0.7-1.1-1.6c3.8-8.3,11-10.9,11-10.9
	C3180.1,94,3180.5,96.4,3179,99.7z"/>
<path class="st0" d="M3178.9,86.1c-2.4,4.6-4.6,5.4-9.6,6.2c-0.8,0.1-1.4-0.7-1-1.5c4-7.4,11-9.4,11-9.4
	C3180.2,80.9,3180.5,83.1,3178.9,86.1z"/>
<path class="st0" d="M3179.3,72.1c-2.7,4.8-5.2,5.7-10.8,6.5c-0.9,0.1-1.6-0.8-1.2-1.6c4.5-7.8,12.4-9.9,12.4-9.9
	C3180.7,66.6,3181.1,68.9,3179.3,72.1z"/>
<path class="st0" d="M3179.6,282.1V14.4c0-0.6,0.5-1.2,1.2-1.2l0,0c0.6,0,1.2,0.5,1.2,1.2v267.8c0,0.6-0.5,1.2-1.2,1.2l0,0
	C3180.1,283.3,3179.6,282.8,3179.6,282.1z"/>
<path class="st0" d="M3178.1,291.4c0.2,3,1.8,10.3,3.3,10.6c0.8,0.2,1.6-2.3,2.9-6.1c0.2-0.6,0.5-3.2,0.4-3.9
	c-0.4-5.3-3.1-11.4-3.1-11.4C3178.3,282.5,3178,288.5,3178.1,291.4z"/>
<path class="st0" d="M3058.7,267.2c2.1,4.3,4.1,5.2,8.8,6.2c0.8,0.2,1.4-0.6,1-1.3c-3.5-7-10-9.2-10-9.2
	C3057.8,262.4,3057.4,264.4,3058.7,267.2z"/>
<path class="st0" d="M3058.8,280.4c1.8,3.6,3.7,4.3,7.8,5.2c0.7,0.1,1.2-0.5,0.9-1.1c-3.1-5.9-8.8-7.7-8.8-7.7
	C3057.9,276.3,3057.6,278,3058.8,280.4z"/>
<path class="st0" d="M3059.6,293.4c1.5,3.6,3.2,4.4,7,5.4c0.6,0.2,1.2-0.4,0.9-1c-2.6-5.8-7.9-7.9-7.9-7.9
	C3059,289.5,3058.6,291.1,3059.6,293.4z"/>
<path class="st0" d="M3058.8,309c1.4,3.7,3,4.5,6.8,5.7c0.6,0.2,1.2-0.4,1-1c-2.3-5.9-7.5-8.2-7.5-8.2
	C3058.4,305.1,3057.9,306.7,3058.8,309z"/>
<path class="st0" d="M3059.5,254.8c2.1,4.3,4.1,5.2,8.8,6.2c0.8,0.2,1.4-0.6,1-1.3c-3.5-7-10-9.2-10-9.2
	C3058.5,249.9,3058.1,252,3059.5,254.8z"/>
<path class="st0" d="M3059.8,245.4c1.8,3.4,3.5,4,7.4,4.8c0.6,0.1,1.2-0.5,0.9-1c-2.9-5.5-8.4-7.1-8.4-7.1
	C3059,241.6,3058.7,243.2,3059.8,245.4z"/>
<path class="st0" d="M3059.1,234.9c1.9,4,3.8,4.8,8,5.7c0.7,0.1,1.3-0.6,1-1.2c-3.2-6.5-9.1-8.5-9.1-8.5
	C3058.2,230.4,3057.9,232.3,3059.1,234.9z"/>
<path class="st0" d="M3059.3,224.3c1.8,3.4,3.5,4.1,7.4,4.9c0.6,0.1,1.2-0.5,0.9-1c-2.9-5.5-8.4-7.2-8.4-7.2
	C3058.5,220.5,3058.2,222.1,3059.3,224.3z"/>
<path class="st0" d="M3059.4,212c1.8,4.3,3.6,5.1,7.7,6.1c0.7,0.2,1.2-0.6,0.9-1.3c-3-7-8.7-9.1-8.7-9.1
	C3058.5,207.2,3058.2,209.3,3059.4,212z"/>
<path class="st0" d="M3058.9,197.8c1.8,4.1,3.7,5,7.8,5.9c0.7,0.2,1.2-0.6,0.9-1.3c-3.1-6.7-8.8-8.8-8.8-8.8
	C3058,193.2,3057.7,195.2,3058.9,197.8z"/>
<path class="st0" d="M3059.9,186c2.1,4.1,4.1,5,8.7,5.9c0.7,0.2,1.4-0.6,1-1.3c-3.4-6.7-9.9-8.8-9.9-8.8
	C3059,181.4,3058.6,183.4,3059.9,186z"/>
<path class="st0" d="M3059.7,175.4c1.8,3.7,3.7,4.4,7.8,5.3c0.7,0.1,1.2-0.5,0.9-1.1c-3.1-6-8.8-7.9-8.8-7.9
	C3058.9,171.2,3058.5,173,3059.7,175.4z"/>
<path class="st0" d="M3059.7,164.6c2,3.6,3.9,4.2,8.1,4.9c0.7,0.1,1.2-0.6,0.9-1.2c-3.4-5.8-9.2-7.4-9.2-7.4
	C3058.6,160.6,3058.4,162.3,3059.7,164.6z"/>
<path class="st0" d="M3057.9,266.4c-1.6,4.3-3.3,5.1-6.9,6.1c-0.6,0.2-1.1-0.6-0.8-1.3c2.7-7,7.8-9.1,7.8-9.1
	C3058.7,261.6,3059,263.6,3057.9,266.4z"/>
<path class="st0" d="M3058.3,279.6c-1,4-2.7,5.1-6.5,6.8c-0.6,0.3-1.3-0.2-1.1-0.9c1.7-6.4,7-9.5,7-9.5
	C3058.3,275.5,3059,277.1,3058.3,279.6z"/>
<path class="st0" d="M3058,293.4c-1.2,3.7-2.8,4.6-6.5,6c-0.6,0.2-1.2-0.3-1-0.9c2.1-6,7.2-8.5,7.2-8.5
	C3058.3,289.4,3058.8,291,3058,293.4z"/>
<path class="st0" d="M3057.5,309.7c-1,3.8-2.6,4.8-6.2,6.3c-0.6,0.2-1.2-0.3-1.1-0.9c1.7-6.1,6.7-8.9,6.7-8.9
	C3057.6,305.7,3058.2,307.2,3057.5,309.7z"/>
<path class="st0" d="M3057.4,254c-2,3.8-4,4.5-8.4,5.4c-0.7,0.1-1.3-0.5-1-1.2c3.3-6.1,9.5-8,9.5-8
	C3058.3,249.7,3058.7,251.5,3057.4,254z"/>
<path class="st0" d="M3057.8,244.5c-1.8,3.4-3.5,4-7.4,4.8c-0.6,0.1-1.2-0.5-0.9-1c2.9-5.5,8.4-7.1,8.4-7.1
	C3058.6,240.7,3058.9,242.3,3057.8,244.5z"/>
<path class="st0" d="M3057.6,234.2c-1.9,4-3.8,4.8-8,5.7c-0.7,0.1-1.3-0.6-1-1.2c3.2-6.5,9.1-8.5,9.1-8.5
	C3058.5,229.7,3058.8,231.6,3057.6,234.2z"/>
<path class="st0" d="M3057.7,223.4c-1.8,3.4-3.5,4.1-7.4,4.9c-0.6,0.1-1.2-0.5-0.9-1c2.9-5.5,8.4-7.2,8.4-7.2
	C3058.5,219.6,3058.8,221.2,3057.7,223.4z"/>
<path class="st0" d="M3059.8,153.9c1.8,3.4,3.5,4,7.4,4.8c0.6,0.1,1.2-0.5,0.9-1c-2.9-5.5-8.4-7.1-8.4-7.1
	C3059,150.2,3058.7,151.7,3059.8,153.9z"/>
<path class="st0" d="M3059.1,143.4c1.9,4,3.8,4.8,8,5.7c0.7,0.1,1.3-0.6,1-1.2c-3.2-6.5-9.1-8.5-9.1-8.5
	C3058.2,138.9,3057.9,140.8,3059.1,143.4z"/>
<path class="st0" d="M3059.3,132.9c1.8,3.4,3.5,4.1,7.4,4.9c0.6,0.1,1.2-0.5,0.9-1c-2.9-5.5-8.4-7.2-8.4-7.2
	C3058.5,129,3058.2,130.7,3059.3,132.9z"/>
<path class="st0" d="M3057.8,153c-1.8,3.4-3.5,4-7.4,4.8c-0.6,0.1-1.2-0.5-0.9-1c2.9-5.5,8.4-7.1,8.4-7.1
	C3058.6,149.3,3058.9,150.9,3057.8,153z"/>
<path class="st0" d="M3057.6,142.7c-1.9,4-3.8,4.8-8,5.7c-0.7,0.1-1.3-0.6-1-1.2c3.2-6.5,9.1-8.5,9.1-8.5
	C3058.5,138.2,3058.8,140.1,3057.6,142.7z"/>
<path class="st0" d="M3057.7,132c-1.8,3.4-3.5,4.1-7.4,4.9c-0.6,0.1-1.2-0.5-0.9-1c2.9-5.5,8.4-7.2,8.4-7.2
	C3058.5,128.2,3058.8,129.8,3057.7,132z"/>
<path class="st0" d="M3057.9,211.5c-1.8,4.3-3.6,5.1-7.7,6.1c-0.7,0.2-1.2-0.6-0.9-1.3c3-7,8.7-9.1,8.7-9.1
	C3058.8,206.8,3059.1,208.8,3057.9,211.5z"/>
<path class="st0" d="M3058,196.2c-1.8,4.1-3.7,5-7.8,5.9c-0.7,0.2-1.2-0.6-0.9-1.3c3.1-6.7,8.8-8.8,8.8-8.8
	C3058.8,191.6,3059.2,193.6,3058,196.2z"/>
<path class="st0" d="M3057.3,184.4c-1.7,3.8-3.4,4.6-7.2,5.4c-0.6,0.1-1.1-0.5-0.9-1.2c2.8-6.2,8.2-8.1,8.2-8.1
	C3058.1,180.1,3058.4,181.9,3057.3,184.4z"/>
<path class="st0" d="M3057.2,174.2c-1.8,3.4-3.5,4-7.2,4.6c-0.6,0.1-1.1-0.6-0.8-1.1c3-5.5,8.2-7,8.2-7
	C3058.2,170.3,3058.4,172,3057.2,174.2z"/>
<path class="st0" d="M3057.5,163.8c-2,3.6-3.9,4.2-8.1,4.9c-0.7,0.1-1.2-0.6-0.9-1.2c3.4-5.8,9.2-7.4,9.2-7.4
	C3058.6,159.7,3058.8,161.4,3057.5,163.8z"/>
<path class="st0" d="M3057.8,320.2V120.8c0-0.5,0.4-0.9,0.9-0.9l0,0c0.5,0,0.9,0.4,0.9,0.9v199.4c0,0.5-0.4,0.9-0.9,0.9l0,0
	C3058.1,321.1,3057.8,320.7,3057.8,320.2z"/>
<path class="st0" d="M3056.6,327.1c0.1,2.2,1.3,7.7,2.5,7.9c0.6,0.1,1.2-1.7,2.1-4.5c0.2-0.5,0.4-2.4,0.3-2.9
	c-0.3-3.9-2.3-8.5-2.3-8.5C3056.8,320.5,3056.5,325,3056.6,327.1z"/>
<g>
	<path class="st0" d="M2839.9,265.7c2.1,4.3,4.1,5.2,8.8,6.2c0.8,0.2,1.4-0.6,1-1.3c-3.5-7-10-9.2-10-9.2
		C2838.9,260.9,2838.6,262.9,2839.9,265.7z"/>
	<path class="st0" d="M2839.9,278.9c1.8,3.6,3.7,4.3,7.8,5.2c0.7,0.1,1.2-0.5,0.9-1.1c-3.1-5.9-8.8-7.7-8.8-7.7
		C2839.1,274.8,2838.7,276.5,2839.9,278.9z"/>
	<path class="st0" d="M2840.8,291.9c1.5,3.6,3.2,4.4,7,5.4c0.6,0.2,1.2-0.4,0.9-1c-2.6-5.8-7.9-7.9-7.9-7.9
		C2840.2,288,2839.8,289.6,2840.8,291.9z"/>
	<path class="st0" d="M2840,307.5c1.4,3.7,3,4.5,6.8,5.7c0.6,0.2,1.2-0.4,1-1c-2.3-5.9-7.5-8.2-7.5-8.2
		C2839.6,303.6,2839.1,305.2,2840,307.5z"/>
	<path class="st0" d="M2840.6,253.3c2.1,4.3,4.1,5.2,8.8,6.2c0.8,0.2,1.4-0.6,1-1.3c-3.5-7-10-9.2-10-9.2
		C2839.7,248.4,2839.3,250.5,2840.6,253.3z"/>
	<path class="st0" d="M2841,243.9c1.8,3.4,3.5,4,7.4,4.8c0.6,0.1,1.2-0.5,0.9-1c-2.9-5.5-8.4-7.1-8.4-7.1
		C2840.1,240.1,2839.8,241.7,2841,243.9z"/>
	<path class="st0" d="M2840.3,233.4c1.9,4,3.8,4.8,8,5.7c0.7,0.1,1.3-0.6,1-1.2c-3.2-6.5-9.1-8.5-9.1-8.5
		C2839.4,228.9,2839.1,230.8,2840.3,233.4z"/>
	<path class="st0" d="M2840.5,222.8c1.8,3.4,3.5,4.1,7.4,4.9c0.6,0.1,1.2-0.5,0.9-1c-2.9-5.5-8.4-7.2-8.4-7.2
		C2839.7,219,2839.4,220.6,2840.5,222.8z"/>
	<path class="st0" d="M2840.5,210.5c1.8,4.3,3.6,5.1,7.7,6.1c0.7,0.2,1.2-0.6,0.9-1.3c-3-7-8.7-9.1-8.7-9.1
		C2839.7,205.7,2839.4,207.8,2840.5,210.5z"/>
	<path class="st0" d="M2840.1,196.3c1.8,4.1,3.7,5,7.8,5.9c0.7,0.2,1.2-0.6,0.9-1.3c-3.1-6.7-8.8-8.8-8.8-8.8
		C2839.2,191.7,2838.9,193.7,2840.1,196.3z"/>
	<path class="st0" d="M2841.1,184.5c2.1,4.1,4.1,5,8.7,5.9c0.7,0.2,1.4-0.6,1-1.3c-3.4-6.7-9.9-8.8-9.9-8.8
		C2840.2,179.9,2839.8,181.9,2841.1,184.5z"/>
	<path class="st0" d="M2840.9,173.9c1.8,3.7,3.7,4.4,7.8,5.3c0.7,0.1,1.2-0.5,0.9-1.1c-3.1-6-8.8-7.9-8.8-7.9
		C2840,169.7,2839.7,171.5,2840.9,173.9z"/>
	<path class="st0" d="M2840.9,163.1c2,3.6,3.9,4.2,8.1,4.9c0.7,0.1,1.2-0.6,0.9-1.2c-3.4-5.8-9.2-7.4-9.2-7.4
		C2839.8,159.1,2839.6,160.8,2840.9,163.1z"/>
	<path class="st0" d="M2839.1,264.9c-1.6,4.3-3.3,5.1-6.9,6.1c-0.6,0.2-1.1-0.6-0.8-1.3c2.7-7,7.8-9.1,7.8-9.1
		C2839.9,260.1,2840.2,262.1,2839.1,264.9z"/>
	<path class="st0" d="M2839.5,278.1c-1,4-2.7,5.1-6.5,6.8c-0.6,0.3-1.3-0.2-1.1-0.9c1.7-6.4,7-9.5,7-9.5
		C2839.5,274,2840.2,275.6,2839.5,278.1z"/>
	<path class="st0" d="M2839.2,291.9c-1.2,3.7-2.8,4.6-6.5,6c-0.6,0.2-1.2-0.3-1-0.9c2.1-6,7.2-8.5,7.2-8.5
		C2839.4,287.9,2840,289.5,2839.2,291.9z"/>
	<path class="st0" d="M2838.7,308.2c-1,3.8-2.6,4.8-6.2,6.3c-0.6,0.2-1.2-0.3-1.1-0.9c1.7-6.1,6.7-8.9,6.7-8.9
		C2838.8,304.2,2839.4,305.7,2838.7,308.2z"/>
	<path class="st0" d="M2838.6,252.5c-2,3.8-4,4.5-8.4,5.4c-0.7,0.1-1.3-0.5-1-1.2c3.3-6.1,9.5-8,9.5-8
		C2839.5,248.2,2839.9,250,2838.6,252.5z"/>
	<path class="st0" d="M2838.9,243c-1.8,3.4-3.5,4-7.4,4.8c-0.6,0.1-1.2-0.5-0.9-1c2.9-5.5,8.4-7.1,8.4-7.1
		C2839.8,239.2,2840.1,240.8,2838.9,243z"/>
	<path class="st0" d="M2838.8,232.7c-1.9,4-3.8,4.8-8,5.7c-0.7,0.1-1.3-0.6-1-1.2c3.2-6.5,9.1-8.5,9.1-8.5
		C2839.7,228.2,2840,230.1,2838.8,232.7z"/>
	<path class="st0" d="M2838.9,221.9c-1.8,3.4-3.5,4.1-7.4,4.9c-0.6,0.1-1.2-0.5-0.9-1c2.9-5.5,8.4-7.2,8.4-7.2
		C2839.7,218.1,2840,219.7,2838.9,221.9z"/>
	<path class="st0" d="M2841,152.4c1.8,3.4,3.5,4,7.4,4.8c0.6,0.1,1.2-0.5,0.9-1c-2.9-5.5-8.4-7.1-8.4-7.1
		C2840.1,148.7,2839.8,150.2,2841,152.4z"/>
	<path class="st0" d="M2840.3,141.9c1.9,4,3.8,4.8,8,5.7c0.7,0.1,1.3-0.6,1-1.2c-3.2-6.5-9.1-8.5-9.1-8.5
		C2839.4,137.4,2839.1,139.3,2840.3,141.9z"/>
	<path class="st0" d="M2840.5,131.4c1.8,3.4,3.5,4.1,7.4,4.9c0.6,0.1,1.2-0.5,0.9-1c-2.9-5.5-8.4-7.2-8.4-7.2
		C2839.7,127.5,2839.4,129.2,2840.5,131.4z"/>
	<path class="st0" d="M2838.9,151.5c-1.8,3.4-3.5,4-7.4,4.8c-0.6,0.1-1.2-0.5-0.9-1c2.9-5.5,8.4-7.1,8.4-7.1
		C2839.8,147.8,2840.1,149.4,2838.9,151.5z"/>
	<path class="st0" d="M2838.8,141.2c-1.9,4-3.8,4.8-8,5.7c-0.7,0.1-1.3-0.6-1-1.2c3.2-6.5,9.1-8.5,9.1-8.5
		C2839.7,136.7,2840,138.6,2838.8,141.2z"/>
	<path class="st0" d="M2838.9,130.5c-1.8,3.4-3.5,4.1-7.4,4.9c-0.6,0.1-1.2-0.5-0.9-1c2.9-5.5,8.4-7.2,8.4-7.2
		C2839.7,126.7,2840,128.3,2838.9,130.5z"/>
	<path class="st0" d="M2839.1,210c-1.8,4.3-3.6,5.1-7.7,6.1c-0.7,0.2-1.2-0.6-0.9-1.3c3-7,8.7-9.1,8.7-9.1
		C2840,205.3,2840.3,207.3,2839.1,210z"/>
	<path class="st0" d="M2839.1,194.7c-1.8,4.1-3.7,5-7.8,5.9c-0.7,0.2-1.2-0.6-0.9-1.3c3.1-6.7,8.8-8.8,8.8-8.8
		C2840,190.1,2840.3,192.1,2839.1,194.7z"/>
	<path class="st0" d="M2838.5,182.9c-1.7,3.8-3.4,4.6-7.2,5.4c-0.6,0.1-1.1-0.5-0.9-1.2c2.8-6.2,8.2-8.1,8.2-8.1
		C2839.3,178.6,2839.6,180.4,2838.5,182.9z"/>
	<path class="st0" d="M2838.4,172.7c-1.8,3.4-3.5,4-7.2,4.6c-0.6,0.1-1.1-0.6-0.8-1.1c3-5.5,8.2-7,8.2-7
		C2839.4,168.8,2839.6,170.5,2838.4,172.7z"/>
	<path class="st0" d="M2838.7,162.3c-2,3.6-3.9,4.2-8.1,4.9c-0.7,0.1-1.2-0.6-0.9-1.2c3.4-5.8,9.2-7.4,9.2-7.4
		C2839.8,158.2,2840,159.9,2838.7,162.3z"/>
	<path class="st0" d="M2838.9,318.7V119.3c0-0.5,0.4-0.9,0.9-0.9l0,0c0.5,0,0.9,0.4,0.9,0.9v199.4c0,0.5-0.4,0.9-0.9,0.9l0,0
		C2839.3,319.6,2838.9,319.2,2838.9,318.7z"/>
	<path class="st0" d="M2837.8,325.6c0.1,2.2,1.3,7.7,2.5,7.9c0.6,0.1,1.2-1.7,2.1-4.5c0.2-0.5,0.4-2.4,0.3-2.9
		c-0.3-3.9-2.3-8.5-2.3-8.5C2837.9,319,2837.7,323.5,2837.8,325.6z"/>
</g>
<g>
	<path class="st0" d="M2607.2,223c2.1,4.3,4.1,5.2,8.8,6.2c0.8,0.2,1.4-0.6,1-1.3c-3.5-7-10-9.2-10-9.2
		C2606.3,218.2,2605.9,220.2,2607.2,223z"/>
	<path class="st0" d="M2607.3,236.2c1.8,3.6,3.7,4.3,7.8,5.2c0.7,0.1,1.2-0.5,0.9-1.1c-3.1-5.9-8.8-7.7-8.8-7.7
		C2606.4,232.2,2606.1,233.9,2607.3,236.2z"/>
	<path class="st0" d="M2608.1,249.3c1.5,3.6,3.2,4.4,7,5.4c0.6,0.2,1.2-0.4,0.9-1c-2.6-5.8-7.9-7.9-7.9-7.9
		C2607.5,245.3,2607.1,247,2608.1,249.3z"/>
	<path class="st0" d="M2607.3,264.9c1.4,3.7,3,4.5,6.8,5.7c0.6,0.2,1.2-0.4,1-1c-2.3-5.9-7.5-8.2-7.5-8.2
		C2606.9,260.9,2606.4,262.5,2607.3,264.9z"/>
	<path class="st0" d="M2608,210.6c2.1,4.3,4.1,5.2,8.8,6.2c0.8,0.2,1.4-0.6,1-1.3c-3.5-7-10-9.2-10-9.2
		C2607,205.8,2606.6,207.8,2608,210.6z"/>
	<path class="st0" d="M2608.3,201.2c1.8,3.4,3.5,4,7.4,4.8c0.6,0.1,1.2-0.5,0.9-1c-2.9-5.5-8.4-7.1-8.4-7.1
		C2607.5,197.4,2607.2,199,2608.3,201.2z"/>
	<path class="st0" d="M2607.6,190.7c1.9,4,3.8,4.8,8,5.7c0.7,0.1,1.3-0.6,1-1.2c-3.2-6.5-9.1-8.5-9.1-8.5
		C2606.7,186.2,2606.4,188.1,2607.6,190.7z"/>
	<path class="st0" d="M2607.8,180.1c1.8,3.4,3.5,4.1,7.4,4.9c0.6,0.1,1.2-0.5,0.9-1c-2.9-5.5-8.4-7.2-8.4-7.2
		C2607,176.3,2606.7,177.9,2607.8,180.1z"/>
	<path class="st0" d="M2607.9,167.9c1.8,4.3,3.6,5.1,7.7,6.1c0.7,0.2,1.2-0.6,0.9-1.3c-3-7-8.7-9.1-8.7-9.1
		C2607,163.1,2606.7,165.1,2607.9,167.9z"/>
	<path class="st0" d="M2607.4,153.7c1.8,4.1,3.7,5,7.8,5.9c0.7,0.2,1.2-0.6,0.9-1.3c-3.1-6.7-8.8-8.8-8.8-8.8
		C2606.5,149.1,2606.2,151,2607.4,153.7z"/>
	<path class="st0" d="M2608.5,141.9c2.1,4.1,4.1,5,8.7,5.9c0.7,0.2,1.4-0.6,1-1.3c-3.4-6.7-9.9-8.8-9.9-8.8
		C2607.5,137.3,2607.1,139.2,2608.5,141.9z"/>
	<path class="st0" d="M2608.2,131.2c1.8,3.7,3.7,4.4,7.8,5.3c0.7,0.1,1.2-0.5,0.9-1.1c-3.1-6-8.8-7.9-8.8-7.9
		C2607.4,127.1,2607.1,128.8,2608.2,131.2z"/>
	<path class="st0" d="M2608.2,120.5c2,3.6,3.9,4.2,8.1,4.9c0.7,0.1,1.2-0.6,0.9-1.2c-3.4-5.8-9.2-7.4-9.2-7.4
		C2607.1,116.4,2606.9,118.1,2608.2,120.5z"/>
	<path class="st0" d="M2606.4,222.2c-1.6,4.3-3.3,5.1-6.9,6.1c-0.6,0.2-1.1-0.6-0.8-1.3c2.7-7,7.8-9.1,7.8-9.1
		C2607.2,217.5,2607.5,219.5,2606.4,222.2z"/>
	<path class="st0" d="M2606.8,235.5c-1,4-2.7,5.1-6.5,6.8c-0.6,0.3-1.3-0.2-1.1-0.9c1.7-6.4,7-9.5,7-9.5
		C2606.8,231.3,2607.5,232.9,2606.8,235.5z"/>
	<path class="st0" d="M2606.5,249.2c-1.2,3.7-2.8,4.6-6.5,6c-0.6,0.2-1.2-0.3-1-0.9c2.1-6,7.2-8.5,7.2-8.5
		C2606.8,245.2,2607.3,246.8,2606.5,249.2z"/>
	<path class="st0" d="M2606.1,265.5c-1,3.8-2.6,4.8-6.2,6.3c-0.6,0.2-1.2-0.3-1.1-0.9c1.7-6.1,6.7-8.9,6.7-8.9
		C2606.1,261.5,2606.7,263.1,2606.1,265.5z"/>
	<path class="st0" d="M2605.9,209.8c-2,3.8-4,4.5-8.4,5.4c-0.7,0.1-1.3-0.5-1-1.2c3.3-6.1,9.5-8,9.5-8
		C2606.9,205.6,2607.2,207.4,2605.9,209.8z"/>
	<path class="st0" d="M2606.3,200.3c-1.8,3.4-3.5,4-7.4,4.8c-0.6,0.1-1.2-0.5-0.9-1c2.9-5.5,8.4-7.1,8.4-7.1
		C2607.1,196.6,2607.4,198.2,2606.3,200.3z"/>
	<path class="st0" d="M2606.1,190c-1.9,4-3.8,4.8-8,5.7c-0.7,0.1-1.3-0.6-1-1.2c3.2-6.5,9.1-8.5,9.1-8.5
		C2607,185.5,2607.4,187.4,2606.1,190z"/>
	<path class="st0" d="M2606.2,179.3c-1.8,3.4-3.5,4.1-7.4,4.9c-0.6,0.1-1.2-0.5-0.9-1c2.9-5.5,8.4-7.2,8.4-7.2
		C2607,175.5,2607.4,177.1,2606.2,179.3z"/>
	<path class="st0" d="M2608.3,109.8c1.8,3.4,3.5,4,7.4,4.8c0.6,0.1,1.2-0.5,0.9-1c-2.9-5.5-8.4-7.1-8.4-7.1
		C2607.5,106,2607.2,107.6,2608.3,109.8z"/>
	<path class="st0" d="M2607.6,99.2c1.9,4,3.8,4.8,8,5.7c0.7,0.1,1.3-0.6,1-1.2c-3.2-6.5-9.1-8.5-9.1-8.5
		C2606.7,94.8,2606.4,96.6,2607.6,99.2z"/>
	<path class="st0" d="M2607.8,88.7c1.8,3.4,3.5,4.1,7.4,4.9c0.6,0.1,1.2-0.5,0.9-1c-2.9-5.5-8.4-7.2-8.4-7.2
		C2607,84.9,2606.7,86.5,2607.8,88.7z"/>
	<path class="st0" d="M2606.3,108.9c-1.8,3.4-3.5,4-7.4,4.8c-0.6,0.1-1.2-0.5-0.9-1c2.9-5.5,8.4-7.1,8.4-7.1
		C2607.1,105.1,2607.4,106.7,2606.3,108.9z"/>
	<path class="st0" d="M2606.1,98.6c-1.9,4-3.8,4.8-8,5.7c-0.7,0.1-1.3-0.6-1-1.2c3.2-6.5,9.1-8.5,9.1-8.5
		C2607,94.1,2607.4,96,2606.1,98.6z"/>
	<path class="st0" d="M2606.2,87.8c-1.8,3.4-3.5,4.1-7.4,4.9c-0.6,0.1-1.2-0.5-0.9-1c2.9-5.5,8.4-7.2,8.4-7.2
		C2607,84,2607.4,85.6,2606.2,87.8z"/>
	<path class="st0" d="M2606.4,167.4c-1.8,4.3-3.6,5.1-7.7,6.1c-0.7,0.2-1.2-0.6-0.9-1.3c3-7,8.7-9.1,8.7-9.1
		C2607.3,162.6,2607.6,164.6,2606.4,167.4z"/>
	<path class="st0" d="M2606.5,152.1c-1.8,4.1-3.7,5-7.8,5.9c-0.7,0.2-1.2-0.6-0.9-1.3c3.1-6.7,8.8-8.8,8.8-8.8
		C2607.3,147.4,2607.7,149.4,2606.5,152.1z"/>
	<path class="st0" d="M2605.8,140.2c-1.7,3.8-3.4,4.6-7.2,5.4c-0.6,0.1-1.1-0.5-0.9-1.2c2.8-6.2,8.2-8.1,8.2-8.1
		C2606.6,135.9,2606.9,137.7,2605.8,140.2z"/>
	<path class="st0" d="M2605.7,130c-1.8,3.4-3.5,4-7.2,4.6c-0.6,0.1-1.1-0.6-0.8-1.1c3-5.5,8.2-7,8.2-7
		C2606.7,126.2,2606.9,127.8,2605.7,130z"/>
	<path class="st0" d="M2606,119.6c-2,3.6-3.9,4.2-8.1,4.9c-0.7,0.1-1.2-0.6-0.9-1.2c3.4-5.8,9.2-7.4,9.2-7.4
		C2607.1,115.5,2607.3,117.3,2606,119.6z"/>
	<path class="st0" d="M2606.3,276.1V76.6c0-0.5,0.4-0.9,0.9-0.9l0,0c0.5,0,0.9,0.4,0.9,0.9v199.4c0,0.5-0.4,0.9-0.9,0.9l0,0
		C2606.6,276.9,2606.3,276.5,2606.3,276.1z"/>
	<path class="st0" d="M2605.2,283c0.1,2.2,1.3,7.7,2.5,7.9c0.6,0.1,1.2-1.7,2.1-4.5c0.2-0.5,0.4-2.4,0.3-2.9
		c-0.3-3.9-2.3-8.5-2.3-8.5C2605.3,276.3,2605,280.8,2605.2,283z"/>
</g>
<g>
	<path class="st0" d="M2367.8,266c2.4,4.9,4.7,5.9,10,7c0.9,0.2,1.6-0.7,1.2-1.5c-3.9-8-11.3-10.4-11.3-10.4
		C2366.7,260.5,2366.2,262.8,2367.8,266z"/>
	<path class="st0" d="M2367.8,280.9c2.1,4.1,4.2,4.9,8.9,5.9c0.8,0.2,1.4-0.6,1-1.3c-3.5-6.7-10-8.7-10-8.7
		C2366.8,276.3,2366.4,278.3,2367.8,280.9z"/>
	<path class="st0" d="M2368.8,295.7c1.7,4.1,3.6,4.9,8,6.1c0.7,0.2,1.3-0.5,1-1.1c-2.9-6.6-8.9-8.9-8.9-8.9
		C2368.1,291.3,2367.6,293.1,2368.8,295.7z"/>
	<path class="st0" d="M2367.9,313.4c1.5,4.1,3.4,5.1,7.7,6.5c0.7,0.2,1.4-0.4,1.1-1.1c-2.6-6.7-8.5-9.3-8.5-9.3
		C2367.4,308.9,2366.9,310.7,2367.9,313.4z"/>
	<path class="st0" d="M2368.6,251.9c2.4,4.9,4.7,5.9,10,7c0.9,0.2,1.6-0.7,1.2-1.5c-3.9-8-11.3-10.4-11.3-10.4
		C2367.5,246.4,2367.1,248.7,2368.6,251.9z"/>
	<path class="st0" d="M2369,241.3c2,3.8,4,4.6,8.4,5.4c0.7,0.1,1.3-0.5,1-1.2c-3.3-6.2-9.5-8.1-9.5-8.1
		C2368,237,2367.7,238.8,2369,241.3z"/>
	<path class="st0" d="M2368.2,229.4c2.2,4.6,4.3,5.5,9.1,6.5c0.8,0.2,1.4-0.7,1.1-1.4c-3.6-7.4-10.3-9.7-10.3-9.7
		C2367.2,224.3,2366.8,226.4,2368.2,229.4z"/>
	<path class="st0" d="M2368.4,217.4c2,3.9,4,4.6,8.4,5.5c0.7,0.1,1.3-0.6,1-1.2c-3.3-6.3-9.5-8.2-9.5-8.2
		C2367.5,213.1,2367.1,214.9,2368.4,217.4z"/>
	<path class="st0" d="M2368.5,203.5c2.1,4.9,4.1,5.8,8.7,6.9c0.8,0.2,1.4-0.7,1-1.5c-3.4-7.9-9.9-10.3-9.9-10.3
		C2367.5,198.1,2367.1,200.3,2368.5,203.5z"/>
	<path class="st0" d="M2367.9,187.4c2.1,4.7,4.2,5.6,8.9,6.7c0.8,0.2,1.4-0.7,1-1.4c-3.5-7.6-10-9.9-10-9.9
		C2366.9,182.2,2366.6,184.4,2367.9,187.4z"/>
	<path class="st0" d="M2369.1,174c2.3,4.7,4.6,5.6,9.9,6.7c0.8,0.2,1.6-0.7,1.2-1.4c-3.9-7.6-11.2-9.9-11.2-9.9
		C2368,168.8,2367.6,171,2369.1,174z"/>
	<path class="st0" d="M2368.9,161.9c2.1,4.2,4.2,5,8.9,6c0.8,0.2,1.4-0.6,1-1.3c-3.5-6.8-10-8.9-10-8.9
		C2367.9,157.2,2367.6,159.2,2368.9,161.9z"/>
	<path class="st0" d="M2368.9,149.8c2.3,4.1,4.4,4.8,9.2,5.5c0.8,0.1,1.4-0.7,1-1.3c-3.8-6.6-10.5-8.4-10.5-8.4
		C2367.6,145.1,2367.4,147.1,2368.9,149.8z"/>
	<path class="st0" d="M2366.9,265.1c-1.9,4.9-3.7,5.8-7.8,6.9c-0.7,0.2-1.2-0.7-0.9-1.5c3.1-7.9,8.9-10.3,8.9-10.3
		C2367.7,259.7,2368.1,262,2366.9,265.1z"/>
	<path class="st0" d="M2367.3,280.1c-1.2,4.5-3,5.7-7.4,7.7c-0.7,0.3-1.5-0.3-1.3-1c2-7.3,7.9-10.7,7.9-10.7
		C2367.3,275.4,2368,277.2,2367.3,280.1z"/>
	<path class="st0" d="M2366.9,295.6c-1.4,4.2-3.2,5.2-7.4,6.8c-0.7,0.2-1.4-0.4-1.1-1.1c2.3-6.8,8.1-9.6,8.1-9.6
		C2367.2,291.1,2367.8,292.9,2366.9,295.6z"/>
	<path class="st0" d="M2366.4,314.1c-1.2,4.3-2.9,5.4-7,7.2c-0.7,0.3-1.4-0.3-1.2-1c1.9-6.9,7.6-10.1,7.6-10.1
		C2366.5,309.6,2367.2,311.4,2366.4,314.1z"/>
	<path class="st0" d="M2366.3,251c-2.3,4.3-4.5,5.1-9.5,6.1c-0.8,0.2-1.5-0.6-1.1-1.3c3.7-7,10.8-9.1,10.8-9.1
		C2367.3,246.2,2367.7,248.2,2366.3,251z"/>
	<path class="st0" d="M2366.7,240.3c-2,3.8-4,4.6-8.4,5.4c-0.7,0.1-1.3-0.5-1-1.2c3.3-6.2,9.5-8.1,9.5-8.1
		C2367.6,236,2368,237.8,2366.7,240.3z"/>
	<path class="st0" d="M2366.5,228.6c-2.2,4.6-4.3,5.5-9.1,6.5c-0.8,0.2-1.4-0.7-1.1-1.4c3.6-7.4,10.3-9.7,10.3-9.7
		C2367.5,223.5,2367.9,225.6,2366.5,228.6z"/>
	<path class="st0" d="M2366.6,216.4c-2,3.9-4,4.6-8.4,5.5c-0.7,0.1-1.3-0.6-1-1.2c3.3-6.3,9.5-8.2,9.5-8.2
		C2367.5,212.1,2367.9,213.9,2366.6,216.4z"/>
	<path class="st0" d="M2369,137.6c2,3.8,4,4.6,8.4,5.4c0.7,0.1,1.3-0.5,1-1.2c-3.3-6.2-9.5-8.1-9.5-8.1
		C2368,133.4,2367.7,135.2,2369,137.6z"/>
	<path class="st0" d="M2368.2,125.7c2.2,4.6,4.3,5.5,9.1,6.5c0.8,0.2,1.4-0.7,1.1-1.4c-3.6-7.4-10.3-9.7-10.3-9.7
		C2367.2,120.6,2366.8,122.8,2368.2,125.7z"/>
	<path class="st0" d="M2368.4,113.8c2,3.9,4,4.6,8.4,5.5c0.7,0.1,1.3-0.6,1-1.2c-3.3-6.3-9.5-8.2-9.5-8.2
		C2367.5,109.4,2367.1,111.3,2368.4,113.8z"/>
	<path class="st0" d="M2366.7,136.6c-2,3.8-4,4.6-8.4,5.4c-0.7,0.1-1.3-0.5-1-1.2c3.3-6.2,9.5-8.1,9.5-8.1
		C2367.6,132.4,2368,134.2,2366.7,136.6z"/>
	<path class="st0" d="M2366.5,124.9c-2.2,4.6-4.3,5.5-9.1,6.5c-0.8,0.2-1.4-0.7-1.1-1.4c3.6-7.4,10.3-9.7,10.3-9.7
		C2367.5,119.8,2367.9,122,2366.5,124.9z"/>
	<path class="st0" d="M2366.6,112.8c-2,3.9-4,4.6-8.4,5.5c-0.7,0.1-1.3-0.6-1-1.2c3.3-6.3,9.5-8.2,9.5-8.2
		C2367.5,108.4,2367.9,110.3,2366.6,112.8z"/>
	<path class="st0" d="M2366.9,202.9c-2.1,4.9-4.1,5.8-8.7,6.9c-0.8,0.2-1.4-0.7-1-1.5c3.4-7.9,9.9-10.3,9.9-10.3
		C2367.8,197.5,2368.2,199.8,2366.9,202.9z"/>
	<path class="st0" d="M2366.9,185.6c-2.1,4.7-4.2,5.6-8.9,6.7c-0.8,0.2-1.4-0.7-1-1.4c3.5-7.6,10-9.9,10-9.9
		C2367.9,180.3,2368.2,182.5,2366.9,185.6z"/>
	<path class="st0" d="M2366.1,172.1c-1.9,4.3-3.9,5.2-8.2,6.2c-0.7,0.2-1.3-0.6-1-1.3c3.2-7,9.3-9.2,9.3-9.2
		C2367,167.3,2367.4,169.3,2366.1,172.1z"/>
	<path class="st0" d="M2366.1,160.6c-2,3.9-3.9,4.6-8.1,5.2c-0.7,0.1-1.2-0.6-0.9-1.3c3.4-6.3,9.3-8,9.3-8
		C2367.1,156.2,2367.4,158.1,2366.1,160.6z"/>
	<path class="st0" d="M2366.4,148.8c-2.3,4.1-4.4,4.8-9.2,5.5c-0.8,0.1-1.4-0.7-1-1.3c3.8-6.6,10.5-8.4,10.5-8.4
		C2367.6,144.1,2367.9,146.1,2366.4,148.8z"/>
	<path class="st0" d="M2366.7,326.1v-226c0-0.5,0.4-1,1-1l0,0c0.5,0,1,0.4,1,1v226c0,0.5-0.4,1-1,1l0,0
		C2367.1,327.1,2366.7,326.6,2366.7,326.1z"/>
	<path class="st0" d="M2365.4,333.9c0.1,2.5,1.5,8.7,2.8,9c0.7,0.1,1.4-2,2.4-5.1c0.2-0.5,0.4-2.7,0.4-3.3c-0.3-4.4-2.7-9.6-2.7-9.6
		C2365.5,326.4,2365.3,331.5,2365.4,333.9z"/>
</g>
<g>
	<path class="st0" d="M2193.1,264.7c2.4,4.9,4.7,5.9,10,7c0.9,0.2,1.6-0.7,1.2-1.5c-3.9-8-11.3-10.4-11.3-10.4
		C2192,259.2,2191.6,261.5,2193.1,264.7z"/>
	<path class="st0" d="M2193.1,279.6c2.1,4.1,4.2,4.9,8.9,5.9c0.8,0.2,1.4-0.6,1-1.3c-3.5-6.7-10-8.7-10-8.7
		C2192.1,275,2191.8,276.9,2193.1,279.6z"/>
	<path class="st0" d="M2194.1,294.4c1.7,4.1,3.6,4.9,8,6.1c0.7,0.2,1.3-0.5,1-1.1c-2.9-6.6-8.9-8.9-8.9-8.9
		C2193.4,289.9,2193,291.8,2194.1,294.4z"/>
	<path class="st0" d="M2193.2,312.1c1.5,4.1,3.4,5.1,7.7,6.5c0.7,0.2,1.4-0.4,1.1-1.1c-2.6-6.7-8.5-9.3-8.5-9.3
		C2192.7,307.6,2192.2,309.4,2193.2,312.1z"/>
	<path class="st0" d="M2193.9,250.6c2.4,4.9,4.7,5.9,10,7c0.9,0.2,1.6-0.7,1.2-1.5c-3.9-8-11.3-10.4-11.3-10.4
		C2192.8,245.1,2192.4,247.4,2193.9,250.6z"/>
	<path class="st0" d="M2194.3,239.9c2,3.8,4,4.6,8.4,5.4c0.7,0.1,1.3-0.5,1-1.2c-3.3-6.2-9.5-8.1-9.5-8.1
		C2193.4,235.7,2193,237.5,2194.3,239.9z"/>
	<path class="st0" d="M2193.5,228c2.2,4.6,4.3,5.5,9.1,6.5c0.8,0.2,1.4-0.7,1.1-1.4c-3.6-7.4-10.3-9.7-10.3-9.7
		C2192.5,222.9,2192.2,225.1,2193.5,228z"/>
	<path class="st0" d="M2193.8,216.1c2,3.9,4,4.6,8.4,5.5c0.7,0.1,1.3-0.6,1-1.2c-3.3-6.3-9.5-8.2-9.5-8.2
		C2192.8,211.7,2192.5,213.6,2193.8,216.1z"/>
	<path class="st0" d="M2193.8,202.1c2.1,4.9,4.1,5.8,8.7,6.9c0.8,0.2,1.4-0.7,1-1.5c-3.4-7.9-9.9-10.3-9.9-10.3
		C2192.8,196.7,2192.5,199,2193.8,202.1z"/>
	<path class="st0" d="M2193.3,186.1c2.1,4.7,4.2,5.6,8.9,6.7c0.8,0.2,1.4-0.7,1-1.4c-3.5-7.6-10-9.9-10-9.9
		C2192.3,180.8,2191.9,183,2193.3,186.1z"/>
	<path class="st0" d="M2194.5,172.7c2.3,4.7,4.6,5.6,9.9,6.7c0.8,0.2,1.6-0.7,1.2-1.4c-3.9-7.6-11.2-9.9-11.2-9.9
		C2193.4,167.5,2193,169.7,2194.5,172.7z"/>
	<path class="st0" d="M2194.2,160.6c2.1,4.2,4.2,5,8.9,6c0.8,0.2,1.4-0.6,1-1.3c-3.5-6.8-10-8.9-10-8.9
		C2193.3,155.9,2192.9,157.9,2194.2,160.6z"/>
	<path class="st0" d="M2194.2,148.4c2.3,4.1,4.4,4.8,9.2,5.5c0.8,0.1,1.4-0.7,1-1.3c-3.8-6.6-10.5-8.4-10.5-8.4
		C2193,143.8,2192.7,145.8,2194.2,148.4z"/>
	<path class="st0" d="M2192.2,263.8c-1.9,4.9-3.7,5.8-7.8,6.9c-0.7,0.2-1.2-0.7-0.9-1.5c3.1-7.9,8.9-10.3,8.9-10.3
		C2193.1,258.3,2193.4,260.6,2192.2,263.8z"/>
	<path class="st0" d="M2192.6,278.8c-1.2,4.5-3,5.7-7.4,7.7c-0.7,0.3-1.5-0.3-1.3-1c2-7.3,7.9-10.7,7.9-10.7
		C2192.6,274.1,2193.4,275.9,2192.6,278.8z"/>
	<path class="st0" d="M2192.3,294.3c-1.4,4.2-3.2,5.2-7.4,6.8c-0.7,0.2-1.4-0.4-1.1-1.1c2.3-6.8,8.1-9.6,8.1-9.6
		C2192.6,289.8,2193.2,291.6,2192.3,294.3z"/>
	<path class="st0" d="M2191.8,312.8c-1.2,4.3-2.9,5.4-7,7.2c-0.7,0.3-1.4-0.3-1.2-1c1.9-6.9,7.6-10.1,7.6-10.1
		C2191.8,308.3,2192.5,310,2191.8,312.8z"/>
	<path class="st0" d="M2191.6,249.7c-2.3,4.3-4.5,5.1-9.5,6.1c-0.8,0.2-1.5-0.6-1.1-1.3c3.7-7,10.8-9.1,10.8-9.1
		C2192.7,244.9,2193.1,246.9,2191.6,249.7z"/>
	<path class="st0" d="M2192,238.9c-2,3.8-4,4.6-8.4,5.4c-0.7,0.1-1.3-0.5-1-1.2c3.3-6.2,9.5-8.1,9.5-8.1
		C2193,234.7,2193.3,236.5,2192,238.9z"/>
	<path class="st0" d="M2191.8,227.2c-2.2,4.6-4.3,5.5-9.1,6.5c-0.8,0.2-1.4-0.7-1.1-1.4c3.6-7.4,10.3-9.7,10.3-9.7
		C2192.9,222.2,2193.2,224.3,2191.8,227.2z"/>
	<path class="st0" d="M2191.9,215.1c-2,3.9-4,4.6-8.4,5.5c-0.7,0.1-1.3-0.6-1-1.2c3.3-6.3,9.5-8.2,9.5-8.2
		C2192.9,210.8,2193.2,212.6,2191.9,215.1z"/>
	<path class="st0" d="M2194.3,136.3c2,3.8,4,4.6,8.4,5.4c0.7,0.1,1.3-0.5,1-1.2c-3.3-6.2-9.5-8.1-9.5-8.1
		C2193.4,132,2193,133.8,2194.3,136.3z"/>
	<path class="st0" d="M2193.5,124.4c2.2,4.6,4.3,5.5,9.1,6.5c0.8,0.2,1.4-0.7,1.1-1.4c-3.6-7.4-10.3-9.7-10.3-9.7
		C2192.5,119.3,2192.2,121.4,2193.5,124.4z"/>
	<path class="st0" d="M2193.8,112.4c2,3.9,4,4.6,8.4,5.5c0.7,0.1,1.3-0.6,1-1.2c-3.3-6.3-9.5-8.2-9.5-8.2
		C2192.8,108.1,2192.5,109.9,2193.8,112.4z"/>
	<path class="st0" d="M2192,135.3c-2,3.8-4,4.6-8.4,5.4c-0.7,0.1-1.3-0.5-1-1.2c3.3-6.2,9.5-8.1,9.5-8.1
		C2193,131,2193.3,132.8,2192,135.3z"/>
	<path class="st0" d="M2191.8,123.6c-2.2,4.6-4.3,5.5-9.1,6.5c-0.8,0.2-1.4-0.7-1.1-1.4c3.6-7.4,10.3-9.7,10.3-9.7
		C2192.9,118.5,2193.2,120.7,2191.8,123.6z"/>
	<path class="st0" d="M2191.9,111.4c-2,3.9-4,4.6-8.4,5.5c-0.7,0.1-1.3-0.6-1-1.2c3.3-6.3,9.5-8.2,9.5-8.2
		C2192.9,107.1,2193.2,108.9,2191.9,111.4z"/>
	<path class="st0" d="M2192.2,201.6c-2.1,4.9-4.1,5.8-8.7,6.9c-0.8,0.2-1.4-0.7-1-1.5c3.4-7.9,9.9-10.3,9.9-10.3
		C2193.2,196.2,2193.5,198.4,2192.2,201.6z"/>
	<path class="st0" d="M2192.2,184.2c-2.1,4.7-4.2,5.6-8.9,6.7c-0.8,0.2-1.4-0.7-1-1.4c3.5-7.6,10-9.9,10-9.9
		C2193.2,179,2193.6,181.2,2192.2,184.2z"/>
	<path class="st0" d="M2191.5,170.8c-1.9,4.3-3.9,5.2-8.2,6.2c-0.7,0.2-1.3-0.6-1-1.3c3.2-7,9.3-9.2,9.3-9.2
		C2192.4,165.9,2192.7,168,2191.5,170.8z"/>
	<path class="st0" d="M2191.4,159.3c-2,3.9-3.9,4.6-8.1,5.2c-0.7,0.1-1.2-0.6-0.9-1.3c3.4-6.3,9.3-8,9.3-8
		C2192.5,154.9,2192.7,156.8,2191.4,159.3z"/>
	<path class="st0" d="M2191.7,147.4c-2.3,4.1-4.4,4.8-9.2,5.5c-0.8,0.1-1.4-0.7-1-1.3c3.8-6.6,10.5-8.4,10.5-8.4
		C2192.9,142.8,2193.2,144.8,2191.7,147.4z"/>
	<path class="st0" d="M2192,324.7v-226c0-0.5,0.4-1,1-1l0,0c0.5,0,1,0.4,1,1v226c0,0.5-0.4,1-1,1l0,0
		C2192.4,325.7,2192,325.3,2192,324.7z"/>
	<path class="st0" d="M2190.7,332.6c0.1,2.5,1.5,8.7,2.8,9c0.7,0.1,1.4-2,2.4-5.1c0.2-0.5,0.4-2.7,0.4-3.3c-0.3-4.4-2.7-9.6-2.7-9.6
		C2190.9,325,2190.6,330.1,2190.7,332.6z"/>
</g>
<g>
	<path class="st0" d="M1991.8,223.3c2.4,4.9,4.7,5.9,10,7c0.9,0.2,1.6-0.7,1.2-1.5c-3.9-8-11.3-10.4-11.3-10.4
		C1990.7,217.8,1990.2,220.2,1991.8,223.3z"/>
	<path class="st0" d="M1991.8,238.3c2.1,4.1,4.2,4.9,8.9,5.9c0.8,0.2,1.4-0.6,1-1.3c-3.5-6.7-10-8.7-10-8.7
		C1990.8,233.7,1990.4,235.6,1991.8,238.3z"/>
	<path class="st0" d="M1992.8,253.1c1.7,4.1,3.6,4.9,8,6.1c0.7,0.2,1.3-0.5,1-1.1c-2.9-6.6-8.9-8.9-8.9-8.9
		C1992.1,248.6,1991.6,250.4,1992.8,253.1z"/>
	<path class="st0" d="M1991.9,270.7c1.5,4.1,3.4,5.1,7.7,6.5c0.7,0.2,1.4-0.4,1.1-1.1c-2.6-6.7-8.5-9.3-8.5-9.3
		C1991.4,266.2,1990.9,268,1991.9,270.7z"/>
	<path class="st0" d="M1992.6,209.3c2.4,4.9,4.7,5.9,10,7c0.9,0.2,1.6-0.7,1.2-1.5c-3.9-8-11.3-10.4-11.3-10.4
		C1991.5,203.8,1991.1,206.1,1992.6,209.3z"/>
	<path class="st0" d="M1993,198.6c2,3.8,4,4.6,8.4,5.4c0.7,0.1,1.3-0.5,1-1.2c-3.3-6.2-9.5-8.1-9.5-8.1
		C1992,194.3,1991.7,196.1,1993,198.6z"/>
	<path class="st0" d="M1992.2,186.7c2.2,4.6,4.3,5.5,9.1,6.5c0.8,0.2,1.4-0.7,1.1-1.4c-3.6-7.4-10.3-9.7-10.3-9.7
		C1991.2,181.6,1990.8,183.7,1992.2,186.7z"/>
	<path class="st0" d="M1992.4,174.7c2,3.9,4,4.6,8.4,5.5c0.7,0.1,1.3-0.6,1-1.2c-3.3-6.3-9.5-8.2-9.5-8.2
		C1991.5,170.4,1991.1,172.2,1992.4,174.7z"/>
	<path class="st0" d="M1992.5,160.8c2.1,4.9,4.1,5.8,8.7,6.9c0.8,0.2,1.4-0.7,1-1.5c-3.4-7.9-9.9-10.3-9.9-10.3
		C1991.5,155.4,1991.1,157.7,1992.5,160.8z"/>
	<path class="st0" d="M1991.9,144.7c2.1,4.7,4.2,5.6,8.9,6.7c0.8,0.2,1.4-0.7,1-1.4c-3.5-7.6-10-9.9-10-9.9
		C1990.9,139.5,1990.6,141.7,1991.9,144.7z"/>
	<path class="st0" d="M1993.1,131.4c2.3,4.7,4.6,5.6,9.9,6.7c0.8,0.2,1.6-0.7,1.2-1.4c-3.9-7.6-11.2-9.9-11.2-9.9
		C1992,126.1,1991.6,128.3,1993.1,131.4z"/>
	<path class="st0" d="M1992.9,119.2c2.1,4.2,4.2,5,8.9,6c0.8,0.2,1.4-0.6,1-1.3c-3.5-6.8-10-8.9-10-8.9
		C1991.9,114.6,1991.6,116.5,1992.9,119.2z"/>
	<path class="st0" d="M1992.9,107.1c2.3,4.1,4.4,4.8,9.2,5.5c0.8,0.1,1.4-0.7,1-1.3c-3.8-6.6-10.5-8.4-10.5-8.4
		C1991.6,102.5,1991.4,104.5,1992.9,107.1z"/>
	<path class="st0" d="M1990.9,222.4c-1.9,4.9-3.7,5.8-7.8,6.9c-0.7,0.2-1.2-0.7-0.9-1.5c3.1-7.9,8.9-10.3,8.9-10.3
		C1991.7,217,1992.1,219.3,1990.9,222.4z"/>
	<path class="st0" d="M1991.3,237.4c-1.2,4.5-3,5.7-7.4,7.7c-0.7,0.3-1.5-0.3-1.3-1c2-7.3,7.9-10.7,7.9-10.7
		C1991.3,232.7,1992,234.5,1991.3,237.4z"/>
	<path class="st0" d="M1990.9,253c-1.4,4.2-3.2,5.2-7.4,6.8c-0.7,0.2-1.4-0.4-1.1-1.1c2.3-6.8,8.1-9.6,8.1-9.6
		C1991.2,248.5,1991.8,250.3,1990.9,253z"/>
	<path class="st0" d="M1990.4,271.5c-1.2,4.3-2.9,5.4-7,7.2c-0.7,0.3-1.4-0.3-1.2-1c1.9-6.9,7.6-10.1,7.6-10.1
		C1990.5,266.9,1991.2,268.7,1990.4,271.5z"/>
	<path class="st0" d="M1990.3,208.3c-2.3,4.3-4.5,5.1-9.5,6.1c-0.8,0.2-1.5-0.6-1.1-1.3c3.7-7,10.8-9.1,10.8-9.1
		C1991.3,203.5,1991.7,205.6,1990.3,208.3z"/>
	<path class="st0" d="M1990.7,197.6c-2,3.8-4,4.6-8.4,5.4c-0.7,0.1-1.3-0.5-1-1.2c3.3-6.2,9.5-8.1,9.5-8.1
		C1991.6,193.3,1992,195.1,1990.7,197.6z"/>
	<path class="st0" d="M1990.5,185.9c-2.2,4.6-4.3,5.5-9.1,6.5c-0.8,0.2-1.4-0.7-1.1-1.4c3.6-7.4,10.3-9.7,10.3-9.7
		C1991.5,180.8,1991.9,183,1990.5,185.9z"/>
	<path class="st0" d="M1990.6,173.7c-2,3.9-4,4.6-8.4,5.5c-0.7,0.1-1.3-0.6-1-1.2c3.3-6.3,9.5-8.2,9.5-8.2
		C1991.5,169.4,1991.9,171.2,1990.6,173.7z"/>
	<path class="st0" d="M1993,94.9c2,3.8,4,4.6,8.4,5.4c0.7,0.1,1.3-0.5,1-1.2c-3.3-6.2-9.5-8.1-9.5-8.1
		C1992,90.7,1991.7,92.5,1993,94.9z"/>
	<path class="st0" d="M1992.2,83c2.2,4.6,4.3,5.5,9.1,6.5c0.8,0.2,1.4-0.7,1.1-1.4c-3.6-7.4-10.3-9.7-10.3-9.7
		C1991.2,78,1990.8,80.1,1992.2,83z"/>
	<path class="st0" d="M1992.4,71.1c2,3.9,4,4.6,8.4,5.5c0.7,0.1,1.3-0.6,1-1.2c-3.3-6.3-9.5-8.2-9.5-8.2
		C1991.5,66.8,1991.1,68.6,1992.4,71.1z"/>
	<path class="st0" d="M1990.7,94c-2,3.8-4,4.6-8.4,5.4c-0.7,0.1-1.3-0.5-1-1.2c3.3-6.2,9.5-8.1,9.5-8.1
		C1991.6,89.7,1992,91.5,1990.7,94z"/>
	<path class="st0" d="M1990.5,82.3c-2.2,4.6-4.3,5.5-9.1,6.5c-0.8,0.2-1.4-0.7-1.1-1.4c3.6-7.4,10.3-9.7,10.3-9.7
		C1991.5,77.2,1991.9,79.3,1990.5,82.3z"/>
	<path class="st0" d="M1990.6,70.1c-2,3.9-4,4.6-8.4,5.5c-0.7,0.1-1.3-0.6-1-1.2c3.3-6.3,9.5-8.2,9.5-8.2
		C1991.5,65.8,1991.9,67.6,1990.6,70.1z"/>
	<path class="st0" d="M1990.9,160.2c-2.1,4.9-4.1,5.8-8.7,6.9c-0.8,0.2-1.4-0.7-1-1.5c3.4-7.9,9.9-10.3,9.9-10.3
		C1991.8,154.8,1992.2,157.1,1990.9,160.2z"/>
	<path class="st0" d="M1990.9,142.9c-2.1,4.7-4.2,5.6-8.9,6.7c-0.8,0.2-1.4-0.7-1-1.4c3.5-7.6,10-9.9,10-9.9
		C1991.9,137.7,1992.2,139.9,1990.9,142.9z"/>
	<path class="st0" d="M1990.1,129.5c-1.9,4.3-3.9,5.2-8.2,6.2c-0.7,0.2-1.3-0.6-1-1.3c3.2-7,9.3-9.2,9.3-9.2
		C1991,124.6,1991.4,126.7,1990.1,129.5z"/>
	<path class="st0" d="M1990.1,117.9c-2,3.9-3.9,4.6-8.1,5.2c-0.7,0.1-1.2-0.6-0.9-1.3c3.4-6.3,9.3-8,9.3-8
		C1991.1,113.6,1991.4,115.4,1990.1,117.9z"/>
	<path class="st0" d="M1990.4,106.1c-2.3,4.1-4.4,4.8-9.2,5.5c-0.8,0.1-1.4-0.7-1-1.3c3.8-6.6,10.5-8.4,10.5-8.4
		C1991.6,101.5,1991.9,103.5,1990.4,106.1z"/>
	<path class="st0" d="M1990.7,283.4v-226c0-0.5,0.4-1,1-1l0,0c0.5,0,1,0.4,1,1v226c0,0.5-0.4,1-1,1l0,0
		C1991.1,284.4,1990.7,284,1990.7,283.4z"/>
	<path class="st0" d="M1989.4,291.2c0.1,2.5,1.5,8.7,2.8,9c0.7,0.1,1.4-2,2.4-5.1c0.2-0.5,0.4-2.7,0.4-3.3c-0.3-4.4-2.7-9.6-2.7-9.6
		C1989.5,283.7,1989.3,288.8,1989.4,291.2z"/>
</g>
<g>
	<path class="st0" d="M1891.1,258c2.4,4.9,4.7,5.9,10,7c0.9,0.2,1.6-0.7,1.2-1.5c-3.9-8-11.3-10.4-11.3-10.4
		C1890,252.5,1889.6,254.8,1891.1,258z"/>
	<path class="st0" d="M1891.1,272.9c2.1,4.1,4.2,4.9,8.9,5.9c0.8,0.2,1.4-0.6,1-1.3c-3.5-6.7-10-8.7-10-8.7
		C1890.1,268.3,1889.8,270.3,1891.1,272.9z"/>
	<path class="st0" d="M1892.1,287.7c1.7,4.1,3.6,4.9,8,6.1c0.7,0.2,1.3-0.5,1-1.1c-2.9-6.6-8.9-8.9-8.9-8.9
		C1891.4,283.3,1891,285.1,1892.1,287.7z"/>
	<path class="st0" d="M1891.2,305.4c1.5,4.1,3.4,5.1,7.7,6.5c0.7,0.2,1.4-0.4,1.1-1.1c-2.6-6.7-8.5-9.3-8.5-9.3
		C1890.7,300.9,1890.2,302.7,1891.2,305.4z"/>
	<path class="st0" d="M1891.9,243.9c2.4,4.9,4.7,5.9,10,7c0.9,0.2,1.6-0.7,1.2-1.5c-3.9-8-11.3-10.4-11.3-10.4
		C1890.8,238.4,1890.4,240.7,1891.9,243.9z"/>
	<path class="st0" d="M1892.3,233.3c2,3.8,4,4.6,8.4,5.4c0.7,0.1,1.3-0.5,1-1.2c-3.3-6.2-9.5-8.1-9.5-8.1
		C1891.4,229,1891,230.8,1892.3,233.3z"/>
	<path class="st0" d="M1891.5,221.4c2.2,4.6,4.3,5.5,9.1,6.5c0.8,0.2,1.4-0.7,1.1-1.4c-3.6-7.4-10.3-9.7-10.3-9.7
		C1890.5,216.3,1890.2,218.4,1891.5,221.4z"/>
	<path class="st0" d="M1891.8,209.4c2,3.9,4,4.6,8.4,5.5c0.7,0.1,1.3-0.6,1-1.2c-3.3-6.3-9.5-8.2-9.5-8.2
		C1890.8,205.1,1890.5,206.9,1891.8,209.4z"/>
	<path class="st0" d="M1891.8,195.5c2.1,4.9,4.1,5.8,8.7,6.9c0.8,0.2,1.4-0.7,1-1.5c-3.4-7.9-9.9-10.3-9.9-10.3
		C1890.8,190.1,1890.5,192.3,1891.8,195.5z"/>
	<path class="st0" d="M1891.3,179.4c2.1,4.7,4.2,5.6,8.9,6.7c0.8,0.2,1.4-0.7,1-1.4c-3.5-7.6-10-9.9-10-9.9
		C1890.3,174.2,1889.9,176.4,1891.3,179.4z"/>
	<path class="st0" d="M1892.5,166c2.3,4.7,4.6,5.6,9.9,6.7c0.8,0.2,1.6-0.7,1.2-1.4c-3.9-7.6-11.2-9.9-11.2-9.9
		C1891.4,160.8,1891,163,1892.5,166z"/>
	<path class="st0" d="M1892.2,153.9c2.1,4.2,4.2,5,8.9,6c0.8,0.2,1.4-0.6,1-1.3c-3.5-6.8-10-8.9-10-8.9
		C1891.3,149.2,1890.9,151.2,1892.2,153.9z"/>
	<path class="st0" d="M1892.2,141.8c2.3,4.1,4.4,4.8,9.2,5.5c0.8,0.1,1.4-0.7,1-1.3c-3.8-6.6-10.5-8.4-10.5-8.4
		C1891,137.1,1890.7,139.1,1892.2,141.8z"/>
	<path class="st0" d="M1890.2,257.1c-1.9,4.9-3.7,5.8-7.8,6.9c-0.7,0.2-1.2-0.7-0.9-1.5c3.1-7.9,8.9-10.3,8.9-10.3
		C1891.1,251.7,1891.4,254,1890.2,257.1z"/>
	<path class="st0" d="M1890.6,272.1c-1.2,4.5-3,5.7-7.4,7.7c-0.7,0.3-1.5-0.3-1.3-1c2-7.3,7.9-10.7,7.9-10.7
		C1890.6,267.4,1891.4,269.2,1890.6,272.1z"/>
	<path class="st0" d="M1890.3,287.6c-1.4,4.2-3.2,5.2-7.4,6.8c-0.7,0.2-1.4-0.4-1.1-1.1c2.3-6.8,8.1-9.6,8.1-9.6
		C1890.6,283.1,1891.2,284.9,1890.3,287.6z"/>
	<path class="st0" d="M1889.8,306.1c-1.2,4.3-2.9,5.4-7,7.2c-0.7,0.3-1.4-0.3-1.2-1c1.9-6.9,7.6-10.1,7.6-10.1
		C1889.8,301.6,1890.5,303.4,1889.8,306.1z"/>
	<path class="st0" d="M1889.6,243c-2.3,4.3-4.5,5.1-9.5,6.1c-0.8,0.2-1.5-0.6-1.1-1.3c3.7-7,10.8-9.1,10.8-9.1
		C1890.7,238.2,1891.1,240.2,1889.6,243z"/>
	<path class="st0" d="M1890,232.3c-2,3.8-4,4.6-8.4,5.4c-0.7,0.1-1.3-0.5-1-1.2c3.3-6.2,9.5-8.1,9.5-8.1
		C1891,228,1891.3,229.8,1890,232.3z"/>
	<path class="st0" d="M1889.8,220.6c-2.2,4.6-4.3,5.5-9.1,6.5c-0.8,0.2-1.4-0.7-1.1-1.4c3.6-7.4,10.3-9.7,10.3-9.7
		C1890.9,215.5,1891.2,217.6,1889.8,220.6z"/>
	<path class="st0" d="M1889.9,208.4c-2,3.9-4,4.6-8.4,5.5c-0.7,0.1-1.3-0.6-1-1.2c3.3-6.3,9.5-8.2,9.5-8.2
		C1890.9,204.1,1891.2,205.9,1889.9,208.4z"/>
	<path class="st0" d="M1892.3,129.6c2,3.8,4,4.6,8.4,5.4c0.7,0.1,1.3-0.5,1-1.2c-3.3-6.2-9.5-8.1-9.5-8.1
		C1891.4,125.4,1891,127.2,1892.3,129.6z"/>
	<path class="st0" d="M1891.5,117.7c2.2,4.6,4.3,5.5,9.1,6.5c0.8,0.2,1.4-0.7,1.1-1.4c-3.6-7.4-10.3-9.7-10.3-9.7
		C1890.5,112.6,1890.2,114.8,1891.5,117.7z"/>
	<path class="st0" d="M1891.8,105.8c2,3.9,4,4.6,8.4,5.5c0.7,0.1,1.3-0.6,1-1.2c-3.3-6.3-9.5-8.2-9.5-8.2
		C1890.8,101.4,1890.5,103.3,1891.8,105.8z"/>
	<path class="st0" d="M1890,128.6c-2,3.8-4,4.6-8.4,5.4c-0.7,0.1-1.3-0.5-1-1.2c3.3-6.2,9.5-8.1,9.5-8.1
		C1891,124.4,1891.3,126.2,1890,128.6z"/>
	<path class="st0" d="M1889.8,116.9c-2.2,4.6-4.3,5.5-9.1,6.5c-0.8,0.2-1.4-0.7-1.1-1.4c3.6-7.4,10.3-9.7,10.3-9.7
		C1890.9,111.8,1891.2,114,1889.8,116.9z"/>
	<path class="st0" d="M1889.9,104.8c-2,3.9-4,4.6-8.4,5.5c-0.7,0.1-1.3-0.6-1-1.2c3.3-6.3,9.5-8.2,9.5-8.2
		C1890.9,100.4,1891.2,102.3,1889.9,104.8z"/>
	<path class="st0" d="M1890.2,194.9c-2.1,4.9-4.1,5.8-8.7,6.9c-0.8,0.2-1.4-0.7-1-1.5c3.4-7.9,9.9-10.3,9.9-10.3
		C1891.2,189.5,1891.5,191.8,1890.2,194.9z"/>
	<path class="st0" d="M1890.2,177.6c-2.1,4.7-4.2,5.6-8.9,6.7c-0.8,0.2-1.4-0.7-1-1.4c3.5-7.6,10-9.9,10-9.9
		C1891.2,172.3,1891.6,174.5,1890.2,177.6z"/>
	<path class="st0" d="M1889.5,164.1c-1.9,4.3-3.9,5.2-8.2,6.2c-0.7,0.2-1.3-0.6-1-1.3c3.2-7,9.3-9.2,9.3-9.2
		C1890.4,159.3,1890.7,161.3,1889.5,164.1z"/>
	<path class="st0" d="M1889.4,152.6c-2,3.9-3.9,4.6-8.1,5.2c-0.7,0.1-1.2-0.6-0.9-1.3c3.4-6.3,9.3-8,9.3-8
		C1890.5,148.2,1890.7,150.1,1889.4,152.6z"/>
	<path class="st0" d="M1889.7,140.8c-2.3,4.1-4.4,4.8-9.2,5.5c-0.8,0.1-1.4-0.7-1-1.3c3.8-6.6,10.5-8.4,10.5-8.4
		C1890.9,136.1,1891.2,138.1,1889.7,140.8z"/>
	<path class="st0" d="M1890,318.1v-226c0-0.5,0.4-1,1-1l0,0c0.5,0,1,0.4,1,1v226c0,0.5-0.4,1-1,1l0,0
		C1890.4,319.1,1890,318.6,1890,318.1z"/>
	<path class="st0" d="M1888.7,325.9c0.1,2.5,1.5,8.7,2.8,9c0.7,0.1,1.4-2,2.4-5.1c0.2-0.5,0.4-2.7,0.4-3.3c-0.3-4.4-2.7-9.6-2.7-9.6
		C1888.9,318.4,1888.6,323.5,1888.7,325.9z"/>
</g>
<g>
	<path class="st0" d="M1778.4,230.7c2.4,4.9,4.7,5.9,10,7c0.9,0.2,1.6-0.7,1.2-1.5c-3.9-8-11.3-10.4-11.3-10.4
		C1777.3,225.2,1776.9,227.5,1778.4,230.7z"/>
	<path class="st0" d="M1778.5,245.6c2.1,4.1,4.2,4.9,8.9,5.9c0.8,0.2,1.4-0.6,1-1.3c-3.5-6.7-10-8.7-10-8.7
		C1777.5,241,1777.1,242.9,1778.5,245.6z"/>
	<path class="st0" d="M1779.4,260.4c1.7,4.1,3.6,4.9,8,6.1c0.7,0.2,1.3-0.5,1-1.1c-2.9-6.6-8.9-8.9-8.9-8.9
		C1778.8,255.9,1778.3,257.8,1779.4,260.4z"/>
	<path class="st0" d="M1778.5,278.1c1.5,4.1,3.4,5.1,7.7,6.5c0.7,0.2,1.4-0.4,1.1-1.1c-2.6-6.7-8.5-9.3-8.5-9.3
		C1778.1,273.6,1777.5,275.4,1778.5,278.1z"/>
	<path class="st0" d="M1779.3,216.6c2.4,4.9,4.7,5.9,10,7c0.9,0.2,1.6-0.7,1.2-1.5c-3.9-8-11.3-10.4-11.3-10.4
		C1778.2,211.1,1777.7,213.4,1779.3,216.6z"/>
	<path class="st0" d="M1779.6,205.9c2,3.8,4,4.6,8.4,5.4c0.7,0.1,1.3-0.5,1-1.2c-3.3-6.2-9.5-8.1-9.5-8.1
		C1778.7,201.7,1778.4,203.5,1779.6,205.9z"/>
	<path class="st0" d="M1778.9,194c2.2,4.6,4.3,5.5,9.1,6.5c0.8,0.2,1.4-0.7,1.1-1.4c-3.6-7.4-10.3-9.7-10.3-9.7
		C1777.9,188.9,1777.5,191.1,1778.9,194z"/>
	<path class="st0" d="M1779.1,182.1c2,3.9,4,4.6,8.4,5.5c0.7,0.1,1.3-0.6,1-1.2c-3.3-6.3-9.5-8.2-9.5-8.2
		C1778.2,177.7,1777.8,179.6,1779.1,182.1z"/>
	<path class="st0" d="M1779.1,168.1c2.1,4.9,4.1,5.8,8.7,6.9c0.8,0.2,1.4-0.7,1-1.5c-3.4-7.9-9.9-10.3-9.9-10.3
		C1778.2,162.7,1777.8,165,1779.1,168.1z"/>
	<path class="st0" d="M1778.6,152.1c2.1,4.7,4.2,5.6,8.9,6.7c0.8,0.2,1.4-0.7,1-1.4c-3.5-7.6-10-9.9-10-9.9
		C1777.6,146.8,1777.2,149,1778.6,152.1z"/>
	<path class="st0" d="M1779.8,138.7c2.3,4.7,4.6,5.6,9.9,6.7c0.8,0.2,1.6-0.7,1.2-1.4c-3.9-7.6-11.2-9.9-11.2-9.9
		C1778.7,133.5,1778.3,135.7,1779.8,138.7z"/>
	<path class="st0" d="M1779.6,126.6c2.1,4.2,4.2,5,8.9,6c0.8,0.2,1.4-0.6,1-1.3c-3.5-6.8-10-8.9-10-8.9
		C1778.6,121.9,1778.2,123.9,1779.6,126.6z"/>
	<path class="st0" d="M1779.5,114.4c2.3,4.1,4.4,4.8,9.2,5.5c0.8,0.1,1.4-0.7,1-1.3c-3.8-6.6-10.5-8.4-10.5-8.4
		C1778.3,109.8,1778,111.8,1779.5,114.4z"/>
	<path class="st0" d="M1777.5,229.8c-1.9,4.9-3.7,5.8-7.8,6.9c-0.7,0.2-1.2-0.7-0.9-1.5c3.1-7.9,8.9-10.3,8.9-10.3
		C1778.4,224.3,1778.7,226.6,1777.5,229.8z"/>
	<path class="st0" d="M1778,244.8c-1.2,4.5-3,5.7-7.4,7.7c-0.7,0.3-1.5-0.3-1.3-1c2-7.3,7.9-10.7,7.9-10.7
		C1777.9,240.1,1778.7,241.9,1778,244.8z"/>
	<path class="st0" d="M1777.6,260.3c-1.4,4.2-3.2,5.2-7.4,6.8c-0.7,0.2-1.4-0.4-1.1-1.1c2.3-6.8,8.1-9.6,8.1-9.6
		C1777.9,255.8,1778.5,257.6,1777.6,260.3z"/>
	<path class="st0" d="M1777.1,278.8c-1.2,4.3-2.9,5.4-7,7.2c-0.7,0.3-1.4-0.3-1.2-1c1.9-6.9,7.6-10.1,7.6-10.1
		C1777.1,274.3,1777.8,276,1777.1,278.8z"/>
	<path class="st0" d="M1776.9,215.7c-2.3,4.3-4.5,5.1-9.5,6.1c-0.8,0.2-1.5-0.6-1.1-1.3c3.7-7,10.8-9.1,10.8-9.1
		C1778,210.9,1778.4,212.9,1776.9,215.7z"/>
	<path class="st0" d="M1777.3,204.9c-2,3.8-4,4.6-8.4,5.4c-0.7,0.1-1.3-0.5-1-1.2c3.3-6.2,9.5-8.1,9.5-8.1
		C1778.3,200.7,1778.6,202.5,1777.3,204.9z"/>
	<path class="st0" d="M1777.2,193.2c-2.2,4.6-4.3,5.5-9.1,6.5c-0.8,0.2-1.4-0.7-1.1-1.4c3.6-7.4,10.3-9.7,10.3-9.7
		C1778.2,188.2,1778.6,190.3,1777.2,193.2z"/>
	<path class="st0" d="M1777.3,181.1c-2,3.9-4,4.6-8.4,5.5c-0.7,0.1-1.3-0.6-1-1.2c3.3-6.3,9.5-8.2,9.5-8.2
		C1778.2,176.8,1778.6,178.6,1777.3,181.1z"/>
	<path class="st0" d="M1779.6,102.3c2,3.8,4,4.6,8.4,5.4c0.7,0.1,1.3-0.5,1-1.2c-3.3-6.2-9.5-8.1-9.5-8.1
		C1778.7,98,1778.4,99.8,1779.6,102.3z"/>
	<path class="st0" d="M1778.9,90.4c2.2,4.6,4.3,5.5,9.1,6.5c0.8,0.2,1.4-0.7,1.1-1.4c-3.6-7.4-10.3-9.7-10.3-9.7
		C1777.9,85.3,1777.5,87.4,1778.9,90.4z"/>
	<path class="st0" d="M1779.1,78.4c2,3.9,4,4.6,8.4,5.5c0.7,0.1,1.3-0.6,1-1.2c-3.3-6.3-9.5-8.2-9.5-8.2
		C1778.2,74.1,1777.8,75.9,1779.1,78.4z"/>
	<path class="st0" d="M1777.3,101.3c-2,3.8-4,4.6-8.4,5.4c-0.7,0.1-1.3-0.5-1-1.2c3.3-6.2,9.5-8.1,9.5-8.1
		C1778.3,97,1778.6,98.8,1777.3,101.3z"/>
	<path class="st0" d="M1777.2,89.6c-2.2,4.6-4.3,5.5-9.1,6.5c-0.8,0.2-1.4-0.7-1.1-1.4c3.6-7.4,10.3-9.7,10.3-9.7
		C1778.2,84.5,1778.6,86.7,1777.2,89.6z"/>
	<path class="st0" d="M1777.3,77.4c-2,3.9-4,4.6-8.4,5.5c-0.7,0.1-1.3-0.6-1-1.2c3.3-6.3,9.5-8.2,9.5-8.2
		C1778.2,73.1,1778.6,74.9,1777.3,77.4z"/>
	<path class="st0" d="M1777.5,167.6c-2.1,4.9-4.1,5.8-8.7,6.9c-0.8,0.2-1.4-0.7-1-1.5c3.4-7.9,9.9-10.3,9.9-10.3
		C1778.5,162.2,1778.9,164.4,1777.5,167.6z"/>
	<path class="st0" d="M1777.6,150.2c-2.1,4.7-4.2,5.6-8.9,6.7c-0.8,0.2-1.4-0.7-1-1.4c3.5-7.6,10-9.9,10-9.9
		C1778.5,145,1778.9,147.2,1777.6,150.2z"/>
	<path class="st0" d="M1776.8,136.8c-1.9,4.3-3.9,5.2-8.2,6.2c-0.7,0.2-1.3-0.6-1-1.3c3.2-7,9.3-9.2,9.3-9.2
		C1777.7,131.9,1778,134,1776.8,136.8z"/>
	<path class="st0" d="M1776.7,125.3c-2,3.9-3.9,4.6-8.1,5.2c-0.7,0.1-1.2-0.6-0.9-1.3c3.4-6.3,9.3-8,9.3-8
		C1777.8,120.9,1778,122.8,1776.7,125.3z"/>
	<path class="st0" d="M1777,113.4c-2.3,4.1-4.4,4.8-9.2,5.5c-0.8,0.1-1.4-0.7-1-1.3c3.8-6.6,10.5-8.4,10.5-8.4
		C1778.3,108.8,1778.5,110.8,1777,113.4z"/>
	<path class="st0" d="M1777.3,290.7v-226c0-0.5,0.4-1,1-1l0,0c0.5,0,1,0.4,1,1v226c0,0.5-0.4,1-1,1l0,0
		C1777.8,291.7,1777.3,291.3,1777.3,290.7z"/>
	<path class="st0" d="M1776.1,298.6c0.1,2.5,1.5,8.7,2.8,9c0.7,0.1,1.4-2,2.4-5.1c0.2-0.5,0.4-2.7,0.4-3.3c-0.3-4.4-2.7-9.6-2.7-9.6
		C1776.2,291,1775.9,296.1,1776.1,298.6z"/>
</g>
</svg>
