<?xml version="1.0" encoding="utf-8"?>
<!-- Generator: Adobe Illustrator 19.2.1, SVG Export Plug-In . SVG Version: 6.00 Build 0)  -->
<svg version="1.1" id="Layer_5" xmlns="http://www.w3.org/2000/svg" xmlns:xlink="http://www.w3.org/1999/xlink" x="0px" y="0px"
	 viewBox="0 0 2828 884" style="enable-background:new 0 0 2828 884;" xml:space="preserve">
<style type="text/css">
	.st0{fill:#000B38;}
</style>
<g>
	<g>
	</g>
</g>
<path class="st0" d="M925,357.5c-0.1-0.1-0.2-0.1-0.3-0.1v-7.5c2.4,4.5,4.7,5.4,10,6.4c0.9,0.2,1.6-0.6,1.2-1.4
	c-3.6-6.7-10.1-9.2-11.1-9.5v-9.8c0.1,0.1,0.1,0.3,0.2,0.4c2.6,5.4,5.1,6.5,10.8,7.7c0.9,0.2,1.7-0.8,1.3-1.6
	c-4.2-8.8-12.2-11.5-12.2-11.5l0,0v-9.1c0,0,0,0.1,0.1,0.1c2.4,4.6,4.7,5.5,10,6.5c0.9,0.2,1.6-0.7,1.2-1.4
	c-3.7-7-10.4-9.4-11.2-9.7v-10.9c2.4,5.3,4.8,6.4,10.1,7.6c0.9,0.2,1.6-0.8,1.2-1.8c-3.5-8.1-9.7-11.3-11.3-12v-14.3
	c2.4,5,4.9,6.1,10.2,7.3c0.9,0.2,1.7-0.8,1.2-1.7c-3.6-7.8-9.8-10.9-11.5-11.6v-12.2c0.2,0.5,0.4,1.1,0.6,1.7
	c2.3,5.1,4.6,6.2,9.7,7.3c0.8,0.2,1.5-0.7,1.1-1.6c-3.8-8.3-11-10.9-11-10.9c-0.2-0.1-0.4-0.1-0.5,0v-10.1c0.2,0.5,0.4,1.1,0.7,1.6
	c2.4,4.6,4.6,5.4,9.6,6.2c0.8,0.1,1.4-0.7,1-1.5c-4-7.4-11-9.4-11-9.4c-0.1-0.1-0.2-0.1-0.3,0v-9.9c0.1,0.2,0.2,0.4,0.3,0.6
	c2.7,4.8,5.2,5.7,10.8,6.5c0.9,0.1,1.6-0.8,1.2-1.6c-4.3-7.5-11.7-9.7-12.3-9.9v-9.3c2.4,4.5,4.7,5.4,10,6.4
	c0.9,0.2,1.6-0.6,1.2-1.4c-3.6-6.7-10.1-9.2-11.1-9.5v-9.8c0.1,0.1,0.1,0.3,0.2,0.4c2.6,5.4,5.1,6.5,10.8,7.7
	c0.9,0.2,1.7-0.8,1.3-1.6c-4.2-8.8-12.2-11.5-12.2-11.5l0,0v-9.1c0,0,0,0.1,0.1,0.1c2.4,4.6,4.7,5.5,10,6.5c0.9,0.2,1.6-0.7,1.2-1.4
	c-3.7-7-10.4-9.4-11.2-9.7v-10.5c0-0.6-0.5-1.2-1.2-1.2s-1.2,0.5-1.2,1.2v11.7c-1.5,0.6-7.5,3.1-10.9,9.6c-0.4,0.7,0.3,1.6,1.2,1.4
	c5.1-1,7.5-1.9,9.8-6.1v8.6c-1.9,0.8-8.1,3.9-11.6,11.2c-0.4,0.9,0.4,1.8,1.3,1.6c5.4-1.1,7.9-2.2,10.3-6.8v8.6
	c-0.1,0-0.2,0-0.3,0.1c0,0-7.4,2.3-11.3,9.6c-0.4,0.7,0.3,1.5,1.2,1.4c5.3-1,7.6-1.9,10-6.4c0.2-0.3,0.3-0.7,0.4-1v10.4
	c-0.9,0.3-8.1,2.5-12.3,9.9c-0.5,0.8,0.3,1.7,1.2,1.6c5.6-0.8,8.1-1.7,10.8-6.5c0.1-0.2,0.2-0.4,0.3-0.6v9.9c-0.1,0-0.1,0-0.2,0.1
	c0,0-7.8,2.5-11.9,10.6c-0.4,0.8,0.3,1.7,1.2,1.5c5.6-1.1,8-2.1,10.5-7.1c0.1-0.3,0.2-0.5,0.4-0.8v9.5c-0.1-0.1-0.3,0-0.5,0.1
	c0,0-8.6,2.8-13.2,11.8c-0.5,0.9,0.4,1.9,1.4,1.7c6.2-1.3,8.9-2.3,11.7-7.9c0.3-0.5,0.5-1,0.6-1.5v12.2c-2.2,1-7.7,4.3-10.9,11.4
	c-0.4,0.9,0.3,1.9,1.2,1.7c5-1.1,7.4-2.1,9.7-6.3v11.8c-1.4,0.6-7.8,3.8-11.4,12.1c-0.4,0.9,0.3,2,1.2,1.8c5.4-1.3,7.8-2.4,10.2-7.9
	v11.7c-1.5,0.6-7.5,3.1-10.9,9.6c-0.4,0.7,0.3,1.6,1.2,1.4c5.1-1,7.5-1.9,9.8-6.1v8.6c-1.9,0.8-8.1,3.9-11.6,11.2
	c-0.4,0.9,0.4,1.8,1.3,1.6c5.4-1.1,7.9-2.2,10.3-6.8v8.6c-0.1,0-0.2,0-0.3,0.1c0,0-7.4,2.3-11.3,9.6c-0.4,0.7,0.3,1.5,1.2,1.4
	c5.3-1,7.6-1.9,10-6.4c0.2-0.3,0.3-0.7,0.4-1v7.8c-1.2,0.4-8.9,3.6-13.2,12.3c-0.5,0.9,0.4,2,1.4,1.8c6.3-1.3,9-2.5,11.8-8.3v11.3
	c-2.5,1.1-8.6,4.5-12.2,11.9c-0.5,0.9,0.4,2,1.4,1.8c5.5-1.2,8.3-2.2,10.8-6.4v11.4c-2.3,1-7.6,3.8-10.8,9.9
	c-0.4,0.8,0.3,1.7,1.2,1.5c4.8-1,7.3-1.8,9.5-5.3v11c-0.1,0-0.2,0-0.3,0.1c0,0-7.1,2.7-10.5,10.5c-0.3,0.8,0.4,1.6,1.2,1.4
	c5.1-1.3,7.4-2.4,9.4-7.2c0.1-0.2,0.1-0.3,0.2-0.5v17c-1.7,0.9-6.9,4.1-9.5,10.8c-0.3,0.8,0.5,1.6,1.3,1.3c4.3-1.3,6.5-2.4,8.2-5.6
	V451c-0.8,1.8-2.5,6.4-2.8,10.6c0,0.7,0.2,3.3,0.4,3.9c1.2,3.8,2.1,6.3,2.9,6.1c1.5-0.3,3.1-7.6,3.3-10.6c0.1-2.2,0-6.2-1.6-8.8
	c0.1-0.1,0.1-0.3,0.1-0.4v-15.5c0.1,0.4,0.2,0.9,0.3,1.4c1.4,5.1,3.4,6.4,8.3,8.5c0.8,0.3,1.6-0.4,1.4-1.2c-2.3-8.2-9-11.9-9-11.9
	c-0.4-0.4-0.9,0-1.1,0.9v-17.3c1.6,4.2,3.8,5.4,8.5,7.1c0.8,0.3,1.6-0.4,1.3-1.2c-2.8-8.1-9.6-11.4-9.6-11.4
	c-0.1-0.1-0.1-0.1-0.2-0.1v-11.3c1.4,3.5,3.7,4.8,8,6.8c0.8,0.4,1.8-0.3,1.5-1.2c-2.3-8.6-9.4-12.7-9.4-12.7c-0.1,0-0.1-0.1-0.2-0.1
	v-12.3c2.1,5.3,4.3,6.4,9.1,7.6c0.8,0.2,1.5-0.8,1.1-1.8c-3.2-8.1-8.7-11.3-10.2-12V362c0.1,0.3,0.3,0.7,0.5,1
	c2.7,5.1,5.3,6.1,11.3,7.2c1,0.2,1.8-0.7,1.3-1.5C933.4,360,925,357.5,925,357.5z"/>
<path class="st0" d="M1341,362.5c-0.1-0.1-0.2-0.1-0.3-0.1v-7.5c2.4,4.5,4.7,5.4,10,6.4c0.9,0.2,1.6-0.6,1.2-1.4
	c-3.6-6.7-10.1-9.2-11.1-9.5v-9.8c0.1,0.1,0.1,0.3,0.2,0.4c2.6,5.4,5.1,6.5,10.8,7.7c0.9,0.2,1.7-0.8,1.3-1.6
	c-4.2-8.8-12.2-11.5-12.2-11.5l0,0v-9.1c0,0,0,0.1,0.1,0.1c2.4,4.6,4.7,5.5,10,6.5c0.9,0.2,1.6-0.7,1.2-1.4
	c-3.7-7-10.4-9.4-11.2-9.7v-10.9c2.4,5.3,4.8,6.4,10.1,7.6c0.9,0.2,1.6-0.8,1.2-1.8c-3.5-8.1-9.7-11.3-11.3-12v-14.3
	c2.4,5,4.9,6.1,10.2,7.3c0.9,0.2,1.7-0.8,1.2-1.7c-3.6-7.8-9.8-10.9-11.5-11.6v-12.2c0.2,0.5,0.4,1.1,0.6,1.7
	c2.3,5.1,4.6,6.2,9.7,7.3c0.8,0.2,1.5-0.7,1.1-1.6c-3.8-8.3-11-10.9-11-10.9c-0.2-0.1-0.4-0.1-0.5,0v-10.1c0.2,0.5,0.4,1.1,0.7,1.6
	c2.4,4.6,4.6,5.4,9.6,6.2c0.8,0.1,1.4-0.7,1-1.5c-4-7.4-11-9.4-11-9.4c-0.1-0.1-0.2-0.1-0.3,0v-9.9c0.1,0.2,0.2,0.4,0.3,0.6
	c2.7,4.8,5.2,5.7,10.8,6.5c0.9,0.1,1.6-0.8,1.2-1.6c-4.3-7.5-11.7-9.7-12.3-9.9V232c2.4,4.5,4.7,5.4,10,6.4c0.9,0.2,1.6-0.6,1.2-1.4
	c-3.6-6.7-10.1-9.2-11.1-9.5v-9.8c0.1,0.1,0.1,0.3,0.2,0.4c2.6,5.4,5.1,6.5,10.8,7.7c0.9,0.2,1.7-0.8,1.3-1.6
	c-4.2-8.8-12.2-11.5-12.2-11.5l0,0v-9.1c0,0,0,0.1,0.1,0.1c2.4,4.6,4.7,5.5,10,6.5c0.9,0.2,1.6-0.7,1.2-1.4
	c-3.7-7-10.4-9.4-11.2-9.7v-10.5c0-0.6-0.5-1.2-1.2-1.2s-1.2,0.5-1.2,1.2v11.7c-1.5,0.6-7.5,3.1-10.9,9.6c-0.4,0.7,0.3,1.6,1.2,1.4
	c5.1-1,7.5-1.9,9.8-6.1v8.7c-1.9,0.8-8.1,3.9-11.6,11.2c-0.4,0.9,0.4,1.8,1.3,1.6c5.4-1.1,7.9-2.2,10.3-6.8v8.6
	c-0.1,0-0.2,0-0.3,0.1c0,0-7.4,2.3-11.3,9.6c-0.4,0.7,0.3,1.5,1.2,1.4c5.3-1,7.6-1.9,10-6.4c0.2-0.3,0.3-0.7,0.4-1v10.4
	c-0.9,0.3-8.1,2.5-12.3,9.9c-0.5,0.8,0.3,1.7,1.2,1.6c5.6-0.8,8.1-1.7,10.8-6.5c0.1-0.2,0.2-0.4,0.3-0.6v9.9c-0.1,0-0.1,0-0.2,0.1
	c0,0-7.8,2.5-11.9,10.6c-0.4,0.8,0.3,1.7,1.2,1.5c5.6-1.1,8-2.1,10.5-7.1c0.1-0.3,0.2-0.5,0.4-0.8v9.5c-0.1-0.1-0.3,0-0.5,0.1
	c0,0-8.6,2.8-13.2,11.8c-0.5,0.9,0.4,1.9,1.4,1.7c6.2-1.3,8.9-2.3,11.7-7.9c0.3-0.5,0.5-1,0.6-1.5v12.2c-2.2,1-7.7,4.3-10.9,11.4
	c-0.4,0.9,0.3,1.9,1.2,1.7c5-1.1,7.4-2.1,9.7-6.3v11.8c-1.4,0.6-7.8,3.8-11.4,12.1c-0.4,0.9,0.3,2,1.2,1.8c5.4-1.3,7.8-2.4,10.2-7.9
	v11.7c-1.5,0.6-7.5,3.1-10.9,9.6c-0.4,0.7,0.3,1.6,1.2,1.4c5.1-1,7.5-1.9,9.8-6.1v8.6c-1.9,0.8-8.1,3.9-11.6,11.2
	c-0.4,0.9,0.4,1.8,1.3,1.6c5.4-1.1,7.9-2.2,10.3-6.8v8.6c-0.1,0-0.2,0-0.3,0.1c0,0-7.4,2.3-11.3,9.6c-0.4,0.7,0.3,1.5,1.2,1.4
	c5.3-1,7.6-1.9,10-6.4c0.2-0.3,0.3-0.7,0.4-1v7.8c-1.2,0.4-8.9,3.6-13.2,12.3c-0.5,0.9,0.4,2,1.4,1.8c6.3-1.3,9-2.5,11.8-8.3v11.3
	c-2.5,1.1-8.6,4.5-12.2,11.9c-0.5,0.9,0.4,2,1.4,1.8c5.5-1.2,8.3-2.2,10.8-6.4v11.4c-2.3,1-7.6,3.8-10.8,9.9
	c-0.4,0.8,0.3,1.7,1.2,1.5c4.8-1,7.3-1.8,9.5-5.3v11c-0.1,0-0.2,0-0.3,0.1c0,0-7.1,2.7-10.5,10.5c-0.3,0.8,0.4,1.6,1.2,1.4
	c5.1-1.3,7.4-2.4,9.4-7.2c0.1-0.2,0.1-0.3,0.2-0.5v17c-1.7,0.9-6.9,4.1-9.5,10.8c-0.3,0.8,0.5,1.6,1.3,1.3c4.3-1.3,6.5-2.4,8.2-5.6
	V456c-0.8,1.8-2.5,6.4-2.8,10.6c0,0.7,0.2,3.3,0.4,3.9c1.2,3.8,2.1,6.3,2.9,6.1c1.5-0.3,3.1-7.6,3.3-10.6c0.1-2.2,0-6.2-1.6-8.8
	c0.1-0.1,0.1-0.3,0.1-0.4v-15.5c0.1,0.4,0.2,0.9,0.3,1.4c1.4,5.1,3.4,6.4,8.3,8.5c0.8,0.3,1.6-0.4,1.4-1.2c-2.3-8.2-9-11.9-9-11.9
	c-0.4-0.4-0.9,0-1.1,0.9v-17.3c1.6,4.2,3.8,5.4,8.5,7.1c0.8,0.3,1.6-0.4,1.3-1.2c-2.8-8.1-9.6-11.4-9.6-11.4
	c-0.1-0.1-0.1-0.1-0.2-0.1v-11.3c1.4,3.5,3.7,4.8,8,6.8c0.8,0.4,1.8-0.3,1.5-1.2c-2.3-8.6-9.4-12.7-9.4-12.7c-0.1,0-0.1-0.1-0.2-0.1
	v-12.3c2.1,5.3,4.3,6.4,9.1,7.6c0.8,0.2,1.5-0.8,1.1-1.8c-3.2-8.1-8.7-11.3-10.2-12V367c0.1,0.3,0.3,0.7,0.5,1
	c2.7,5.1,5.3,6.1,11.3,7.2c1,0.2,1.8-0.7,1.3-1.5C1349.4,365,1341,362.5,1341,362.5z"/>
<path class="st0" d="M1239,392.5c-0.1-0.1-0.2-0.1-0.3-0.1v-7.5c2.4,4.5,4.7,5.4,10,6.4c0.9,0.2,1.6-0.6,1.2-1.4
	c-3.6-6.7-10.1-9.2-11.1-9.5v-9.8c0.1,0.1,0.1,0.3,0.2,0.4c2.6,5.4,5.1,6.5,10.8,7.7c0.9,0.2,1.7-0.8,1.3-1.6
	c-4.2-8.8-12.2-11.5-12.2-11.5l0,0v-9.1c0,0,0,0.1,0.1,0.1c2.4,4.6,4.7,5.5,10,6.5c0.9,0.2,1.6-0.7,1.2-1.4
	c-3.7-7-10.4-9.4-11.2-9.7v-10.9c2.4,5.3,4.8,6.4,10.1,7.6c0.9,0.2,1.6-0.8,1.2-1.8c-3.5-8.1-9.7-11.3-11.3-12v-14.3
	c2.4,5,4.9,6.1,10.2,7.3c0.9,0.2,1.7-0.8,1.2-1.7c-3.6-7.8-9.8-10.9-11.5-11.6v-12.2c0.2,0.5,0.4,1.1,0.6,1.7
	c2.3,5.1,4.6,6.2,9.7,7.3c0.8,0.2,1.5-0.7,1.1-1.6c-3.8-8.3-11-10.9-11-10.9c-0.2-0.1-0.4-0.1-0.5,0v-10.1c0.2,0.5,0.4,1.1,0.7,1.6
	c2.4,4.6,4.6,5.4,9.6,6.2c0.8,0.1,1.4-0.7,1-1.5c-4-7.4-11-9.4-11-9.4c-0.1-0.1-0.2-0.1-0.3,0v-9.9c0.1,0.2,0.2,0.4,0.3,0.6
	c2.7,4.8,5.2,5.7,10.8,6.5c0.9,0.1,1.6-0.8,1.2-1.6c-4.3-7.5-11.7-9.7-12.3-9.9V262c2.4,4.5,4.7,5.4,10,6.4c0.9,0.2,1.6-0.6,1.2-1.4
	c-3.6-6.7-10.1-9.2-11.1-9.5v-9.8c0.1,0.1,0.1,0.3,0.2,0.4c2.6,5.4,5.1,6.5,10.8,7.7c0.9,0.2,1.7-0.8,1.3-1.6
	c-4.2-8.8-12.2-11.5-12.2-11.5l0,0v-9.1c0,0,0,0.1,0.1,0.1c2.4,4.6,4.7,5.5,10,6.5c0.9,0.2,1.6-0.7,1.2-1.4
	c-3.7-7-10.4-9.4-11.2-9.7v-10.3c0-0.6-0.5-1.2-1.2-1.2s-1.2,0.5-1.2,1.2v11.7c-1.5,0.6-7.5,3.1-10.9,9.6c-0.4,0.7,0.3,1.6,1.2,1.4
	c5.1-1,7.5-1.9,9.8-6.1v8.5c-1.9,0.8-8.1,3.9-11.6,11.2c-0.4,0.9,0.4,1.8,1.3,1.6c5.4-1.1,7.9-2.2,10.3-6.8v8.6
	c-0.1,0-0.2,0-0.3,0.1c0,0-7.4,2.3-11.3,9.6c-0.4,0.7,0.3,1.5,1.2,1.4c5.3-1,7.6-1.9,10-6.4c0.2-0.3,0.3-0.7,0.4-1v10.4
	c-0.9,0.3-8.1,2.5-12.3,9.9c-0.5,0.8,0.3,1.7,1.2,1.6c5.6-0.8,8.1-1.7,10.8-6.5c0.1-0.2,0.2-0.4,0.3-0.6v9.9c-0.1,0-0.1,0-0.2,0.1
	c0,0-7.8,2.5-11.9,10.6c-0.4,0.8,0.3,1.7,1.2,1.5c5.6-1.1,8-2.1,10.5-7.1c0.1-0.3,0.2-0.5,0.4-0.8v9.5c-0.1-0.1-0.3,0-0.5,0.1
	c0,0-8.6,2.8-13.2,11.8c-0.5,0.9,0.4,1.9,1.4,1.7c6.2-1.3,8.9-2.3,11.7-7.9c0.3-0.5,0.5-1,0.6-1.5v12.2c-2.2,1-7.7,4.3-10.9,11.4
	c-0.4,0.9,0.3,1.9,1.2,1.7c5-1.1,7.4-2.1,9.7-6.3v11.8c-1.4,0.6-7.8,3.8-11.4,12.1c-0.4,0.9,0.3,2,1.2,1.8c5.4-1.3,7.8-2.4,10.2-7.9
	v11.7c-1.5,0.6-7.5,3.1-10.9,9.6c-0.4,0.7,0.3,1.6,1.2,1.4c5.1-1,7.5-1.9,9.8-6.1v8.6c-1.9,0.8-8.1,3.9-11.6,11.2
	c-0.4,0.9,0.4,1.8,1.3,1.6c5.4-1.1,7.9-2.2,10.3-6.8v8.6c-0.1,0-0.2,0-0.3,0.1c0,0-7.4,2.3-11.3,9.6c-0.4,0.7,0.3,1.5,1.2,1.4
	c5.3-1,7.6-1.9,10-6.4c0.2-0.3,0.3-0.7,0.4-1v7.8c-1.2,0.4-8.9,3.6-13.2,12.3c-0.5,0.9,0.4,2,1.4,1.8c6.3-1.3,9-2.5,11.8-8.3v11.3
	c-2.5,1.1-8.6,4.5-12.2,11.9c-0.5,0.9,0.4,2,1.4,1.8c5.5-1.2,8.3-2.2,10.8-6.4v11.4c-2.3,1-7.6,3.8-10.8,9.9
	c-0.4,0.8,0.3,1.7,1.2,1.5c4.8-1,7.3-1.8,9.5-5.3v11c-0.1,0-0.2,0-0.3,0.1c0,0-7.1,2.7-10.5,10.5c-0.3,0.8,0.4,1.6,1.2,1.4
	c5.1-1.3,7.4-2.4,9.4-7.2c0.1-0.2,0.1-0.3,0.2-0.5v17c-1.7,0.9-6.9,4.1-9.5,10.8c-0.3,0.8,0.5,1.6,1.3,1.3c4.3-1.3,6.5-2.4,8.2-5.6
	V486c-0.8,1.8-2.5,6.4-2.8,10.6c0,0.7,0.2,3.3,0.4,3.9c1.2,3.8,2.1,6.3,2.9,6.1c1.5-0.3,3.1-7.6,3.3-10.6c0.1-2.2,0-6.2-1.6-8.8
	c0.1-0.1,0.1-0.3,0.1-0.4v-15.5c0.1,0.4,0.2,0.9,0.3,1.4c1.4,5.1,3.4,6.4,8.3,8.5c0.8,0.3,1.6-0.4,1.4-1.2c-2.3-8.2-9-11.9-9-11.9
	c-0.4-0.4-0.9,0-1.1,0.9v-17.3c1.6,4.2,3.8,5.4,8.5,7.1c0.8,0.3,1.6-0.4,1.3-1.2c-2.8-8.1-9.6-11.4-9.6-11.4
	c-0.1-0.1-0.1-0.1-0.2-0.1v-11.3c1.4,3.5,3.7,4.8,8,6.8c0.8,0.4,1.8-0.3,1.5-1.2c-2.3-8.6-9.4-12.7-9.4-12.7c-0.1,0-0.1-0.1-0.2-0.1
	v-12.3c2.1,5.3,4.3,6.4,9.1,7.6c0.8,0.2,1.5-0.8,1.1-1.8c-3.2-8.1-8.7-11.3-10.2-12V397c0.1,0.3,0.3,0.7,0.5,1
	c2.7,5.1,5.3,6.1,11.3,7.2c1,0.2,1.8-0.7,1.3-1.5C1247.4,395,1239,392.5,1239,392.5z"/>
<path class="st0" d="M1504,375.5c-0.1-0.1-0.2-0.1-0.3-0.1v-7.5c2.4,4.5,4.7,5.4,10,6.4c0.9,0.2,1.6-0.6,1.2-1.4
	c-3.6-6.7-10.1-9.2-11.1-9.5v-9.8c0.1,0.1,0.1,0.3,0.2,0.4c2.6,5.4,5.1,6.5,10.8,7.7c0.9,0.2,1.7-0.8,1.3-1.6
	c-4.2-8.8-12.2-11.5-12.2-11.5l0,0v-9.1c0,0,0,0.1,0.1,0.1c2.4,4.6,4.7,5.5,10,6.5c0.9,0.2,1.6-0.7,1.2-1.4
	c-3.7-7-10.4-9.4-11.2-9.7v-10.9c2.4,5.3,4.8,6.4,10.1,7.6c0.9,0.2,1.6-0.8,1.2-1.8c-3.5-8.1-9.7-11.3-11.3-12v-14.3
	c2.4,5,4.9,6.1,10.2,7.3c0.9,0.2,1.7-0.8,1.2-1.7c-3.6-7.8-9.8-10.9-11.5-11.6v-12.2c0.2,0.5,0.4,1.1,0.6,1.7
	c2.3,5.1,4.6,6.2,9.7,7.3c0.8,0.2,1.5-0.7,1.1-1.6c-3.8-8.3-11-10.9-11-10.9c-0.2-0.1-0.4-0.1-0.5,0v-10.1c0.2,0.5,0.4,1.1,0.7,1.6
	c2.4,4.6,4.6,5.4,9.6,6.2c0.8,0.1,1.4-0.7,1-1.5c-4-7.4-11-9.4-11-9.4c-0.1-0.1-0.2-0.1-0.3,0v-9.9c0.1,0.2,0.2,0.4,0.3,0.6
	c2.7,4.8,5.2,5.7,10.8,6.5c0.9,0.1,1.6-0.8,1.2-1.6c-4.3-7.5-11.7-9.7-12.3-9.9V245c2.4,4.5,4.7,5.4,10,6.4c0.9,0.2,1.6-0.6,1.2-1.4
	c-3.6-6.7-10.1-9.2-11.1-9.5v-9.7c0.1,0.1,0.1,0.3,0.2,0.4c2.6,5.4,5.1,6.5,10.8,7.7c0.9,0.2,1.7-0.8,1.3-1.6
	c-4.2-8.8-12.2-11.5-12.2-11.5l0,0v-9.1c0,0,0,0.1,0.1,0.1c2.4,4.6,4.7,5.5,10,6.5c0.9,0.2,1.6-0.7,1.2-1.4
	c-3.7-7-10.4-9.4-11.2-9.7v-10.5c0-0.6-0.5-1.2-1.2-1.2s-1.2,0.5-1.2,1.2v11.7c-1.5,0.6-7.5,3.1-10.9,9.6c-0.4,0.7,0.3,1.6,1.2,1.4
	c5.1-1,7.5-1.9,9.8-6.1v8.6c-1.9,0.8-8.1,3.9-11.6,11.2c-0.4,0.9,0.4,1.8,1.3,1.6c5.4-1.1,7.9-2.2,10.3-6.8v8.6
	c-0.1,0-0.2,0-0.3,0.1c0,0-7.4,2.3-11.3,9.6c-0.4,0.7,0.3,1.5,1.2,1.4c5.3-1,7.6-1.9,10-6.4c0.2-0.3,0.3-0.7,0.4-1v10.4
	c-0.9,0.3-8.1,2.5-12.3,9.9c-0.5,0.8,0.3,1.7,1.2,1.6c5.6-0.8,8.1-1.7,10.8-6.5c0.1-0.2,0.2-0.4,0.3-0.6v9.9c-0.1,0-0.1,0-0.2,0.1
	c0,0-7.8,2.5-11.9,10.6c-0.4,0.8,0.3,1.7,1.2,1.5c5.6-1.1,8-2.1,10.5-7.1c0.1-0.3,0.2-0.5,0.4-0.8v9.5c-0.1-0.1-0.3,0-0.5,0.1
	c0,0-8.6,2.8-13.2,11.8c-0.5,0.9,0.4,1.9,1.4,1.7c6.2-1.3,8.9-2.3,11.7-7.9c0.3-0.5,0.5-1,0.6-1.5v12.2c-2.2,1-7.7,4.3-10.9,11.4
	c-0.4,0.9,0.3,1.9,1.2,1.7c5-1.1,7.4-2.1,9.7-6.3v11.8c-1.4,0.6-7.8,3.8-11.4,12.1c-0.4,0.9,0.3,2,1.2,1.8c5.4-1.3,7.8-2.4,10.2-7.9
	v11.7c-1.5,0.6-7.5,3.1-10.9,9.6c-0.4,0.7,0.3,1.6,1.2,1.4c5.1-1,7.5-1.9,9.8-6.1v8.6c-1.9,0.8-8.1,3.9-11.6,11.2
	c-0.4,0.9,0.4,1.8,1.3,1.6c5.4-1.1,7.9-2.2,10.3-6.8v8.6c-0.1,0-0.2,0-0.3,0.1c0,0-7.4,2.3-11.3,9.6c-0.4,0.7,0.3,1.5,1.2,1.4
	c5.3-1,7.6-1.9,10-6.4c0.2-0.3,0.3-0.7,0.4-1v7.8c-1.2,0.4-8.9,3.6-13.2,12.3c-0.5,0.9,0.4,2,1.4,1.8c6.3-1.3,9-2.5,11.8-8.3v11.3
	c-2.5,1.1-8.6,4.5-12.2,11.9c-0.5,0.9,0.4,2,1.4,1.8c5.5-1.2,8.3-2.2,10.8-6.4v11.4c-2.3,1-7.6,3.8-10.8,9.9
	c-0.4,0.8,0.3,1.7,1.2,1.5c4.8-1,7.3-1.8,9.5-5.3v11c-0.1,0-0.2,0-0.3,0.1c0,0-7.1,2.7-10.5,10.5c-0.3,0.8,0.4,1.6,1.2,1.4
	c5.1-1.3,7.4-2.4,9.4-7.2c0.1-0.2,0.1-0.3,0.2-0.5v17c-1.7,0.9-6.9,4.1-9.5,10.8c-0.3,0.8,0.5,1.6,1.3,1.3c4.3-1.3,6.5-2.4,8.2-5.6
	V469c-0.8,1.8-2.5,6.4-2.8,10.6c0,0.7,0.2,3.3,0.4,3.9c1.2,3.8,2.1,6.3,2.9,6.1c1.5-0.3,3.1-7.6,3.3-10.6c0.1-2.2,0-6.2-1.6-8.8
	c0.1-0.1,0.1-0.3,0.1-0.4v-15.5c0.1,0.4,0.2,0.9,0.3,1.4c1.4,5.1,3.4,6.4,8.3,8.5c0.8,0.3,1.6-0.4,1.4-1.2c-2.3-8.2-9-11.9-9-11.9
	c-0.4-0.4-0.9,0-1.1,0.9v-17.3c1.6,4.2,3.8,5.4,8.5,7.1c0.8,0.3,1.6-0.4,1.3-1.2c-2.8-8.1-9.6-11.4-9.6-11.4
	c-0.1-0.1-0.1-0.1-0.2-0.1v-11.3c1.4,3.5,3.7,4.8,8,6.8c0.8,0.4,1.8-0.3,1.5-1.2c-2.3-8.6-9.4-12.7-9.4-12.7c-0.1,0-0.1-0.1-0.2-0.1
	v-12.3c2.1,5.3,4.3,6.4,9.1,7.6c0.8,0.2,1.5-0.8,1.1-1.8c-3.2-8.1-8.7-11.3-10.2-12V380c0.1,0.3,0.3,0.7,0.5,1
	c2.7,5.1,5.3,6.1,11.3,7.2c1,0.2,1.8-0.7,1.3-1.5C1512.4,378,1504,375.5,1504,375.5z"/>
<path class="st0" d="M1719,373.5c-0.1-0.1-0.2-0.1-0.3-0.1v-7.5c2.4,4.5,4.7,5.4,10,6.4c0.9,0.2,1.6-0.6,1.2-1.4
	c-3.6-6.7-10.1-9.2-11.1-9.5v-9.8c0.1,0.1,0.1,0.3,0.2,0.4c2.6,5.4,5.1,6.5,10.8,7.7c0.9,0.2,1.7-0.8,1.3-1.6
	c-4.2-8.8-12.2-11.5-12.2-11.5l0,0v-9.1c0,0,0,0.1,0.1,0.1c2.4,4.6,4.7,5.5,10,6.5c0.9,0.2,1.6-0.7,1.2-1.4
	c-3.7-7-10.4-9.4-11.2-9.7v-10.9c2.4,5.3,4.8,6.4,10.1,7.6c0.9,0.2,1.6-0.8,1.2-1.8c-3.5-8.1-9.7-11.3-11.3-12v-14.3
	c2.4,5,4.9,6.1,10.2,7.3c0.9,0.2,1.7-0.8,1.2-1.7c-3.6-7.8-9.8-10.9-11.5-11.6v-12.2c0.2,0.5,0.4,1.1,0.6,1.7
	c2.3,5.1,4.6,6.2,9.7,7.3c0.8,0.2,1.5-0.7,1.1-1.6c-3.8-8.3-11-10.9-11-10.9c-0.2-0.1-0.4-0.1-0.5,0v-10.1c0.2,0.5,0.4,1.1,0.7,1.6
	c2.4,4.6,4.6,5.4,9.6,6.2c0.8,0.1,1.4-0.7,1-1.5c-4-7.4-11-9.4-11-9.4c-0.1-0.1-0.2-0.1-0.3,0v-9.9c0.1,0.2,0.2,0.4,0.3,0.6
	c2.7,4.8,5.2,5.7,10.8,6.5c0.9,0.1,1.6-0.8,1.2-1.6c-4.3-7.5-11.7-9.7-12.3-9.9V243c2.4,4.5,4.7,5.4,10,6.4c0.9,0.2,1.6-0.6,1.2-1.4
	c-3.6-6.7-10.1-9.2-11.1-9.5v-9.7c0.1,0.1,0.1,0.3,0.2,0.4c2.6,5.4,5.1,6.5,10.8,7.7c0.9,0.2,1.7-0.8,1.3-1.6
	c-4.2-8.8-12.2-11.5-12.2-11.5l0,0v-9.1c0,0,0,0.1,0.1,0.1c2.4,4.6,4.7,5.5,10,6.5c0.9,0.2,1.6-0.7,1.2-1.4
	c-3.7-7-10.4-9.4-11.2-9.7v-10.5c0-0.6-0.5-1.2-1.2-1.2s-1.2,0.5-1.2,1.2v11.7c-1.5,0.6-7.5,3.1-10.9,9.6c-0.4,0.7,0.3,1.6,1.2,1.4
	c5.1-1,7.5-1.9,9.8-6.1v8.6c-1.9,0.8-8.1,3.9-11.6,11.2c-0.4,0.9,0.4,1.8,1.3,1.6c5.4-1.1,7.9-2.2,10.3-6.8v8.6
	c-0.1,0-0.2,0-0.3,0.1c0,0-7.4,2.3-11.3,9.6c-0.4,0.7,0.3,1.5,1.2,1.4c5.3-1,7.6-1.9,10-6.4c0.2-0.3,0.3-0.7,0.4-1v10.4
	c-0.9,0.3-8.1,2.5-12.3,9.9c-0.5,0.8,0.3,1.7,1.2,1.6c5.6-0.8,8.1-1.7,10.8-6.5c0.1-0.2,0.2-0.4,0.3-0.6v9.9c-0.1,0-0.1,0-0.2,0.1
	c0,0-7.8,2.5-11.9,10.6c-0.4,0.8,0.3,1.7,1.2,1.5c5.6-1.1,8-2.1,10.5-7.1c0.1-0.3,0.2-0.5,0.4-0.8v9.5c-0.1-0.1-0.3,0-0.5,0.1
	c0,0-8.6,2.8-13.2,11.8c-0.5,0.9,0.4,1.9,1.4,1.7c6.2-1.3,8.9-2.3,11.7-7.9c0.3-0.5,0.5-1,0.6-1.5v12.2c-2.2,1-7.7,4.3-10.9,11.4
	c-0.4,0.9,0.3,1.9,1.2,1.7c5-1.1,7.4-2.1,9.7-6.3v11.8c-1.4,0.6-7.8,3.8-11.4,12.1c-0.4,0.9,0.3,2,1.2,1.8c5.4-1.3,7.8-2.4,10.2-7.9
	v11.7c-1.5,0.6-7.5,3.1-10.9,9.6c-0.4,0.7,0.3,1.6,1.2,1.4c5.1-1,7.5-1.9,9.8-6.1v8.6c-1.9,0.8-8.1,3.9-11.6,11.2
	c-0.4,0.9,0.4,1.8,1.3,1.6c5.4-1.1,7.9-2.2,10.3-6.8v8.6c-0.1,0-0.2,0-0.3,0.1c0,0-7.4,2.3-11.3,9.6c-0.4,0.7,0.3,1.5,1.2,1.4
	c5.3-1,7.6-1.9,10-6.4c0.2-0.3,0.3-0.7,0.4-1v7.8c-1.2,0.4-8.9,3.6-13.2,12.3c-0.5,0.9,0.4,2,1.4,1.8c6.3-1.3,9-2.5,11.8-8.3v11.3
	c-2.5,1.1-8.6,4.5-12.2,11.9c-0.5,0.9,0.4,2,1.4,1.8c5.5-1.2,8.3-2.2,10.8-6.4v11.4c-2.3,1-7.6,3.8-10.8,9.9
	c-0.4,0.8,0.3,1.7,1.2,1.5c4.8-1,7.3-1.8,9.5-5.3v11c-0.1,0-0.2,0-0.3,0.1c0,0-7.1,2.7-10.5,10.5c-0.3,0.8,0.4,1.6,1.2,1.4
	c5.1-1.3,7.4-2.4,9.4-7.2c0.1-0.2,0.1-0.3,0.2-0.5v17c-1.7,0.9-6.9,4.1-9.5,10.8c-0.3,0.8,0.5,1.6,1.3,1.3c4.3-1.3,6.5-2.4,8.2-5.6
	V467c-0.8,1.8-2.5,6.4-2.8,10.6c0,0.7,0.2,3.3,0.4,3.9c1.2,3.8,2.1,6.3,2.9,6.1c1.5-0.3,3.1-7.6,3.3-10.6c0.1-2.2,0-6.2-1.6-8.8
	c0.1-0.1,0.1-0.3,0.1-0.4v-15.5c0.1,0.4,0.2,0.9,0.3,1.4c1.4,5.1,3.4,6.4,8.3,8.5c0.8,0.3,1.6-0.4,1.4-1.2c-2.3-8.2-9-11.9-9-11.9
	c-0.4-0.4-0.9,0-1.1,0.9v-17.3c1.6,4.2,3.8,5.4,8.5,7.1c0.8,0.3,1.6-0.4,1.3-1.2c-2.8-8.1-9.6-11.4-9.6-11.4
	c-0.1-0.1-0.1-0.1-0.2-0.1v-11.3c1.4,3.5,3.7,4.8,8,6.8c0.8,0.4,1.8-0.3,1.5-1.2c-2.3-8.6-9.4-12.7-9.4-12.7c-0.1,0-0.1-0.1-0.2-0.1
	v-12.3c2.1,5.3,4.3,6.4,9.1,7.6c0.8,0.2,1.5-0.8,1.1-1.8c-3.2-8.1-8.7-11.3-10.2-12V378c0.1,0.3,0.3,0.7,0.5,1
	c2.7,5.1,5.3,6.1,11.3,7.2c1,0.2,1.8-0.7,1.3-1.5C1727.4,376,1719,373.5,1719,373.5z"/>
<path class="st0" d="M1834,304.8c-0.1-0.1-0.2-0.1-0.3-0.1v-7.5c2.4,4.5,4.7,5.4,10,6.4c0.9,0.2,1.6-0.6,1.2-1.4
	c-3.6-6.7-10.1-9.2-11.1-9.5v-9.8c0.1,0.1,0.1,0.3,0.2,0.4c2.6,5.4,5.1,6.5,10.8,7.7c0.9,0.2,1.7-0.8,1.3-1.6
	c-4.2-8.8-12.2-11.5-12.2-11.5l0,0v-9.1c0,0,0,0.1,0.1,0.1c2.4,4.6,4.7,5.5,10,6.5c0.9,0.2,1.6-0.7,1.2-1.4
	c-3.7-7-10.4-9.4-11.2-9.7v-10.9c2.4,5.3,4.8,6.4,10.1,7.6c0.9,0.2,1.6-0.8,1.2-1.8c-3.5-8.1-9.7-11.3-11.3-12v-14.3
	c2.4,5,4.9,6.1,10.2,7.3c0.9,0.2,1.7-0.8,1.2-1.7c-3.6-7.8-9.8-10.9-11.5-11.6v-12.2c0.2,0.5,0.4,1.1,0.6,1.7
	c2.3,5.1,4.6,6.2,9.7,7.3c0.8,0.2,1.5-0.7,1.1-1.6c-3.8-8.3-11-10.9-11-10.9c-0.2-0.1-0.4-0.1-0.5,0v-10.1c0.2,0.5,0.4,1.1,0.7,1.6
	c2.4,4.6,4.6,5.4,9.6,6.2c0.8,0.1,1.4-0.7,1-1.5c-4-7.4-11-9.4-11-9.4c-0.1-0.1-0.2-0.1-0.3,0v-9.9c0.1,0.2,0.2,0.4,0.3,0.6
	c2.7,4.8,5.2,5.7,10.8,6.5c0.9,0.1,1.6-0.8,1.2-1.6c-4.3-7.5-11.7-9.7-12.3-9.9v-9.4c2.4,4.5,4.7,5.4,10,6.4
	c0.9,0.2,1.6-0.6,1.2-1.4c-3.6-6.7-10.1-9.2-11.1-9.5v-9.7c0.1,0.1,0.1,0.3,0.2,0.4c2.6,5.4,5.1,6.5,10.8,7.7
	c0.9,0.2,1.7-0.8,1.3-1.6c-4.2-8.8-12.2-11.5-12.2-11.5l0,0V146c0,0,0,0.1,0.1,0.1c2.4,4.6,4.7,5.5,10,6.5c0.9,0.2,1.6-0.7,1.2-1.4
	c-3.7-7-10.4-9.4-11.2-9.7V131c0-0.6-0.5-1.2-1.2-1.2s-1.2,0.5-1.2,1.2v11.7c-1.5,0.6-7.5,3.1-10.9,9.6c-0.4,0.7,0.3,1.6,1.2,1.4
	c5.1-1,7.5-1.9,9.8-6.1v8.6c-1.9,0.8-8.1,3.9-11.6,11.2c-0.4,0.9,0.4,1.8,1.3,1.6c5.4-1.1,7.9-2.2,10.3-6.8v8.6
	c-0.1,0-0.2,0-0.3,0.1c0,0-7.4,2.3-11.3,9.6c-0.4,0.7,0.3,1.5,1.2,1.4c5.3-1,7.6-1.9,10-6.4c0.2-0.3,0.3-0.7,0.4-1v10.4
	c-0.9,0.3-8.1,2.5-12.3,9.9c-0.5,0.8,0.3,1.7,1.2,1.6c5.6-0.8,8.1-1.7,10.8-6.5c0.1-0.2,0.2-0.4,0.3-0.6v9.9c-0.1,0-0.1,0-0.2,0.1
	c0,0-7.8,2.5-11.9,10.6c-0.4,0.8,0.3,1.7,1.2,1.5c5.6-1.1,8-2.1,10.5-7.1c0.1-0.3,0.2-0.5,0.4-0.8v9.5c-0.1-0.1-0.3,0-0.5,0.1
	c0,0-8.6,2.8-13.2,11.8c-0.5,0.9,0.4,1.9,1.4,1.7c6.2-1.3,8.9-2.3,11.7-7.9c0.3-0.5,0.5-1,0.6-1.5v12.2c-2.2,1-7.7,4.3-10.9,11.4
	c-0.4,0.9,0.3,1.9,1.2,1.7c5-1.1,7.4-2.1,9.7-6.3V248c-1.4,0.6-7.8,3.8-11.4,12.1c-0.4,0.9,0.3,2,1.2,1.8c5.4-1.3,7.8-2.4,10.2-7.9
	v11.7c-1.5,0.6-7.5,3.1-10.9,9.6c-0.4,0.7,0.3,1.6,1.2,1.4c5.1-1,7.5-1.9,9.8-6.1v8.6c-1.9,0.8-8.1,3.9-11.6,11.2
	c-0.4,0.9,0.4,1.8,1.3,1.6c5.4-1.1,7.9-2.2,10.3-6.8v8.6c-0.1,0-0.2,0-0.3,0.1c0,0-7.4,2.3-11.3,9.6c-0.4,0.7,0.3,1.5,1.2,1.4
	c5.3-1,7.6-1.9,10-6.4c0.2-0.3,0.3-0.7,0.4-1v7.8c-1.2,0.4-8.9,3.6-13.2,12.3c-0.5,0.9,0.4,2,1.4,1.8c6.3-1.3,9-2.5,11.8-8.3v11.3
	c-2.5,1.1-8.6,4.5-12.2,11.9c-0.5,0.9,0.4,2,1.4,1.8c5.5-1.2,8.3-2.2,10.8-6.4v11.4c-2.3,1-7.6,3.8-10.8,9.9
	c-0.4,0.8,0.3,1.7,1.2,1.5c4.8-1,7.3-1.8,9.5-5.3v11c-0.1,0-0.2,0-0.3,0.1c0,0-7.1,2.7-10.5,10.5c-0.3,0.8,0.4,1.6,1.2,1.4
	c5.1-1.3,7.4-2.4,9.4-7.2c0.1-0.2,0.1-0.3,0.2-0.5v17c-1.7,0.9-6.9,4.1-9.5,10.8c-0.3,0.8,0.5,1.6,1.3,1.3c4.3-1.3,6.5-2.4,8.2-5.6
	v12.3c-0.8,1.8-2.5,6.4-2.8,10.6c0,0.7,0.2,3.3,0.4,3.9c1.2,3.8,2.1,6.3,2.9,6.1c1.5-0.3,3.1-7.6,3.3-10.6c0.1-2.2,0-6.2-1.6-8.8
	c0.1-0.1,0.1-0.3,0.1-0.4v-15.5c0.1,0.4,0.2,0.9,0.3,1.4c1.4,5.1,3.4,6.4,8.3,8.5c0.8,0.3,1.6-0.4,1.4-1.2c-2.3-8.2-9-11.9-9-11.9
	c-0.4-0.4-0.9,0-1.1,0.9V364c1.6,4.2,3.8,5.4,8.5,7.1c0.8,0.3,1.6-0.4,1.3-1.2c-2.8-8.1-9.6-11.4-9.6-11.4c-0.1-0.1-0.1-0.1-0.2-0.1
	v-11.3c1.4,3.5,3.7,4.8,8,6.8c0.8,0.4,1.8-0.3,1.5-1.2c-2.3-8.6-9.4-12.7-9.4-12.7c-0.1,0-0.1-0.1-0.2-0.1v-12.3
	c2.1,5.3,4.3,6.4,9.1,7.6c0.8,0.2,1.5-0.8,1.1-1.8c-3.2-8.1-8.7-11.3-10.2-12v-12.1c0.1,0.3,0.3,0.7,0.5,1c2.7,5.1,5.3,6.1,11.3,7.2
	c1,0.2,1.8-0.7,1.3-1.5C1842.4,307.3,1834,304.8,1834,304.8z"/>
<path class="st0" d="M1990,360.5c-0.1-0.1-0.2-0.1-0.3-0.1v-7.5c2.4,4.5,4.7,5.4,10,6.4c0.9,0.2,1.6-0.6,1.2-1.4
	c-3.6-6.7-10.1-9.2-11.1-9.5v-9.8c0.1,0.1,0.1,0.3,0.2,0.4c2.6,5.4,5.1,6.5,10.8,7.7c0.9,0.2,1.7-0.8,1.3-1.6
	c-4.2-8.8-12.2-11.5-12.2-11.5l0,0v-9.1c0,0,0,0.1,0.1,0.1c2.4,4.6,4.7,5.5,10,6.5c0.9,0.2,1.6-0.7,1.2-1.4
	c-3.7-7-10.4-9.4-11.2-9.7v-10.9c2.4,5.3,4.8,6.4,10.1,7.6c0.9,0.2,1.6-0.8,1.2-1.8c-3.5-8.1-9.7-11.3-11.3-12v-14.3
	c2.4,5,4.9,6.1,10.2,7.3c0.9,0.2,1.7-0.8,1.2-1.7c-3.6-7.8-9.8-10.9-11.5-11.6v-12.2c0.2,0.5,0.4,1.1,0.6,1.7
	c2.3,5.1,4.6,6.2,9.7,7.3c0.8,0.2,1.5-0.7,1.1-1.6c-3.8-8.3-11-10.9-11-10.9c-0.2-0.1-0.4-0.1-0.5,0v-10.1c0.2,0.5,0.4,1.1,0.7,1.6
	c2.4,4.6,4.6,5.4,9.6,6.2c0.8,0.1,1.4-0.7,1-1.5c-4-7.4-11-9.4-11-9.4c-0.1-0.1-0.2-0.1-0.3,0v-9.9c0.1,0.2,0.2,0.4,0.3,0.6
	c2.7,4.8,5.2,5.7,10.8,6.5c0.9,0.1,1.6-0.8,1.2-1.6c-4.3-7.5-11.7-9.7-12.3-9.9v-9.3c2.4,4.5,4.7,5.4,10,6.4
	c0.9,0.2,1.6-0.6,1.2-1.4c-3.6-6.7-10.1-9.2-11.1-9.5v-9.8c0.1,0.1,0.1,0.3,0.2,0.4c2.6,5.4,5.1,6.5,10.8,7.7
	c0.9,0.2,1.7-0.8,1.3-1.6c-4.2-8.8-12.2-11.5-12.2-11.5l0,0v-9.1c0,0,0,0.1,0.1,0.1c2.4,4.6,4.7,5.5,10,6.5c0.9,0.2,1.6-0.7,1.2-1.4
	c-3.7-7-10.4-9.4-11.2-9.7v-10.5c0-0.6-0.5-1.2-1.2-1.2s-1.2,0.5-1.2,1.2v11.7c-1.5,0.6-7.5,3.1-10.9,9.6c-0.4,0.7,0.3,1.6,1.2,1.4
	c5.1-1,7.5-1.9,9.8-6.1v8.6c-1.9,0.8-8.1,3.9-11.6,11.2c-0.4,0.9,0.4,1.8,1.3,1.6c5.4-1.1,7.9-2.2,10.3-6.8v8.6
	c-0.1,0-0.2,0-0.3,0.1c0,0-7.4,2.3-11.3,9.6c-0.4,0.7,0.3,1.5,1.2,1.4c5.3-1,7.6-1.9,10-6.4c0.2-0.3,0.3-0.7,0.4-1v10.4
	c-0.9,0.3-8.1,2.5-12.3,9.9c-0.5,0.8,0.3,1.7,1.2,1.6c5.6-0.8,8.1-1.7,10.8-6.5c0.1-0.2,0.2-0.4,0.3-0.6v9.9c-0.1,0-0.1,0-0.2,0.1
	c0,0-7.8,2.5-11.9,10.6c-0.4,0.8,0.3,1.7,1.2,1.5c5.6-1.1,8-2.1,10.5-7.1c0.1-0.3,0.2-0.5,0.4-0.8v9.5c-0.1-0.1-0.3,0-0.5,0.1
	c0,0-8.6,2.8-13.2,11.8c-0.5,0.9,0.4,1.9,1.4,1.7c6.2-1.3,8.9-2.3,11.7-7.9c0.3-0.5,0.5-1,0.6-1.5v12.2c-2.2,1-7.7,4.3-10.9,11.4
	c-0.4,0.9,0.3,1.9,1.2,1.7c5-1.1,7.4-2.1,9.7-6.3v11.8c-1.4,0.6-7.8,3.8-11.4,12.1c-0.4,0.9,0.3,2,1.2,1.8c5.4-1.3,7.8-2.4,10.2-7.9
	v11.7c-1.5,0.6-7.5,3.1-10.9,9.6c-0.4,0.7,0.3,1.6,1.2,1.4c5.1-1,7.5-1.9,9.8-6.1v8.6c-1.9,0.8-8.1,3.9-11.6,11.2
	c-0.4,0.9,0.4,1.8,1.3,1.6c5.4-1.1,7.9-2.2,10.3-6.8v8.6c-0.1,0-0.2,0-0.3,0.1c0,0-7.4,2.3-11.3,9.6c-0.4,0.7,0.3,1.5,1.2,1.4
	c5.3-1,7.6-1.9,10-6.4c0.2-0.3,0.3-0.7,0.4-1v7.8c-1.2,0.4-8.9,3.6-13.2,12.3c-0.5,0.9,0.4,2,1.4,1.8c6.3-1.3,9-2.5,11.8-8.3v11.3
	c-2.5,1.1-8.6,4.5-12.2,11.9c-0.5,0.9,0.4,2,1.4,1.8c5.5-1.2,8.3-2.2,10.8-6.4v11.4c-2.3,1-7.6,3.8-10.8,9.9
	c-0.4,0.8,0.3,1.7,1.2,1.5c4.8-1,7.3-1.8,9.5-5.3v11c-0.1,0-0.2,0-0.3,0.1c0,0-7.1,2.7-10.5,10.5c-0.3,0.8,0.4,1.6,1.2,1.4
	c5.1-1.3,7.4-2.4,9.4-7.2c0.1-0.2,0.1-0.3,0.2-0.5v17c-1.7,0.9-6.9,4.1-9.5,10.8c-0.3,0.8,0.5,1.6,1.3,1.3c4.3-1.3,6.5-2.4,8.2-5.6
	V454c-0.8,1.8-2.5,6.4-2.8,10.6c0,0.7,0.2,3.3,0.4,3.9c1.2,3.8,2.1,6.3,2.9,6.1c1.5-0.3,3.1-7.6,3.3-10.6c0.1-2.2,0-6.2-1.6-8.8
	c0.1-0.1,0.1-0.3,0.1-0.4v-15.5c0.1,0.4,0.2,0.9,0.3,1.4c1.4,5.1,3.4,6.4,8.3,8.5c0.8,0.3,1.6-0.4,1.4-1.2c-2.3-8.2-9-11.9-9-11.9
	c-0.4-0.4-0.9,0-1.1,0.9v-17.3c1.6,4.2,3.8,5.4,8.5,7.1c0.8,0.3,1.6-0.4,1.3-1.2c-2.8-8.1-9.6-11.4-9.6-11.4
	c-0.1-0.1-0.1-0.1-0.2-0.1v-11.3c1.4,3.5,3.7,4.8,8,6.8c0.8,0.4,1.8-0.3,1.5-1.2c-2.3-8.6-9.4-12.7-9.4-12.7c-0.1,0-0.1-0.1-0.2-0.1
	v-12.3c2.1,5.3,4.3,6.4,9.1,7.6c0.8,0.2,1.5-0.8,1.1-1.8c-3.2-8.1-8.7-11.3-10.2-12V365c0.1,0.3,0.3,0.7,0.5,1
	c2.7,5.1,5.3,6.1,11.3,7.2c1,0.2,1.8-0.7,1.3-1.5C1998.4,363,1990,360.5,1990,360.5z"/>
<path class="st0" d="M2108.5,394.4c-0.1-0.1-0.2-0.1-0.3-0.1v-6.9c2.2,4.1,4.3,4.9,9.1,5.8c0.8,0.2,1.4-0.6,1.1-1.3
	c-3.3-6.1-9.3-8.4-10.2-8.7v-8.9c0.1,0.1,0.1,0.2,0.2,0.4c2.3,4.9,4.7,5.9,9.9,7c0.9,0.2,1.6-0.7,1.2-1.5
	c-3.9-8-11.2-10.5-11.2-10.5l0,0v-8.3c0,0,0,0.1,0.1,0.1c2.2,4.2,4.3,5,9.2,6c0.8,0.2,1.4-0.6,1.1-1.3c-3.4-6.4-9.6-8.6-10.3-8.9
	v-9.9c2.2,4.8,4.4,5.8,9.3,7c0.8,0.2,1.5-0.8,1.1-1.6c-3.2-7.4-8.9-10.3-10.4-11v-13.1c2.2,4.6,4.5,5.6,9.4,6.7
	c0.8,0.2,1.5-0.7,1.1-1.5c-3.3-7.1-9-9.9-10.5-10.6v-11.2c0.1,0.5,0.3,1,0.6,1.6c2.1,4.7,4.2,5.6,8.9,6.7c0.8,0.2,1.4-0.7,1.1-1.4
	c-3.5-7.6-10.1-10-10.1-10c-0.2-0.1-0.3-0.1-0.5,0v-9.3c0.2,0.5,0.4,1,0.7,1.5c2.2,4.2,4.3,4.9,8.8,5.7c0.7,0.1,1.3-0.7,0.9-1.4
	c-3.7-6.8-10.1-8.6-10.1-8.6c-0.1-0.1-0.2-0.1-0.3,0v-9.1c0.1,0.2,0.2,0.4,0.3,0.6c2.5,4.4,4.8,5.2,10,6c0.8,0.1,1.5-0.7,1.1-1.4
	c-4-6.8-10.7-8.9-11.3-9v-8.6c2.2,4.1,4.3,4.9,9.1,5.8c0.8,0.2,1.4-0.6,1.1-1.3c-3.3-6.1-9.3-8.4-10.2-8.7v-8.9
	c0.1,0.1,0.1,0.2,0.2,0.4c2.3,4.9,4.7,5.9,9.9,7c0.9,0.2,1.6-0.7,1.2-1.5c-3.9-8-11.2-10.5-11.2-10.5l0,0v-8.3c0,0,0,0.1,0.1,0.1
	c2.2,4.2,4.3,5,9.2,6c0.8,0.2,1.4-0.6,1.1-1.3c-3.4-6.4-9.6-8.6-10.3-8.9v-9.6c0-0.6-0.5-1.1-1.1-1.1s-1.1,0.5-1.1,1.1v10.7
	c-1.4,0.5-6.9,2.9-10.1,8.8c-0.4,0.7,0.3,1.4,1.1,1.3c4.7-0.9,6.9-1.7,9-5.6v7.9c-1.8,0.7-7.4,3.6-10.7,10.3
	c-0.4,0.8,0.3,1.7,1.2,1.5c4.9-1,7.3-2,9.5-6.2v7.8c-0.1,0-0.2,0-0.3,0.1c0,0-6.8,2.1-10.4,8.8c-0.4,0.7,0.3,1.4,1.1,1.3
	c4.9-0.9,7-1.7,9.2-5.9c0.2-0.3,0.3-0.6,0.4-0.9v9.3c-0.8,0.2-7.4,2.3-11.3,9c-0.4,0.7,0.2,1.6,1.1,1.4c5.1-0.8,7.5-1.5,10-6
	c0.1-0.2,0.2-0.4,0.3-0.5v9.1c-0.1,0-0.1,0-0.2,0.1c0,0-7.1,2.3-10.9,9.6c-0.4,0.7,0.3,1.6,1.1,1.4c5.1-1,7.4-1.9,9.6-6.5
	c0.1-0.2,0.2-0.5,0.3-0.7v8.7c-0.1,0-0.3,0-0.4,0.1c0,0-7.9,2.5-12.2,10.8c-0.4,0.8,0.4,1.7,1.3,1.5c5.7-1.1,8.2-2.1,10.8-7.2
	c0.2-0.5,0.4-0.9,0.6-1.4v11.2c-2,1-7.1,3.9-10.1,10.4c-0.4,0.8,0.3,1.7,1.1,1.5c4.6-1,6.8-1.9,8.9-5.7v10.8
	c-1.3,0.6-7.2,3.5-10.5,11c-0.4,0.8,0.3,1.8,1.1,1.6c4.9-1.2,7.2-2.2,9.4-7.2v10.7c-1.4,0.5-6.9,2.9-10.1,8.8
	c-0.4,0.7,0.3,1.4,1.1,1.3c4.7-0.9,6.9-1.7,9-5.6v7.9c-1.8,0.7-7.4,3.6-10.7,10.3c-0.4,0.8,0.3,1.7,1.2,1.5c4.9-1,7.3-2,9.5-6.2v7.8
	c-0.1,0-0.2,0-0.3,0.1c0,0-6.8,2.1-10.4,8.8c-0.4,0.7,0.3,1.4,1.1,1.3c4.9-0.9,7-1.7,9.2-5.9c0.2-0.3,0.3-0.6,0.4-0.9v7.2
	c-1.1,0.4-8.2,3.3-12.2,11.2c-0.4,0.9,0.4,1.8,1.3,1.6c5.8-1.2,8.3-2.3,10.9-7.6v10.3c-2.3,1-7.9,4.1-11.3,10.9
	c-0.4,0.9,0.4,1.8,1.3,1.6c5.1-1.1,7.7-2,10-5.9v10.4c-2.1,0.9-7,3.5-9.9,9.1c-0.4,0.7,0.3,1.5,1.1,1.4c4.4-0.9,6.7-1.7,8.8-4.8
	v10.1c-0.1,0-0.2,0-0.3,0.1c0,0-6.5,2.5-9.7,9.6c-0.3,0.7,0.4,1.4,1.1,1.2c4.7-1.2,6.8-2.2,8.7-6.6c0.1-0.2,0.1-0.3,0.2-0.4v15.6
	c-1.6,0.8-6.4,3.8-8.7,9.8c-0.3,0.7,0.4,1.4,1.2,1.2c3.9-1.2,6-2.2,7.5-5.1V480c-0.7,1.7-2.3,5.9-2.6,9.7c0,0.6,0.2,3,0.4,3.6
	c1.1,3.4,1.9,5.7,2.6,5.6c1.4-0.3,2.9-6.9,3-9.7c0.1-2,0-5.7-1.4-8.1c0-0.1,0.1-0.3,0.1-0.4v-14.2c0.1,0.4,0.1,0.8,0.3,1.2
	c1.3,4.6,3.2,5.9,7.6,7.8c0.7,0.3,1.5-0.3,1.3-1.1c-2.1-7.5-8.2-10.9-8.2-10.9c-0.4-0.3-0.8,0-1,0.9v-15.8c1.5,3.9,3.5,5,7.8,6.5
	c0.7,0.3,1.5-0.4,1.2-1.1c-2.5-7.4-8.8-10.4-8.8-10.4c-0.1,0-0.1-0.1-0.2-0.1v-10.4c1.3,3.2,3.4,4.4,7.3,6.2
	c0.8,0.3,1.6-0.3,1.4-1.1c-2.1-7.9-8.6-11.6-8.6-11.6l-0.1-0.1v-11.6c2,4.8,4,5.8,8.3,7c0.7,0.2,1.3-0.8,1-1.6
	c-2.9-7.4-8-10.3-9.3-11v-11.1c0.1,0.3,0.3,0.6,0.4,0.9c2.5,4.6,4.9,5.6,10.4,6.6c0.9,0.2,1.6-0.7,1.2-1.4
	C2116.2,396.7,2108.5,394.4,2108.5,394.4z"/>
<path class="st0" d="M664.4,342.8c-0.1-0.1-0.2-0.1-0.4-0.1V334c2.7,5.2,5.4,6.3,11.5,7.4c1,0.2,1.8-0.8,1.4-1.6
	c-4.2-7.8-11.7-10.7-12.9-11.1v-11.4c0.1,0.2,0.1,0.3,0.2,0.5c3,6.3,5.9,7.5,12.5,9c1.1,0.2,2-0.9,1.5-1.9
	c-4.9-10.2-14.1-13.3-14.1-13.3l0,0v-10.7c0,0,0,0.1,0.1,0.1c2.7,5.3,5.4,6.4,11.5,7.6c1,0.2,1.8-0.8,1.4-1.6
	c-4.3-8.1-12-11-13-11.3v-12.6c2.7,6.1,5.6,7.4,11.7,8.9c1,0.2,1.9-1,1.4-2c-4.1-9.4-11.3-13.2-13.1-14v-16.8
	c2.8,5.9,5.6,7.1,11.8,8.5c1,0.2,1.9-0.9,1.4-2c-4.1-9-11.3-12.7-13.3-13.5V238c0.2,0.6,0.4,1.3,0.7,2c2.7,6,5.3,7.2,11.2,8.5
	c1,0.2,1.8-0.9,1.3-1.8c-4.4-9.7-12.7-12.7-12.7-12.7c-0.2-0.1-0.4-0.1-0.6,0v-11.7c0.2,0.6,0.5,1.2,0.8,1.9
	c2.8,5.3,5.4,6.3,11.1,7.2c0.9,0.2,1.7-0.9,1.2-1.7c-4.7-8.7-12.7-11-12.7-11c-0.2-0.1-0.3-0.1-0.4-0.1v-11.5
	c0.1,0.2,0.2,0.5,0.4,0.7c3.2,5.6,6.1,6.6,12.5,7.6c1.1,0.2,1.9-0.9,1.3-1.8c-5-8.7-13.5-11.3-14.3-11.5v-10.9
	c2.7,5.2,5.4,6.3,11.5,7.4c1,0.2,1.8-0.8,1.4-1.6c-4.2-7.8-11.7-10.7-12.9-11.1v-11.4c0.1,0.2,0.1,0.3,0.2,0.5c3,6.3,5.9,7.5,12.5,9
	c1.1,0.2,2-0.9,1.5-1.9c-4.9-10.2-14.1-13.3-14.1-13.3l0,0v-10.6c0,0,0,0.1,0.1,0.1c2.7,5.3,5.4,6.4,11.5,7.6c1,0.2,1.8-0.8,1.4-1.6
	c-4.3-8.1-12-11-13-11.3v-12.3c0-0.7-0.6-1.4-1.3-1.4c-0.7,0-1.3,0.6-1.3,1.4v13.6c-1.7,0.6-8.7,3.6-12.7,11.2
	c-0.5,0.9,0.4,1.8,1.4,1.6c5.9-1.2,8.6-2.2,11.3-7.1v10c-2.2,1-9.3,4.5-13.4,13.1c-0.5,1,0.4,2.1,1.5,1.9c6.2-1.3,9.2-2.5,11.9-7.9
	v10c-0.1,0-0.2,0-0.4,0.1c0,0-8.5,2.6-13.1,11.2c-0.5,0.8,0.4,1.8,1.4,1.6c6.1-1.2,8.8-2.2,11.5-7.5c0.2-0.4,0.4-0.8,0.5-1.1v12.1
	c-1,0.3-9.3,2.9-14.3,11.5c-0.5,0.9,0.3,2,1.3,1.8c6.5-1,9.4-2,12.5-7.6c0.1-0.2,0.2-0.5,0.4-0.7v11.6c-0.1,0-0.2,0-0.2,0.1
	c0,0-9,2.9-13.8,12.3c-0.5,0.9,0.4,2,1.4,1.8c6.4-1.3,9.3-2.4,12.1-8.2c0.2-0.3,0.3-0.6,0.4-0.9v11.1c-0.2-0.1-0.3,0-0.6,0.1
	c0,0-10,3.2-15.3,13.7c-0.5,1,0.4,2.2,1.6,2c7.2-1.5,10.3-2.7,13.5-9.2c0.3-0.6,0.5-1.2,0.7-1.8v14.2c-2.5,1.2-8.9,4.9-12.7,13.2
	c-0.5,1,0.4,2.2,1.4,2c5.7-1.3,8.6-2.5,11.2-7.3v13.5c-1.6,0.7-9.1,4.4-13.2,14c-0.5,1.1,0.4,2.3,1.4,2c6.2-1.5,9-2.8,11.8-9.1v13.6
	c-1.7,0.6-8.7,3.6-12.7,11.2c-0.5,0.9,0.4,1.8,1.4,1.6c5.9-1.2,8.6-2.2,11.3-7.1v10c-2.2,1-9.3,4.5-13.4,13.1
	c-0.5,1,0.4,2.1,1.5,1.9c6.2-1.3,9.2-2.5,11.9-7.9v10c-0.1,0-0.2,0-0.4,0.1c0,0-8.5,2.6-13.1,11.2c-0.5,0.8,0.4,1.8,1.4,1.6
	c6.1-1.2,8.8-2.2,11.5-7.5c0.2-0.4,0.4-0.8,0.5-1.1v9.1c-1.4,0.5-10.4,4.2-15.3,14.3c-0.5,1.1,0.4,2.3,1.6,2.1
	c7.2-1.5,10.4-2.9,13.7-9.7v13.2c-2.9,1.3-10,5.3-14.2,13.8c-0.5,1.1,0.4,2.3,1.6,2.1c6.4-1.4,9.6-2.6,12.5-7.5V385
	c-2.6,1.1-8.8,4.4-12.5,11.5c-0.5,0.9,0.4,1.9,1.4,1.7c5.6-1.1,8.5-2.1,11-6.1v12.8c-0.1,0-0.2,0-0.4,0.1c0,0-8.2,3.2-12.2,12.3
	c-0.4,0.9,0.5,1.8,1.4,1.6c5.9-1.6,8.5-2.8,10.9-8.4c0.1-0.2,0.2-0.4,0.2-0.6v19.8c-2,1-8,4.8-11,12.5c-0.4,0.9,0.6,1.8,1.5,1.5
	c4.9-1.6,7.5-2.8,9.5-6.6v14.3c-0.9,2.1-2.9,7.5-3.2,12.3c-0.1,0.8,0.3,3.8,0.5,4.5c1.4,4.4,2.4,7.3,3.3,7.1
	c1.8-0.4,3.6-8.8,3.8-12.3c0.1-2.6,0-7.2-1.8-10.3c0.1-0.2,0.1-0.3,0.1-0.5v-18.1c0.1,0.5,0.2,1,0.3,1.6c1.6,5.9,4,7.5,9.6,9.9
	c0.9,0.4,1.9-0.4,1.6-1.4c-2.7-9.6-10.4-13.9-10.4-13.9c-0.5-0.4-1,0-1.2,1.1v-20.2c1.9,4.9,4.4,6.3,9.8,8.3
	c0.9,0.3,1.9-0.5,1.6-1.5c-3.2-9.4-11.1-13.3-11.1-13.3c-0.1-0.1-0.2-0.1-0.2-0.1v-13.2c1.6,4.1,4.2,5.6,9.3,7.9
	c1,0.4,2-0.4,1.8-1.4c-2.7-10-10.8-14.8-10.8-14.8c-0.1-0.1-0.1-0.1-0.2-0.1v-14.3c2.5,6.1,5,7.4,10.5,8.9c0.9,0.2,1.7-1,1.3-2
	c-3.7-9.4-10.1-13.2-11.8-14v-14.1c0.2,0.4,0.3,0.8,0.5,1.2c3.1,5.9,6.2,7.1,13.1,8.4c1.1,0.2,2.1-0.8,1.5-1.8
	C674.1,345.8,664.4,342.8,664.4,342.8z"/>
<path class="st0" d="M1185.8,394.5c-0.1,0-0.2-0.1-0.3-0.1v-6c1.9,3.6,3.8,4.3,8.1,5.1c0.7,0.1,1.3-0.5,1-1.1
	c-2.9-5.4-8.2-7.3-9.1-7.6V377c0,0.1,0.1,0.2,0.1,0.3c2.1,4.3,4.1,5.2,8.8,6.2c0.8,0.2,1.4-0.6,1-1.3c-3.5-7-10-9.2-10-9.2l0,0v-7.3
	v0.1c1.9,3.7,3.8,4.4,8.2,5.2c0.7,0.1,1.3-0.5,1-1.1c-3-5.6-8.5-7.5-9.2-7.8v-8.7c1.9,4.2,3.9,5.1,8.3,6.1c0.7,0.2,1.3-0.7,1-1.4
	c-2.9-6.5-7.9-9-9.3-9.6V337c2,4,4,4.9,8.3,5.8c0.7,0.2,1.4-0.6,1-1.4c-2.9-6.2-8-8.7-9.4-9.3v-9.8c0.1,0.4,0.3,0.9,0.5,1.4
	c1.9,4.1,3.7,4.9,7.9,5.9c0.7,0.2,1.2-0.6,0.9-1.3c-3.1-6.7-9-8.7-9-8.7c-0.2-0.1-0.3-0.1-0.4,0v-8.1c0.1,0.4,0.3,0.9,0.6,1.3
	c2,3.7,3.8,4.3,7.8,5c0.7,0.1,1.2-0.6,0.8-1.2c-3.3-5.9-9-7.5-9-7.5c-0.1-0.1-0.2-0.1-0.3,0v-8c0.1,0.2,0.2,0.4,0.3,0.5
	c2.2,3.9,4.3,4.6,8.9,5.2c0.7,0.1,1.3-0.6,1-1.3c-3.5-6-9.5-7.8-10.1-7.9v-7.5c1.9,3.6,3.8,4.3,8.1,5.1c0.7,0.1,1.3-0.5,1-1.1
	c-2.9-5.4-8.2-7.3-9.1-7.6v-7.8c0,0.1,0.1,0.2,0.1,0.3c2.1,4.3,4.1,5.2,8.8,6.2c0.8,0.2,1.4-0.6,1-1.3c-3.5-7-10-9.2-10-9.2l0,0
	v-7.3v0.1c1.9,3.7,3.8,4.4,8.2,5.2c0.7,0.1,1.3-0.5,1-1.1c-3-5.6-8.5-7.5-9.2-7.8v-8.4c0-0.5-0.4-0.9-0.9-0.9s-0.9,0.4-0.9,0.9v9.5
	c-1.2,0.4-6.2,2.5-8.9,7.7c-0.3,0.6,0.3,1.3,1,1.1c4.2-0.8,6.1-1.5,8-4.9v6.9c-1.6,0.7-6.6,3.1-9.5,9c-0.3,0.7,0.3,1.5,1,1.3
	c4.4-0.9,6.5-1.7,8.4-5.4v6.9c-0.1,0-0.2,0-0.2,0.1c0,0-6,1.8-9.2,7.7c-0.3,0.6,0.3,1.2,1,1.1c4.3-0.8,6.2-1.5,8.2-5.1
	c0.1-0.3,0.3-0.5,0.4-0.8v8.3c-0.7,0.2-6.6,2-10.1,7.9c-0.4,0.6,0.2,1.4,1,1.3c4.6-0.7,6.6-1.3,8.9-5.2c0.1-0.2,0.2-0.3,0.3-0.5v8
	c-0.1,0-0.1,0-0.2,0c0,0-6.3,2-9.7,8.4c-0.3,0.6,0.3,1.4,1,1.2c4.5-0.9,6.5-1.7,8.6-5.7c0.1-0.2,0.2-0.4,0.3-0.6v7.6
	c-0.1,0-0.2,0-0.4,0c0,0-7.1,2.2-10.8,9.4c-0.4,0.7,0.3,1.5,1.1,1.4c5.1-1,7.3-1.9,9.6-6.3c0.2-0.4,0.4-0.8,0.5-1.2v9.8
	c-1.8,0.8-6.3,3.4-8.9,9.1c-0.3,0.7,0.3,1.5,1,1.4c4.1-0.9,6.1-1.7,7.9-5v9.4c-1.2,0.5-6.4,3-9.3,9.7c-0.3,0.7,0.3,1.6,1,1.4
	c4.4-1,6.4-1.9,8.3-6.3v9.3c-1.2,0.4-6.2,2.5-8.9,7.7c-0.3,0.6,0.3,1.3,1,1.1c4.2-0.8,6.1-1.5,8-4.9v6.9c-1.6,0.7-6.6,3.1-9.5,9
	c-0.3,0.7,0.3,1.5,1,1.3c4.4-0.9,6.5-1.7,8.4-5.4v6.9c-0.1,0-0.2,0-0.2,0.1c0,0-6,1.8-9.2,7.7c-0.3,0.6,0.3,1.2,1,1.1
	c4.3-0.8,6.2-1.5,8.2-5.1c0.1-0.3,0.3-0.5,0.4-0.8v6.3c-1,0.3-7.3,2.9-10.8,9.8c-0.4,0.8,0.3,1.6,1.1,1.4c5.1-1.1,7.4-2,9.7-6.6v9
	c-2.1,0.9-7,3.6-10,9.5c-0.4,0.8,0.3,1.6,1.1,1.4c4.5-0.9,6.8-1.8,8.9-5.2v9.1c-1.9,0.8-6.2,3.1-8.8,7.9c-0.3,0.6,0.3,1.3,1,1.2
	c4-0.8,6-1.5,7.8-4.2v8.8c-0.1,0-0.2,0-0.3,0.1c0,0-5.8,2.2-8.6,8.4c-0.3,0.6,0.3,1.3,1,1.1c4.2-1.1,6-1.9,7.7-5.8
	c0.1-0.1,0.1-0.3,0.2-0.4v13.6c-1.4,0.7-5.7,3.3-7.7,8.6c-0.2,0.6,0.4,1.2,1.1,1c3.5-1.1,5.3-1.9,6.7-4.5v9.9
	c-0.6,1.5-2.1,5.2-2.3,8.5c0,0.5,0.2,2.6,0.4,3.1c1,3,1.7,5,2.3,4.9c1.3-0.3,2.6-6.1,2.7-8.5c0.1-1.8,0-5-1.3-7.1
	c0-0.1,0.1-0.2,0.1-0.3v-12.5c0.1,0.4,0.1,0.7,0.2,1.1c1.1,4,2.8,5.1,6.8,6.8c0.6,0.3,1.3-0.3,1.2-0.9c-1.9-6.6-7.3-9.6-7.3-9.6
	c-0.4-0.3-0.7,0-0.9,0.8v-13.9c1.3,3.4,3.1,4.4,6.9,5.7c0.7,0.2,1.3-0.4,1.1-1c-2.3-6.5-7.8-9.1-7.8-9.1c-0.1,0-0.1,0-0.2-0.1v-9.3
	c1.2,2.8,3,3.9,6.5,5.4c0.7,0.3,1.4-0.3,1.3-0.9c-1.9-6.9-7.7-10.2-7.7-10.2s-0.1,0-0.1-0.1v-9.9c1.7,4.2,3.5,5.1,7.4,6.1
	c0.7,0.2,1.2-0.7,0.9-1.4c-2.6-6.5-7.1-9-8.3-9.6v-9.7c0.1,0.3,0.2,0.5,0.4,0.8c2.2,4.1,4.3,4.9,9.2,5.8c0.8,0.1,1.5-0.6,1.1-1.2
	C1192.6,396.5,1185.8,394.5,1185.8,394.5z"/>
<path class="st0" d="M1595,292.5c-0.1-0.1-0.2-0.1-0.3-0.1v-7.5c2.4,4.5,4.7,5.4,10,6.4c0.9,0.2,1.6-0.6,1.2-1.4
	c-3.6-6.7-10.1-9.2-11.1-9.5v-9.8c0.1,0.1,0.1,0.3,0.2,0.4c2.6,5.4,5.1,6.5,10.8,7.7c0.9,0.2,1.7-0.8,1.3-1.6
	c-4.2-8.8-12.2-11.5-12.2-11.5l0,0v-9.1c0,0,0,0.1,0.1,0.1c2.4,4.6,4.7,5.5,10,6.5c0.9,0.2,1.6-0.7,1.2-1.4
	c-3.7-7-10.4-9.4-11.2-9.7v-10.9c2.4,5.3,4.8,6.4,10.1,7.6c0.9,0.2,1.6-0.8,1.2-1.8c-3.5-8.1-9.7-11.3-11.3-12v-14.3
	c2.4,5,4.9,6.1,10.2,7.3c0.9,0.2,1.7-0.8,1.2-1.7c-3.6-7.8-9.8-10.9-11.5-11.6v-12.3c0.2,0.5,0.4,1.1,0.6,1.7
	c2.3,5.1,4.6,6.2,9.7,7.3c0.8,0.2,1.5-0.7,1.1-1.6c-3.8-8.3-11-10.9-11-10.9c-0.2-0.1-0.4-0.1-0.5,0v-10.1c0.2,0.5,0.4,1.1,0.7,1.6
	c2.4,4.6,4.6,5.4,9.6,6.2c0.8,0.1,1.4-0.7,1-1.5c-4-7.4-11-9.4-11-9.4c-0.1-0.1-0.2-0.1-0.3,0v-9.9c0.1,0.2,0.2,0.4,0.3,0.6
	c2.7,4.8,5.2,5.7,10.8,6.5c0.9,0.1,1.6-0.8,1.2-1.6c-4.3-7.5-11.7-9.7-12.3-9.9v-9.4c2.4,4.5,4.7,5.4,10,6.4
	c0.9,0.2,1.6-0.6,1.2-1.4c-3.6-6.7-10.1-9.2-11.1-9.5v-9.8c0.1,0.1,0.1,0.3,0.2,0.4c2.6,5.4,5.1,6.5,10.8,7.7
	c0.9,0.2,1.7-0.8,1.3-1.6c-4.2-8.8-12.2-11.5-12.2-11.5l0,0v-9.1c0,0,0,0.1,0.1,0.1c2.4,4.6,4.7,5.5,10,6.5c0.9,0.2,1.6-0.7,1.2-1.4
	c-3.7-7-10.4-9.4-11.2-9.7v-10.5c0-0.6-0.5-1.2-1.2-1.2s-1.2,0.5-1.2,1.2v11.7c-1.5,0.6-7.5,3.1-10.9,9.6c-0.4,0.7,0.3,1.6,1.2,1.4
	c5.1-1,7.5-1.9,9.8-6.1v8.6c-1.9,0.8-8.1,3.9-11.6,11.2c-0.4,0.9,0.4,1.8,1.3,1.6c5.4-1.1,7.9-2.2,10.3-6.8v8.6
	c-0.1,0-0.2,0-0.3,0.1c0,0-7.4,2.3-11.3,9.6c-0.4,0.7,0.3,1.5,1.2,1.4c5.3-1,7.6-1.9,10-6.4c0.2-0.3,0.3-0.7,0.4-1v10.4
	c-0.9,0.3-8.1,2.5-12.3,9.9c-0.5,0.8,0.3,1.7,1.2,1.6c5.6-0.8,8.1-1.7,10.8-6.5c0.1-0.2,0.2-0.4,0.3-0.6v9.9c-0.1,0-0.1,0-0.2,0.1
	c0,0-7.8,2.5-11.9,10.6c-0.4,0.8,0.3,1.7,1.2,1.5c5.6-1.1,8-2.1,10.5-7.1c0.1-0.3,0.2-0.5,0.4-0.8v9.5c-0.1-0.1-0.3,0-0.5,0.1
	c0,0-8.6,2.8-13.2,11.8c-0.5,0.9,0.4,1.9,1.4,1.7c6.2-1.3,8.9-2.3,11.7-7.9c0.3-0.5,0.5-1,0.6-1.5v12.2c-2.2,1-7.7,4.3-10.9,11.4
	c-0.4,0.9,0.3,1.9,1.2,1.7c5-1.1,7.4-2.1,9.7-6.3v11.8c-1.4,0.6-7.8,3.8-11.4,12.1c-0.4,0.9,0.3,2,1.2,1.8c5.4-1.3,7.8-2.4,10.2-7.9
	v11.7c-1.5,0.6-7.5,3.1-10.9,9.6c-0.4,0.7,0.3,1.6,1.2,1.4c5.1-1,7.5-1.9,9.8-6.1v8.6c-1.9,0.8-8.1,3.9-11.6,11.2
	c-0.4,0.9,0.4,1.8,1.3,1.6c5.4-1.1,7.9-2.2,10.3-6.8v8.6c-0.1,0-0.2,0-0.3,0.1c0,0-7.4,2.3-11.3,9.6c-0.4,0.7,0.3,1.5,1.2,1.4
	c5.3-1,7.6-1.9,10-6.4c0.2-0.3,0.3-0.7,0.4-1v7.9c-1.2,0.4-8.9,3.6-13.2,12.3c-0.5,0.9,0.4,2,1.4,1.8c6.3-1.3,9-2.5,11.8-8.3V310
	c-2.5,1.1-8.6,4.5-12.2,11.9c-0.5,0.9,0.4,2,1.4,1.8c5.5-1.2,8.3-2.2,10.8-6.4v11.4c-2.3,1-7.6,3.8-10.8,9.9
	c-0.4,0.8,0.3,1.7,1.2,1.5c4.8-1,7.3-1.8,9.5-5.3v11c-0.1,0-0.2,0-0.3,0.1c0,0-7.1,2.7-10.5,10.5c-0.3,0.8,0.4,1.6,1.2,1.4
	c5.1-1.3,7.4-2.4,9.4-7.2c0.1-0.2,0.1-0.3,0.2-0.5v17c-1.7,0.9-6.9,4.1-9.5,10.8c-0.3,0.8,0.5,1.6,1.3,1.3c4.3-1.3,6.5-2.4,8.2-5.6
	v12.3c-0.8,1.8-2.5,6.4-2.8,10.6c0,0.7,0.2,3.3,0.4,3.9c1.2,3.8,2.1,6.3,2.9,6.1c1.5-0.3,3.1-7.6,3.3-10.6c0.1-2.2,0-6.2-1.6-8.8
	c0.1-0.1,0.1-0.3,0.1-0.4v-15.5c0.1,0.4,0.2,0.9,0.3,1.4c1.4,5.1,3.4,6.4,8.3,8.5c0.8,0.3,1.6-0.4,1.4-1.2c-2.3-8.2-9-11.9-9-11.9
	c-0.4-0.4-0.9,0-1.1,0.9v-17.3c1.6,4.2,3.8,5.4,8.5,7.1c0.8,0.3,1.6-0.4,1.3-1.2c-2.8-8.1-9.6-11.4-9.6-11.4
	c-0.1-0.1-0.1-0.1-0.2-0.1v-11.3c1.4,3.5,3.7,4.8,8,6.8c0.8,0.4,1.8-0.3,1.5-1.2c-2.3-8.6-9.4-12.7-9.4-12.7c-0.1,0-0.1-0.1-0.2-0.1
	v-12.7c2.1,5.3,4.3,6.4,9.1,7.6c0.8,0.2,1.5-0.8,1.1-1.8c-3.2-8.1-8.7-11.3-10.2-12v-12c0.1,0.3,0.3,0.7,0.5,1
	c2.7,5.1,5.3,6.1,11.3,7.2c1,0.2,1.8-0.7,1.3-1.5C1603.4,295,1595,292.5,1595,292.5z"/>
<path class="st0" d="M1287,246.5c-0.1-0.1-0.2-0.1-0.3-0.1v-7.5c2.4,4.5,4.7,5.4,10,6.4c0.9,0.2,1.6-0.6,1.2-1.4
	c-3.6-6.7-10.1-9.2-11.1-9.5v-9.8c0.1,0.1,0.1,0.3,0.2,0.4c2.6,5.4,5.1,6.5,10.8,7.7c0.9,0.2,1.7-0.8,1.3-1.6
	c-4.2-8.8-12.2-11.5-12.2-11.5l0,0v-9.1c0,0,0,0.1,0.1,0.1c2.4,4.6,4.7,5.5,10,6.5c0.9,0.2,1.6-0.7,1.2-1.4
	c-3.7-7-10.4-9.4-11.2-9.7v-10.9c2.4,5.3,4.8,6.4,10.1,7.6c0.9,0.2,1.6-0.8,1.2-1.8c-3.5-8.1-9.7-11.3-11.3-12v-14.4
	c2.4,5,4.9,6.1,10.2,7.3c0.9,0.2,1.7-0.8,1.2-1.7c-3.6-7.8-9.8-10.9-11.5-11.6v-12.3c0.2,0.5,0.4,1.1,0.6,1.7
	c2.3,5.1,4.6,6.2,9.7,7.3c0.8,0.2,1.5-0.7,1.1-1.6c-3.8-8.3-11-10.9-11-10.9c-0.2-0.1-0.4-0.1-0.5,0v-10.1c0.2,0.5,0.4,1.1,0.7,1.6
	c2.4,4.6,4.6,5.4,9.6,6.2c0.8,0.1,1.4-0.7,1-1.5c-4-7.4-11-9.4-11-9.4c-0.1-0.1-0.2-0.1-0.3,0v-9.9c0.1,0.2,0.2,0.4,0.3,0.6
	c2.7,4.8,5.2,5.7,10.8,6.5c0.9,0.1,1.6-0.8,1.2-1.6c-4.3-7.5-11.7-9.7-12.3-9.9v-9.4c2.4,4.5,4.7,5.4,10,6.4
	c0.9,0.2,1.6-0.6,1.2-1.4c-3.6-6.7-10.1-9.2-11.1-9.5v-9.8c0.1,0.1,0.1,0.3,0.2,0.4c2.6,5.4,5.1,6.5,10.8,7.7
	c0.9,0.2,1.7-0.8,1.3-1.6c-4.2-8.8-12.2-11.5-12.2-11.5l0,0v-9.1c0,0,0,0.1,0.1,0.1c2.4,4.6,4.7,5.5,10,6.5c0.9,0.2,1.6-0.7,1.2-1.4
	c-3.7-7-10.4-9.4-11.2-9.7V72.4c0-0.6-0.5-1.2-1.2-1.2s-1.2,0.5-1.2,1.2v11.7c-1.5,0.6-7.5,3.1-10.9,9.6c-0.4,0.7,0.3,1.6,1.2,1.4
	c5.1-1,7.5-1.9,9.8-6.1v8.6c-1.9,0.8-8.1,3.9-11.6,11.2c-0.4,0.9,0.4,1.8,1.3,1.6c5.4-1.1,7.9-2.2,10.3-6.8v8.6
	c-0.1,0-0.2,0-0.3,0.1c0,0-7.4,2.3-11.3,9.6c-0.4,0.7,0.3,1.5,1.2,1.4c5.3-1,7.6-1.9,10-6.4c0.2-0.3,0.3-0.7,0.4-1v10.4
	c-0.9,0.3-8.1,2.5-12.3,9.9c-0.5,0.8,0.3,1.7,1.2,1.6c5.6-0.8,8.1-1.7,10.8-6.5c0.1-0.2,0.2-0.4,0.3-0.6v9.9c-0.1,0-0.1,0-0.2,0.1
	c0,0-7.8,2.5-11.9,10.6c-0.4,0.8,0.3,1.7,1.2,1.5c5.6-1.1,8-2.1,10.5-7.1c0.1-0.3,0.2-0.5,0.4-0.8v9.5c-0.1-0.1-0.3,0-0.5,0.1
	c0,0-8.6,2.8-13.2,11.8c-0.5,0.9,0.4,1.9,1.4,1.7c6.2-1.3,8.9-2.3,11.7-7.9c0.3-0.5,0.5-1,0.6-1.5v12.2c-2.2,1-7.7,4.3-10.9,11.4
	c-0.4,0.9,0.3,1.9,1.2,1.7c5-1.1,7.4-2.1,9.7-6.3v11.8c-1.4,0.6-7.8,3.8-11.4,12.1c-0.4,0.9,0.3,2,1.2,1.8c5.4-1.3,7.8-2.4,10.2-7.9
	v11.7c-1.5,0.6-7.5,3.1-10.9,9.6c-0.4,0.7,0.3,1.6,1.2,1.4c5.1-1,7.5-1.9,9.8-6.1v8.6c-1.9,0.8-8.1,3.9-11.6,11.2
	c-0.4,0.9,0.4,1.8,1.3,1.6c5.4-1.1,7.9-2.2,10.3-6.8v8.6c-0.1,0-0.2,0-0.3,0.1c0,0-7.4,2.3-11.3,9.6c-0.4,0.7,0.3,1.5,1.2,1.4
	c5.3-1,7.6-1.9,10-6.4c0.2-0.3,0.3-0.7,0.4-1v8c-1.2,0.4-8.9,3.6-13.2,12.3c-0.5,0.9,0.4,2,1.4,1.8c6.3-1.3,9-2.5,11.8-8.3V264
	c-2.5,1.1-8.6,4.5-12.2,11.9c-0.5,0.9,0.4,2,1.4,1.8c5.5-1.2,8.3-2.2,10.8-6.4v11.4c-2.3,1-7.6,3.8-10.8,9.9
	c-0.4,0.8,0.3,1.7,1.2,1.5c4.8-1,7.3-1.8,9.5-5.3v11c-0.1,0-0.2,0-0.3,0.1c0,0-7.1,2.7-10.5,10.5c-0.3,0.8,0.4,1.6,1.2,1.4
	c5.1-1.3,7.4-2.4,9.4-7.2c0.1-0.2,0.1-0.3,0.2-0.5v17c-1.7,0.9-6.9,4.1-9.5,10.8c-0.3,0.8,0.5,1.6,1.3,1.3c4.3-1.3,6.5-2.4,8.2-5.6
	v12.3c-0.8,1.8-2.5,6.4-2.8,10.6c0,0.7,0.2,3.3,0.4,3.9c1.2,3.8,2.1,6.3,2.9,6.1c1.5-0.3,3.1-7.6,3.3-10.6c0.1-2.2,0-6.2-1.6-8.8
	c0.1-0.1,0.1-0.3,0.1-0.4v-15.5c0.1,0.4,0.2,0.9,0.3,1.4c1.4,5.1,3.4,6.4,8.3,8.5c0.8,0.3,1.6-0.4,1.4-1.2c-2.3-8.2-9-11.9-9-11.9
	c-0.4-0.4-0.9,0-1.1,0.9v-17.6c1.6,4.2,3.8,5.4,8.5,7.1c0.8,0.3,1.6-0.4,1.3-1.2c-2.8-8.1-9.6-11.4-9.6-11.4
	c-0.1-0.1-0.1-0.1-0.2-0.1v-11.3c1.4,3.5,3.7,4.8,8,6.8c0.8,0.4,1.8-0.3,1.5-1.2c-2.3-8.6-9.4-12.7-9.4-12.7c-0.1,0-0.1-0.1-0.2-0.1
	v-12.4c2.1,5.3,4.3,6.4,9.1,7.6c0.8,0.2,1.5-0.8,1.1-1.8c-3.2-8.1-8.7-11.3-10.2-12v-12c0.1,0.3,0.3,0.7,0.5,1
	c2.7,5.1,5.3,6.1,11.3,7.2c1,0.2,1.8-0.7,1.3-1.5C1295.4,249,1287,246.5,1287,246.5z"/>
<path class="st0" d="M824,401.5c-0.1-0.1-0.2-0.1-0.3-0.1v-7.5c2.4,4.5,4.7,5.4,10,6.4c0.9,0.2,1.6-0.6,1.2-1.4
	c-3.6-6.7-10.1-9.2-11.1-9.5v-9.8c0.1,0.1,0.1,0.3,0.2,0.4c2.6,5.4,5.1,6.5,10.8,7.7c0.9,0.2,1.7-0.8,1.3-1.6
	c-4.2-8.8-12.2-11.5-12.2-11.5l0,0v-9.1c0,0,0,0.1,0.1,0.1c2.4,4.6,4.7,5.5,10,6.5c0.9,0.2,1.6-0.7,1.2-1.4
	c-3.7-7-10.4-9.4-11.2-9.7v-10.9c2.4,5.3,4.8,6.4,10.1,7.6c0.9,0.2,1.6-0.8,1.2-1.8c-3.5-8.1-9.7-11.3-11.3-12v-14.4
	c2.4,5,4.9,6.1,10.2,7.3c0.9,0.2,1.7-0.8,1.2-1.7c-3.6-7.8-9.8-10.9-11.5-11.6v-12.1c0.2,0.5,0.4,1.1,0.6,1.7
	c2.3,5.1,4.6,6.2,9.7,7.3c0.8,0.2,1.5-0.7,1.1-1.6c-3.8-8.3-11-10.9-11-10.9c-0.2-0.1-0.4-0.1-0.5,0v-10.1c0.2,0.5,0.4,1.1,0.7,1.6
	c2.4,4.6,4.6,5.4,9.6,6.2c0.8,0.1,1.4-0.7,1-1.5c-4-7.4-11-9.4-11-9.4c-0.1-0.1-0.2-0.1-0.3,0v-9.9c0.1,0.2,0.2,0.4,0.3,0.6
	c2.7,4.8,5.2,5.7,10.8,6.5c0.9,0.1,1.6-0.8,1.2-1.6c-4.3-7.5-11.7-9.7-12.3-9.9V271c2.4,4.5,4.7,5.4,10,6.4c0.9,0.2,1.6-0.6,1.2-1.4
	c-3.6-6.7-10.1-9.2-11.1-9.5v-9.8c0.1,0.1,0.1,0.3,0.2,0.4c2.6,5.4,5.1,6.5,10.8,7.7c0.9,0.2,1.7-0.8,1.3-1.6
	c-4.2-8.8-12.2-11.5-12.2-11.5l0,0v-9.1c0,0,0,0.1,0.1,0.1c2.4,4.6,4.7,5.5,10,6.5c0.9,0.2,1.6-0.7,1.2-1.4
	c-3.7-7-10.4-9.4-11.2-9.7v-10.3c0-0.6-0.5-1.2-1.2-1.2s-1.2,0.5-1.2,1.2v11.7c-1.5,0.6-7.5,3.1-10.9,9.6c-0.4,0.7,0.3,1.6,1.2,1.4
	c5.1-1,7.5-1.9,9.8-6.1v8.5c-1.9,0.8-8.1,3.9-11.6,11.2c-0.4,0.9,0.4,1.8,1.3,1.6c5.4-1.1,7.9-2.2,10.3-6.8v8.6
	c-0.1,0-0.2,0-0.3,0.1c0,0-7.4,2.3-11.3,9.6c-0.4,0.7,0.3,1.5,1.2,1.4c5.3-1,7.6-1.9,10-6.4c0.2-0.3,0.3-0.7,0.4-1v10.4
	c-0.9,0.3-8.1,2.5-12.3,9.9c-0.5,0.8,0.3,1.7,1.2,1.6c5.6-0.8,8.1-1.7,10.8-6.5c0.1-0.2,0.2-0.4,0.3-0.6v9.9c-0.1,0-0.1,0-0.2,0.1
	c0,0-7.8,2.5-11.9,10.6c-0.4,0.8,0.3,1.7,1.2,1.5c5.6-1.1,8-2.1,10.5-7.1c0.1-0.3,0.2-0.5,0.4-0.8v9.5c-0.1-0.1-0.3,0-0.5,0.1
	c0,0-8.6,2.8-13.2,11.8c-0.5,0.9,0.4,1.9,1.4,1.7c6.2-1.3,8.9-2.3,11.7-7.9c0.3-0.5,0.5-1,0.6-1.5v12.2c-2.2,1-7.7,4.3-10.9,11.4
	c-0.4,0.9,0.3,1.9,1.2,1.7c5-1.1,7.4-2.1,9.7-6.3v11.8c-1.4,0.6-7.8,3.8-11.4,12.1c-0.4,0.9,0.3,2,1.2,1.8c5.4-1.3,7.8-2.4,10.2-7.9
	v11.7c-1.5,0.6-7.5,3.1-10.9,9.6c-0.4,0.7,0.3,1.6,1.2,1.4c5.1-1,7.5-1.9,9.8-6.1v8.6c-1.9,0.8-8.1,3.9-11.6,11.2
	c-0.4,0.9,0.4,1.8,1.3,1.6c5.4-1.1,7.9-2.2,10.3-6.8v8.6c-0.1,0-0.2,0-0.3,0.1c0,0-7.4,2.3-11.3,9.6c-0.4,0.7,0.3,1.5,1.2,1.4
	c5.3-1,7.6-1.9,10-6.4c0.2-0.3,0.3-0.7,0.4-1v7.8c-1.2,0.4-8.9,3.6-13.2,12.3c-0.5,0.9,0.4,2,1.4,1.8c6.3-1.3,9-2.5,11.8-8.3v11.3
	c-2.5,1.1-8.6,4.5-12.2,11.9c-0.5,0.9,0.4,2,1.4,1.8c5.5-1.2,8.3-2.2,10.8-6.4v11.4c-2.3,1-7.6,3.8-10.8,9.9
	c-0.4,0.8,0.3,1.7,1.2,1.5c4.8-1,7.3-1.8,9.5-5.3v11c-0.1,0-0.2,0-0.3,0.1c0,0-7.1,2.7-10.5,10.5c-0.3,0.8,0.4,1.6,1.2,1.4
	c5.1-1.3,7.4-2.4,9.4-7.2c0.1-0.2,0.1-0.3,0.2-0.5v17c-1.7,0.9-6.9,4.1-9.5,10.8c-0.3,0.8,0.5,1.6,1.3,1.3c4.3-1.3,6.5-2.4,8.2-5.6
	V495c-0.8,1.8-2.5,6.4-2.8,10.6c0,0.7,0.2,3.3,0.4,3.9c1.2,3.8,2.1,6.3,2.9,6.1c1.5-0.3,3.1-7.6,3.3-10.6c0.1-2.2,0-6.2-1.6-8.8
	c0.1-0.1,0.1-0.3,0.1-0.4v-15.5c0.1,0.4,0.2,0.9,0.3,1.4c1.4,5.1,3.4,6.4,8.3,8.5c0.8,0.3,1.6-0.4,1.4-1.2c-2.3-8.2-9-11.9-9-11.9
	c-0.4-0.4-0.9,0-1.1,0.9v-17.3c1.6,4.2,3.8,5.4,8.5,7.1c0.8,0.3,1.6-0.4,1.3-1.2c-2.8-8.1-9.6-11.4-9.6-11.4
	c-0.1-0.1-0.1-0.1-0.2-0.1v-11.3c1.4,3.5,3.7,4.8,8,6.8c0.8,0.4,1.8-0.3,1.5-1.2c-2.3-8.6-9.4-12.7-9.4-12.7c-0.1,0-0.1-0.1-0.2-0.1
	v-12.3c2.1,5.3,4.3,6.4,9.1,7.6c0.8,0.2,1.5-0.8,1.1-1.8c-3.2-8.1-8.7-11.3-10.2-12V406c0.1,0.3,0.3,0.7,0.5,1
	c2.7,5.1,5.3,6.1,11.3,7.2c1,0.2,1.8-0.7,1.3-1.5C832.4,404,824,401.5,824,401.5z"/>
<path class="st0" d="M1156.6,310.5c-0.1,0-0.1,0-0.2,0v-5.1c1.6,3.1,3.2,3.7,6.8,4.4c0.6,0.1,1.1-0.4,0.8-0.9
	c-2.4-4.6-6.9-6.3-7.6-6.5v-6.7c0,0.1,0.1,0.2,0.1,0.3c1.7,3.7,3.5,4.4,7.3,5.3c0.6,0.1,1.2-0.5,0.9-1.1c-2.9-6-8.3-7.9-8.3-7.9l0,0
	V286v0.1c1.6,3.2,3.2,3.8,6.8,4.5c0.6,0.1,1.1-0.5,0.8-1c-2.5-4.8-7.1-6.5-7.6-6.7v-7.5c1.6,3.6,3.3,4.4,6.9,5.2
	c0.6,0.1,1.1-0.6,0.8-1.2c-2.4-5.5-6.6-7.8-7.7-8.2v-9.8c1.6,3.4,3.3,4.2,7,5c0.6,0.1,1.1-0.5,0.8-1.2c-2.4-5.3-6.7-7.5-7.8-7.9
	v-8.4c0.1,0.4,0.2,0.8,0.4,1.2c1.6,3.5,3.1,4.2,6.6,5c0.6,0.1,1-0.5,0.8-1.1c-2.6-5.7-7.5-7.5-7.5-7.5c-0.1-0.1-0.2-0.1-0.3,0v-7
	c0.1,0.4,0.3,0.7,0.5,1.1c1.7,3.1,3.2,3.7,6.5,4.3c0.5,0.1,1-0.5,0.7-1c-2.7-5.1-7.5-6.5-7.5-6.5c-0.1,0-0.2,0-0.2,0v-6.9
	c0.1,0.2,0.1,0.3,0.2,0.5c1.9,3.3,3.6,3.9,7.4,4.5c0.6,0.1,1.1-0.5,0.8-1.1c-2.9-5.1-7.9-6.6-8.4-6.8v-6.5c1.6,3.1,3.2,3.7,6.8,4.4
	c0.6,0.1,1.1-0.4,0.8-0.9c-2.4-4.6-6.9-6.3-7.6-6.5v-6.7c0,0.1,0.1,0.2,0.1,0.3c1.7,3.7,3.5,4.4,7.3,5.3c0.6,0.1,1.2-0.5,0.9-1.1
	c-2.9-6-8.3-7.9-8.3-7.9l0,0v-6.3v0.1c1.6,3.2,3.2,3.8,6.8,4.5c0.6,0.1,1.1-0.5,0.8-1c-2.5-4.8-7.1-6.5-7.6-6.7v-7.2
	c0-0.4-0.4-0.8-0.8-0.8s-0.8,0.4-0.8,0.8v8c-1,0.4-5.1,2.1-7.5,6.6c-0.3,0.5,0.2,1.1,0.8,1c3.5-0.7,5.1-1.3,6.6-4.2v5.9
	c-1.3,0.6-5.5,2.7-7.9,7.7c-0.3,0.6,0.2,1.3,0.9,1.1c3.6-0.8,5.4-1.5,7-4.6v5.9c-0.1,0-0.1,0-0.2,0c0,0-5,1.5-7.7,6.6
	c-0.3,0.5,0.2,1.1,0.8,0.9c3.6-0.7,5.2-1.3,6.8-4.4c0.1-0.2,0.2-0.4,0.3-0.7v7.1c-0.6,0.2-5.5,1.7-8.4,6.8c-0.3,0.5,0.2,1.2,0.8,1.1
	c3.8-0.6,5.5-1.2,7.4-4.5c0.1-0.1,0.1-0.3,0.2-0.4v6.8h-0.1c0,0-5.3,1.7-8.1,7.2c-0.3,0.6,0.2,1.2,0.8,1c3.8-0.8,5.5-1.4,7.1-4.9
	c0.1-0.2,0.2-0.4,0.2-0.6v6.6c-0.1,0-0.2,0-0.3,0c0,0-5.9,1.9-9,8.1c-0.3,0.6,0.3,1.3,0.9,1.2c4.2-0.9,6.1-1.6,8-5.4
	c0.2-0.4,0.3-0.7,0.4-1.1v8.4c-1.5,0.7-5.2,2.9-7.4,7.8c-0.3,0.6,0.2,1.3,0.8,1.2c3.4-0.8,5.1-1.5,6.6-4.3v8.1
	c-1,0.4-5.3,2.6-7.8,8.3c-0.3,0.6,0.2,1.3,0.8,1.2c3.7-0.9,5.3-1.6,6.9-5.4v8c-1,0.4-5.1,2.1-7.5,6.6c-0.3,0.5,0.2,1.1,0.8,1
	c3.5-0.7,5.1-1.3,6.6-4.2v5.9c-1.3,0.6-5.5,2.7-7.9,7.7c-0.3,0.6,0.2,1.3,0.9,1.1c3.6-0.8,5.4-1.5,7-4.6v5.9c-0.1,0-0.1,0-0.2,0
	c0,0-5,1.5-7.7,6.6c-0.3,0.5,0.2,1.1,0.8,0.9c3.6-0.7,5.2-1.3,6.8-4.4c0.1-0.2,0.2-0.4,0.3-0.7v5.4c-0.8,0.3-6.1,2.4-9,8.4
	c-0.3,0.6,0.3,1.4,1,1.2c4.3-0.9,6.1-1.7,8.1-5.7v7.8c-1.7,0.8-5.9,3.1-8.3,8.1c-0.3,0.6,0.3,1.4,1,1.2c3.8-0.8,5.7-1.5,7.4-4.4v7.8
	c-1.6,0.7-5.2,2.6-7.3,6.8c-0.3,0.5,0.2,1.1,0.8,1c3.3-0.7,5-1.2,6.5-3.6v7.6c-0.1,0-0.1,0-0.2,0.1c0,0-4.8,1.9-7.2,7.2
	c-0.2,0.5,0.3,1.1,0.8,0.9c3.5-0.9,5-1.6,6.4-4.9c0.1-0.1,0.1-0.2,0.1-0.4v11.7c-1.2,0.6-4.7,2.8-6.5,7.4c-0.2,0.5,0.3,1.1,0.9,0.9
	c2.9-0.9,4.4-1.6,5.6-3.9v8.4c-0.5,1.2-1.7,4.4-1.9,7.2c0,0.5,0.2,2.2,0.3,2.7c0.8,2.6,1.4,4.3,1.9,4.2c1-0.2,2.1-5.2,2.2-7.3
	c0.1-1.5,0-4.3-1.1-6.1c0-0.1,0.1-0.2,0.1-0.3V364c0,0.3,0.1,0.6,0.2,1c0.9,3.5,2.3,4.4,5.7,5.8c0.5,0.2,1.1-0.2,1-0.8
	c-1.6-5.6-6.1-8.2-6.1-8.2c-0.3-0.3-0.6,0-0.7,0.7v-11.9c1.1,2.9,2.6,3.7,5.8,4.9c0.6,0.2,1.1-0.3,0.9-0.9c-1.9-5.5-6.5-7.8-6.5-7.8
	s-0.1,0-0.1-0.1v-7.8c1,2.4,2.5,3.3,5.4,4.6c0.6,0.3,1.2-0.2,1-0.8c-1.6-5.9-6.4-8.7-6.4-8.7h-0.1v-8.5c1.4,3.6,2.9,4.4,6.2,5.2
	c0.5,0.1,1-0.6,0.7-1.2c-2.1-5.5-5.9-7.8-6.9-8.3v-8.3c0.1,0.2,0.2,0.5,0.3,0.7c1.8,3.5,3.6,4.2,7.7,5c0.7,0.1,1.2-0.5,0.9-1.1
	C1162.2,312.2,1156.6,310.5,1156.6,310.5z"/>
<path class="st0" d="M1562.6,381.5c-0.1,0-0.1,0-0.2,0v-5.1c1.6,3.1,3.2,3.7,6.8,4.4c0.6,0.1,1.1-0.4,0.8-0.9
	c-2.4-4.6-6.9-6.3-7.6-6.5v-6.7c0,0.1,0.1,0.2,0.1,0.3c1.7,3.7,3.5,4.4,7.3,5.3c0.6,0.1,1.2-0.5,0.9-1.1c-2.9-6-8.3-7.9-8.3-7.9l0,0
	V357v0.1c1.6,3.2,3.2,3.8,6.8,4.5c0.6,0.1,1.1-0.5,0.8-1c-2.5-4.8-7.1-6.5-7.6-6.7v-7.5c1.6,3.6,3.3,4.4,6.9,5.2
	c0.6,0.1,1.1-0.6,0.8-1.2c-2.4-5.5-6.6-7.8-7.7-8.2v-9.8c1.6,3.4,3.3,4.2,7,5c0.6,0.1,1.1-0.5,0.8-1.2c-2.4-5.3-6.7-7.5-7.8-7.9
	v-8.4c0.1,0.4,0.2,0.8,0.4,1.2c1.6,3.5,3.1,4.2,6.6,5c0.6,0.1,1-0.5,0.8-1.1c-2.6-5.7-7.5-7.5-7.5-7.5c-0.1-0.1-0.2-0.1-0.3,0v-7
	c0.1,0.4,0.3,0.7,0.5,1.1c1.7,3.1,3.2,3.7,6.5,4.3c0.5,0.1,1-0.5,0.7-1c-2.7-5.1-7.5-6.5-7.5-6.5c-0.1,0-0.2,0-0.2,0v-6.8
	c0.1,0.2,0.1,0.3,0.2,0.5c1.9,3.3,3.6,3.9,7.4,4.5c0.6,0.1,1.1-0.5,0.8-1.1c-2.9-5.1-7.9-6.6-8.4-6.8v-6.4c1.6,3.1,3.2,3.7,6.8,4.4
	c0.6,0.1,1.1-0.4,0.8-0.9c-2.4-4.6-6.9-6.3-7.6-6.5v-6.7c0,0.1,0.1,0.2,0.1,0.3c1.7,3.7,3.5,4.4,7.3,5.3c0.6,0.1,1.2-0.5,0.9-1.1
	c-2.9-6-8.3-7.9-8.3-7.9l0,0v-6.3v0.1c1.6,3.2,3.2,3.8,6.8,4.5c0.6,0.1,1.1-0.5,0.8-1c-2.5-4.8-7.1-6.5-7.6-6.7v-7.2
	c0-0.4-0.4-0.8-0.8-0.8c-0.4,0-0.8,0.4-0.8,0.8v8c-1,0.4-5.1,2.1-7.5,6.6c-0.3,0.5,0.2,1.1,0.8,1c3.5-0.7,5.1-1.3,6.6-4.2v5.9
	c-1.3,0.6-5.5,2.7-7.9,7.7c-0.3,0.6,0.2,1.3,0.9,1.1c3.6-0.8,5.4-1.5,7-4.6v5.9c-0.1,0-0.1,0-0.2,0c0,0-5,1.5-7.7,6.6
	c-0.3,0.5,0.2,1.1,0.8,0.9c3.6-0.7,5.2-1.3,6.8-4.4c0.1-0.2,0.2-0.5,0.3-0.7v7.1c-0.6,0.2-5.5,1.7-8.4,6.8c-0.3,0.5,0.2,1.2,0.8,1.1
	c3.8-0.6,5.5-1.2,7.4-4.5c0.1-0.1,0.1-0.3,0.2-0.4v6.8h-0.1c0,0-5.3,1.7-8.1,7.2c-0.3,0.5,0.2,1.2,0.8,1c3.8-0.8,5.5-1.4,7.1-4.9
	c0.1-0.2,0.2-0.4,0.2-0.6v6.6c-0.1,0-0.2,0-0.3,0c0,0-5.9,1.9-9,8.1c-0.3,0.6,0.3,1.3,0.9,1.2c4.2-0.9,6.1-1.6,8-5.4
	c0.2-0.4,0.3-0.7,0.4-1.1v8.4c-1.5,0.7-5.2,2.9-7.4,7.8c-0.3,0.6,0.2,1.3,0.8,1.2c3.4-0.8,5.1-1.5,6.6-4.3v8.1
	c-1,0.4-5.3,2.6-7.8,8.3c-0.3,0.6,0.2,1.3,0.8,1.2c3.7-0.9,5.3-1.6,6.9-5.4v8c-1,0.4-5.1,2.1-7.5,6.6c-0.3,0.5,0.2,1.1,0.8,1
	c3.5-0.7,5.1-1.3,6.6-4.2v5.9c-1.3,0.6-5.5,2.7-7.9,7.7c-0.3,0.6,0.2,1.3,0.9,1.1c3.6-0.8,5.4-1.5,7-4.6v5.9c-0.1,0-0.1,0-0.2,0
	c0,0-5,1.5-7.7,6.6c-0.3,0.5,0.2,1.1,0.8,0.9c3.6-0.7,5.2-1.3,6.8-4.4c0.1-0.2,0.2-0.5,0.3-0.7v5.4c-0.8,0.3-6.1,2.4-9,8.4
	c-0.3,0.6,0.3,1.4,1,1.2c4.3-0.9,6.1-1.7,8.1-5.7v7.8c-1.7,0.8-5.9,3.1-8.3,8.1c-0.3,0.6,0.3,1.4,1,1.2c3.8-0.8,5.7-1.5,7.4-4.4v7.8
	c-1.6,0.7-5.2,2.6-7.3,6.8c-0.3,0.5,0.2,1.1,0.8,1c3.3-0.7,5-1.2,6.5-3.6v7.6c-0.1,0-0.1,0-0.2,0.1c0,0-4.8,1.9-7.2,7.2
	c-0.2,0.5,0.3,1.1,0.8,0.9c3.5-0.9,5-1.6,6.4-4.9c0.1-0.1,0.1-0.2,0.1-0.4v11.7c-1.2,0.6-4.7,2.8-6.5,7.4c-0.2,0.5,0.3,1.1,0.9,0.9
	c2.9-0.9,4.4-1.6,5.6-3.9v8.4c-0.5,1.2-1.7,4.4-1.9,7.2c0,0.5,0.2,2.2,0.3,2.7c0.8,2.6,1.4,4.3,1.9,4.2c1-0.2,2.1-5.2,2.2-7.3
	c0.1-1.5,0-4.3-1.1-6.1c0-0.1,0.1-0.2,0.1-0.3v-10.7c0,0.3,0.1,0.6,0.2,1c0.9,3.5,2.3,4.4,5.7,5.8c0.5,0.2,1.1-0.2,1-0.8
	c-1.6-5.6-6.1-8.2-6.1-8.2c-0.3-0.3-0.6,0-0.7,0.7v-11.9c1.1,2.9,2.6,3.7,5.8,4.9c0.6,0.2,1.1-0.3,0.9-0.9c-1.9-5.5-6.5-7.8-6.5-7.8
	s-0.1,0-0.1-0.1v-7.8c1,2.4,2.5,3.3,5.4,4.6c0.6,0.3,1.2-0.2,1-0.8c-1.6-5.9-6.4-8.7-6.4-8.7h-0.1v-8.5c1.4,3.6,2.9,4.4,6.2,5.2
	c0.5,0.1,1-0.6,0.7-1.2c-2.1-5.5-5.9-7.8-6.9-8.3v-8.3c0.1,0.2,0.2,0.5,0.3,0.7c1.8,3.5,3.6,4.2,7.7,5c0.7,0.1,1.2-0.5,0.9-1.1
	C1568.2,383.2,1562.6,381.5,1562.6,381.5z"/>
<path class="st0" d="M885.6,375.5c-0.1,0-0.1,0-0.2,0v-5.1c1.6,3.1,3.2,3.7,6.8,4.4c0.6,0.1,1.1-0.4,0.8-0.9
	c-2.4-4.6-6.9-6.3-7.6-6.5v-6.7c0,0.1,0.1,0.2,0.1,0.3c1.7,3.7,3.5,4.4,7.3,5.3c0.6,0.1,1.2-0.5,0.9-1.1c-2.9-6-8.3-7.9-8.3-7.9l0,0
	V351v0.1c1.6,3.2,3.2,3.8,6.8,4.5c0.6,0.1,1.1-0.5,0.8-1c-2.5-4.8-7.1-6.5-7.6-6.7v-7.5c1.6,3.6,3.3,4.4,6.9,5.2
	c0.6,0.1,1.1-0.6,0.8-1.2c-2.4-5.5-6.6-7.8-7.7-8.2v-9.8c1.6,3.4,3.3,4.2,7,5c0.6,0.1,1.1-0.5,0.8-1.2c-2.4-5.3-6.7-7.5-7.8-7.9
	v-8.4c0.1,0.4,0.2,0.8,0.4,1.2c1.6,3.5,3.1,4.2,6.6,5c0.6,0.1,1-0.5,0.8-1.1c-2.6-5.7-7.5-7.5-7.5-7.5c-0.1-0.1-0.2-0.1-0.3,0v-7
	c0.1,0.4,0.3,0.7,0.5,1.1c1.7,3.1,3.2,3.7,6.5,4.3c0.5,0.1,1-0.5,0.7-1c-2.7-5.1-7.5-6.5-7.5-6.5c-0.1,0-0.2,0-0.2,0v-6.8
	c0.1,0.2,0.1,0.3,0.2,0.5c1.9,3.3,3.6,3.9,7.4,4.5c0.6,0.1,1.1-0.5,0.8-1.1c-2.9-5.1-7.9-6.6-8.4-6.8v-6.4c1.6,3.1,3.2,3.7,6.8,4.4
	c0.6,0.1,1.1-0.4,0.8-0.9c-2.4-4.6-6.9-6.3-7.6-6.5v-6.7c0,0.1,0.1,0.2,0.1,0.3c1.7,3.7,3.5,4.4,7.3,5.3c0.6,0.1,1.2-0.5,0.9-1.1
	c-2.9-6-8.3-7.9-8.3-7.9l0,0v-6.3v0.1c1.6,3.2,3.2,3.8,6.8,4.5c0.6,0.1,1.1-0.5,0.8-1c-2.5-4.8-7.1-6.5-7.6-6.7v-7.2
	c0-0.4-0.4-0.8-0.8-0.8s-0.8,0.4-0.8,0.8v8c-1,0.4-5.1,2.1-7.5,6.6c-0.3,0.5,0.2,1.1,0.8,1c3.5-0.7,5.1-1.3,6.6-4.2v5.9
	c-1.3,0.6-5.5,2.7-7.9,7.7c-0.3,0.6,0.2,1.3,0.9,1.1c3.6-0.8,5.4-1.5,7-4.6v5.9c-0.1,0-0.1,0-0.2,0c0,0-5,1.5-7.7,6.6
	c-0.3,0.5,0.2,1.1,0.8,0.9c3.6-0.7,5.2-1.3,6.8-4.4c0.1-0.2,0.2-0.4,0.3-0.7v7.1c-0.6,0.2-5.5,1.7-8.4,6.8c-0.3,0.5,0.2,1.2,0.8,1.1
	c3.8-0.6,5.5-1.2,7.4-4.5c0.1-0.1,0.1-0.3,0.2-0.4v6.8h-0.1c0,0-5.3,1.7-8.1,7.2c-0.3,0.6,0.2,1.2,0.8,1c3.8-0.8,5.5-1.4,7.1-4.9
	c0.1-0.2,0.2-0.4,0.2-0.6v6.6c-0.1,0-0.2,0-0.3,0c0,0-5.9,1.9-9,8.1c-0.3,0.6,0.3,1.3,0.9,1.2c4.2-0.9,6.1-1.6,8-5.4
	c0.2-0.4,0.3-0.7,0.4-1v8.4c-1.5,0.7-5.2,2.9-7.4,7.8c-0.3,0.6,0.2,1.3,0.8,1.2c3.4-0.8,5.1-1.5,6.6-4.3v8.1c-1,0.4-5.3,2.6-7.8,8.3
	c-0.3,0.6,0.2,1.3,0.8,1.2c3.7-0.9,5.3-1.6,6.9-5.4v8c-1,0.4-5.1,2.1-7.5,6.6c-0.3,0.5,0.2,1.1,0.8,1c3.5-0.7,5.1-1.3,6.6-4.2v5.9
	c-1.3,0.6-5.5,2.7-7.9,7.7c-0.3,0.6,0.2,1.3,0.9,1.1c3.6-0.8,5.4-1.5,7-4.6v5.9c-0.1,0-0.1,0-0.2,0c0,0-5,1.5-7.7,6.6
	c-0.3,0.5,0.2,1.1,0.8,0.9c3.6-0.7,5.2-1.3,6.8-4.4c0.1-0.2,0.2-0.4,0.3-0.7v5.4c-0.8,0.3-6.1,2.4-9,8.4c-0.3,0.6,0.3,1.4,1,1.2
	c4.3-0.9,6.1-1.7,8.1-5.7v7.8c-1.7,0.8-5.9,3.1-8.3,8.1c-0.3,0.6,0.3,1.4,1,1.2c3.8-0.8,5.7-1.5,7.4-4.4v7.8
	c-1.6,0.7-5.2,2.6-7.3,6.8c-0.3,0.5,0.2,1.1,0.8,1c3.3-0.7,5-1.2,6.5-3.6v7.6c-0.1,0-0.1,0-0.2,0.1c0,0-4.8,1.9-7.2,7.2
	c-0.2,0.5,0.3,1.1,0.8,0.9c3.5-0.9,5-1.6,6.4-4.9c0.1-0.1,0.1-0.2,0.1-0.4v11.7c-1.2,0.6-4.7,2.8-6.5,7.4c-0.2,0.5,0.3,1.1,0.9,0.9
	c2.9-0.9,4.4-1.6,5.6-3.9v8.4c-0.5,1.2-1.7,4.4-1.9,7.2c0,0.5,0.2,2.2,0.3,2.7c0.8,2.6,1.4,4.3,1.9,4.2c1-0.2,2.1-5.2,2.2-7.3
	c0.1-1.5,0-4.3-1.1-6.1c0-0.1,0.1-0.2,0.1-0.3v-10.7c0,0.3,0.1,0.6,0.2,1c0.9,3.5,2.3,4.4,5.7,5.8c0.5,0.2,1.1-0.2,1-0.8
	c-1.6-5.6-6.1-8.2-6.1-8.2c-0.3-0.3-0.6,0-0.7,0.7v-11.9c1.1,2.9,2.6,3.7,5.8,4.9c0.6,0.2,1.1-0.3,0.9-0.9c-1.9-5.5-6.5-7.8-6.5-7.8
	s-0.1,0-0.1-0.1v-7.8c1,2.4,2.5,3.3,5.4,4.6c0.6,0.3,1.2-0.2,1-0.8c-1.6-5.9-6.4-8.7-6.4-8.7h-0.1v-8.5c1.4,3.6,2.9,4.4,6.2,5.2
	c0.5,0.1,1-0.6,0.7-1.2c-2.1-5.5-5.9-7.8-6.9-8.3v-8.3c0.1,0.2,0.2,0.5,0.3,0.7c1.8,3.5,3.6,4.2,7.7,5c0.7,0.1,1.2-0.5,0.9-1.1
	C891.2,377.2,885.6,375.5,885.6,375.5z"/>
<path class="st0" d="M1014,328.9c-0.1,0-0.1,0-0.2,0v-5.1c1.6,3.1,3.2,3.7,6.8,4.4c0.6,0.1,1.1-0.4,0.8-0.9
	c-2.4-4.6-6.9-6.3-7.6-6.5v-6.7c0,0.1,0.1,0.2,0.1,0.3c1.7,3.7,3.5,4.4,7.3,5.3c0.6,0.1,1.2-0.5,0.9-1.1c-2.9-6-8.3-7.9-8.3-7.9l0,0
	v-6.3v0.1c1.6,3.2,3.2,3.8,6.8,4.5c0.6,0.1,1.1-0.5,0.8-1c-2.5-4.8-7.1-6.5-7.6-6.7v-7.5c1.6,3.6,3.3,4.4,6.9,5.2
	c0.6,0.1,1.1-0.6,0.8-1.2c-2.4-5.5-6.6-7.8-7.7-8.2v-9.8c1.6,3.4,3.3,4.2,7,5c0.6,0.1,1.1-0.5,0.8-1.2c-2.4-5.3-6.7-7.5-7.8-7.9
	v-8.4c0.1,0.4,0.2,0.8,0.4,1.2c1.6,3.5,3.1,4.2,6.6,5c0.6,0.1,1-0.5,0.8-1.1c-2.6-5.7-7.5-7.5-7.5-7.5c-0.1-0.1-0.2-0.1-0.3,0v-7
	c0.1,0.4,0.3,0.7,0.5,1.1c1.7,3.1,3.2,3.7,6.5,4.3c0.5,0.1,1-0.5,0.7-1c-2.7-5.1-7.5-6.5-7.5-6.5c-0.1,0-0.2,0-0.2,0V249
	c0.1,0.2,0.1,0.3,0.2,0.5c1.9,3.3,3.6,3.9,7.4,4.5c0.6,0.1,1.1-0.5,0.8-1.1c-2.9-5.1-7.9-6.6-8.4-6.8v-6.4c1.6,3.1,3.2,3.7,6.8,4.4
	c0.6,0.1,1.1-0.4,0.8-0.9c-2.4-4.6-6.9-6.3-7.6-6.5V230c0,0.1,0.1,0.2,0.1,0.3c1.7,3.7,3.5,4.4,7.3,5.3c0.6,0.1,1.2-0.5,0.9-1.1
	c-2.9-6-8.3-7.9-8.3-7.9l0,0v-6.3v0.1c1.6,3.2,3.2,3.8,6.8,4.5c0.6,0.1,1.1-0.5,0.8-1c-2.5-4.8-7.1-6.5-7.6-6.7V210
	c0-0.4-0.4-0.8-0.8-0.8s-0.8,0.4-0.8,0.8v8c-1,0.4-5.1,2.1-7.5,6.6c-0.3,0.5,0.2,1.1,0.8,1c3.5-0.7,5.1-1.3,6.6-4.2v5.9
	c-1.3,0.6-5.5,2.7-7.9,7.7c-0.3,0.6,0.2,1.3,0.9,1.1c3.6-0.8,5.4-1.5,7-4.6v5.9c-0.1,0-0.1,0-0.2,0c0,0-5,1.5-7.7,6.6
	c-0.3,0.5,0.2,1.1,0.8,0.9c3.6-0.7,5.2-1.3,6.8-4.4c0.1-0.2,0.2-0.4,0.3-0.7v7.1c-0.6,0.2-5.5,1.7-8.4,6.8c-0.3,0.5,0.2,1.2,0.8,1.1
	c3.8-0.6,5.5-1.2,7.4-4.5c0.1-0.1,0.1-0.3,0.2-0.4v6.8h-0.1c0,0-5.3,1.7-8.1,7.2c-0.3,0.6,0.2,1.2,0.8,1c3.8-0.8,5.5-1.4,7.1-4.9
	c0.1-0.2,0.2-0.4,0.2-0.6v6.6c-0.1,0-0.2,0-0.3,0c0,0-5.9,1.9-9,8.1c-0.3,0.6,0.3,1.3,0.9,1.2c4.2-0.9,6.1-1.6,8-5.4
	c0.2-0.4,0.3-0.7,0.4-1v8.4c-1.5,0.7-5.2,2.9-7.4,7.8c-0.3,0.6,0.2,1.3,0.8,1.2c3.4-0.8,5.1-1.5,6.6-4.3v8.1c-1,0.4-5.3,2.6-7.8,8.3
	c-0.3,0.6,0.2,1.3,0.8,1.2c3.7-0.9,5.3-1.6,6.9-5.4v8c-1,0.4-5.1,2.1-7.5,6.6c-0.3,0.5,0.2,1.1,0.8,1c3.5-0.7,5.1-1.3,6.6-4.2v5.9
	c-1.3,0.6-5.5,2.7-7.9,7.7c-0.3,0.6,0.2,1.3,0.9,1.1c3.6-0.8,5.4-1.5,7-4.6v5.9c-0.1,0-0.1,0-0.2,0c0,0-5,1.5-7.7,6.6
	c-0.3,0.5,0.2,1.1,0.8,0.9c3.6-0.7,5.2-1.3,6.8-4.4c0.1-0.2,0.2-0.4,0.3-0.7v5.4c-0.8,0.3-6.1,2.4-9,8.4c-0.3,0.6,0.3,1.4,1,1.2
	c4.3-0.9,6.1-1.7,8.1-5.7v7.8c-1.7,0.8-5.9,3.1-8.3,8.1c-0.3,0.6,0.3,1.4,1,1.2c3.8-0.8,5.7-1.5,7.4-4.4v7.8
	c-1.6,0.7-5.2,2.6-7.3,6.8c-0.3,0.5,0.2,1.1,0.8,1c3.3-0.7,5-1.2,6.5-3.6v7.6c-0.1,0-0.1,0-0.2,0.1c0,0-4.8,1.9-7.2,7.2
	c-0.2,0.5,0.3,1.1,0.8,0.9c3.5-0.9,5-1.6,6.4-4.9c0.1-0.1,0.1-0.2,0.1-0.4v11.7c-1.2,0.6-4.7,2.8-6.5,7.4c-0.2,0.5,0.3,1.1,0.9,0.9
	c2.9-0.9,4.4-1.6,5.6-3.9v8.4c-0.5,1.2-1.7,4.4-1.9,7.2c0,0.5,0.2,2.2,0.3,2.7c0.8,2.6,1.4,4.3,1.9,4.2c1-0.2,2.1-5.2,2.2-7.3
	c0.1-1.5,0-4.3-1.1-6.1c0-0.1,0.1-0.2,0.1-0.3v-10.7c0,0.3,0.1,0.6,0.2,1c0.9,3.5,2.3,4.4,5.7,5.8c0.5,0.2,1.1-0.2,1-0.8
	c-1.6-5.6-6.1-8.2-6.1-8.2c-0.3-0.3-0.6,0-0.7,0.7v-11.9c1.1,2.9,2.6,3.7,5.8,4.9c0.6,0.2,1.1-0.3,0.9-0.9c-1.9-5.5-6.5-7.8-6.5-7.8
	s-0.1,0-0.1-0.1v-7.8c1,2.4,2.5,3.3,5.4,4.6c0.6,0.3,1.2-0.2,1-0.8c-1.6-5.9-6.4-8.7-6.4-8.7h-0.1v-8.5c1.4,3.6,2.9,4.4,6.2,5.2
	c0.5,0.1,1-0.6,0.7-1.2c-2.1-5.5-5.9-7.8-6.9-8.3v-8.3c0.1,0.2,0.2,0.5,0.3,0.7c1.8,3.5,3.6,4.2,7.7,5c0.7,0.1,1.2-0.5,0.9-1.1
	C1019.6,330.6,1014,328.9,1014,328.9z"/>
<path class="st0" d="M712.6,390.9c-0.1,0-0.1,0-0.2,0v-5.1c1.6,3.1,3.2,3.7,6.8,4.4c0.6,0.1,1.1-0.4,0.8-0.9
	c-2.4-4.6-6.9-6.3-7.6-6.5v-6.7c0,0.1,0.1,0.2,0.1,0.3c1.7,3.7,3.5,4.4,7.3,5.3c0.6,0.1,1.2-0.5,0.9-1.1c-2.9-6-8.3-7.9-8.3-7.9l0,0
	v-6.3v0.1c1.6,3.2,3.2,3.8,6.8,4.5c0.6,0.1,1.1-0.5,0.8-1c-2.5-4.8-7.1-6.5-7.6-6.7v-7.5c1.6,3.6,3.3,4.4,6.9,5.2
	c0.6,0.1,1.1-0.6,0.8-1.2c-2.4-5.5-6.6-7.8-7.7-8.2v-9.8c1.6,3.4,3.3,4.2,7,5c0.6,0.1,1.1-0.5,0.8-1.2c-2.4-5.3-6.7-7.5-7.8-7.9
	v-8.4c0.1,0.4,0.2,0.8,0.4,1.2c1.6,3.5,3.1,4.2,6.6,5c0.6,0.1,1-0.5,0.8-1.1c-2.6-5.7-7.5-7.5-7.5-7.5c-0.1-0.1-0.2-0.1-0.3,0v-7
	c0.1,0.4,0.3,0.7,0.5,1.1c1.7,3.1,3.2,3.7,6.5,4.3c0.5,0.1,1-0.5,0.7-1c-2.7-5.1-7.5-6.5-7.5-6.5c-0.1,0-0.2,0-0.2,0V311
	c0.1,0.2,0.1,0.3,0.2,0.5c1.9,3.3,3.6,3.9,7.4,4.5c0.6,0.1,1.1-0.5,0.8-1.1c-2.9-5.1-7.9-6.6-8.4-6.8v-6.4c1.6,3.1,3.2,3.7,6.8,4.4
	c0.6,0.1,1.1-0.4,0.8-0.9c-2.4-4.6-6.9-6.3-7.6-6.5V292c0,0.1,0.1,0.2,0.1,0.3c1.7,3.7,3.5,4.4,7.3,5.3c0.6,0.1,1.2-0.5,0.9-1.1
	c-2.9-6-8.3-7.9-8.3-7.9l0,0v-6.3v0.1c1.6,3.2,3.2,3.8,6.8,4.5c0.6,0.1,1.1-0.5,0.8-1c-2.5-4.8-7.1-6.5-7.6-6.7V272
	c0-0.4-0.4-0.8-0.8-0.8s-0.8,0.4-0.8,0.8v8c-1,0.4-5.1,2.1-7.5,6.6c-0.3,0.5,0.2,1.1,0.8,1c3.5-0.7,5.1-1.3,6.6-4.2v5.9
	c-1.3,0.6-5.5,2.7-7.9,7.7c-0.3,0.6,0.2,1.3,0.9,1.1c3.6-0.8,5.4-1.5,7-4.6v5.9c-0.1,0-0.1,0-0.2,0c0,0-5,1.5-7.7,6.6
	c-0.3,0.5,0.2,1.1,0.8,0.9c3.6-0.7,5.2-1.3,6.8-4.4c0.1-0.2,0.2-0.4,0.3-0.7v7.1c-0.6,0.2-5.5,1.7-8.4,6.8c-0.3,0.5,0.2,1.2,0.8,1.1
	c3.8-0.6,5.5-1.2,7.4-4.5c0.1-0.1,0.1-0.3,0.2-0.4v6.8h-0.1c0,0-5.3,1.7-8.1,7.2c-0.3,0.6,0.2,1.2,0.8,1c3.8-0.8,5.5-1.4,7.1-4.9
	c0.1-0.2,0.2-0.4,0.2-0.6v6.6c-0.1,0-0.2,0-0.3,0c0,0-5.9,1.9-9,8.1c-0.3,0.6,0.3,1.3,0.9,1.2c4.2-0.9,6.1-1.6,8-5.4
	c0.2-0.4,0.3-0.7,0.4-1v8.4c-1.5,0.7-5.2,2.9-7.4,7.8c-0.3,0.6,0.2,1.3,0.8,1.2c3.4-0.8,5.1-1.5,6.6-4.3v8.1c-1,0.4-5.3,2.6-7.8,8.3
	c-0.3,0.6,0.2,1.3,0.8,1.2c3.7-0.9,5.3-1.6,6.9-5.4v8c-1,0.4-5.1,2.1-7.5,6.6c-0.3,0.5,0.2,1.1,0.8,1c3.5-0.7,5.1-1.3,6.6-4.2v5.9
	c-1.3,0.6-5.5,2.7-7.9,7.7c-0.3,0.6,0.2,1.3,0.9,1.1c3.6-0.8,5.4-1.5,7-4.6v5.9c-0.1,0-0.1,0-0.2,0c0,0-5,1.5-7.7,6.6
	c-0.3,0.5,0.2,1.1,0.8,0.9c3.6-0.7,5.2-1.3,6.8-4.4c0.1-0.2,0.2-0.4,0.3-0.7v5.4c-0.8,0.3-6.1,2.4-9,8.4c-0.3,0.6,0.3,1.4,1,1.2
	c4.3-0.9,6.1-1.7,8.1-5.7v7.8c-1.7,0.8-5.9,3.1-8.3,8.1c-0.3,0.6,0.3,1.4,1,1.2c3.8-0.8,5.7-1.5,7.4-4.4v7.8
	c-1.6,0.7-5.2,2.6-7.3,6.8c-0.3,0.5,0.2,1.1,0.8,1c3.3-0.7,5-1.2,6.5-3.6v7.6c-0.1,0-0.1,0-0.2,0.1c0,0-4.8,1.9-7.2,7.2
	c-0.2,0.5,0.3,1.1,0.8,0.9c3.5-0.9,5-1.6,6.4-4.9c0.1-0.1,0.1-0.2,0.1-0.4v11.7c-1.2,0.6-4.7,2.8-6.5,7.4c-0.2,0.5,0.3,1.1,0.9,0.9
	c2.9-0.9,4.4-1.6,5.6-3.9v8.4c-0.5,1.2-1.7,4.4-1.9,7.2c0,0.5,0.2,2.2,0.3,2.7c0.8,2.6,1.4,4.3,1.9,4.2c1-0.2,2.1-5.2,2.2-7.3
	c0.1-1.5,0-4.3-1.1-6.1c0-0.1,0.1-0.2,0.1-0.3v-10.7c0,0.3,0.1,0.6,0.2,1c0.9,3.5,2.3,4.4,5.7,5.8c0.5,0.2,1.1-0.2,1-0.8
	c-1.6-5.6-6.1-8.2-6.1-8.2c-0.3-0.3-0.6,0-0.7,0.7v-11.9c1.1,2.9,2.6,3.7,5.8,4.9c0.6,0.2,1.1-0.3,0.9-0.9c-1.9-5.5-6.5-7.8-6.5-7.8
	s-0.1,0-0.1-0.1v-7.8c1,2.4,2.5,3.3,5.4,4.6c0.6,0.3,1.2-0.2,1-0.8c-1.6-5.9-6.4-8.7-6.4-8.7h-0.1v-8.5c1.4,3.6,2.9,4.4,6.2,5.2
	c0.5,0.1,1-0.6,0.7-1.2c-2.1-5.5-5.9-7.8-6.9-8.3v-8.3c0.1,0.2,0.2,0.5,0.3,0.7c1.8,3.5,3.6,4.2,7.7,5c0.7,0.1,1.2-0.5,0.9-1.1
	C718.2,392.6,712.6,390.9,712.6,390.9z"/>
<path class="st0" d="M1864.4,362c-0.1,0-0.1,0-0.2,0v-5.1c1.6,3.1,3.2,3.7,6.8,4.4c0.6,0.1,1.1-0.4,0.8-0.9
	c-2.4-4.6-6.9-6.3-7.6-6.5v-6.7c0,0.1,0.1,0.2,0.1,0.3c1.7,3.7,3.5,4.4,7.3,5.3c0.6,0.1,1.2-0.5,0.9-1.1c-2.9-6-8.3-7.9-8.3-7.9l0,0
	v-6.3v0.1c1.6,3.2,3.2,3.8,6.8,4.5c0.6,0.1,1.1-0.5,0.8-1c-2.5-4.8-7.1-6.5-7.6-6.7v-7.5c1.6,3.6,3.3,4.4,6.9,5.2
	c0.6,0.1,1.1-0.6,0.8-1.2c-2.4-5.5-6.6-7.8-7.7-8.2v-9.8c1.6,3.4,3.3,4.2,7,5c0.6,0.1,1.1-0.5,0.8-1.2c-2.4-5.3-6.7-7.5-7.8-7.9
	v-8.4c0.1,0.4,0.2,0.8,0.4,1.2c1.6,3.5,3.1,4.2,6.6,5c0.6,0.1,1-0.5,0.8-1.1c-2.6-5.7-7.5-7.5-7.5-7.5c-0.1-0.1-0.2-0.1-0.3,0v-7
	c0.1,0.4,0.3,0.7,0.5,1.1c1.7,3.1,3.2,3.7,6.5,4.3c0.5,0.1,1-0.5,0.7-1c-2.7-5.1-7.5-6.5-7.5-6.5c-0.1,0-0.2,0-0.2,0v-6.8
	c0.1,0.2,0.1,0.3,0.2,0.5c1.9,3.3,3.6,3.9,7.4,4.5c0.6,0.1,1.1-0.5,0.8-1.1c-2.9-5.1-7.9-6.7-8.4-6.8v-6.6c1.6,3.1,3.2,3.7,6.8,4.4
	c0.6,0.1,1.1-0.4,0.8-0.9c-2.4-4.6-6.9-6.3-7.6-6.5v-6.7c0,0.1,0.1,0.2,0.1,0.3c1.7,3.7,3.5,4.4,7.3,5.3c0.6,0.1,1.2-0.5,0.9-1.1
	c-2.9-6-8.3-7.9-8.3-7.9l0,0v-6.3v0.1c1.6,3.2,3.2,3.8,6.8,4.5c0.6,0.1,1.1-0.5,0.8-1c-2.5-4.8-7.1-6.5-7.6-6.7v-7.2
	c0-0.4-0.4-0.8-0.8-0.8s-0.8,0.4-0.8,0.8v8c-1,0.4-5.1,2.1-7.5,6.6c-0.3,0.5,0.2,1.1,0.8,1c3.5-0.7,5.1-1.3,6.6-4.2v5.9
	c-1.3,0.6-5.5,2.7-7.9,7.7c-0.3,0.6,0.2,1.3,0.9,1.1c3.6-0.8,5.4-1.5,7-4.6v5.9c-0.1,0-0.1,0-0.2,0c0,0-5,1.5-7.7,6.6
	c-0.3,0.5,0.2,1.1,0.8,0.9c3.6-0.7,5.2-1.3,6.8-4.4c0.1-0.2,0.2-0.4,0.3-0.7v7.1c-0.6,0.2-5.5,1.7-8.4,6.8c-0.3,0.5,0.2,1.2,0.8,1.1
	c3.8-0.6,5.5-1.2,7.4-4.5c0.1-0.1,0.1-0.3,0.2-0.4v6.8h-0.1c0,0-5.3,1.7-8.1,7.2c-0.3,0.6,0.2,1.2,0.8,1c3.8-0.8,5.5-1.4,7.1-4.9
	c0.1-0.2,0.2-0.4,0.2-0.6v6.6c-0.1,0-0.2,0-0.3,0c0,0-5.9,1.9-9,8.1c-0.3,0.6,0.3,1.3,0.9,1.2c4.2-0.9,6.1-1.6,8-5.4
	c0.2-0.4,0.3-0.7,0.4-1v8.4c-1.5,0.7-5.2,2.9-7.4,7.8c-0.3,0.6,0.2,1.3,0.8,1.2c3.4-0.8,5.1-1.5,6.6-4.3v8.1c-1,0.4-5.3,2.6-7.8,8.3
	c-0.3,0.6,0.2,1.3,0.8,1.2c3.7-0.9,5.3-1.6,6.9-5.4v8c-1,0.4-5.1,2.1-7.5,6.6c-0.3,0.5,0.2,1.1,0.8,1c3.5-0.7,5.1-1.3,6.6-4.2v5.9
	c-1.3,0.6-5.5,2.7-7.9,7.7c-0.3,0.6,0.2,1.3,0.9,1.1c3.6-0.8,5.4-1.5,7-4.6v5.8c-0.1,0-0.1,0-0.2,0c0,0-5,1.5-7.7,6.6
	c-0.3,0.5,0.2,1.1,0.8,0.9c3.6-0.7,5.2-1.3,6.8-4.4c0.1-0.2,0.2-0.4,0.3-0.7v5.4c-0.8,0.3-6.1,2.4-9,8.4c-0.3,0.6,0.3,1.4,1,1.2
	c4.3-0.9,6.1-1.7,8.1-5.7v7.8c-1.7,0.8-5.9,3.1-8.3,8.1c-0.3,0.6,0.3,1.4,1,1.2c3.8-0.8,5.7-1.5,7.4-4.4v7.8
	c-1.6,0.7-5.2,2.6-7.3,6.8c-0.3,0.5,0.2,1.1,0.8,1c3.3-0.7,5-1.2,6.5-3.6v7.6c-0.1,0-0.1,0-0.2,0.1c0,0-4.8,1.9-7.2,7.2
	c-0.2,0.5,0.3,1.1,0.8,0.9c3.5-0.9,5-1.6,6.4-4.9c0.1-0.1,0.1-0.2,0.1-0.4V413c-1.2,0.6-4.7,2.8-6.5,7.4c-0.2,0.5,0.3,1.1,0.9,0.9
	c2.9-0.9,4.4-1.6,5.6-3.9v8.4c-0.5,1.2-1.7,4.4-1.9,7.2c0,0.5,0.2,2.2,0.3,2.7c0.8,2.6,1.4,4.3,1.9,4.2c1-0.2,2.1-5.2,2.2-7.3
	c0.1-1.5,0-4.3-1.1-6.1c0-0.1,0.1-0.2,0.1-0.3v-10.7c0,0.3,0.1,0.6,0.2,1c0.9,3.5,2.3,4.4,5.7,5.8c0.5,0.2,1.1-0.2,1-0.8
	c-1.6-5.6-6.1-8.2-6.1-8.2c-0.3-0.3-0.6,0-0.7,0.7v-11.9c1.1,2.9,2.6,3.7,5.8,4.9c0.6,0.2,1.1-0.3,0.9-0.9c-1.9-5.5-6.5-7.8-6.5-7.8
	s-0.1,0-0.1-0.1v-7.8c1,2.4,2.5,3.3,5.4,4.6c0.6,0.3,1.2-0.2,1-0.8c-1.6-5.9-6.4-8.7-6.4-8.7h-0.1V377c1.4,3.6,2.9,4.4,6.2,5.2
	c0.5,0.1,1-0.6,0.7-1.2c-2.1-5.5-5.9-7.8-6.9-8.3v-8.3c0.1,0.2,0.2,0.5,0.3,0.7c1.8,3.5,3.6,4.2,7.7,5c0.7,0.1,1.2-0.5,0.9-1.1
	C1870,363.7,1864.4,362,1864.4,362z"/>
<path class="st0" d="M2224.4,353.6c-0.1,0-0.1,0-0.2,0v-5.1c1.6,3.1,3.2,3.7,6.8,4.4c0.6,0.1,1.1-0.4,0.8-0.9
	c-2.4-4.6-6.9-6.3-7.6-6.5v-6.7c0,0.1,0.1,0.2,0.1,0.3c1.7,3.7,3.5,4.4,7.3,5.3c0.6,0.1,1.2-0.5,0.9-1.1c-2.9-6-8.3-7.9-8.3-7.9l0,0
	v-6.3v0.1c1.6,3.2,3.2,3.8,6.8,4.5c0.6,0.1,1.1-0.5,0.8-1c-2.5-4.8-7.1-6.5-7.6-6.7v-7.5c1.6,3.6,3.3,4.4,6.9,5.2
	c0.6,0.1,1.1-0.6,0.8-1.2c-2.4-5.5-6.6-7.8-7.7-8.2v-9.8c1.6,3.4,3.3,4.2,7,5c0.6,0.1,1.1-0.5,0.8-1.2c-2.4-5.3-6.7-7.5-7.8-7.9V292
	c0.1,0.4,0.2,0.8,0.4,1.2c1.6,3.5,3.1,4.2,6.6,5c0.6,0.1,1-0.5,0.8-1.1c-2.6-5.7-7.5-7.5-7.5-7.5c-0.1-0.1-0.2-0.1-0.3,0v-7
	c0.1,0.4,0.3,0.7,0.5,1.1c1.7,3.1,3.2,3.7,6.5,4.3c0.5,0.1,1-0.5,0.7-1c-2.7-5.1-7.5-6.5-7.5-6.5c-0.1,0-0.2,0-0.2,0v-6.8
	c0.1,0.2,0.1,0.3,0.2,0.5c1.9,3.3,3.6,3.9,7.4,4.5c0.6,0.1,1.1-0.5,0.8-1.1c-2.9-5.1-7.9-6.7-8.4-6.8v-6.6c1.6,3.1,3.2,3.7,6.8,4.4
	c0.6,0.1,1.1-0.4,0.8-0.9c-2.4-4.6-6.9-6.3-7.6-6.5v-6.7c0,0.1,0.1,0.2,0.1,0.3c1.7,3.7,3.5,4.4,7.3,5.3c0.6,0.1,1.2-0.5,0.9-1.1
	c-2.9-6-8.3-7.9-8.3-7.9l0,0v-6.3v0.1c1.6,3.2,3.2,3.8,6.8,4.5c0.6,0.1,1.1-0.5,0.8-1c-2.5-4.8-7.1-6.5-7.6-6.7v-7.2
	c0-0.4-0.4-0.8-0.8-0.8s-0.8,0.4-0.8,0.8v8c-1,0.4-5.1,2.1-7.5,6.6c-0.3,0.5,0.2,1.1,0.8,1c3.5-0.7,5.1-1.3,6.6-4.2v5.9
	c-1.3,0.6-5.5,2.7-7.9,7.7c-0.3,0.6,0.2,1.3,0.9,1.1c3.6-0.8,5.4-1.5,7-4.6v5.9c-0.1,0-0.1,0-0.2,0c0,0-5,1.5-7.7,6.6
	c-0.3,0.5,0.2,1.1,0.8,0.9c3.6-0.7,5.2-1.3,6.8-4.4c0.1-0.2,0.2-0.4,0.3-0.7v7.1c-0.6,0.2-5.5,1.7-8.4,6.8c-0.3,0.5,0.2,1.2,0.8,1.1
	c3.8-0.6,5.5-1.2,7.4-4.5c0.1-0.1,0.1-0.3,0.2-0.4v6.8h-0.1c0,0-5.3,1.7-8.1,7.2c-0.3,0.6,0.2,1.2,0.8,1c3.8-0.8,5.5-1.4,7.1-4.9
	c0.1-0.2,0.2-0.4,0.2-0.6v6.6c-0.1,0-0.2,0-0.3,0c0,0-5.9,1.9-9,8.1c-0.3,0.6,0.3,1.3,0.9,1.2c4.2-0.9,6.1-1.6,8-5.4
	c0.2-0.4,0.3-0.7,0.4-1v8.4c-1.5,0.7-5.2,2.9-7.4,7.8c-0.3,0.6,0.2,1.3,0.8,1.2c3.4-0.8,5.1-1.5,6.6-4.3v8.1c-1,0.4-5.3,2.6-7.8,8.3
	c-0.3,0.6,0.2,1.3,0.8,1.2c3.7-0.9,5.3-1.6,6.9-5.4v8c-1,0.4-5.1,2.1-7.5,6.6c-0.3,0.5,0.2,1.1,0.8,1c3.5-0.7,5.1-1.3,6.6-4.2v5.9
	c-1.3,0.6-5.5,2.7-7.9,7.7c-0.3,0.6,0.2,1.3,0.9,1.1c3.6-0.8,5.4-1.5,7-4.6v5.8c-0.1,0-0.1,0-0.2,0c0,0-5,1.5-7.7,6.6
	c-0.3,0.5,0.2,1.1,0.8,0.9c3.6-0.7,5.2-1.3,6.8-4.4c0.1-0.2,0.2-0.4,0.3-0.7v5.4c-0.8,0.3-6.1,2.4-9,8.4c-0.3,0.6,0.3,1.4,1,1.2
	c4.3-0.9,6.1-1.7,8.1-5.7v7.8c-1.7,0.8-5.9,3.1-8.3,8.1c-0.3,0.6,0.3,1.4,1,1.2c3.8-0.8,5.7-1.5,7.4-4.4v7.8
	c-1.6,0.7-5.2,2.6-7.3,6.8c-0.3,0.5,0.2,1.1,0.8,1c3.3-0.7,5-1.2,6.5-3.6v7.6c-0.1,0-0.1,0-0.2,0.1c0,0-4.8,1.9-7.2,7.2
	c-0.2,0.5,0.3,1.1,0.8,0.9c3.5-0.9,5-1.6,6.4-4.9c0.1-0.1,0.1-0.2,0.1-0.4v11.7c-1.2,0.6-4.7,2.8-6.5,7.4c-0.2,0.5,0.3,1.1,0.9,0.9
	c2.9-0.9,4.4-1.6,5.6-3.9v8.4c-0.5,1.2-1.7,4.4-1.9,7.2c0,0.5,0.2,2.2,0.3,2.7c0.8,2.6,1.4,4.3,1.9,4.2c1-0.2,2.1-5.2,2.2-7.3
	c0.1-1.5,0-4.3-1.1-6.1c0-0.1,0.1-0.2,0.1-0.3v-10.7c0,0.3,0.1,0.6,0.2,1c0.9,3.5,2.3,4.4,5.7,5.8c0.5,0.2,1.1-0.2,1-0.8
	c-1.6-5.6-6.1-8.2-6.1-8.2c-0.3-0.3-0.6,0-0.7,0.7v-11.9c1.1,2.9,2.6,3.7,5.8,4.9c0.6,0.2,1.1-0.3,0.9-0.9c-1.9-5.5-6.5-7.8-6.5-7.8
	s-0.1,0-0.1-0.1V382c1,2.4,2.5,3.3,5.4,4.6c0.6,0.3,1.2-0.2,1-0.8c-1.6-5.9-6.4-8.7-6.4-8.7h-0.1v-8.5c1.4,3.6,2.9,4.4,6.2,5.2
	c0.5,0.1,1-0.6,0.7-1.2c-2.1-5.5-5.9-7.8-6.9-8.3V356c0.1,0.2,0.2,0.5,0.3,0.7c1.8,3.5,3.6,4.2,7.7,5c0.7,0.1,1.2-0.5,0.9-1.1
	C2230,355.3,2224.4,353.6,2224.4,353.6z"/>
</svg>
