<svg xmlns="http://www.w3.org/2000/svg" xmlns:xlink="http://www.w3.org/1999/xlink" viewBox="0 0 567.94 217.98"><defs><style>.a{font-size:353px;font-family:BlantickScript, Blantick Script;}.a,.c{fill:none;}.b{clip-path:url(#a);}.c{stroke:#efff19;stroke-miterlimit:10;stroke-width:35px;}</style><clipPath id="a" transform="translate(-215.19 -192.19)"><text class="a" transform="translate(242.63 417.58) scale(1.27 1)">hello</text></clipPath></defs><title>hello</title><g class="b"><path class="c" d="M219.63,302c28.92-7.6,54-10.39,81-36,20.44-16.63,13.9-52.42,4-54-62.94-10.11-44.13,172.23-43,161,1.78-17.59,17.34-50.94,20-56,13.27-25.26,60.37-56.52,47-24-4,9.65-29.13,91.84,1.66,99.1C342.65,395,355.48,376,365.63,361c28.73-42.55,24.45-70,43.29-75.85,12.67-3.92,29.59,3.89,34.71,15.85,6.16,14.37-5.28,33.49-18.05,39.35-5.64,2.58-12.93,9.05-26.95,6.65-40.58-6.95,13,60.1,42.47,39.26,15-10.61,31.19-43.08,33.53-54.26,16.44-78.34,29.55-103.14,51-114,11.69-5.92,25.42,15.49,18,41-7.74,26.62-26.53,50.07-57,67,0,0-1,38,28,59s49-57,49-57c4.3,0,8.71-87.84,45-113,43-29.81,37.94,76-20,97l-15,4c3.06,49.9,24.86,82,44,76,15.57-4.92,44-60.81,46-66a51.4,51.4,0,0,1,14-18c-5.15.44-32.9,70.14,9,75,49.37,5.72,63.65-115.11,3-111-40,2.7-31.67,45,1,70,18.27,13.95,39.34,15.23,55.06,6.17,20-12,19.94-41.17,19.94-41.17" transform="translate(-215.19 -192.19)"/></g></svg>