<svg xmlns="http://www.w3.org/2000/svg" xmlns:xlink="http://www.w3.org/1999/xlink" viewBox="0 0 1755.44 1782"><defs><style>.a{fill:url(#a);}.b{fill:#2d201f;}.b,.q{opacity:0.2;}.c{fill:#c90a6d;}.d{fill:url(#b);}.e{fill:url(#c);}.f{fill:url(#d);}.g{fill:url(#e);}.h{fill:url(#f);}.i{fill:url(#g);}.j{fill:url(#h);}.k{fill:url(#i);}.l{fill:url(#j);}.m,.n,.o,.p,.q,.r,.t,.u{fill:#ffdbcf;}.m{opacity:0.5;}.o{opacity:0.4;}.p{opacity:0.6;}.r{opacity:0.3;}.s{fill:url(#k);}.t{opacity:0.1;}.u{opacity:0.7;}.v{fill:#c63838;}</style><linearGradient id="a" x1="962.5" y1="771.4" x2="962.5" y2="-27" gradientUnits="userSpaceOnUse"><stop offset="0" stop-color="#ff4304"/><stop offset="1" stop-color="#c10000"/></linearGradient><linearGradient id="b" x1="962.28" y1="785.13" x2="962.28" y2="1681.22" gradientUnits="userSpaceOnUse"><stop offset="0" stop-color="#ff4304"/><stop offset="0.21" stop-color="#fd391d"/><stop offset="0.54" stop-color="#fa2a41"/><stop offset="0.82" stop-color="#f82157"/><stop offset="1" stop-color="#f71e5f"/></linearGradient><linearGradient id="c" x1="180.29" y1="1612.01" x2="180.29" y2="1436.39" gradientUnits="userSpaceOnUse"><stop offset="0" stop-color="#ff1d00" stop-opacity="0.8"/><stop offset="1" stop-color="#f60bc5" stop-opacity="0"/></linearGradient><linearGradient id="d" x1="315.37" y1="1477.52" x2="315.37" y2="1401.64" xlink:href="#c"/><linearGradient id="e" x1="596.85" y1="1748.15" x2="596.85" y2="1528.17" xlink:href="#c"/><linearGradient id="f" x1="716.23" y1="1617.93" x2="716.23" y2="1493.01" xlink:href="#c"/><linearGradient id="g" x1="871.28" y1="1566.99" x2="871.28" y2="1461.35" xlink:href="#c"/><linearGradient id="h" x1="1186.6" y1="1683.38" x2="1186.6" y2="1482.65" gradientUnits="userSpaceOnUse"><stop offset="0" stop-color="#ff8000" stop-opacity="0.8"/><stop offset="1" stop-color="#f61a0b" stop-opacity="0"/></linearGradient><linearGradient id="i" x1="1299.91" y1="1560.43" x2="1299.91" y2="1464.83" xlink:href="#c"/><linearGradient id="j" x1="1627.53" y1="1528.06" x2="1627.53" y2="1380.17" xlink:href="#c"/><linearGradient id="k" x1="1190.45" y1="1727.7" x2="1181.84" y2="1547.07" xlink:href="#c"/></defs><title>liquid-red-complete</title><path class="a" d="M1840,358.69c-17-9.73-20-44.6-21-59.29-1.63-29-2.33-58-3.5-87.19-.46-11-8.62-19.09-19.34-19.09-9.79,0-17.48,8.07-16.78,18.9,1.4,19.46,6.06,37.82,1.63,57.28-1.16,4.95-2.79,10.09-10,11.93a19.75,19.75,0,0,1-13.75-2c-8.62-5.14-11-13.4-14.21-21.11-10-23.31-30.76-42.22-43.81-64.25-7.93-13-8.63-29-10-43.32-3.73-35.61-4.43-71.78-3.73-107.57.23-10.46.23-21.11,1.63-31.76,1.4-10.28,2.56-20.74,1.16-30.84a7.15,7.15,0,0,0-1.39-2.93c-4.9-5.51-15.15-5.88-21-1.11a14.77,14.77,0,0,0-3.49,4c-2.33,4.41-.24,10.1,0,15.24,1.86,51,4,102.43,2.79,153.46-.23,14.32-3.49,29.19-13.51,40.94-10.26,11.93-28.9,20-46.61,17.07a46,46,0,0,1-34.72-27.54c-6.06-14.5-4.66-30.65-5.6-45.52-.7-11.2.7-23.68,3-34.88,2.1-10.28,1.17-22.58-16.54-22.58-12.59,0-14,7.53-13.75,15,.23,4,1.4,7.9,1.4,11.94.93,26.25,2.79,52.31,1.39,78.56-1.16,22.58-1.39,61.31-30.29,74-11,4.77-24.7,4.41-36.82,1.84-15.85-3.13-31-9.73-39.85-20.56-12.35-14.87-10-33.05-8.16-49.75,1.17-11.75,8.39-27,6.53-38.73-1.4-9-13-16.16-24.47-15.61C1394,134,1386,140.8,1389.07,150c5.6,17.8,11.19,35.79,12.82,54.15,1.87,21.84-5.59,38.92-15.38,58.56-4.66,9.18-13.28,18.72-19.81,27.17-18.17,23.86-50.8,19.64-66.41-2-13.52-18.54-18.41-40.39-24.47-61.13-1.63-5.51-3-11-4.43-16.52a243.87,243.87,0,0,1-6.06-46.63c-.46-11-.46-36.53.93-47.36,1.4-9.91,7.23-19.46,6.06-29.55-.93-8.26-15.84-24.78-27.26-14.69a12.72,12.72,0,0,0-4.43,10.1c2.8,60.76,1.86,137.49-17.71,196.78-.93,2.76-1.87,5.51-4.2,7.53-2.56,2.2-6.29,3.12-9.78,3.85-10.72,2-28.43-45.34-36.36-2-1.4,8.26-14,30.29-24.23,26.62-8.63-3.12-11.19-18.54-20.28-16-.46.18-7.45,7.71-8.39,8.26-8.85,6.79-14.91-52.87-29.13-64.06-7.69-6.06-24-7.35-30.52.55l-.24.18c-2.33,2.75-3,6.06-4,9.36-1.16,3.86-6.06,34.33-10.49,34.88-8.85,1.29-12.11-6.42-16.07-11-7.93-8.63-24-9.37-33.1-1.47l-10.72,9.36c-35.18-5.51-39.38-37.26-47.54-64.8-.69-2.2-1.16-4.41-1.86-6.61-10.49-36.71-15.38-116.56-5.59-153.64,1.86-6.8,4.43-13.77,2.56-20.56s-10.49-11.38-19.11-11.93a21.39,21.39,0,0,0-10.25,1.83c-6.29,3.49-5.83,9-5.13,14,3.73,30.47,8.39,97.66,7.69,128.32C905.06,215,893.64,259,875,299.77c-.93,2-1.86,4-3.72,5.51-2.8,2.2-7,2.93-11,3.48-9.09,1.29-18.64,2.39-27-.36-9.32-3.12-15.15-10.65-19.34-18-10.72-18.91-23.54-29.19-46.61-38.55a37.63,37.63,0,0,1-4.89-2.39,21.08,21.08,0,0,1-4.2-4.4c-16.08-21.67-23.77-47.92-17.94-72.7,1.63-7.34,4.43-12.3,3.49-19.64-.23-1.47-1.39-2.75-3.26-4a10,10,0,0,0-11.42-.18,12.41,12.41,0,0,0-4.19,4.22c-1.63,3.12-.47,7.53.93,11.2,6.29,16,3.26,32.31,3.5,48.09,0,10.83-9.79,18.91-18.88,26.44-12.58,10.28-45.44,7.52-49.64-4.78-4.19-12.48-16.08-26.06-6.52-96,.46-4,3.49-8.44,3.26-12.48-.7-5.88-4.66-11.2-13.51-11.2-9.09,0-10.26,5.51-10,11a26.87,26.87,0,0,0,1.17,8.63c15.38,50.48,8.62,114-6.29,131.62-11.19,13.21-17.48,19.64-35.66,18-19.57-2-31.92-12.12-34.25-27.72-2.1-13.95-4.2-28.09-6.53-42-1.16-6.61-9.55-11.75-17.71-11.38-9.55.55-12.82,5.14-13.28,12.3-1.4,25.88-4,52-4.2,77.83,0,15.05-13.51,23.68-30.06,25.52-12.58,1.28-24-4.59-25.63-15.05-1.17-7.9-7.69-16.53-11.65-25.52-3-7-6.06-14.13-7.93-21.11-13.28-44.61-.7-122.26-.93-147.77,0-5.14,1.86-10.83-.23-15.42-1.4-3.49-7-7.16-11.65-7.89-6.3-1.11-11.19,2.2-11,8.07,0,3.67.7,7.53.7,11.2-.23,28.27,3.73,56.54,4,84.81.24,38.73-7.45,74-19.11,111.42-1.16,3.86-2.56,8.08-6.75,10.1-3.73,2-8.86,1.47-13.29.55-23.07-5.51-22.6-25.52-40.78-33.23-21.9-9.17-25.87,30.29-36.35,36.35a19.92,19.92,0,0,1-8.62,2.39c-10.49.73-20.28-4.78-25.87-11.75-8.39-10.28-10.49-24.23-16.31-35.43-2.57-4.77-5.6-12.67-11.42-15.79-10.26-5.5-14.68,3.31-20.28,9.37a2.49,2.49,0,0,1-4,0c-33.56-23.87-35.65-68.29-25.17-100.6,2.1-6.24,0-10.46-3.49-14.13-2.33-2.57-9.32-4.23-13.29-3.49-3.72.73-8.38,5.14-8.62,8.08-.46,7.15,1.87,14.31,2.57,21.47,1.16,11.93,9.32,19.09,2.33,57.28-2.57,13.4-6.53,26.8-10.26,40-3.26,12.3-5.82,24.78-10,36.9-2.56,7.34-9.32,12.67-19.81,14.32-6.06.92-9.55,6.42-13.05,12.48-5.12,9-14.21,16.34-25.63,20.38-6.06,2-10.72,3.12-10.72,3.12V771.4H1840Z" transform="translate(-84.56 27)"/><path class="b" d="M84.56,1019.27v374.59l.82.9c7.86,8.72,15.93,15.39,41.75,15.39,1.35,0,2.76,0,4.25-.05s2.81-.11,4.31-.24l7.9-.67,1.81,5.38c9,26.64-2.78,73-10.57,103.69-5.29,20.86-9.86,38.86-9.51,50.88,1,33.91,33.37,49.35,63,49.35,31.4,0,64.47-17,66.93-49.38,1.77-23.39-6-47.2-13.58-70.22-2.25-6.85-4.36-13.28-6.2-19.64-.81-2.81-1.74-5.8-2.72-8.93-5.54-17.7-13.1-41.84-3.81-57.44,5.18-8.71,12.64-13.7,20.47-13.7,9.39,0,20.22,6.64,28.28,17.32,3.89,5.15,1.95,12.1-.3,20.14-2.6,9.33-5.55,19.9.37,30.51,7.37,13.2,24.42,21.41,44.48,21.41,23.28,0,43.8-10.66,48.78-25.35,2.18-6.46.86-13.72-.43-20.74s-2-12.43-1.12-15.55l1-3.62,5-1.1a58,58,0,0,1,12.88-1c4.7.06,10.58.14,13.5,6,3,6,2.88,15.69,2.75,25-.23,16.56-.49,35.32,16.17,47,9.19,6.45,22.08,9.72,38.32,9.72,12.66,0,27.54-1.92,45.46-5.88l2.86-.63c10.22-2.27,19.86-4.41,27.58-4.41,6.76,0,12.58,1.51,19,8.86,11.83,13.59,7.42,28.47,2.75,44.22-1.23,4.12-2.49,8.38-3.5,12.73-1.48,6.4-2.89,12.44-3.59,17.46-.6,4.22-1.84,10.37-3.28,17.48-10.95,54.23-19.82,114.33,13.75,141.18,10.93,8.73,25.84,13.35,43.12,13.35,1.27,0,2.56,0,3.87-.08,22.41-.84,40.92-7.34,53.55-18.8,23.94-21.72,27.63-60.42,10.94-115q-.87-2.88-1.88-5.78l-3-8.67-10.49-24.81c-9.36-22.11-17.61-43.6-15.73-63.43,1.05-11,12.79-22.17,23.27-22.17,3.65,0,7.58,1.38,11.68,4.11,15.63,10.41,11.91,26.42,4.44,49.64-2.59,8.08-5.27,16.43-6,24a59.49,59.49,0,0,0-.28,6l.09,18.32,11.93,12a45.35,45.35,0,0,0,4.94,4.27c9.23,6.86,21.56,10.64,34.7,10.64,14.58,0,28.35-4.64,37.78-12.73,11.28-9.69,15-23.06,10.57-37.68-1.26-4.09-3-8.86-4.91-13.9-10.34-27.79-26-69.78,12.39-79.6a30.25,30.25,0,0,1,7.39-1.06c9.89,0,18.54,7,31.1,41.9,1.93,5.35,3.74,10.4,5.72,14.68,12.2,26.53,34.36,43,57.82,43,24.19,0,41.17-15.94,47.83-44.89.31-1.35.61-2.71.9-4.05,3.06-14.06,5.27-21.62,18.51-26.19a31.47,31.47,0,0,1,10.39-1.88c9.94,0,20.64,5.61,33,12.1,12.61,6.61,26.89,14.1,44.64,17.59a97.87,97.87,0,0,0,18.7,2c37.51,0,48.17-24.52,55.95-42.43,5.42-12.47,8.69-18.07,12.09-20.66l3-2.3,9,.7,2.28,2.33c2.23,2.29,5.19,7,6.62,16.53,1.48,9.83.72,20.49.22,27.55l-.14,2c-.57,8.35-2.28,19.18-4.27,31.73-7.57,47.87-17,107.45,16.47,134.7,10.67,8.68,25.29,13.56,42.29,14.12.85,0,1.69,0,2.52,0,15.18,0,28-4.63,37.06-13.4,20.49-19.82,21.66-66.22,3.21-127.3l-5-16.57-5.62-13.86c-1.39-3.45-2.67-6.39-3.69-8.5-1.5-3.09-3.08-6.13-4.47-8.81-9-17.3-13.23-26.86-4.13-39.39,5-6.9,11.84-10.7,19.23-10.7,11.34,0,21.5,7.91,22.64,17.64.74,6.32-2.43,15.08-5.49,23.55-2.78,7.68-5.93,16.38-6.7,24.92l-1.45,16.09,10.69,10.89c10,10.16,31.06,16.72,53.7,16.72,19.79,0,36.72-5.16,46.44-14.17,23.9-22.15,6-47.38-5.81-64.06-3.89-5.5-6-8.65-6.89-10.65l-.36-1.56c-.47-9.69-.15-42.51,23.61-58.19,8.6-5.69,19.73-8.33,35-8.33,11.72,0,24.19,1.44,37.39,3,14.73,1.71,30.09,3.47,44.34,3.07,23.8-.68,43.67-7,60.75-19.27,6.51-4.69,20.86-9.76,32.67-9.76,11.33,0,13.72,5.33,14.6,11.08l0,.66v.16c-.13,3.32-2.54,10.22-7.56,23.5-11.92,31.57-28.25,74.8-2.2,98.28,7.59,6.83,22.37,15,49.76,15,3,0,6.13-.09,9.33-.28,21.7-1.28,37.69-6.81,47.52-16.45,19.81-19.44,8.75-49.17-1.95-77.93-4.38-11.78-8.52-22.9-10.08-32.21-1.36-8.1-.23-12.34.94-14.46l1.41-2.54,3.65-1a40.68,40.68,0,0,1,10.37-1,113.3,113.3,0,0,1,11.75.69,335.63,335.63,0,0,0,35.56,2.13c36.18,0,63-8.43,94.63-22,.63-.27,1.25-.57,1.88-.86v-352Z" transform="translate(-84.56 27)"/><path class="c" d="M1819.47,1364.61c-34.46,14.84-56.67,20.1-84.85,20.1a309.55,309.55,0,0,1-32.75-2c-21.53-2.3-35.45,0-43.29,7-13.26,11.9-4.64,35.06,4.48,59.58,9.64,25.88,19.6,52.65,4.77,67.19-6.62,6.49-17.72,10.1-33.94,11.06-19.9,1.15-34.41-2.14-42.83-9.71-20.47-18.46-5.48-58.15,5.47-87.15,4.92-13,8.81-23.32,8.06-28.52-2.72-19-19.51-23-33.11-23-17.55,0-36.81,7-46,13.69-13.79,9.93-29.09,14.8-48.14,15.34-12.57.35-26.06-1.22-40.53-2.9-13.37-1.55-27.19-3.16-40.46-3.16-20.34,0-35.54,3.78-47.81,11.88-29.71,19.62-30,57.58-29.35,68.75.24,4.18,4.36,10,9.12,16.71,10.42,14.69,24.68,34.8,7.61,50.61-6.18,5.73-17.69,9-31.59,9-16.67,0-32.16-4.54-38.55-11.29-10.58-11.17-5-26.48.32-41.3,3.59-9.91,7-19.28,6-27.72-1.93-16.55-20-29.5-41.14-29.5-14.76,0-27.48,6.32-35.8,17.79-13.12,18.08-5.54,32.67,3.24,49.57,1.35,2.61,2.88,5.55,4.34,8.55,6.32,13.07,17.77,44.5,23.41,77.54,4.52,26.46,6.48,61.31-9.79,77-5.8,5.61-13.83,8.28-23.62,8-11.91-.39-21.69-3.62-29-9.61-28.26-23-18.93-82-12.12-125,2-12.71,3.75-23.68,4.35-32.44l.14-2c1.17-16.54,3.92-55.28-25.91-59.76a52.85,52.85,0,0,0-7.71-.61c-22.08,0-28.81,15.48-35.92,31.86s-14.45,33.26-38.18,33.26a71.74,71.74,0,0,1-13.65-1.47c-14.4-2.83-26.65-9.25-38.5-15.47-14.43-7.56-28-14.71-44.21-14.71a56.45,56.45,0,0,0-18.64,3.23c-22.52,7.78-25.49,21.46-28.64,36-.28,1.26-.56,2.53-.85,3.8-6.8,29.6-21.4,34-29.5,34-14.87,0-30.63-13.36-40.14-34-1.79-3.89-3.53-8.72-5.39-13.88-7.85-21.81-18.6-51.68-49.1-51.68a56,56,0,0,0-13.8,1.86c-54.15,13.86-36,62.62-24,94.89,1.84,4.92,3.57,9.57,4.74,13.41,3.28,10.72.85,20.27-6.83,26.87-5.89,5-14.4,8-23.36,8a35.55,35.55,0,0,1-21.14-6.56c-6.26-4.65-13.37-13.8-11.71-30.93.64-6.64,3-14.15,5.61-22.11,6.86-21.34,14.62-45.54-9.72-61.75a43.64,43.64,0,0,0-24.53-7.71c-22.71,0-40.25,18-41.78,34.23-2.28,24,8.33,48.92,18.6,73,4.91,11.53,9.55,22.42,12.84,33.19,10.66,34.88,18,81.33-7.52,104.49-9.36,8.5-22.75,13.13-39.8,13.77-13.27.46-24-2.5-32-8.86-30.84-24.65-16.87-93.84-9.36-131,1.45-7.21,2.71-13.43,3.34-17.91s2-10.5,3.47-16.73c4.92-21.21,11.66-50.26-1.71-65.62-9-10.29-20-15.09-34.86-15.09-10.63,0-21.61,2.44-33.24,5l-2.83.62c-15.85,3.5-29.26,5.28-39.84,5.28-11.26,0-19.48-1.93-25.13-5.9-11.21-7.86-11-23.08-10.79-37.8.31-22.41.6-43.57-34.46-44.05-14.93-.21-25.16,2.05-31.36,6.93-9.17,7.24-7.16,18.22-5.22,28.84,1.13,6.14,2.19,12,.77,16.14-3,8.92-15.94,15.39-30.71,15.39-12.41,0-22.56-4.92-27.17-13.17-4-7.14-1.68-15.4.55-23.38,2.67-9.55,5.43-19.44-1.48-28.6-11.62-15.39-27.92-24.23-44.73-24.23-15.71,0-29.42,7.9-37.62,21.67-11.51,19.34-3.57,44.69,2.8,65.06,1,3.1,1.89,6,2.69,8.79,1.86,6.46,4,13,6.29,20,7.27,22.16,14.78,45.07,13.14,66.67-1.85,24.39-25.74,37.15-48.38,37.15-21.58,0-43.69-11.35-44.44-36.7-.32-10.76,4.1-28.2,9.23-48.39,11.13-43.84,25-98.4.94-125.4l-1.52-1.71-2.73.66c-5.78,1.4-13.16,3-19,3.16-20.79.47-23.69-2.67-29.66-9.29a71.91,71.91,0,0,0-7.68-7.59v11a21.87,21.87,0,0,0,9.16,7.32,62.09,62.09,0,0,0,25.86,5.36c1.73,0,21.72-3.56,20.92-4.58,20.56,26,5.1,78.19-5.57,120.2-5.19,20.44-9.67,38.08-9.33,49.34.85,28.74,28.77,52.4,53.86,52.4,26,0,53.49-25.18,55.57-52.68,1.69-22.31-6-45.68-13.39-68.31-2.22-6.79-4.33-13.21-6.17-19.59-.8-2.75-1.71-5.66-2.72-8.88-6.15-19.68-13.82-44.18-3.17-62.06,7-11.81,18.31-18.58,31-18.58,14,0,28,7.86,38.35,21.55,5.74,7.6,3.22,16.61.78,25.33s-4.92,19.18-.19,27.67c5.73,10.25,18.39,17.91,33.89,17.91,18.07,0,33.94-11.18,37.72-22.34,1.72-5.07.58-11.32-.63-17.93-1.74-9.51-3.54-19.34,3.48-24.88,4.73-3.73,13.13-5.45,25.8-5.24,27.94.39,27.68,19.15,27.41,39-.22,15.74-.45,32,12.87,41.37,7.08,5,17,7.38,30.25,7.38,11.33,0,25.47-1.86,42-5.51l2.84-.63c11.08-2.46,21.54-4.79,31-4.79,12.05,0,21.17,4,28.7,12.67,12,13.79,5.49,41.81.75,62.27-1.46,6.29-2.84,12.22-3.52,17-.61,4.36-1.87,10.59-3.33,17.81a461.49,461.49,0,0,0-9.14,85.93c-.34,23.81,2.31,57.41,43.3,64.54,28.73,5,60.18-7.47,70.45-25.79,11.7-20.89,8.81-46.72,6-68.58a210.67,210.67,0,0,0-7.76-34.93c-3.35-10.95-8-21.95-13-33.59-10.08-23.68-20.51-48.17-18.31-71.26,1.32-14,15.86-29.55,34.59-29.55a35,35,0,0,1,19.55,6.31c21.41,14.27,14.1,37,7.66,57.08-2.61,8.14-5.08,15.82-5.76,22.83-1.83,18.93,6.4,35.48,13.64,40.85,7.06,5.26,16.44,8.15,26.4,8.15,11.14,0,21.69-3.58,29-9.81,9.08-7.79,12-25,8.28-37.22-1.2-3.93-3-8.66-4.83-13.66-11.36-30.51-28.52-76.61,19.51-88.9a45.83,45.83,0,0,1,11.31-1.55c24.88,0,34.85,27.71,42.14,48,1.87,5.18,3.63,10.08,5.49,14.12,10.49,22.79,31.15,40.6,49.22,40.6,10.39,0,26.75-8,34.4-41.32.29-1.27.57-2.55.88-4,2.85-13.09,5.54-25.46,24.7-32.07a46.6,46.6,0,0,1,15.42-2.71c29.21,0,50.06,21.83,73.54,30.36,39.47,14.33,58.07-12.91,67.91-35.54,6.32-14.55,12.29-28.29,29-28.29a41.85,41.85,0,0,1,6.19.5c23.86,3.58,21.32,39.35,20.23,54.63l-.14,2c-.59,8.61-2.32,19.56-4.33,32.23-6.94,43.91-16.46,108.68,13.83,133.33,8.69,7.08,20.2,10.9,34.19,11.37,12.47.39,22.5-3,29.81-10.07,17.62-17,15.75-57.85,11.08-85.19-5.7-33.42-17.32-65.28-23.74-78.55-1.43-2.95-2.92-5.82-4.36-8.61l-.08-.15c-8.19-15.75-15.25-29.35-3.53-45.51a35.51,35.51,0,0,1,29.37-15c17.41,0,32.33,10.94,34,24.9.89,7.62-2.36,16.6-5.81,26.12-5.73,15.85-11.66,35.32.66,48.34,7.67,8.09,25.58,13.54,44.57,13.54,16.18,0,29.8-4,37.36-11,19.71-18.27,4.31-43.08-6.94-59-4.39-6.19-8.18-11.54-8.35-14.66-.6-10.63-.42-46.75,27.1-64.92,10.85-7.16,24.46-10.5,42.85-10.5,12.66,0,26.23,1.58,39.53,3.12,14.7,1.71,28.51,3.31,41.75,2.94,21-.6,37.87-6,53-16.87,8.2-5.9,25.31-12.17,40.86-12.17,10.62,0,23.75,3.22,26,18.53.61,4.29-3.13,14.21-7.88,26.77-11.32,30-26.82,75.67-4.19,96.08,10,9,26.66,13,49.13,11.64,18.48-1.09,31.3-5.39,39.21-13.15,16.77-16.44,6.38-49-3.66-76-8.67-23.29-16.86-45.3-5.76-55.25,6.06-5.45,17.9-7.1,36.5-5.12a319.58,319.58,0,0,0,33.85,2c29.69,0,52.89-5.46,88.64-20.85a115.2,115.2,0,0,0,16.73-8.93v-7A107.84,107.84,0,0,1,1819.47,1364.61Z" transform="translate(-84.56 27)"/><path class="d" d="M84.56,759.2v629c6.6,8.45,11.76,13.83,37.44,13.24,5.94-.14,13.15-1.62,20.36-3.38,34.87,38.49-11.41,138.55-10.39,173,1.59,53.19,95.07,50.33,98.91-.37,2.17-28.58-11.45-59.41-19.48-87.18-5.92-20.44-18.56-51-5.66-72.62,16.87-28.33,54.55-26.79,76.83,2.74,12.2,16.17-8.28,35.5.79,51.76,12.64,22.65,57.25,18,63.69-1,5.49-16.23-22.48-52.59,32.77-51.82,75.59,1.05-28.65,113.25,111.22,82.38,25.71-5.68,49.61-11.92,67.39,8.51,16.59,19.06.71,60.58-2.18,81-4.69,33.16-44,163.32,41.2,160.12,82-3.09,58.93-92,50.14-120.82-10.31-33.72-34.69-70.86-31.38-105.64,2-21.45,32.67-44.12,61.16-25.13,31.85,21.22,5.57,57.48,3.18,82.18-5.52,56.93,83.07,48.21,69.06,2.38-8.29-27.12-42.8-90.48,17.31-105.87,46-11.78,54,39.78,64.34,62.36,18.88,41.05,63.21,53.37,75.55-.29,3.53-15.37,4.75-30.23,27.84-38.2,37.4-12.91,60.33,19.46,99.16,27.09,70.9,13.93,40.92-68.74,95.65-60.52,28.44,4.27,24.41,41.7,23.36,57.07-3.17,46.66-40.59,166.62,39.73,169.28,69.82,2.31,30-130.33,13-165.37-9.92-20.5-22.42-36.28-7.75-56.49,21.45-29.56,68.06-15.83,71.19,10.92,2.45,21-24.24,50.56-5.82,70,13,13.75,58.54,17.75,75.13,2.38,26.05-24.14-15.42-56.31-16.12-68.68-1.22-21.71,4.53-51.37,28.4-67.13,34.23-22.6,86.6-4.11,126.82-5.24,20.53-.58,36.31-6,50.21-16,17.48-12.59,69.2-24.82,73.92,8.07,2.87,20-72.77,133.5,32.58,127.28,120.37-7.09-57-158.09,67.27-144.84,48.8,5.2,75.37.65,119.67-18.43A110.47,110.47,0,0,0,1840,1354.6V759.2Z" transform="translate(-84.56 27)"/><path class="e" d="M178.52,1457.46s-66.54,142.73,3.33,140.22C251.31,1595.18,172.63,1445.85,178.52,1457.46Z" transform="translate(-84.56 27)"/><path class="f" d="M313.73,1410.47s-47.65,61.63,2.22,60.86S313.73,1410.47,313.73,1410.47Z" transform="translate(-84.56 27)"/><path class="g" d="M591.91,1553.76s-89.7,179.89,10,176.43C690.55,1727.11,591.91,1553.76,591.91,1553.76Z" transform="translate(-84.56 27)"/><path class="h" d="M710.5,1507.54s-51,103.23,7.76,100.15S710.5,1507.54,710.5,1507.54Z" transform="translate(-84.56 27)"/><path class="i" d="M866.77,1473.64s-48.77,84,7.76,84.75C925.51,1559.08,866.77,1473.64,866.77,1473.64Z" transform="translate(-84.56 27)"/><path class="j" d="M1176,1506s-56.52,163.33,14.41,161S1176,1506,1176,1506Z" transform="translate(-84.56 27)"/><path class="k" d="M1295.67,1476s-74.76,83.32,8.87,76.27C1377.69,1546.06,1295.67,1476,1295.67,1476Z" transform="translate(-84.56 27)"/><path class="l" d="M1627.05,1397.37s-84.29,117.89,0,118.64C1713.5,1516.78,1627.05,1397.37,1627.05,1397.37Z" transform="translate(-84.56 27)"/><path class="m" d="M194,1594.6c-40.24,5.7,13.3-30.82,15.27-46.88,15.13,11.45,13.2,32.92-8.62,45.34" transform="translate(-84.56 27)"/><path class="n" d="M207.34,1508.31s-70.93-118.64,44.33-132.51C251.67,1375.8,125.32,1372.72,207.34,1508.31Z" transform="translate(-84.56 27)"/><path class="n" d="M378,1405.07s-55.41-9.24-42.11,44.69c0,0,13.3,17-19.95,21.57,0,0,13.3-6.16,11.08-18.49S313.73,1389.67,378,1405.07Z" transform="translate(-84.56 27)"/><path class="n" d="M154.14,1405.07s-2.22-20-33.25-9.24C120.89,1395.83,154.14,1371.18,154.14,1405.07Z" transform="translate(-84.56 27)"/><path class="o" d="M420.16,1433c-3,14.18-9.8,61.13,26.57,58.32,39.89-3.08,110.82-23.11,124.12,15.4-3.65-10.55-5.29-18.62-19.81-25.4-35.6-16.62-91.78,12-117.54-6.22C420.7,1466.07,421.09,1444.88,420.16,1433Z" transform="translate(-84.56 27)"/><path class="n" d="M417.91,1468.25s6.65,27.73,55.42,20C473.33,1488.28,417.91,1509.85,417.91,1468.25Z" transform="translate(-84.56 27)"/><path class="p" d="M628.49,1485.2s-39.9,7.7-4.44,123.26c40.94,133.4-24.38,121.73-24.38,121.73s55.41,1.54,15.52-120.19S628.49,1485.2,628.49,1485.2Z" transform="translate(-84.56 27)"/><path class="q" d="M597.65,1714.92c25.72-1.31,10.39-50.79,3.7-67.09C584.39,1606.51,539.82,1717.86,597.65,1714.92Z" transform="translate(-84.56 27)"/><path class="o" d="M606.32,1482.12s51-26.2,79.8,1.54C686.12,1483.66,650.65,1437.43,606.32,1482.12Z" transform="translate(-84.56 27)"/><path class="n" d="M763.7,1463.63S714.93,1481.09,726,1536c13.72,68,20,67.8-15.51,70.88,0,0,24.47,9.12,6.65-69.33C703.85,1479,763.7,1463.63,763.7,1463.63Z" transform="translate(-84.56 27)"/><path class="o" d="M874.53,1564.55s14.31-5,31-53.16c15.51-44.68,62.06-27.73,97.53-7.7,39.6,22.37,62.06,27.73,77.58-12.33,0,0-17.73,44.68-70.93,6.16s-99.75-40.06-115.27,10.79C894.47,1508.31,892.26,1551.45,874.53,1564.55Z" transform="translate(-84.56 27)"/><path class="n" d="M910,1499.06s20-29.27,77.58-6.16C987.57,1492.9,923.29,1446.68,910,1499.06Z" transform="translate(-84.56 27)"/><path class="n" d="M1094,1471.33s17.73-27.73,59.84-6.16C1153.81,1465.17,1111.7,1423.56,1094,1471.33Z" transform="translate(-84.56 27)"/><path class="r" d="M1060.2,1470.91c-29.34-6.69-54.53,32.74-8.35,31.24l8.87-4.63C1077.49,1492.69,1078.46,1475.07,1060.2,1470.91Z" transform="translate(-84.56 27)"/><path class="s" d="M1156.4,1628c-2.59,32.88,36,58.28,56.45,24.11,10.05-16.77-9.7-125.46-36.87-123.74C1159.73,1529.37,1156.62,1625.22,1156.4,1628Z" transform="translate(-84.56 27)"/><path class="p" d="M1397.64,1394.29s-70.93,4.62-82,55.47c0,0,0,33.9,15.52,58.55,0,0,28.82,43.14-17.73,43.91,0,0,28.81-6.93,8.86-40.83C1302.44,1477.69,1263.79,1398.72,1397.64,1394.29Z" transform="translate(-84.56 27)"/><path class="n" d="M1189.28,1505.23s66.5,161.78,15.52,177.19C1204.8,1682.42,1233.61,1653.15,1189.28,1505.23Z" transform="translate(-84.56 27)"/><path class="q" d="M1305.31,1522.15c-37-8.35-49.27,27.74-14.33,29.88C1315.89,1553.56,1333.7,1528.57,1305.31,1522.15Z" transform="translate(-84.56 27)"/><path class="t" d="M1515.37,1338.9c-14,9.48-22.32,24.1-37.59,32.48-12.18,6.67-42.72,5.23-42.65,23.82.06,14.67,17.36,14.4,30.53,13,25.68-2.82,65.72-15.71,80.93-34.26C1563.45,1353.33,1547.63,1317,1515.37,1338.9Z" transform="translate(-84.56 27)"/><path class="n" d="M1314.89,1462.6s-1.49-60.61,81.27-67.8C1396.16,1394.8,1295.68,1390.69,1314.89,1462.6Z" transform="translate(-84.56 27)"/><path class="u" d="M1477.43,1404.05s37.45-8.53,61.33-26.2c22.9-16.95,57.17-7.31,70.93,11.82,0,0-24.38-53.42-81.27-18.49C1528.42,1371.18,1507,1394.8,1477.43,1404.05Z" transform="translate(-84.56 27)"/><path class="n" d="M1645.89,1414.32s54.68,90.91-1.47,100.15C1644.42,1514.47,1679.88,1501.63,1645.89,1414.32Z" transform="translate(-84.56 27)"/><path class="t" d="M1623.8,1474.93c-32.83-2.52-39.61,33.39-6.2,34.93C1662.15,1511.91,1659.77,1477.69,1623.8,1474.93Z" transform="translate(-84.56 27)"/><path class="q" d="M1835.61,1322.16a2.2,2.2,0,0,0-.24-.28c-4.85-4.53-18.25-3.74-30.26-2.07-28.79,4-61.14-2.57-88.65,5.62-18.77,5.6-29,23.24-15.87,35.64,26.26,24.81,119.14-4.34,133.25-26a27.86,27.86,0,0,0,1.77-3.11Z" transform="translate(-84.56 27)"/><path class="r" d="M1840,1340c-13.72,8.92-62.86,36.48-135,28,0,0-45.67-9.06-53.14,20.6.47-1.55,7.8-22.23,57.6-15.31,48.94,6.81,105.81-3.88,130.56-31.17Z" transform="translate(-84.56 27)"/><path class="n" d="M206.6,1518.07s34,71.9-29.56,77C177,1595.11,259.8,1609.49,206.6,1518.07Z" transform="translate(-84.56 27)"/><path class="t" d="M477,1428.68c-21.74-3-39.18,6.34-41.36,21.33-2.9,19.92,27.6,28.14,51.33,23.1C523.89,1465.27,511.41,1433.41,477,1428.68Z" transform="translate(-84.56 27)"/><path class="q" d="M389.94,865.87l.21.09c4,1.3,11.78-2.68,18.51-6.78,16.14-9.83,37-14.61,51.33-26.5,9.79-8.11,11.51-20.8.64-24.38-21.75-7.17-69.78,33.78-72.84,49.76a20.55,20.55,0,0,0-.28,2.23Z" transform="translate(-84.56 27)"/><path class="q" d="M200.74,1085.41l.24.13c4.44,1.7,12.92-2.57,20.25-7,17.56-10.7,40.44-15.29,56-28.48,10.61-9,12.22-23.73.17-28.44-24.11-9.41-76.15,36.11-79.17,54.61a24.12,24.12,0,0,0-.26,2.59Z" transform="translate(-84.56 27)"/><path class="v" d="M201.26,1171.92c3.23,4.21,37.53,47.15,99,48.23,46,.82,89.26-22.17,111.36-59.12-5.36,5.76-44.31,46.17-109.59,46.68C245.29,1208.15,208.58,1178.16,201.26,1171.92Z" transform="translate(-84.56 27)"/><path class="n" d="M300.46,1192.09a1.5,1.5,0,0,0,0-3,1.5,1.5,0,0,0,0,3Z" transform="translate(-84.56 27)"/><path class="v" d="M523.68,1304.18c17.17,42.19,59.92,67.09,102,61,35.15-5.08,64.87-31.09,76.24-66.52-3.21,5.48-26.92,44.46-74.4,51.84C588,1356.64,547.62,1338.55,523.68,1304.18Z" transform="translate(-84.56 27)"/><path class="n" d="M1233.74,1057.57" transform="translate(-84.56 27)"/><path class="v" d="M1479,1220.59c3,5,34.74,56,91.64,57.27,42.63,1,82.63-26.33,103.1-70.2-5,6.84-41,54.82-101.46,55.42C1519.76,1263.61,1485.77,1228,1479,1220.59Z" transform="translate(-84.56 27)"/><path class="q" d="M1415.54,990.48c0,.06,0,.13,0,.19.82,3.43,7,8,12.89,11.66,14,8.88,26.52,23,41.23,29.81,10,4.67,19.83,1.77,17.66-7.57-4.34-18.69-54.45-41.25-67.17-38.28a13,13,0,0,0-1.71.52Z" transform="translate(-84.56 27)"/><path class="v" d="M1333,1102c15.4,28.73,53.74,45.68,91.45,41.54,31.52-3.46,58.17-21.17,68.38-45.29-2.88,3.73-24.15,30.27-66.74,35.29C1390.66,1137.68,1354.42,1125.37,1333,1102Z" transform="translate(-84.56 27)"/><path class="v" d="M376.71,925.92c17.17,40.94,59.92,65.1,102,59.2,35.14-4.93,64.86-30.16,76.24-64.54-3.21,5.32-26.93,43.14-74.4,50.29C441.06,976.82,400.65,959.27,376.71,925.92Z" transform="translate(-84.56 27)"/><path class="v" d="M1476.24,855.21c12.75,20.78,44.48,33,75.69,30,26.08-2.51,48.14-15.31,56.59-32.76-2.39,2.7-20,21.89-55.23,25.52C1524,881,1494,872.13,1476.24,855.21Z" transform="translate(-84.56 27)"/><path class="q" d="M1576.68,1108.39c0,.09,0,.17,0,.26.66,4.61,8.3,10.06,15.56,14.42,17.41,10.45,32.15,28.24,50.7,35.82,12.67,5.17,25.94,0,24.22-12.58-3.44-25.13-66.73-49.9-83.86-44.24a20.17,20.17,0,0,0-2.33.93Z" transform="translate(-84.56 27)"/><path class="q" d="M552.77,1276.08c.07,0,.14.05.22.06,4,.76,10.27-4.15,15.56-9.06,12.67-11.76,30.85-19.15,41.39-32.71,7.19-9.25,5.89-22-5-24.14-21.73-4.29-56.78,42.26-56,58.41a17.59,17.59,0,0,0,.25,2.24Z" transform="translate(-84.56 27)"/><path class="q" d="M1554,776.23s0,.09,0,.14c.07,2.49,3.74,5,7.28,7,8.47,4.69,15.11,13.57,24.35,16.61,6.31,2.08,13.55-1.56,13.4-8.36-.3-13.58-31.89-23.38-41.18-19.24a12.44,12.44,0,0,0-1.27.65Z" transform="translate(-84.56 27)"/><path class="v" d="M211.27,656.44c17.18,40.94,59.92,65.09,102,59.19,35.14-4.92,64.86-30.16,76.24-64.53-3.22,5.32-26.93,43.13-74.41,50.29C275.62,707.33,235.22,689.78,211.27,656.44Z" transform="translate(-84.56 27)"/><path class="v" d="M379.27,491.8c10.87,29.11,37.91,46.28,64.5,42.09C466,530.38,484.8,512.44,492,488c-2,3.78-17,30.67-47.07,35.76C420,528,394.42,515.51,379.27,491.8Z" transform="translate(-84.56 27)"/><path class="v" d="M581.27,566.66c11.64,20.34,40.6,32.35,69.08,29.42,23.81-2.45,43.94-15,51.65-32.08-2.18,2.64-18.24,21.44-50.41,25C624.87,592,597.49,583.23,581.27,566.66Z" transform="translate(-84.56 27)"/><path class="q" d="M596.15,531.06l.15.07c2.81.85,8.41-1.91,13.27-4.74,11.65-6.8,26.53-10.19,37-18.37,7.11-5.59,8.61-14.24,1-16.61-15.24-4.75-50.2,23.45-52.72,34.35a12.28,12.28,0,0,0-.25,1.52Z" transform="translate(-84.56 27)"/><path class="q" d="M398.36,468.56h.1c1.77.07,4.63-2.39,7.06-4.78,5.81-5.73,14-10,18.89-16.31,3.33-4.34,2.94-9.6-1.87-9.83-9.61-.44-25.88,21.29-25.75,28a8.08,8.08,0,0,0,.08.93Z" transform="translate(-84.56 27)"/><path class="q" d="M228.53,610.55l.21.08c4,1.15,11.68-3.09,18.27-7.42,15.78-10.39,36.46-15.89,50.37-28.27,9.5-8.44,10.78-21.18-.21-24.39-22-6.41-68.57,36.19-71.06,52.26a19.68,19.68,0,0,0-.21,2.24Z" transform="translate(-84.56 27)"/><path class="v" d="M1225.22,757.23c12.75,20.78,44.48,33,75.68,30,26.09-2.51,48.15-15.31,56.59-32.76-2.38,2.7-20,21.89-55.22,25.52C1273,783.06,1243,774.15,1225.22,757.23Z" transform="translate(-84.56 27)"/><path class="v" d="M1590,644.54c14.41,27.09,50.27,43.07,85.54,39.17,29.48-3.26,54.41-20,64-42.71-2.69,3.52-22.58,28.55-62.41,33.28C1644,678.22,1610.09,666.6,1590,644.54Z" transform="translate(-84.56 27)"/><path class="v" d="M1387.22,480.72c10.29,20.83,35.9,33.13,61.1,30.13,21-2.51,38.86-15.35,45.68-32.85-1.93,2.71-16.13,21.95-44.58,25.59C1425.78,506.62,1401.57,497.69,1387.22,480.72Z" transform="translate(-84.56 27)"/><path class="q" d="M1440.78,413.06c0,.05,0,.1,0,.14.07,2.5,3.74,5,7.27,7,8.48,4.69,15.12,13.57,24.36,16.62,6.31,2.08,13.55-1.57,13.4-8.36-.31-13.59-31.9-23.39-41.18-19.25a12.44,12.44,0,0,0-1.27.65Z" transform="translate(-84.56 27)"/><path class="q" d="M1666.1,562.61a1.21,1.21,0,0,0,0,.19c.65,3.4,6.54,7.65,12.12,11.09,13.37,8.24,25,21.77,39.11,27.94,9.64,4.21,19.39.85,17.69-8.41-3.41-18.53-51.56-38.8-64.19-35.23a14.57,14.57,0,0,0-1.71.61Z" transform="translate(-84.56 27)"/><path class="q" d="M1291.23,664.54c0,.06,0,.11,0,.16.49,2.84,5.32,6.3,9.89,9.1,11,6.7,20.4,17.85,32,22.81,7.94,3.39,16.08.44,14.8-7.27-2.56-15.44-42.19-31.72-52.72-28.55a10.91,10.91,0,0,0-1.42.53Z" transform="translate(-84.56 27)"/></svg>