<svg xmlns="http://www.w3.org/2000/svg" xmlns:xlink="http://www.w3.org/1999/xlink" viewBox="0,0,256,256" width="500px" height="500px" fill-rule="nonzero">

<path fill="#000B38" d="M33,29c-1.79687,0 -3,1.51563 -3,4c0,2.48438 0.89063,5.04688 3,5c2.21875,-0.05078 3.01953,-2.22266 3,-5c-0.01562,-2.48437 -1.20703,-4 -3,-4zM44.26172,17.06641c0.27344,-1.34375 0.39063,-6.10156 -1.58203,-11.06641c0,0 -4.53125,0.49609 -11.38281,5.19922c-1.43359,-0.39844 -3.86719,-0.59766 -6.29687,-0.59766c-2.42969,0 -4.85937,0.19922 -6.30078,0.59375c-6.84766,-4.69922 -11.375,-5.19531 -11.375,-5.19531c-1.97656,4.96484 -1.87891,9.60938 -1.58594,11.06641c-2.32031,2.51953 -3.73828,5.54297 -3.73828,9.67578c0,17.96484 14.90625,18.25391 18.66797,18.25391c0.85156,0 2.54297,0 4.33203,0.00391c1.78906,-0.00391 3.48438,-0.00391 4.33203,-0.00391c3.76172,0 18.66797,-0.28906 18.66797,-18.25391c0,-4.13281 -1.41797,-7.15625 -3.73828,-9.67578zM25.14063,43h-0.14062c-9.42969,0 -16.84375,-1.33984 -16.84375,-10.50391c0,-2.19531 0.77734,-4.23047 2.61719,-5.92187c3.07031,-2.82031 8.26172,-1.32812 14.15625,-1.32812c0.02344,0 0.12109,0 0.14063,0c5.89453,0 11.08984,-1.48828 14.16016,1.32813c1.83984,1.69141 2.61328,3.72656 2.61328,5.92188c0,9.16406 -7.27344,10.50391 -16.70312,10.50391zM17,29c-1.79297,0 -3,2.01563 -3,4.5c0,2.48438 1.20703,4.5 3,4.5c1.79688,0 3,-2.01562 3,-4.5c0,-2.48437 -1.20312,-4.5 -3,-4.5z">
</path>

</svg>