<?xml version="1.0" encoding="utf-8"?>
<!-- Generator: Adobe Illustrator 19.1.0, SVG Export Plug-In . SVG Version: 6.00 Build 0)  -->
<svg version="1.1" id="Layer_6" xmlns="http://www.w3.org/2000/svg" xmlns:xlink="http://www.w3.org/1999/xlink" x="0px" y="0px"
	 viewBox="934 -162 2828 884" style="enable-background:new 934 -162 2828 884;" xml:space="preserve">
<style type="text/css">
	.st0{fill:#152569;}
</style>
<path class="st0" d="M1690.2,179.1c0,0-8.7,2.9-13.4,12.4c-0.5,0.9,0.4,2,1.4,1.8c6.3-1.3,9-2.5,11.8-8.3
	C1691.8,181.2,1691.3,178.4,1690.2,179.1z"/>
<path class="st0" d="M1690.1,197.8c0,0-7.8,2.4-11.9,10.3c-0.4,0.8,0.3,1.7,1.2,1.5c5.5-1.1,8-2.1,10.5-6.9
	C1691.6,199.5,1691.2,197.2,1690.1,197.8z"/>
<path class="st0" d="M1688.7,215.5c0,0-7.1,2.7-10.5,10.5c-0.3,0.8,0.4,1.6,1.2,1.4c5.1-1.3,7.4-2.4,9.4-7.2
	C1690.2,217.1,1689.6,214.9,1688.7,215.5z"/>
<path class="st0" d="M1689.6,236.4c0,0-7,3.1-10,11c-0.3,0.8,0.5,1.6,1.3,1.3c5.1-1.6,7.2-2.7,9.1-7.7
	C1691.1,237.9,1690.5,235.8,1689.6,236.4z"/>
<path class="st0" d="M1689.2,162.4c0,0-8.7,2.9-13.4,12.4c-0.5,0.9,0.4,2,1.4,1.8c6.3-1.3,9-2.5,11.8-8.3
	C1690.8,164.5,1690.3,161.8,1689.2,162.4z"/>
<path class="st0" d="M1688.7,151.1c0,0-7.4,2.3-11.3,9.6c-0.4,0.7,0.3,1.5,1.2,1.4c5.3-1,7.6-1.9,10-6.4
	C1690.1,152.7,1689.7,150.6,1688.7,151.1z"/>
<path class="st0" d="M1689.6,136.1c0,0-8,2.7-12.2,11.5c-0.4,0.9,0.4,1.8,1.3,1.6c5.7-1.2,8.2-2.3,10.8-7.7
	C1691.1,138,1690.7,135.5,1689.6,136.1z"/>
<path class="st0" d="M1689.4,122.8c0,0-7.4,2.3-11.3,9.7c-0.4,0.7,0.3,1.6,1.2,1.4c5.3-1,7.6-1.9,10-6.5
	C1690.8,124.4,1690.3,122.2,1689.4,122.8z"/>
<path class="st0" d="M1689.3,105.1c0,0-7.7,2.9-11.7,12.2c-0.4,0.9,0.3,2,1.2,1.8c5.5-1.3,7.9-2.4,10.4-8.2
	C1690.8,107.1,1690.3,104.4,1689.3,105.1z"/>
<path class="st0" d="M1690,86.3c0,0-7.8,2.8-11.9,11.8c-0.4,0.9,0.3,1.9,1.2,1.7c5.6-1.3,8-2.3,10.5-7.9
	C1691.4,88.2,1691,85.6,1690,86.3z"/>
<path class="st0" d="M1688.5,70.4c0,0-8.6,2.8-13.2,11.8c-0.5,0.9,0.4,1.9,1.4,1.7c6.2-1.3,8.9-2.3,11.7-7.9
	C1690.2,72.4,1689.7,69.8,1688.5,70.4z"/>
<path class="st0" d="M1688.8,56.6c0,0-7.8,2.5-11.9,10.6c-0.4,0.8,0.3,1.7,1.2,1.5c5.6-1.1,8-2.1,10.5-7.1
	C1690.3,58.4,1689.8,56.1,1688.8,56.6z"/>
<path class="st0" d="M1689.1,42.3c0,0-7.9,2.1-12.4,9.9c-0.5,0.8,0.3,1.7,1.2,1.6c5.6-0.8,8.1-1.7,10.8-6.5
	C1690.5,44.1,1690.2,41.7,1689.1,42.3z"/>
<path class="st0" d="M1691,178.1c0,0,6.9,2.9,10.5,12.2c0.4,0.9-0.3,2-1.1,1.8c-4.9-1.3-7.1-2.4-9.3-8.2
	C1689.7,180.2,1690.1,177.5,1691,178.1z"/>
<path class="st0" d="M1691.5,196.9c0,0,7,4.1,9.4,12.7c0.2,0.9-0.7,1.5-1.5,1.2c-5.2-2.3-7.4-3.8-8.7-9.1
	C1689.7,198.2,1690.6,196.1,1691.5,196.9z"/>
<path class="st0" d="M1691.5,215.4c0,0,6.8,3.3,9.6,11.4c0.3,0.8-0.5,1.5-1.3,1.2c-5-1.8-7.1-3-8.8-8
	C1690,216.9,1690.7,214.7,1691.5,215.4z"/>
<path class="st0" d="M1692.4,237.3c0,0,6.7,3.7,9,11.9c0.2,0.8-0.6,1.5-1.4,1.2c-4.9-2.1-7-3.4-8.3-8.5
	C1690.7,238.7,1691.5,236.6,1692.4,237.3z"/>
<path class="st0" d="M1691.6,162.1c0,0,8.3,2.5,12.8,10.8c0.4,0.8-0.4,1.7-1.3,1.5c-6-1.1-8.6-2.1-11.3-7.2
	C1690.1,163.9,1690.5,161.5,1691.6,162.1z"/>
<path class="st0" d="M1691.2,149.9c0,0,7.4,2.3,11.3,9.6c0.4,0.7-0.3,1.5-1.2,1.4c-5.3-1-7.6-1.9-10-6.4
	C1689.8,151.5,1690.2,149.4,1691.2,149.9z"/>
<path class="st0" d="M1691.4,135.2c0,0,8,2.7,12.2,11.5c0.4,0.9-0.4,1.8-1.3,1.6c-5.7-1.2-8.2-2.3-10.8-7.7
	C1689.9,137.1,1690.3,134.6,1691.4,135.2z"/>
<path class="st0" d="M1691.2,121.6c0,0,7.4,2.3,11.3,9.7c0.4,0.7-0.3,1.6-1.2,1.4c-5.3-1-7.6-1.9-10-6.5
	C1689.9,123.2,1690.3,121.1,1691.2,121.6z"/>
<path class="st0" d="M1688.7,28.3c0,0-7.4,2.3-11.3,9.6c-0.4,0.7,0.3,1.5,1.2,1.4c5.3-1,7.6-1.9,10-6.4
	C1690.1,29.9,1689.7,27.8,1688.7,28.3z"/>
<path class="st0" d="M1689.6,13.3c0,0-8,2.7-12.2,11.5c-0.4,0.9,0.4,1.8,1.3,1.6c5.7-1.2,8.2-2.3,10.8-7.7
	C1691.1,15.2,1690.7,12.7,1689.6,13.3z"/>
<path class="st0" d="M1689.4,0c0,0-7.4,2.3-11.3,9.7c-0.4,0.7,0.3,1.6,1.2,1.4c5.3-1,7.6-1.9,10-6.5C1690.8,1.6,1690.3-0.6,1689.4,0
	z"/>
<path class="st0" d="M1691.2,27.1c0,0,7.4,2.3,11.3,9.6c0.4,0.7-0.3,1.5-1.2,1.4c-5.3-1-7.6-1.9-10-6.4
	C1689.8,28.7,1690.2,26.6,1691.2,27.1z"/>
<path class="st0" d="M1691.4,12.4c0,0,8,2.7,12.2,11.5c0.4,0.9-0.4,1.8-1.3,1.6c-5.7-1.2-8.2-2.3-10.8-7.7
	C1689.9,14.3,1690.3,11.8,1691.4,12.4z"/>
<path class="st0" d="M1691.2-1.2c0,0,7.4,2.3,11.3,9.7c0.4,0.7-0.3,1.6-1.2,1.4c-5.3-1-7.6-1.9-10-6.5
	C1689.9,0.4,1690.3-1.7,1691.2-1.2z"/>
<path class="st0" d="M1690.9,104.4c0,0,7.7,2.9,11.7,12.2c0.4,0.9-0.3,2-1.2,1.8c-5.5-1.3-7.9-2.4-10.4-8.2
	C1689.5,106.5,1689.9,103.8,1690.9,104.4z"/>
<path class="st0" d="M1690.9,84.1c0,0,7.8,2.8,11.9,11.8c0.4,0.9-0.3,1.9-1.2,1.7c-5.6-1.3-8-2.3-10.5-7.9
	C1689.4,86.1,1689.9,83.5,1690.9,84.1z"/>
<path class="st0" d="M1691.8,68.6c0,0,7.2,2.6,11,10.9c0.4,0.8-0.3,1.8-1.1,1.6c-5.1-1.2-7.4-2.2-9.7-7.3
	C1690.5,70.4,1690.9,68,1691.8,68.6z"/>
<path class="st0" d="M1691.7,55.4c0,0,7,2,11,9.4c0.4,0.7-0.2,1.6-1,1.5c-5-0.8-7.2-1.6-9.6-6.2
	C1690.5,57.1,1690.7,54.9,1691.7,55.4z"/>
<path class="st0" d="M1691.3,41.1c0,0,7.9,2.1,12.4,9.9c0.5,0.8-0.3,1.7-1.2,1.6c-5.6-0.8-8.1-1.7-10.8-6.5
	C1689.9,42.9,1690.2,40.6,1691.3,41.1z"/>
<path class="st0" d="M1690.2,257.3L1690.2,257.3c-0.6,0-1.2-0.5-1.2-1.2V-11.6c0-0.6,0.5-1.2,1.2-1.2l0,0c0.6,0,1.2,0.5,1.2,1.2
	v267.8C1691.3,256.8,1690.8,257.3,1690.2,257.3z"/>
<path class="st0" d="M1689.4,254.6c0,0-2.8,6.1-3.1,11.4c0,0.7,0.2,3.3,0.4,3.9c1.2,3.8,2.1,6.3,2.9,6.1c1.5-0.3,3.1-7.6,3.3-10.6
	C1693,262.5,1692.7,256.5,1689.4,254.6z"/>
<path class="st0" d="M1812.3,236.9c0,0-6.5,2.2-10,9.2c-0.3,0.7,0.3,1.5,1,1.3c4.7-1,6.7-1.8,8.8-6.2
	C1813.6,238.4,1813.2,236.4,1812.3,236.9z"/>
<path class="st0" d="M1812.3,250.7c0,0-5.8,1.8-8.8,7.7c-0.3,0.6,0.3,1.2,0.9,1.1c4.1-0.8,6-1.5,7.8-5.2
	C1813.4,252,1813.1,250.3,1812.3,250.7z"/>
<path class="st0" d="M1811.2,263.9c0,0-5.3,2-7.9,7.9c-0.3,0.6,0.3,1.2,0.9,1c3.8-1,5.5-1.8,7-5.4
	C1812.3,265.1,1811.9,263.5,1811.2,263.9z"/>
<path class="st0" d="M1811.9,279.5c0,0-5.2,2.3-7.5,8.2c-0.2,0.6,0.4,1.2,1,1c3.8-1.2,5.4-2,6.8-5.7
	C1813,280.7,1812.6,279.1,1811.9,279.5z"/>
<path class="st0" d="M1811.6,224.4c0,0-6.5,2.2-10,9.2c-0.3,0.7,0.3,1.5,1,1.3c4.7-1,6.7-1.8,8.8-6.2
	C1812.8,226,1812.5,223.9,1811.6,224.4z"/>
<path class="st0" d="M1811.3,216c0,0-5.5,1.7-8.4,7.1c-0.3,0.5,0.2,1.1,0.9,1c3.9-0.8,5.7-1.4,7.4-4.8
	C1812.3,217.2,1812,215.6,1811.3,216z"/>
<path class="st0" d="M1811.9,204.8c0,0-5.9,2-9.1,8.5c-0.3,0.6,0.3,1.4,1,1.2c4.2-0.9,6.1-1.7,8-5.7
	C1813.1,206.3,1812.7,204.4,1811.9,204.8z"/>
<path class="st0" d="M1811.7,194.9c0,0-5.5,1.7-8.4,7.2c-0.3,0.6,0.2,1.2,0.9,1c3.9-0.8,5.7-1.4,7.4-4.9
	C1812.8,196.1,1812.5,194.5,1811.7,194.9z"/>
<path class="st0" d="M1811.7,181.7c0,0-5.7,2.1-8.7,9.1c-0.3,0.7,0.3,1.5,0.9,1.3c4.1-1,5.9-1.8,7.7-6.1
	C1812.8,183.3,1812.5,181.2,1811.7,181.7z"/>
<path class="st0" d="M1812.2,167.7c0,0-5.8,2.1-8.8,8.8c-0.3,0.7,0.3,1.4,0.9,1.3c4.1-0.9,6-1.7,7.8-5.9
	C1813.3,169.2,1812.9,167.2,1812.2,167.7z"/>
<path class="st0" d="M1811.1,155.9c0,0-6.4,2.1-9.9,8.8c-0.3,0.7,0.3,1.4,1,1.3c4.6-0.9,6.6-1.7,8.7-5.9
	C1812.3,157.4,1812,155.4,1811.1,155.9z"/>
<path class="st0" d="M1811.3,145.6c0,0-5.8,1.8-8.8,7.9c-0.3,0.6,0.3,1.3,0.9,1.1c4.1-0.8,6-1.6,7.8-5.3
	C1812.4,147,1812.1,145.2,1811.3,145.6z"/>
<path class="st0" d="M1811.5,134.9c0,0-5.9,1.5-9.2,7.4c-0.3,0.6,0.2,1.3,0.9,1.2c4.2-0.6,6-1.2,8.1-4.9
	C1812.6,136.3,1812.3,134.6,1811.5,134.9z"/>
<path class="st0" d="M1812.9,236.1c0,0,5.1,2.1,7.8,9.1c0.3,0.7-0.2,1.5-0.8,1.3c-3.7-1-5.3-1.8-6.9-6.1
	C1812,237.6,1812.3,235.6,1812.9,236.1z"/>
<path class="st0" d="M1813.3,250.1c0,0,5.2,3,7,9.5c0.2,0.6-0.5,1.2-1.1,0.9c-3.9-1.7-5.5-2.8-6.5-6.8
	C1812,251.1,1812.7,249.5,1813.3,250.1z"/>
<path class="st0" d="M1813.3,263.9c0,0,5.1,2.5,7.2,8.5c0.2,0.6-0.4,1.1-1,0.9c-3.7-1.3-5.3-2.3-6.5-6
	C1812.2,265,1812.7,263.4,1813.3,263.9z"/>
<path class="st0" d="M1814,280.2c0,0,5,2.8,6.7,8.9c0.2,0.6-0.5,1.1-1.1,0.9c-3.6-1.5-5.2-2.6-6.2-6.3
	C1812.7,281.2,1813.4,279.7,1814,280.2z"/>
<path class="st0" d="M1813.4,224.2c0,0,6.2,1.9,9.5,8c0.3,0.6-0.3,1.3-1,1.2c-4.4-0.9-6.4-1.6-8.4-5.4
	C1812.3,225.5,1812.6,223.7,1813.4,224.2z"/>
<path class="st0" d="M1813.1,215.1c0,0,5.5,1.7,8.4,7.1c0.3,0.5-0.2,1.1-0.9,1c-3.9-0.8-5.7-1.4-7.4-4.8
	C1812,216.3,1812.4,214.7,1813.1,215.1z"/>
<path class="st0" d="M1813.2,204.2c0,0,5.9,2,9.1,8.5c0.3,0.6-0.3,1.4-1,1.2c-4.2-0.9-6.1-1.7-8-5.7
	C1812.1,205.6,1812.4,203.7,1813.2,204.2z"/>
<path class="st0" d="M1813.1,194c0,0,5.5,1.7,8.4,7.2c0.3,0.6-0.2,1.2-0.9,1c-3.9-0.8-5.7-1.4-7.4-4.9
	C1812.1,195.2,1812.4,193.6,1813.1,194z"/>
<path class="st0" d="M1811.3,124.5c0,0-5.5,1.7-8.4,7.1c-0.3,0.5,0.2,1.1,0.9,1c3.9-0.8,5.7-1.4,7.4-4.8
	C1812.3,125.7,1812,124.2,1811.3,124.5z"/>
<path class="st0" d="M1811.9,113.4c0,0-5.9,2-9.1,8.5c-0.3,0.6,0.3,1.4,1,1.2c4.2-0.9,6.1-1.7,8-5.7
	C1813.1,114.8,1812.7,112.9,1811.9,113.4z"/>
<path class="st0" d="M1811.7,103.4c0,0-5.5,1.7-8.4,7.2c-0.3,0.6,0.2,1.2,0.9,1c3.9-0.8,5.7-1.4,7.4-4.9
	C1812.8,104.7,1812.5,103,1811.7,103.4z"/>
<path class="st0" d="M1813.1,123.7c0,0,5.5,1.7,8.4,7.1c0.3,0.5-0.2,1.1-0.9,1c-3.9-0.8-5.7-1.4-7.4-4.8
	C1812,124.9,1812.4,123.3,1813.1,123.7z"/>
<path class="st0" d="M1813.2,112.7c0,0,5.9,2,9.1,8.5c0.3,0.6-0.3,1.4-1,1.2c-4.2-0.9-6.1-1.7-8-5.7
	C1812.1,114.1,1812.4,112.2,1813.2,112.7z"/>
<path class="st0" d="M1813.1,102.6c0,0,5.5,1.7,8.4,7.2c0.3,0.6-0.2,1.2-0.9,1c-3.9-0.8-5.7-1.4-7.4-4.9
	C1812.1,103.8,1812.4,102.2,1813.1,102.6z"/>
<path class="st0" d="M1812.9,181.2c0,0,5.7,2.1,8.7,9.1c0.3,0.7-0.3,1.5-0.9,1.3c-4.1-1-5.9-1.8-7.7-6.1
	C1811.8,182.8,1812.2,180.8,1812.9,181.2z"/>
<path class="st0" d="M1812.9,166.1c0,0,5.8,2.1,8.8,8.8c0.3,0.7-0.3,1.4-0.9,1.3c-4.1-0.9-6-1.7-7.8-5.9
	C1811.8,167.6,1812.1,165.6,1812.9,166.1z"/>
<path class="st0" d="M1813.6,154.5c0,0,5.3,1.9,8.2,8.1c0.3,0.6-0.2,1.3-0.9,1.2c-3.8-0.9-5.5-1.6-7.2-5.4
	C1812.6,155.9,1812.9,154.1,1813.6,154.5z"/>
<path class="st0" d="M1813.5,144.7c0,0,5.2,1.5,8.2,7c0.3,0.6-0.2,1.2-0.8,1.1c-3.7-0.6-5.3-1.2-7.2-4.6
	C1812.6,146,1812.8,144.3,1813.5,144.7z"/>
<path class="st0" d="M1813.1,134.1c0,0,5.9,1.5,9.2,7.4c0.3,0.6-0.2,1.3-0.9,1.2c-4.2-0.6-6-1.2-8.1-4.9
	C1812.1,135.4,1812.4,133.7,1813.1,134.1z"/>
<path class="st0" d="M1812.3,295.1L1812.3,295.1c-0.5,0-0.9-0.4-0.9-0.9V94.8c0-0.5,0.4-0.9,0.9-0.9l0,0c0.5,0,0.9,0.4,0.9,0.9
	v199.4C1813.2,294.7,1812.8,295.1,1812.3,295.1z"/>
<path class="st0" d="M1811.7,293.1c0,0-2.1,4.5-2.3,8.5c0,0.5,0.2,2.4,0.3,2.9c0.9,2.8,1.5,4.7,2.1,4.5c1.1-0.2,2.3-5.7,2.5-7.9
	C1814.4,299,1814.2,294.5,1811.7,293.1z"/>
<g>
	<path class="st0" d="M2031.2,235.4c0,0-6.5,2.2-10,9.2c-0.3,0.7,0.3,1.5,1,1.3c4.7-1,6.7-1.8,8.8-6.2
		C2032.4,236.9,2032,234.9,2031.2,235.4z"/>
	<path class="st0" d="M2031.1,249.2c0,0-5.8,1.8-8.8,7.7c-0.3,0.6,0.3,1.2,0.9,1.1c4.1-0.8,6-1.5,7.8-5.2
		C2032.2,250.5,2031.9,248.8,2031.1,249.2z"/>
	<path class="st0" d="M2030.1,262.4c0,0-5.3,2-7.9,7.9c-0.3,0.6,0.3,1.2,0.9,1c3.8-1,5.5-1.8,7-5.4
		C2031.1,263.6,2030.8,262,2030.1,262.4z"/>
	<path class="st0" d="M2030.7,278c0,0-5.2,2.3-7.5,8.2c-0.2,0.6,0.4,1.2,1,1c3.8-1.2,5.4-2,6.8-5.7
		C2031.8,279.2,2031.4,277.6,2030.7,278z"/>
	<path class="st0" d="M2030.4,222.9c0,0-6.5,2.2-10,9.2c-0.3,0.7,0.3,1.5,1,1.3c4.7-1,6.7-1.8,8.8-6.2
		C2031.6,224.5,2031.3,222.4,2030.4,222.9z"/>
	<path class="st0" d="M2030.1,214.5c0,0-5.5,1.7-8.4,7.1c-0.3,0.5,0.2,1.1,0.9,1c3.9-0.8,5.7-1.4,7.4-4.8
		C2031.1,215.7,2030.8,214.1,2030.1,214.5z"/>
	<path class="st0" d="M2030.8,203.3c0,0-5.9,2-9.1,8.5c-0.3,0.6,0.3,1.4,1,1.2c4.2-0.9,6.1-1.7,8-5.7
		C2031.9,204.8,2031.5,202.9,2030.8,203.3z"/>
	<path class="st0" d="M2030.6,193.4c0,0-5.5,1.7-8.4,7.2c-0.3,0.6,0.2,1.2,0.9,1c3.9-0.8,5.7-1.4,7.4-4.9
		C2031.6,194.6,2031.3,193,2030.6,193.4z"/>
	<path class="st0" d="M2030.5,180.2c0,0-5.7,2.1-8.7,9.1c-0.3,0.7,0.3,1.5,0.9,1.3c4.1-1,5.9-1.8,7.7-6.1
		C2031.6,181.8,2031.3,179.7,2030.5,180.2z"/>
	<path class="st0" d="M2031,166.2c0,0-5.8,2.1-8.8,8.8c-0.3,0.7,0.3,1.4,0.9,1.3c4.1-0.9,6-1.7,7.8-5.9
		C2032.1,167.7,2031.8,165.7,2031,166.2z"/>
	<path class="st0" d="M2029.9,154.4c0,0-6.4,2.1-9.9,8.8c-0.3,0.7,0.3,1.4,1,1.3c4.6-0.9,6.6-1.7,8.7-5.9
		C2031.2,155.9,2030.8,153.9,2029.9,154.4z"/>
	<path class="st0" d="M2030.1,144.1c0,0-5.8,1.8-8.8,7.9c-0.3,0.6,0.3,1.3,0.9,1.1c4.1-0.8,6-1.6,7.8-5.3
		C2031.2,145.5,2030.9,143.7,2030.1,144.1z"/>
	<path class="st0" d="M2030.4,133.4c0,0-5.9,1.5-9.2,7.4c-0.3,0.6,0.2,1.3,0.9,1.2c4.2-0.6,6-1.2,8.1-4.9
		C2031.4,134.8,2031.2,133.1,2030.4,133.4z"/>
	<path class="st0" d="M2031.8,234.6c0,0,5.1,2.1,7.8,9.1c0.3,0.7-0.2,1.5-0.8,1.3c-3.7-1-5.3-1.8-6.9-6.1
		C2030.8,236.1,2031.1,234.1,2031.8,234.6z"/>
	<path class="st0" d="M2032.1,248.6c0,0,5.2,3,7,9.5c0.2,0.6-0.5,1.2-1.1,0.9c-3.9-1.7-5.5-2.8-6.5-6.8
		C2030.8,249.6,2031.5,248,2032.1,248.6z"/>
	<path class="st0" d="M2032.2,262.4c0,0,5.1,2.5,7.2,8.5c0.2,0.6-0.4,1.1-1,0.9c-3.7-1.3-5.3-2.3-6.5-6
		C2031,263.5,2031.5,261.9,2032.2,262.4z"/>
	<path class="st0" d="M2032.8,278.7c0,0,5,2.8,6.7,8.9c0.2,0.6-0.5,1.1-1.1,0.9c-3.6-1.5-5.2-2.6-6.2-6.3
		C2031.6,279.7,2032.2,278.2,2032.8,278.7z"/>
	<path class="st0" d="M2032.3,222.7c0,0,6.2,1.9,9.5,8c0.3,0.6-0.3,1.3-1,1.2c-4.4-0.9-6.4-1.6-8.4-5.4
		C2031.1,224,2031.4,222.2,2032.3,222.7z"/>
	<path class="st0" d="M2031.9,213.6c0,0,5.5,1.7,8.4,7.1c0.3,0.5-0.2,1.1-0.9,1c-3.9-0.8-5.7-1.4-7.4-4.8
		C2030.9,214.8,2031.2,213.2,2031.9,213.6z"/>
	<path class="st0" d="M2032,202.7c0,0,5.9,2,9.1,8.5c0.3,0.6-0.3,1.4-1,1.2c-4.2-0.9-6.1-1.7-8-5.7
		C2030.9,204.1,2031.3,202.2,2032,202.7z"/>
	<path class="st0" d="M2032,192.5c0,0,5.5,1.7,8.4,7.2c0.3,0.6-0.2,1.2-0.9,1c-3.9-0.8-5.7-1.4-7.4-4.9
		C2030.9,193.7,2031.2,192.1,2032,192.5z"/>
	<path class="st0" d="M2030.1,123c0,0-5.5,1.7-8.4,7.1c-0.3,0.5,0.2,1.1,0.9,1c3.9-0.8,5.7-1.4,7.4-4.8
		C2031.1,124.2,2030.8,122.7,2030.1,123z"/>
	<path class="st0" d="M2030.8,111.9c0,0-5.9,2-9.1,8.5c-0.3,0.6,0.3,1.4,1,1.2c4.2-0.9,6.1-1.7,8-5.7
		C2031.9,113.3,2031.5,111.4,2030.8,111.9z"/>
	<path class="st0" d="M2030.6,101.9c0,0-5.5,1.7-8.4,7.2c-0.3,0.6,0.2,1.2,0.9,1c3.9-0.8,5.7-1.4,7.4-4.9
		C2031.6,103.2,2031.3,101.5,2030.6,101.9z"/>
	<path class="st0" d="M2031.9,122.2c0,0,5.5,1.7,8.4,7.1c0.3,0.5-0.2,1.1-0.9,1c-3.9-0.8-5.7-1.4-7.4-4.8
		C2030.9,123.4,2031.2,121.8,2031.9,122.2z"/>
	<path class="st0" d="M2032,111.2c0,0,5.9,2,9.1,8.5c0.3,0.6-0.3,1.4-1,1.2c-4.2-0.9-6.1-1.7-8-5.7
		C2030.9,112.6,2031.3,110.7,2032,111.2z"/>
	<path class="st0" d="M2032,101.1c0,0,5.5,1.7,8.4,7.2c0.3,0.6-0.2,1.2-0.9,1c-3.9-0.8-5.7-1.4-7.4-4.9
		C2030.9,102.3,2031.2,100.7,2032,101.1z"/>
	<path class="st0" d="M2031.7,179.7c0,0,5.7,2.1,8.7,9.1c0.3,0.7-0.3,1.5-0.9,1.3c-4.1-1-5.9-1.8-7.7-6.1
		C2030.7,181.3,2031,179.3,2031.7,179.7z"/>
	<path class="st0" d="M2031.7,164.6c0,0,5.8,2.1,8.8,8.8c0.3,0.7-0.3,1.4-0.9,1.3c-4.1-0.9-6-1.7-7.8-5.9
		C2030.6,166.1,2030.9,164.1,2031.7,164.6z"/>
	<path class="st0" d="M2032.4,153c0,0,5.3,1.9,8.2,8.1c0.3,0.6-0.2,1.3-0.9,1.2c-3.8-0.9-5.5-1.6-7.2-5.4
		C2031.4,154.4,2031.7,152.6,2032.4,153z"/>
	<path class="st0" d="M2032.3,143.2c0,0,5.2,1.5,8.2,7c0.3,0.6-0.2,1.2-0.8,1.1c-3.7-0.6-5.3-1.2-7.2-4.6
		C2031.4,144.5,2031.6,142.8,2032.3,143.2z"/>
	<path class="st0" d="M2032,132.6c0,0,5.9,1.5,9.2,7.4c0.3,0.6-0.2,1.3-0.9,1.2c-4.2-0.6-6-1.2-8.1-4.9
		C2031,133.9,2031.2,132.2,2032,132.6z"/>
	<path class="st0" d="M2031.2,293.6L2031.2,293.6c-0.5,0-0.9-0.4-0.9-0.9V93.3c0-0.5,0.4-0.9,0.9-0.9l0,0c0.5,0,0.9,0.4,0.9,0.9
		v199.4C2032,293.2,2031.6,293.6,2031.2,293.6z"/>
	<path class="st0" d="M2030.6,291.6c0,0-2.1,4.5-2.3,8.5c0,0.5,0.2,2.4,0.3,2.9c0.9,2.8,1.5,4.7,2.1,4.5c1.1-0.2,2.3-5.7,2.5-7.9
		C2033.2,297.5,2033,293,2030.6,291.6z"/>
</g>
<g>
	<path class="st0" d="M2263.8,192.7c0,0-6.5,2.2-10,9.2c-0.3,0.7,0.3,1.5,1,1.3c4.7-1,6.7-1.8,8.8-6.2
		C2265.1,194.2,2264.7,192.2,2263.8,192.7z"/>
	<path class="st0" d="M2263.8,206.6c0,0-5.8,1.8-8.8,7.7c-0.3,0.6,0.3,1.2,0.9,1.1c4.1-0.8,6-1.5,7.8-5.2
		C2264.9,207.9,2264.6,206.2,2263.8,206.6z"/>
	<path class="st0" d="M2262.7,219.8c0,0-5.3,2-7.9,7.9c-0.3,0.6,0.3,1.2,0.9,1c3.8-1,5.5-1.8,7-5.4
		C2263.8,221,2263.4,219.3,2262.7,219.8z"/>
	<path class="st0" d="M2263.4,235.4c0,0-5.2,2.3-7.5,8.2c-0.2,0.6,0.4,1.2,1,1c3.8-1.2,5.4-2,6.8-5.7
		C2264.5,236.5,2264,234.9,2263.4,235.4z"/>
	<path class="st0" d="M2263.1,180.3c0,0-6.5,2.2-10,9.2c-0.3,0.7,0.3,1.5,1,1.3c4.7-1,6.7-1.8,8.8-6.2
		C2264.3,181.8,2264,179.8,2263.1,180.3z"/>
	<path class="st0" d="M2262.7,171.8c0,0-5.5,1.7-8.4,7.1c-0.3,0.5,0.2,1.1,0.9,1c3.9-0.8,5.7-1.4,7.4-4.8
		C2263.8,173,2263.5,171.4,2262.7,171.8z"/>
	<path class="st0" d="M2263.4,160.7c0,0-5.9,2-9.1,8.5c-0.3,0.6,0.3,1.4,1,1.2c4.2-0.9,6.1-1.7,8-5.7
		C2264.5,162.1,2264.2,160.2,2263.4,160.7z"/>
	<path class="st0" d="M2263.2,150.7c0,0-5.5,1.7-8.4,7.2c-0.3,0.6,0.2,1.2,0.9,1c3.9-0.8,5.7-1.4,7.4-4.9
		C2264.3,151.9,2264,150.3,2263.2,150.7z"/>
	<path class="st0" d="M2263.2,137.6c0,0-5.7,2.1-8.7,9.1c-0.3,0.7,0.3,1.5,0.9,1.3c4.1-1,5.9-1.8,7.7-6.1
		C2264.3,139.1,2263.9,137.1,2263.2,137.6z"/>
	<path class="st0" d="M2263.7,123.5c0,0-5.8,2.1-8.8,8.8c-0.3,0.7,0.3,1.4,0.9,1.3c4.1-0.9,6-1.7,7.8-5.9
		C2264.8,125,2264.4,123.1,2263.7,123.5z"/>
	<path class="st0" d="M2262.6,111.7c0,0-6.4,2.1-9.9,8.8c-0.3,0.7,0.3,1.4,1,1.3c4.6-0.9,6.6-1.7,8.7-5.9
		C2263.8,113.2,2263.5,111.3,2262.6,111.7z"/>
	<path class="st0" d="M2262.8,101.5c0,0-5.8,1.8-8.8,7.9c-0.3,0.6,0.3,1.3,0.9,1.1c4.1-0.8,6-1.6,7.8-5.3
		C2263.9,102.8,2263.6,101.1,2262.8,101.5z"/>
	<path class="st0" d="M2263,90.8c0,0-5.9,1.5-9.2,7.4c-0.3,0.6,0.2,1.3,0.9,1.2c4.2-0.6,6-1.2,8.1-4.9
		C2264.1,92.1,2263.8,90.4,2263,90.8z"/>
	<path class="st0" d="M2264.4,191.9c0,0,5.1,2.1,7.8,9.1c0.3,0.7-0.2,1.5-0.8,1.3c-3.7-1-5.3-1.8-6.9-6.1
		C2263.5,193.5,2263.7,191.5,2264.4,191.9z"/>
	<path class="st0" d="M2264.8,205.9c0,0,5.2,3,7,9.5c0.2,0.6-0.5,1.2-1.1,0.9c-3.9-1.7-5.5-2.8-6.5-6.8
		C2263.5,206.9,2264.1,205.3,2264.8,205.9z"/>
	<path class="st0" d="M2264.8,219.7c0,0,5.1,2.5,7.2,8.5c0.2,0.6-0.4,1.1-1,0.9c-3.7-1.3-5.3-2.3-6.5-6
		C2263.7,220.8,2264.2,219.2,2264.8,219.7z"/>
	<path class="st0" d="M2265.5,236.1c0,0,5,2.8,6.7,8.9c0.2,0.6-0.5,1.1-1.1,0.9c-3.6-1.5-5.2-2.6-6.2-6.3
		C2264.2,237.1,2264.9,235.5,2265.5,236.1z"/>
	<path class="st0" d="M2264.9,180c0,0,6.2,1.9,9.5,8c0.3,0.6-0.3,1.3-1,1.2c-4.4-0.9-6.4-1.6-8.4-5.4
		C2263.8,181.4,2264.1,179.6,2264.9,180z"/>
	<path class="st0" d="M2264.6,171c0,0,5.5,1.7,8.4,7.1c0.3,0.5-0.2,1.1-0.9,1c-3.9-0.8-5.7-1.4-7.4-4.8
		C2263.5,172.2,2263.8,170.6,2264.6,171z"/>
	<path class="st0" d="M2264.7,160c0,0,5.9,2,9.1,8.5c0.3,0.6-0.3,1.4-1,1.2c-4.2-0.9-6.1-1.7-8-5.7
		C2263.6,161.4,2263.9,159.5,2264.7,160z"/>
	<path class="st0" d="M2264.6,149.9c0,0,5.5,1.7,8.4,7.2c0.3,0.6-0.2,1.2-0.9,1c-3.9-0.8-5.7-1.4-7.4-4.9
		C2263.6,151.1,2263.9,149.5,2264.6,149.9z"/>
	<path class="st0" d="M2262.7,80.4c0,0-5.5,1.7-8.4,7.1c-0.3,0.5,0.2,1.1,0.9,1c3.9-0.8,5.7-1.4,7.4-4.8
		C2263.8,81.6,2263.5,80,2262.7,80.4z"/>
	<path class="st0" d="M2263.4,69.2c0,0-5.9,2-9.1,8.5c-0.3,0.6,0.3,1.4,1,1.2c4.2-0.9,6.1-1.7,8-5.7
		C2264.5,70.6,2264.2,68.8,2263.4,69.2z"/>
	<path class="st0" d="M2263.2,59.3c0,0-5.5,1.7-8.4,7.2c-0.3,0.6,0.2,1.2,0.9,1c3.9-0.8,5.7-1.4,7.4-4.9
		C2264.3,60.5,2264,58.9,2263.2,59.3z"/>
	<path class="st0" d="M2264.6,79.5c0,0,5.5,1.7,8.4,7.1c0.3,0.5-0.2,1.1-0.9,1c-3.9-0.8-5.7-1.4-7.4-4.8
		C2263.5,80.7,2263.8,79.1,2264.6,79.5z"/>
	<path class="st0" d="M2264.7,68.5c0,0,5.9,2,9.1,8.5c0.3,0.6-0.3,1.4-1,1.2c-4.2-0.9-6.1-1.7-8-5.7
		C2263.6,70,2263.9,68.1,2264.7,68.5z"/>
	<path class="st0" d="M2264.6,58.4c0,0,5.5,1.7,8.4,7.2c0.3,0.6-0.2,1.2-0.9,1c-3.9-0.8-5.7-1.4-7.4-4.9
		C2263.6,59.6,2263.9,58,2264.6,58.4z"/>
	<path class="st0" d="M2264.4,137.1c0,0,5.7,2.1,8.7,9.1c0.3,0.7-0.3,1.5-0.9,1.3c-4.1-1-5.9-1.8-7.7-6.1
		C2263.3,138.6,2263.6,136.6,2264.4,137.1z"/>
	<path class="st0" d="M2264.4,121.9c0,0,5.8,2.1,8.8,8.8c0.3,0.7-0.3,1.4-0.9,1.3c-4.1-0.9-6-1.7-7.8-5.9
		C2263.3,123.4,2263.6,121.4,2264.4,121.9z"/>
	<path class="st0" d="M2265.1,110.4c0,0,5.3,1.9,8.2,8.1c0.3,0.6-0.2,1.3-0.9,1.2c-3.8-0.9-5.5-1.6-7.2-5.4
		C2264.1,111.7,2264.4,109.9,2265.1,110.4z"/>
	<path class="st0" d="M2264.9,100.5c0,0,5.2,1.5,8.2,7c0.3,0.6-0.2,1.2-0.8,1.1c-3.7-0.6-5.3-1.2-7.2-4.6
		C2264.1,101.8,2264.3,100.2,2264.9,100.5z"/>
	<path class="st0" d="M2264.6,89.9c0,0,5.9,1.5,9.2,7.4c0.3,0.6-0.2,1.3-0.9,1.2c-4.2-0.6-6-1.2-8.1-4.9
		C2263.6,91.3,2263.9,89.5,2264.6,89.9z"/>
	<path class="st0" d="M2263.8,250.9L2263.8,250.9c-0.5,0-0.9-0.4-0.9-0.9V50.6c0-0.5,0.4-0.9,0.9-0.9l0,0c0.5,0,0.9,0.4,0.9,0.9
		v199.4C2264.7,250.5,2264.3,250.9,2263.8,250.9z"/>
	<path class="st0" d="M2263.2,248.9c0,0-2.1,4.5-2.3,8.5c0,0.5,0.2,2.4,0.3,2.9c0.9,2.8,1.5,4.7,2.1,4.5c1.1-0.2,2.3-5.7,2.5-7.9
		C2265.9,254.8,2265.7,250.3,2263.2,248.9z"/>
</g>
<g>
	<path class="st0" d="M2503.3,235.1c0,0-7.4,2.4-11.3,10.4c-0.4,0.8,0.3,1.7,1.2,1.5c5.3-1.1,7.6-2.1,10-7
		C2504.7,236.8,2504.3,234.5,2503.3,235.1z"/>
	<path class="st0" d="M2503.3,250.8c0,0-6.5,2-10,8.7c-0.3,0.7,0.3,1.4,1,1.3c4.7-0.9,6.8-1.7,8.9-5.9
		C2504.5,252.3,2504.1,250.3,2503.3,250.8z"/>
	<path class="st0" d="M2502.1,265.8c0,0-6,2.3-8.9,8.9c-0.3,0.7,0.3,1.3,1,1.1c4.3-1.1,6.2-2,8-6.1
		C2503.3,267.1,2502.9,265.3,2502.1,265.8z"/>
	<path class="st0" d="M2502.8,283.4c0,0-5.9,2.6-8.5,9.3c-0.3,0.7,0.4,1.3,1.1,1.1c4.3-1.3,6.1-2.3,7.7-6.5
		C2504.1,284.7,2503.6,282.9,2502.8,283.4z"/>
	<path class="st0" d="M2502.5,221c0,0-7.4,2.4-11.3,10.4c-0.4,0.8,0.3,1.7,1.2,1.5c5.3-1.1,7.6-2.1,10-7
		C2503.9,222.7,2503.5,220.4,2502.5,221z"/>
	<path class="st0" d="M2502.1,211.4c0,0-6.2,1.9-9.5,8.1c-0.3,0.6,0.3,1.3,1,1.2c4.5-0.9,6.4-1.6,8.4-5.4
		C2503.3,212.8,2502.9,211,2502.1,211.4z"/>
	<path class="st0" d="M2502.9,198.8c0,0-6.7,2.3-10.3,9.7c-0.4,0.7,0.3,1.6,1.1,1.4c4.8-1,6.9-1.9,9.1-6.5
		C2504.1,200.4,2503.8,198.3,2502.9,198.8z"/>
	<path class="st0" d="M2502.6,187.5c0,0-6.2,1.9-9.5,8.2c-0.3,0.6,0.3,1.3,1,1.2c4.5-0.9,6.4-1.6,8.4-5.5
		C2503.8,188.9,2503.5,187.1,2502.6,187.5z"/>
	<path class="st0" d="M2502.6,172.6c0,0-6.5,2.4-9.9,10.3c-0.3,0.8,0.3,1.7,1,1.5c4.6-1.1,6.7-2.1,8.7-6.9
		C2503.8,174.3,2503.4,172.1,2502.6,172.6z"/>
	<path class="st0" d="M2503.1,156.7c0,0-6.5,2.3-10,9.9c-0.3,0.8,0.3,1.6,1,1.4c4.7-1.1,6.8-2,8.9-6.7
		C2504.4,158.4,2504,156.2,2503.1,156.7z"/>
	<path class="st0" d="M2501.9,143.3c0,0-7.3,2.3-11.2,9.9c-0.4,0.8,0.3,1.6,1.2,1.4c5.2-1.1,7.5-2,9.9-6.7
		C2503.3,145,2502.9,142.8,2501.9,143.3z"/>
	<path class="st0" d="M2502.2,131.7c0,0-6.5,2.1-10,8.9c-0.3,0.7,0.3,1.4,1,1.3c4.7-0.9,6.8-1.8,8.9-6
		C2503.4,133.2,2503,131.2,2502.2,131.7z"/>
	<path class="st0" d="M2502.4,119.6c0,0-6.6,1.7-10.5,8.4c-0.4,0.7,0.2,1.4,1,1.3c4.7-0.7,6.8-1.4,9.2-5.5
		C2503.6,121.1,2503.3,119.1,2502.4,119.6z"/>
	<path class="st0" d="M2504,234.2c0,0,5.8,2.4,8.9,10.3c0.3,0.8-0.3,1.7-0.9,1.5c-4.1-1.1-6-2.1-7.8-6.9
		C2502.9,236,2503.2,233.7,2504,234.2z"/>
	<path class="st0" d="M2504.4,250c0,0,5.9,3.4,7.9,10.7c0.2,0.7-0.6,1.3-1.3,1c-4.4-1.9-6.2-3.2-7.4-7.7
		C2502.9,251.2,2503.7,249.4,2504.4,250z"/>
	<path class="st0" d="M2504.5,265.7c0,0,5.8,2.8,8.1,9.6c0.2,0.7-0.5,1.3-1.1,1.1c-4.2-1.5-6-2.6-7.4-6.8
		C2503.1,266.9,2503.7,265.1,2504.5,265.7z"/>
	<path class="st0" d="M2505.2,284.2c0,0,5.6,3.1,7.6,10.1c0.2,0.7-0.5,1.3-1.2,1c-4.1-1.7-5.9-2.9-7-7.2
		C2503.8,285.4,2504.5,283.6,2505.2,284.2z"/>
	<path class="st0" d="M2504.6,220.7c0,0,7,2.1,10.8,9.1c0.4,0.7-0.3,1.5-1.1,1.3c-5-1-7.3-1.8-9.5-6.1
		C2503.2,222.2,2503.6,220.2,2504.6,220.7z"/>
	<path class="st0" d="M2504.2,210.4c0,0,6.2,1.9,9.5,8.1c0.3,0.6-0.3,1.3-1,1.2c-4.5-0.9-6.4-1.6-8.4-5.4
		C2503,211.8,2503.3,210,2504.2,210.4z"/>
	<path class="st0" d="M2504.3,198c0,0,6.7,2.3,10.3,9.7c0.4,0.7-0.3,1.6-1.1,1.4c-4.8-1-6.9-1.9-9.1-6.5
		C2503.1,199.6,2503.4,197.5,2504.3,198z"/>
	<path class="st0" d="M2504.2,186.5c0,0,6.2,1.9,9.5,8.2c0.3,0.6-0.3,1.3-1,1.2c-4.5-0.9-6.4-1.6-8.4-5.5
		C2503.1,187.9,2503.4,186.1,2504.2,186.5z"/>
	<path class="st0" d="M2502.1,107.8c0,0-6.2,1.9-9.5,8.1c-0.3,0.6,0.3,1.3,1,1.2c4.5-0.9,6.4-1.6,8.4-5.4
		C2503.3,109.2,2502.9,107.4,2502.1,107.8z"/>
	<path class="st0" d="M2502.9,95.1c0,0-6.7,2.3-10.3,9.7c-0.4,0.7,0.3,1.6,1.1,1.4c4.8-1,6.9-1.9,9.1-6.5
		C2504.1,96.8,2503.8,94.6,2502.9,95.1z"/>
	<path class="st0" d="M2502.6,83.9c0,0-6.2,1.9-9.5,8.2c-0.3,0.6,0.3,1.3,1,1.2c4.5-0.9,6.4-1.6,8.4-5.5
		C2503.8,85.3,2503.5,83.4,2502.6,83.9z"/>
	<path class="st0" d="M2504.2,106.8c0,0,6.2,1.9,9.5,8.1c0.3,0.6-0.3,1.3-1,1.2c-4.5-0.9-6.4-1.6-8.4-5.4
		C2503,108.2,2503.3,106.4,2504.2,106.8z"/>
	<path class="st0" d="M2504.3,94.4c0,0,6.7,2.3,10.3,9.7c0.4,0.7-0.3,1.6-1.1,1.4c-4.8-1-6.9-1.9-9.1-6.5
		C2503.1,96,2503.4,93.8,2504.3,94.4z"/>
	<path class="st0" d="M2504.2,82.9c0,0,6.2,1.9,9.5,8.2c0.3,0.6-0.3,1.3-1,1.2c-4.5-0.9-6.4-1.6-8.4-5.5
		C2503.1,84.3,2503.4,82.4,2504.2,82.9z"/>
	<path class="st0" d="M2504,172c0,0,6.5,2.4,9.9,10.3c0.3,0.8-0.3,1.7-1,1.5c-4.6-1.1-6.7-2.1-8.7-6.9
		C2502.7,173.8,2503.1,171.5,2504,172z"/>
	<path class="st0" d="M2503.9,154.9c0,0,6.5,2.3,10,9.9c0.3,0.8-0.3,1.6-1,1.4c-4.7-1.1-6.8-2-8.9-6.7
		C2502.7,156.5,2503.1,154.3,2503.9,154.9z"/>
	<path class="st0" d="M2504.7,141.8c0,0,6,2.2,9.3,9.2c0.3,0.7-0.3,1.5-1,1.3c-4.3-1-6.2-1.8-8.2-6.2
		C2503.6,143.3,2503.9,141.3,2504.7,141.8z"/>
	<path class="st0" d="M2504.6,130.6c0,0,5.9,1.7,9.3,8c0.3,0.6-0.2,1.4-0.9,1.3c-4.2-0.7-6.1-1.4-8.1-5.2
		C2503.6,132.1,2503.8,130.2,2504.6,130.6z"/>
	<path class="st0" d="M2504.2,118.6c0,0,6.6,1.7,10.5,8.4c0.4,0.7-0.2,1.4-1,1.3c-4.7-0.7-6.8-1.4-9.2-5.5
		C2503.1,120.1,2503.3,118.1,2504.2,118.6z"/>
	<path class="st0" d="M2503.3,301.1L2503.3,301.1c-0.5,0-1-0.4-1-1v-226c0-0.5,0.4-1,1-1l0,0c0.5,0,1,0.4,1,1v226
		C2504.3,300.6,2503.9,301.1,2503.3,301.1z"/>
	<path class="st0" d="M2502.6,298.8c0,0-2.4,5.2-2.7,9.6c0,0.6,0.2,2.8,0.4,3.3c1,3.2,1.7,5.3,2.4,5.1c1.3-0.3,2.6-6.4,2.8-9
		C2505.7,305.5,2505.4,300.4,2502.6,298.8z"/>
</g>
<g>
	<path class="st0" d="M2678,233.7c0,0-7.4,2.4-11.3,10.4c-0.4,0.8,0.3,1.7,1.2,1.5c5.3-1.1,7.6-2.1,10-7
		C2679.4,235.5,2679,233.2,2678,233.7z"/>
	<path class="st0" d="M2677.9,249.5c0,0-6.5,2-10,8.7c-0.3,0.7,0.3,1.4,1,1.3c4.7-0.9,6.8-1.7,8.9-5.9
		C2679.2,250.9,2678.8,249,2677.9,249.5z"/>
	<path class="st0" d="M2676.7,264.4c0,0-6,2.3-8.9,8.9c-0.3,0.7,0.3,1.3,1,1.1c4.3-1.1,6.2-2,8-6.1
		C2678,265.8,2677.5,263.9,2676.7,264.4z"/>
	<path class="st0" d="M2677.5,282.1c0,0-5.9,2.6-8.5,9.3c-0.3,0.7,0.4,1.3,1.1,1.1c4.3-1.3,6.1-2.3,7.7-6.5
		C2678.8,283.4,2678.2,281.6,2677.5,282.1z"/>
	<path class="st0" d="M2677.2,219.7c0,0-7.4,2.4-11.3,10.4c-0.4,0.8,0.3,1.7,1.2,1.5c5.3-1.1,7.6-2.1,10-7
		C2678.5,221.4,2678.1,219.1,2677.2,219.7z"/>
	<path class="st0" d="M2676.8,210.1c0,0-6.2,1.9-9.5,8.1c-0.3,0.6,0.3,1.3,1,1.2c4.5-0.9,6.4-1.6,8.4-5.4
		C2677.9,211.5,2677.6,209.7,2676.8,210.1z"/>
	<path class="st0" d="M2677.5,197.4c0,0-6.7,2.3-10.3,9.7c-0.4,0.7,0.3,1.6,1.1,1.4c4.8-1,6.9-1.9,9.1-6.5
		C2678.8,199.1,2678.4,196.9,2677.5,197.4z"/>
	<path class="st0" d="M2677.3,186.2c0,0-6.2,1.9-9.5,8.2c-0.3,0.6,0.3,1.3,1,1.2c4.5-0.9,6.4-1.6,8.4-5.5
		C2678.5,187.6,2678.1,185.7,2677.3,186.2z"/>
	<path class="st0" d="M2677.3,171.3c0,0-6.5,2.4-9.9,10.3c-0.3,0.8,0.3,1.7,1,1.5c4.6-1.1,6.7-2.1,8.7-6.9
		C2678.5,173,2678.1,170.7,2677.3,171.3z"/>
	<path class="st0" d="M2677.8,155.4c0,0-6.5,2.3-10,9.9c-0.3,0.8,0.3,1.6,1,1.4c4.7-1.1,6.8-2,8.9-6.7
		C2679,157,2678.7,154.8,2677.8,155.4z"/>
	<path class="st0" d="M2676.6,142c0,0-7.3,2.3-11.2,9.9c-0.4,0.8,0.3,1.6,1.2,1.4c5.2-1.1,7.5-2,9.9-6.7
		C2678,143.7,2677.6,141.5,2676.6,142z"/>
	<path class="st0" d="M2676.8,130.4c0,0-6.5,2.1-10,8.9c-0.3,0.7,0.3,1.4,1,1.3c4.7-0.9,6.8-1.8,8.9-6
		C2678.1,131.9,2677.7,129.9,2676.8,130.4z"/>
	<path class="st0" d="M2677.1,118.2c0,0-6.6,1.7-10.5,8.4c-0.4,0.7,0.2,1.4,1,1.3c4.7-0.7,6.8-1.4,9.2-5.5
		C2678.2,119.8,2678,117.8,2677.1,118.2z"/>
	<path class="st0" d="M2678.7,232.9c0,0,5.8,2.4,8.9,10.3c0.3,0.8-0.3,1.7-0.9,1.5c-4.1-1.1-6-2.1-7.8-6.9
		C2677.6,234.6,2677.9,232.3,2678.7,232.9z"/>
	<path class="st0" d="M2679.1,248.7c0,0,5.9,3.4,7.9,10.7c0.2,0.7-0.6,1.3-1.3,1c-4.4-1.9-6.2-3.2-7.4-7.7
		C2677.6,249.9,2678.3,248.1,2679.1,248.7z"/>
	<path class="st0" d="M2679.1,264.4c0,0,5.8,2.8,8.1,9.6c0.2,0.7-0.5,1.3-1.1,1.1c-4.2-1.5-6-2.6-7.4-6.8
		C2677.8,265.6,2678.4,263.8,2679.1,264.4z"/>
	<path class="st0" d="M2679.8,282.9c0,0,5.6,3.1,7.6,10.1c0.2,0.7-0.5,1.3-1.2,1c-4.1-1.7-5.9-2.9-7-7.2
		C2678.5,284,2679.1,282.3,2679.8,282.9z"/>
	<path class="st0" d="M2679.2,219.4c0,0,7,2.1,10.8,9.1c0.4,0.7-0.3,1.5-1.1,1.3c-5-1-7.3-1.8-9.5-6.1
		C2677.9,220.9,2678.3,218.9,2679.2,219.4z"/>
	<path class="st0" d="M2678.8,209.1c0,0,6.2,1.9,9.5,8.1c0.3,0.6-0.3,1.3-1,1.2c-4.5-0.9-6.4-1.6-8.4-5.4
		C2677.7,210.5,2678,208.7,2678.8,209.1z"/>
	<path class="st0" d="M2679,196.7c0,0,6.7,2.3,10.3,9.7c0.4,0.7-0.3,1.6-1.1,1.4c-4.8-1-6.9-1.9-9.1-6.5
		C2677.7,198.3,2678.1,196.2,2679,196.7z"/>
	<path class="st0" d="M2678.9,185.2c0,0,6.2,1.9,9.5,8.2c0.3,0.6-0.3,1.3-1,1.2c-4.5-0.9-6.4-1.6-8.4-5.5
		C2677.7,186.6,2678.1,184.8,2678.9,185.2z"/>
	<path class="st0" d="M2676.8,106.5c0,0-6.2,1.9-9.5,8.1c-0.3,0.6,0.3,1.3,1,1.2c4.5-0.9,6.4-1.6,8.4-5.4
		C2677.9,107.8,2677.6,106,2676.8,106.5z"/>
	<path class="st0" d="M2677.5,93.8c0,0-6.7,2.3-10.3,9.7c-0.4,0.7,0.3,1.6,1.1,1.4c4.8-1,6.9-1.9,9.1-6.5
		C2678.8,95.4,2678.4,93.3,2677.5,93.8z"/>
	<path class="st0" d="M2677.3,82.5c0,0-6.2,1.9-9.5,8.2c-0.3,0.6,0.3,1.3,1,1.2c4.5-0.9,6.4-1.6,8.4-5.5
		C2678.5,83.9,2678.1,82.1,2677.3,82.5z"/>
	<path class="st0" d="M2678.8,105.5c0,0,6.2,1.9,9.5,8.1c0.3,0.6-0.3,1.3-1,1.2c-4.5-0.9-6.4-1.6-8.4-5.4
		C2677.7,106.8,2678,105,2678.8,105.5z"/>
	<path class="st0" d="M2679,93c0,0,6.7,2.3,10.3,9.7c0.4,0.7-0.3,1.6-1.1,1.4c-4.8-1-6.9-1.9-9.1-6.5
		C2677.7,94.7,2678.1,92.5,2679,93z"/>
	<path class="st0" d="M2678.9,81.6c0,0,6.2,1.9,9.5,8.2c0.3,0.6-0.3,1.3-1,1.2c-4.5-0.9-6.4-1.6-8.4-5.5
		C2677.7,82.9,2678.1,81.1,2678.9,81.6z"/>
	<path class="st0" d="M2678.6,170.7c0,0,6.5,2.4,9.9,10.3c0.3,0.8-0.3,1.7-1,1.5c-4.6-1.1-6.7-2.1-8.7-6.9
		C2677.4,172.4,2677.8,170.2,2678.6,170.7z"/>
	<path class="st0" d="M2678.6,153.5c0,0,6.5,2.3,10,9.9c0.3,0.8-0.3,1.6-1,1.4c-4.7-1.1-6.8-2-8.9-6.7
		C2677.4,155.2,2677.7,153,2678.6,153.5z"/>
	<path class="st0" d="M2679.4,140.4c0,0,6,2.2,9.3,9.2c0.3,0.7-0.3,1.5-1,1.3c-4.3-1-6.2-1.8-8.2-6.2
		C2678.2,142,2678.6,139.9,2679.4,140.4z"/>
	<path class="st0" d="M2679.3,129.3c0,0,5.9,1.7,9.3,8c0.3,0.6-0.2,1.4-0.9,1.3c-4.2-0.7-6.1-1.4-8.1-5.2
		C2678.2,130.8,2678.5,128.9,2679.3,129.3z"/>
	<path class="st0" d="M2678.9,117.3c0,0,6.6,1.7,10.5,8.4c0.4,0.7-0.2,1.4-1,1.3c-4.7-0.7-6.8-1.4-9.2-5.5
		C2677.8,118.8,2678,116.8,2678.9,117.3z"/>
	<path class="st0" d="M2678,299.7L2678,299.7c-0.5,0-1-0.4-1-1v-226c0-0.5,0.4-1,1-1l0,0c0.5,0,1,0.4,1,1v226
		C2679,299.3,2678.5,299.7,2678,299.7z"/>
	<path class="st0" d="M2677.3,297.5c0,0-2.4,5.2-2.7,9.6c0,0.6,0.2,2.8,0.4,3.3c1,3.2,1.7,5.3,2.4,5.1c1.3-0.3,2.6-6.4,2.8-9
		C2680.3,304.1,2680.1,299,2677.3,297.5z"/>
</g>
<g>
	<path class="st0" d="M2879.3,192.4c0,0-7.4,2.4-11.3,10.4c-0.4,0.8,0.3,1.7,1.2,1.5c5.3-1.1,7.6-2.1,10-7
		C2880.7,194.2,2880.3,191.8,2879.3,192.4z"/>
	<path class="st0" d="M2879.3,208.1c0,0-6.5,2-10,8.7c-0.3,0.7,0.3,1.4,1,1.3c4.7-0.9,6.8-1.7,8.9-5.9
		C2880.5,209.6,2880.1,207.7,2879.3,208.1z"/>
	<path class="st0" d="M2878.1,223.1c0,0-6,2.3-8.9,8.9c-0.3,0.7,0.3,1.3,1,1.1c4.3-1.1,6.2-2,8-6.1
		C2879.3,224.4,2878.9,222.6,2878.1,223.1z"/>
	<path class="st0" d="M2878.8,240.8c0,0-5.9,2.6-8.5,9.3c-0.3,0.7,0.4,1.3,1.1,1.1c4.3-1.3,6.1-2.3,7.7-6.5
		C2880.1,242,2879.6,240.2,2878.8,240.8z"/>
	<path class="st0" d="M2878.5,178.3c0,0-7.4,2.4-11.3,10.4c-0.4,0.8,0.3,1.7,1.2,1.5c5.3-1.1,7.6-2.1,10-7
		C2879.9,180.1,2879.5,177.8,2878.5,178.3z"/>
	<path class="st0" d="M2878.1,168.8c0,0-6.2,1.9-9.5,8.1c-0.3,0.6,0.3,1.3,1,1.2c4.5-0.9,6.4-1.6,8.4-5.4
		C2879.3,170.1,2878.9,168.3,2878.1,168.8z"/>
	<path class="st0" d="M2878.9,156.1c0,0-6.7,2.3-10.3,9.7c-0.4,0.7,0.3,1.6,1.1,1.4c4.8-1,6.9-1.9,9.1-6.5
		C2880.1,157.7,2879.8,155.6,2878.9,156.1z"/>
	<path class="st0" d="M2878.6,144.8c0,0-6.2,1.9-9.5,8.2c-0.3,0.6,0.3,1.3,1,1.2c4.5-0.9,6.4-1.6,8.4-5.5
		C2879.8,146.2,2879.5,144.4,2878.6,144.8z"/>
	<path class="st0" d="M2878.6,129.9c0,0-6.5,2.4-9.9,10.3c-0.3,0.8,0.3,1.7,1,1.5c4.6-1.1,6.7-2.1,8.7-6.9
		C2879.8,131.7,2879.4,129.4,2878.6,129.9z"/>
	<path class="st0" d="M2879.1,114c0,0-6.5,2.3-10,9.9c-0.3,0.8,0.3,1.6,1,1.4c4.7-1.1,6.8-2,8.9-6.7
		C2880.4,115.7,2880,113.5,2879.1,114z"/>
	<path class="st0" d="M2877.9,100.7c0,0-7.3,2.3-11.2,9.9c-0.4,0.8,0.3,1.6,1.2,1.4c5.2-1.1,7.5-2,9.9-6.7
		C2879.3,102.3,2878.9,100.1,2877.9,100.7z"/>
	<path class="st0" d="M2878.2,89c0,0-6.5,2.1-10,8.9c-0.3,0.7,0.3,1.4,1,1.3c4.7-0.9,6.8-1.8,8.9-6C2879.4,90.5,2879,88.6,2878.2,89
		z"/>
	<path class="st0" d="M2878.4,76.9c0,0-6.6,1.7-10.5,8.4c-0.4,0.7,0.2,1.4,1,1.3c4.7-0.7,6.8-1.4,9.2-5.5
		C2879.6,78.5,2879.3,76.5,2878.4,76.9z"/>
	<path class="st0" d="M2880,191.6c0,0,5.8,2.4,8.9,10.3c0.3,0.8-0.3,1.7-0.9,1.5c-4.1-1.1-6-2.1-7.8-6.9
		C2878.9,193.3,2879.2,191,2880,191.6z"/>
	<path class="st0" d="M2880.4,207.4c0,0,5.9,3.4,7.9,10.7c0.2,0.7-0.6,1.3-1.3,1c-4.4-1.9-6.2-3.2-7.4-7.7
		C2878.9,208.5,2879.7,206.7,2880.4,207.4z"/>
	<path class="st0" d="M2880.5,223c0,0,5.8,2.8,8.1,9.6c0.2,0.7-0.5,1.3-1.1,1.1c-4.2-1.5-6-2.6-7.4-6.8
		C2879.1,224.3,2879.7,222.5,2880.5,223z"/>
	<path class="st0" d="M2881.2,241.5c0,0,5.6,3.1,7.6,10.1c0.2,0.7-0.5,1.3-1.2,1c-4.1-1.7-5.9-2.9-7-7.2
		C2879.8,242.7,2880.5,240.9,2881.2,241.5z"/>
	<path class="st0" d="M2880.6,178c0,0,7,2.1,10.8,9.1c0.4,0.7-0.3,1.5-1.1,1.3c-5-1-7.3-1.8-9.5-6.1
		C2879.2,179.6,2879.6,177.5,2880.6,178z"/>
	<path class="st0" d="M2880.2,167.8c0,0,6.2,1.9,9.5,8.1c0.3,0.6-0.3,1.3-1,1.2c-4.5-0.9-6.4-1.6-8.4-5.4
		C2879,169.1,2879.3,167.3,2880.2,167.8z"/>
	<path class="st0" d="M2880.3,155.3c0,0,6.7,2.3,10.3,9.7c0.4,0.7-0.3,1.6-1.1,1.4c-4.8-1-6.9-1.9-9.1-6.5
		C2879.1,157,2879.4,154.8,2880.3,155.3z"/>
	<path class="st0" d="M2880.2,143.9c0,0,6.2,1.9,9.5,8.2c0.3,0.6-0.3,1.3-1,1.2c-4.5-0.9-6.4-1.6-8.4-5.5
		C2879.1,145.2,2879.4,143.4,2880.2,143.9z"/>
	<path class="st0" d="M2878.1,65.1c0,0-6.2,1.9-9.5,8.1c-0.3,0.6,0.3,1.3,1,1.2c4.5-0.9,6.4-1.6,8.4-5.4
		C2879.3,66.5,2878.9,64.7,2878.1,65.1z"/>
	<path class="st0" d="M2878.9,52.5c0,0-6.7,2.3-10.3,9.7c-0.4,0.7,0.3,1.6,1.1,1.4c4.8-1,6.9-1.9,9.1-6.5
		C2880.1,54.1,2879.8,52,2878.9,52.5z"/>
	<path class="st0" d="M2878.6,41.2c0,0-6.2,1.9-9.5,8.2c-0.3,0.6,0.3,1.3,1,1.2c4.5-0.9,6.4-1.6,8.4-5.5
		C2879.8,42.6,2879.5,40.8,2878.6,41.2z"/>
	<path class="st0" d="M2880.2,64.1c0,0,6.2,1.9,9.5,8.1c0.3,0.6-0.3,1.3-1,1.2c-4.5-0.9-6.4-1.6-8.4-5.4
		C2879,65.5,2879.3,63.7,2880.2,64.1z"/>
	<path class="st0" d="M2880.3,51.7c0,0,6.7,2.3,10.3,9.7c0.4,0.7-0.3,1.6-1.1,1.4c-4.8-1-6.9-1.9-9.1-6.5
		C2879.1,53.3,2879.4,51.2,2880.3,51.7z"/>
	<path class="st0" d="M2880.2,40.2c0,0,6.2,1.9,9.5,8.2c0.3,0.6-0.3,1.3-1,1.2c-4.5-0.9-6.4-1.6-8.4-5.5
		C2879.1,41.6,2879.4,39.8,2880.2,40.2z"/>
	<path class="st0" d="M2880,129.4c0,0,6.5,2.4,9.9,10.3c0.3,0.8-0.3,1.7-1,1.5c-4.6-1.1-6.7-2.1-8.7-6.9
		C2878.7,131.1,2879.1,128.8,2880,129.4z"/>
	<path class="st0" d="M2879.9,112.2c0,0,6.5,2.3,10,9.9c0.3,0.8-0.3,1.6-1,1.4c-4.7-1.1-6.8-2-8.9-6.7
		C2878.7,113.9,2879.1,111.7,2879.9,112.2z"/>
	<path class="st0" d="M2880.7,99.1c0,0,6,2.2,9.3,9.2c0.3,0.7-0.3,1.5-1,1.3c-4.3-1-6.2-1.8-8.2-6.2
		C2879.6,100.7,2879.9,98.6,2880.7,99.1z"/>
	<path class="st0" d="M2880.6,88c0,0,5.9,1.7,9.3,8c0.3,0.6-0.2,1.4-0.9,1.3c-4.2-0.7-6.1-1.4-8.1-5.2
		C2879.6,89.4,2879.8,87.6,2880.6,88z"/>
	<path class="st0" d="M2880.2,75.9c0,0,6.6,1.7,10.5,8.4c0.4,0.7-0.2,1.4-1,1.3c-4.7-0.7-6.8-1.4-9.2-5.5
		C2879.1,77.5,2879.3,75.5,2880.2,75.9z"/>
	<path class="st0" d="M2879.3,258.4L2879.3,258.4c-0.5,0-1-0.4-1-1v-226c0-0.5,0.4-1,1-1l0,0c0.5,0,1,0.4,1,1v226
		C2880.3,258,2879.9,258.4,2879.3,258.4z"/>
	<path class="st0" d="M2878.6,256.1c0,0-2.4,5.2-2.7,9.6c0,0.6,0.2,2.8,0.4,3.3c1,3.2,1.7,5.3,2.4,5.1c1.3-0.3,2.6-6.4,2.8-9
		C2881.7,262.8,2881.4,257.7,2878.6,256.1z"/>
</g>
<g>
	<path class="st0" d="M2980,227.1c0,0-7.4,2.4-11.3,10.4c-0.4,0.8,0.3,1.7,1.2,1.5c5.3-1.1,7.6-2.1,10-7
		C2981.4,228.8,2981,226.5,2980,227.1z"/>
	<path class="st0" d="M2979.9,242.8c0,0-6.5,2-10,8.7c-0.3,0.7,0.3,1.4,1,1.3c4.7-0.9,6.8-1.7,8.9-5.9
		C2981.2,244.3,2980.8,242.3,2979.9,242.8z"/>
	<path class="st0" d="M2978.7,257.8c0,0-6,2.3-8.9,8.9c-0.3,0.7,0.3,1.3,1,1.1c4.3-1.1,6.2-2,8-6.1
		C2980,259.1,2979.5,257.3,2978.7,257.8z"/>
	<path class="st0" d="M2979.5,275.4c0,0-5.9,2.6-8.5,9.3c-0.3,0.7,0.4,1.3,1.1,1.1c4.3-1.3,6.1-2.3,7.7-6.5
		C2980.8,276.7,2980.2,274.9,2979.5,275.4z"/>
	<path class="st0" d="M2979.2,213c0,0-7.4,2.4-11.3,10.4c-0.4,0.8,0.3,1.7,1.2,1.5c5.3-1.1,7.6-2.1,10-7
		C2980.5,214.7,2980.1,212.4,2979.2,213z"/>
	<path class="st0" d="M2978.8,203.4c0,0-6.2,1.9-9.5,8.1c-0.3,0.6,0.3,1.3,1,1.2c4.5-0.9,6.4-1.6,8.4-5.4
		C2979.9,204.8,2979.6,203,2978.8,203.4z"/>
	<path class="st0" d="M2979.5,190.8c0,0-6.7,2.3-10.3,9.7c-0.4,0.7,0.3,1.6,1.1,1.4c4.8-1,6.9-1.9,9.1-6.5
		C2980.8,192.4,2980.4,190.3,2979.5,190.8z"/>
	<path class="st0" d="M2979.3,179.5c0,0-6.2,1.9-9.5,8.2c-0.3,0.6,0.3,1.3,1,1.2c4.5-0.9,6.4-1.6,8.4-5.5
		C2980.5,180.9,2980.1,179.1,2979.3,179.5z"/>
	<path class="st0" d="M2979.3,164.6c0,0-6.5,2.4-9.9,10.3c-0.3,0.8,0.3,1.7,1,1.5c4.6-1.1,6.7-2.1,8.7-6.9
		C2980.5,166.3,2980.1,164.1,2979.3,164.6z"/>
	<path class="st0" d="M2979.8,148.7c0,0-6.5,2.3-10,9.9c-0.3,0.8,0.3,1.6,1,1.4c4.7-1.1,6.8-2,8.9-6.7
		C2981,150.4,2980.7,148.2,2979.8,148.7z"/>
	<path class="st0" d="M2978.6,135.3c0,0-7.3,2.3-11.2,9.9c-0.4,0.8,0.3,1.6,1.2,1.4c5.2-1.1,7.5-2,9.9-6.7
		C2980,137,2979.6,134.8,2978.6,135.3z"/>
	<path class="st0" d="M2978.8,123.7c0,0-6.5,2.1-10,8.9c-0.3,0.7,0.3,1.4,1,1.3c4.7-0.9,6.8-1.8,8.9-6
		C2980.1,125.2,2979.7,123.2,2978.8,123.7z"/>
	<path class="st0" d="M2979.1,111.6c0,0-6.6,1.7-10.5,8.4c-0.4,0.7,0.2,1.4,1,1.3c4.7-0.7,6.8-1.4,9.2-5.5
		C2980.2,113.1,2980,111.1,2979.1,111.6z"/>
	<path class="st0" d="M2980.7,226.2c0,0,5.8,2.4,8.9,10.3c0.3,0.8-0.3,1.7-0.9,1.5c-4.1-1.1-6-2.1-7.8-6.9
		C2979.6,228,2979.9,225.7,2980.7,226.2z"/>
	<path class="st0" d="M2981.1,242c0,0,5.9,3.4,7.9,10.7c0.2,0.7-0.6,1.3-1.3,1c-4.4-1.9-6.2-3.2-7.4-7.7
		C2979.6,243.2,2980.3,241.4,2981.1,242z"/>
	<path class="st0" d="M2981.1,257.7c0,0,5.8,2.8,8.1,9.6c0.2,0.7-0.5,1.3-1.1,1.1c-4.2-1.5-6-2.6-7.4-6.8
		C2979.8,258.9,2980.4,257.1,2981.1,257.7z"/>
	<path class="st0" d="M2981.8,276.2c0,0,5.6,3.1,7.6,10.1c0.2,0.7-0.5,1.3-1.2,1c-4.1-1.7-5.9-2.9-7-7.2
		C2980.5,277.4,2981.1,275.6,2981.8,276.2z"/>
	<path class="st0" d="M2981.2,212.7c0,0,7,2.1,10.8,9.1c0.4,0.7-0.3,1.5-1.1,1.3c-5-1-7.3-1.8-9.5-6.1
		C2979.9,214.2,2980.3,212.2,2981.2,212.7z"/>
	<path class="st0" d="M2980.8,202.4c0,0,6.2,1.9,9.5,8.1c0.3,0.6-0.3,1.3-1,1.2c-4.5-0.9-6.4-1.6-8.4-5.4
		C2979.7,203.8,2980,202,2980.8,202.4z"/>
	<path class="st0" d="M2981,190c0,0,6.7,2.3,10.3,9.7c0.4,0.7-0.3,1.6-1.1,1.4c-4.8-1-6.9-1.9-9.1-6.5
		C2979.7,191.6,2980.1,189.5,2981,190z"/>
	<path class="st0" d="M2980.9,178.5c0,0,6.2,1.9,9.5,8.2c0.3,0.6-0.3,1.3-1,1.2c-4.5-0.9-6.4-1.6-8.4-5.5
		C2979.7,179.9,2980.1,178.1,2980.9,178.5z"/>
	<path class="st0" d="M2978.8,99.8c0,0-6.2,1.9-9.5,8.1c-0.3,0.6,0.3,1.3,1,1.2c4.5-0.9,6.4-1.6,8.4-5.4
		C2979.9,101.2,2979.6,99.4,2978.8,99.8z"/>
	<path class="st0" d="M2979.5,87.1c0,0-6.7,2.3-10.3,9.7c-0.4,0.7,0.3,1.6,1.1,1.4c4.8-1,6.9-1.9,9.1-6.5
		C2980.8,88.8,2980.4,86.6,2979.5,87.1z"/>
	<path class="st0" d="M2979.3,75.9c0,0-6.2,1.9-9.5,8.2c-0.3,0.6,0.3,1.3,1,1.2c4.5-0.9,6.4-1.6,8.4-5.5
		C2980.5,77.3,2980.1,75.4,2979.3,75.9z"/>
	<path class="st0" d="M2980.8,98.8c0,0,6.2,1.9,9.5,8.1c0.3,0.6-0.3,1.3-1,1.2c-4.5-0.9-6.4-1.6-8.4-5.4
		C2979.7,100.2,2980,98.4,2980.8,98.8z"/>
	<path class="st0" d="M2981,86.4c0,0,6.7,2.3,10.3,9.7c0.4,0.7-0.3,1.6-1.1,1.4c-4.8-1-6.9-1.9-9.1-6.5
		C2979.7,88,2980.1,85.8,2981,86.4z"/>
	<path class="st0" d="M2980.9,74.9c0,0,6.2,1.9,9.5,8.2c0.3,0.6-0.3,1.3-1,1.2c-4.5-0.9-6.4-1.6-8.4-5.5
		C2979.7,76.3,2980.1,74.4,2980.9,74.9z"/>
	<path class="st0" d="M2980.6,164c0,0,6.5,2.4,9.9,10.3c0.3,0.8-0.3,1.7-1,1.5c-4.6-1.1-6.7-2.1-8.7-6.9
		C2979.4,165.8,2979.8,163.5,2980.6,164z"/>
	<path class="st0" d="M2980.6,146.9c0,0,6.5,2.3,10,9.9c0.3,0.8-0.3,1.6-1,1.4c-4.7-1.1-6.8-2-8.9-6.7
		C2979.4,148.5,2979.7,146.3,2980.6,146.9z"/>
	<path class="st0" d="M2981.4,133.8c0,0,6,2.2,9.3,9.2c0.3,0.7-0.3,1.5-1,1.3c-4.3-1-6.2-1.8-8.2-6.2
		C2980.2,135.3,2980.6,133.3,2981.4,133.8z"/>
	<path class="st0" d="M2981.3,122.6c0,0,5.9,1.7,9.3,8c0.3,0.6-0.2,1.4-0.9,1.3c-4.2-0.7-6.1-1.4-8.1-5.2
		C2980.2,124.1,2980.5,122.2,2981.3,122.6z"/>
	<path class="st0" d="M2980.9,110.6c0,0,6.6,1.7,10.5,8.4c0.4,0.7-0.2,1.4-1,1.3c-4.7-0.7-6.8-1.4-9.2-5.5
		C2979.8,112.1,2980,110.1,2980.9,110.6z"/>
	<path class="st0" d="M2980,293.1L2980,293.1c-0.5,0-1-0.4-1-1v-226c0-0.5,0.4-1,1-1l0,0c0.5,0,1,0.4,1,1v226
		C2981,292.6,2980.5,293.1,2980,293.1z"/>
	<path class="st0" d="M2979.3,290.8c0,0-2.4,5.2-2.7,9.6c0,0.6,0.2,2.8,0.4,3.3c1,3.2,1.7,5.3,2.4,5.1c1.3-0.3,2.6-6.4,2.8-9
		C2982.3,297.5,2982.1,292.4,2979.3,290.8z"/>
</g>
<g>
	<path class="st0" d="M3092.7,199.7c0,0-7.4,2.4-11.3,10.4c-0.4,0.8,0.3,1.7,1.2,1.5c5.3-1.1,7.6-2.1,10-7
		C3094,201.5,3093.6,199.2,3092.7,199.7z"/>
	<path class="st0" d="M3092.6,215.5c0,0-6.5,2-10,8.7c-0.3,0.7,0.3,1.4,1,1.3c4.7-0.9,6.8-1.7,8.9-5.9
		C3093.8,216.9,3093.5,215,3092.6,215.5z"/>
	<path class="st0" d="M3091.4,230.4c0,0-6,2.3-8.9,8.9c-0.3,0.7,0.3,1.3,1,1.1c4.3-1.1,6.2-2,8-6.1
		C3092.6,231.8,3092.2,229.9,3091.4,230.4z"/>
	<path class="st0" d="M3092.1,248.1c0,0-5.9,2.6-8.5,9.3c-0.3,0.7,0.4,1.3,1.1,1.1c4.3-1.3,6.1-2.3,7.7-6.5
		C3093.4,249.4,3092.9,247.6,3092.1,248.1z"/>
	<path class="st0" d="M3091.8,185.7c0,0-7.4,2.4-11.3,10.4c-0.4,0.8,0.3,1.7,1.2,1.5c5.3-1.1,7.6-2.1,10-7
		C3093.2,187.4,3092.8,185.1,3091.8,185.7z"/>
	<path class="st0" d="M3091.4,176.1c0,0-6.2,1.9-9.5,8.1c-0.3,0.6,0.3,1.3,1,1.2c4.5-0.9,6.4-1.6,8.4-5.4
		C3092.6,177.5,3092.2,175.7,3091.4,176.1z"/>
	<path class="st0" d="M3092.2,163.4c0,0-6.7,2.3-10.3,9.7c-0.4,0.7,0.3,1.6,1.1,1.4c4.8-1,6.9-1.9,9.1-6.5
		C3093.5,165.1,3093.1,162.9,3092.2,163.4z"/>
	<path class="st0" d="M3092,152.2c0,0-6.2,1.9-9.5,8.2c-0.3,0.6,0.3,1.3,1,1.2c4.5-0.9,6.4-1.6,8.4-5.5
		C3093.1,153.6,3092.8,151.7,3092,152.2z"/>
	<path class="st0" d="M3091.9,137.3c0,0-6.5,2.4-9.9,10.3c-0.3,0.8,0.3,1.7,1,1.5c4.6-1.1,6.7-2.1,8.7-6.9
		C3093.1,139,3092.8,136.7,3091.9,137.3z"/>
	<path class="st0" d="M3092.5,121.4c0,0-6.5,2.3-10,9.9c-0.3,0.8,0.3,1.6,1,1.4c4.7-1.1,6.8-2,8.9-6.7
		C3093.7,123,3093.3,120.8,3092.5,121.4z"/>
	<path class="st0" d="M3091.3,108c0,0-7.3,2.3-11.2,9.9c-0.4,0.8,0.3,1.6,1.2,1.4c5.2-1.1,7.5-2,9.9-6.7
		C3092.6,109.7,3092.2,107.5,3091.3,108z"/>
	<path class="st0" d="M3091.5,96.4c0,0-6.5,2.1-10,8.9c-0.3,0.7,0.3,1.4,1,1.3c4.7-0.9,6.8-1.8,8.9-6
		C3092.7,97.9,3092.4,95.9,3091.5,96.4z"/>
	<path class="st0" d="M3091.8,84.2c0,0-6.6,1.7-10.5,8.4c-0.4,0.7,0.2,1.4,1,1.3c4.7-0.7,6.8-1.4,9.2-5.5
		C3092.9,85.8,3092.6,83.8,3091.8,84.2z"/>
	<path class="st0" d="M3093.3,198.9c0,0,5.8,2.4,8.9,10.3c0.3,0.8-0.3,1.7-0.9,1.5c-4.1-1.1-6-2.1-7.8-6.9
		C3092.2,200.6,3092.6,198.3,3093.3,198.9z"/>
	<path class="st0" d="M3093.8,214.7c0,0,5.9,3.4,7.9,10.7c0.2,0.7-0.6,1.3-1.3,1c-4.4-1.9-6.2-3.2-7.4-7.7
		C3092.2,215.9,3093,214.1,3093.8,214.7z"/>
	<path class="st0" d="M3093.8,230.4c0,0,5.8,2.8,8.1,9.6c0.2,0.7-0.5,1.3-1.1,1.1c-4.2-1.5-6-2.6-7.4-6.8
		C3092.5,231.6,3093.1,229.8,3093.8,230.4z"/>
	<path class="st0" d="M3094.5,248.9c0,0,5.6,3.1,7.6,10.1c0.2,0.7-0.5,1.3-1.2,1c-4.1-1.7-5.9-2.9-7-7.2
		C3093.1,250,3093.8,248.3,3094.5,248.9z"/>
	<path class="st0" d="M3093.9,185.4c0,0,7,2.1,10.8,9.1c0.4,0.7-0.3,1.5-1.1,1.3c-5-1-7.3-1.8-9.5-6.1
		C3092.6,186.9,3093,184.9,3093.9,185.4z"/>
	<path class="st0" d="M3093.5,175.1c0,0,6.2,1.9,9.5,8.1c0.3,0.6-0.3,1.3-1,1.2c-4.5-0.9-6.4-1.6-8.4-5.4
		C3092.3,176.5,3092.7,174.7,3093.5,175.1z"/>
	<path class="st0" d="M3093.6,162.7c0,0,6.7,2.3,10.3,9.7c0.4,0.7-0.3,1.6-1.1,1.4c-4.8-1-6.9-1.9-9.1-6.5
		C3092.4,164.3,3092.8,162.2,3093.6,162.7z"/>
	<path class="st0" d="M3093.6,151.2c0,0,6.2,1.9,9.5,8.2c0.3,0.6-0.3,1.3-1,1.2c-4.5-0.9-6.4-1.6-8.4-5.5
		C3092.4,152.6,3092.7,150.8,3093.6,151.2z"/>
	<path class="st0" d="M3091.4,72.5c0,0-6.2,1.9-9.5,8.1c-0.3,0.6,0.3,1.3,1,1.2c4.5-0.9,6.4-1.6,8.4-5.4
		C3092.6,73.8,3092.2,72,3091.4,72.5z"/>
	<path class="st0" d="M3092.2,59.8c0,0-6.7,2.3-10.3,9.7c-0.4,0.7,0.3,1.6,1.1,1.4c4.8-1,6.9-1.9,9.1-6.5
		C3093.5,61.4,3093.1,59.3,3092.2,59.8z"/>
	<path class="st0" d="M3092,48.5c0,0-6.2,1.9-9.5,8.2c-0.3,0.6,0.3,1.3,1,1.2c4.5-0.9,6.4-1.6,8.4-5.5
		C3093.1,49.9,3092.8,48.1,3092,48.5z"/>
	<path class="st0" d="M3093.5,71.5c0,0,6.2,1.9,9.5,8.1c0.3,0.6-0.3,1.3-1,1.2c-4.5-0.9-6.4-1.6-8.4-5.4
		C3092.3,72.8,3092.7,71,3093.5,71.5z"/>
	<path class="st0" d="M3093.6,59c0,0,6.7,2.3,10.3,9.7c0.4,0.7-0.3,1.6-1.1,1.4c-4.8-1-6.9-1.9-9.1-6.5
		C3092.4,60.7,3092.8,58.5,3093.6,59z"/>
	<path class="st0" d="M3093.6,47.6c0,0,6.2,1.9,9.5,8.2c0.3,0.6-0.3,1.3-1,1.2c-4.5-0.9-6.4-1.6-8.4-5.5
		C3092.4,48.9,3092.7,47.1,3093.6,47.6z"/>
	<path class="st0" d="M3093.3,136.7c0,0,6.5,2.4,9.9,10.3c0.3,0.8-0.3,1.7-1,1.5c-4.6-1.1-6.7-2.1-8.7-6.9
		C3092.1,138.4,3092.4,136.2,3093.3,136.7z"/>
	<path class="st0" d="M3093.3,119.5c0,0,6.5,2.3,10,9.9c0.3,0.8-0.3,1.6-1,1.4c-4.7-1.1-6.8-2-8.9-6.7
		C3092,121.2,3092.4,119,3093.3,119.5z"/>
	<path class="st0" d="M3094,106.4c0,0,6,2.2,9.3,9.2c0.3,0.7-0.3,1.5-1,1.3c-4.3-1-6.2-1.8-8.2-6.2
		C3092.9,108,3093.2,105.9,3094,106.4z"/>
	<path class="st0" d="M3093.9,95.3c0,0,5.9,1.7,9.3,8c0.3,0.6-0.2,1.4-0.9,1.3c-4.2-0.7-6.1-1.4-8.1-5.2
		C3092.9,96.8,3093.1,94.9,3093.9,95.3z"/>
	<path class="st0" d="M3093.6,83.3c0,0,6.6,1.7,10.5,8.4c0.4,0.7-0.2,1.4-1,1.3c-4.7-0.7-6.8-1.4-9.2-5.5
		C3092.4,84.8,3092.7,82.8,3093.6,83.3z"/>
	<path class="st0" d="M3092.7,265.7L3092.7,265.7c-0.5,0-1-0.4-1-1v-226c0-0.5,0.4-1,1-1l0,0c0.5,0,1,0.4,1,1v226
		C3093.6,265.3,3093.2,265.7,3092.7,265.7z"/>
	<path class="st0" d="M3092,263.5c0,0-2.4,5.2-2.7,9.6c0,0.6,0.2,2.8,0.4,3.3c1,3.2,1.7,5.3,2.4,5.1c1.3-0.3,2.6-6.4,2.8-9
		C3095,270.1,3094.8,265,3092,263.5z"/>
</g>
</svg>
